<svg width="99" height="56" viewBox="0 0 99 56" fill="none" xmlns="http://www.w3.org/2000/svg">
<rect x="1" y="1" width="97" height="54" rx="7" fill="#56BA50" stroke="#56BA50" stroke-width="2"/>
<rect x="34.3887" y="12" width="30.2222" height="18" rx="4" stroke="white" stroke-width="2"/>
<path d="M33.3887 16.5555H65.6109M65.6109 21H33.3887" stroke="white" stroke-width="2"/>
<path d="M31.3573 47.21C30.3493 47.21 29.4859 46.9907 28.7673 46.552C28.0486 46.1087 27.4956 45.4927 27.1083 44.704C26.7256 43.9153 26.5343 43.0007 26.5343 41.96C26.5343 40.9193 26.7256 40.0047 27.1083 39.216C27.4956 38.4273 28.0486 37.8137 28.7673 37.375C29.4859 36.9317 30.3493 36.71 31.3573 36.71C32.5193 36.71 33.4876 37.0017 34.2623 37.585C35.0369 38.1637 35.5806 38.9453 35.8933 39.93L34.1923 40.399C33.9963 39.741 33.6626 39.2277 33.1913 38.859C32.7199 38.4857 32.1086 38.299 31.3573 38.299C30.6806 38.299 30.1159 38.4507 29.6633 38.754C29.2153 39.0573 28.8769 39.4843 28.6483 40.035C28.4243 40.581 28.3099 41.2227 28.3053 41.96C28.3053 42.6973 28.4173 43.3413 28.6413 43.892C28.8699 44.438 29.2106 44.8627 29.6633 45.166C30.1159 45.4693 30.6806 45.621 31.3573 45.621C32.1086 45.621 32.7199 45.4343 33.1913 45.061C33.6626 44.6877 33.9963 44.1743 34.1923 43.521L35.8933 43.99C35.5806 44.9747 35.0369 45.7587 34.2623 46.342C33.4876 46.9207 32.5193 47.21 31.3573 47.21ZM39.5442 47.21C38.9982 47.21 38.5362 47.1073 38.1582 46.902C37.7802 46.692 37.4932 46.4143 37.2972 46.069C37.1059 45.7237 37.0102 45.3433 37.0102 44.928C37.0102 44.564 37.0709 44.2373 37.1922 43.948C37.3135 43.654 37.5002 43.402 37.7522 43.192C38.0042 42.9773 38.3309 42.8023 38.7322 42.667C39.0355 42.569 39.3902 42.4803 39.7962 42.401C40.2069 42.3217 40.6502 42.2493 41.1262 42.184C41.6069 42.114 42.1085 42.0393 42.6312 41.96L42.0292 42.303C42.0339 41.7803 41.9172 41.3953 41.6792 41.148C41.4412 40.9007 41.0399 40.777 40.4752 40.777C40.1345 40.777 39.8055 40.8563 39.4882 41.015C39.1709 41.1737 38.9492 41.4467 38.8232 41.834L37.2832 41.351C37.4699 40.7117 37.8245 40.1983 38.3472 39.811C38.8745 39.4237 39.5839 39.23 40.4752 39.23C41.1472 39.23 41.7375 39.3397 42.2462 39.559C42.7595 39.7783 43.1399 40.1377 43.3872 40.637C43.5225 40.903 43.6042 41.176 43.6322 41.456C43.6602 41.7313 43.6742 42.0323 43.6742 42.359V47H42.1972V45.362L42.4422 45.628C42.1015 46.174 41.7025 46.5753 41.2452 46.832C40.7925 47.084 40.2255 47.21 39.5442 47.21ZM39.8802 45.866C40.2629 45.866 40.5895 45.7983 40.8602 45.663C41.1309 45.5277 41.3455 45.362 41.5042 45.166C41.6675 44.97 41.7772 44.7857 41.8332 44.613C41.9219 44.3983 41.9709 44.1533 41.9802 43.878C41.9942 43.598 42.0012 43.3717 42.0012 43.199L42.5192 43.353C42.0105 43.4323 41.5742 43.5023 41.2102 43.563C40.8462 43.6237 40.5335 43.682 40.2722 43.738C40.0109 43.7893 39.7799 43.8477 39.5792 43.913C39.3832 43.983 39.2175 44.0647 39.0822 44.158C38.9469 44.2513 38.8419 44.3587 38.7672 44.48C38.6972 44.6013 38.6622 44.7437 38.6622 44.907C38.6622 45.0937 38.7089 45.2593 38.8022 45.404C38.8955 45.544 39.0309 45.656 39.2082 45.74C39.3902 45.824 39.6142 45.866 39.8802 45.866ZM45.4966 47V39.44H46.9876V41.281L46.8056 41.043C46.8989 40.791 47.0226 40.5623 47.1766 40.357C47.3353 40.147 47.5243 39.9743 47.7436 39.839C47.9303 39.713 48.1356 39.615 48.3596 39.545C48.5883 39.4703 48.8216 39.426 49.0596 39.412C49.2976 39.3933 49.5286 39.4027 49.7526 39.44V41.015C49.5286 40.9497 49.2696 40.9287 48.9756 40.952C48.6863 40.9753 48.4249 41.057 48.1916 41.197C47.9583 41.323 47.7669 41.484 47.6176 41.68C47.4729 41.876 47.3656 42.1 47.2956 42.352C47.2256 42.5993 47.1906 42.8677 47.1906 43.157V47H45.4966ZM55.5194 47C55.0201 47.0933 54.5301 47.133 54.0494 47.119C53.5734 47.1097 53.1464 47.0233 52.7684 46.86C52.3904 46.692 52.1034 46.4283 51.9074 46.069C51.7347 45.7423 51.6437 45.4087 51.6344 45.068C51.6251 44.7273 51.6204 44.3423 51.6204 43.913V37.34H53.3004V43.815C53.3004 44.1183 53.3027 44.3843 53.3074 44.613C53.3167 44.8417 53.3657 45.0283 53.4544 45.173C53.6224 45.453 53.8907 45.6093 54.2594 45.642C54.6281 45.6747 55.0481 45.656 55.5194 45.586V47ZM50.2484 40.763V39.44H55.5194V40.763H50.2484ZM61.59 38.32C61.3707 38.32 61.1584 38.271 60.953 38.173C60.7524 38.075 60.5587 37.963 60.372 37.837C60.19 37.7063 60.0174 37.592 59.854 37.494C59.6907 37.396 59.5414 37.347 59.406 37.347C59.2567 37.347 59.154 37.424 59.098 37.578C59.0467 37.7273 59.0514 37.9117 59.112 38.131H58.048C57.9127 37.571 57.9454 37.0973 58.146 36.71C58.3467 36.318 58.7177 36.122 59.259 36.122C59.4784 36.122 59.6884 36.171 59.889 36.269C60.0944 36.367 60.2904 36.4813 60.477 36.612C60.6637 36.738 60.8364 36.85 60.995 36.948C61.1584 37.046 61.3077 37.095 61.443 37.095C61.5924 37.095 61.695 37.0203 61.751 36.871C61.807 36.717 61.8047 36.528 61.744 36.304H62.808C62.9434 36.8593 62.9107 37.3353 62.71 37.732C62.5094 38.124 62.136 38.32 61.59 38.32ZM59.259 47.21C58.713 47.21 58.251 47.1073 57.873 46.902C57.495 46.692 57.208 46.4143 57.012 46.069C56.8207 45.7237 56.725 45.3433 56.725 44.928C56.725 44.564 56.7857 44.2373 56.907 43.948C57.0284 43.654 57.215 43.402 57.467 43.192C57.719 42.9773 58.0457 42.8023 58.447 42.667C58.7504 42.569 59.105 42.4803 59.511 42.401C59.9217 42.3217 60.365 42.2493 60.841 42.184C61.3217 42.114 61.8234 42.0393 62.346 41.96L61.744 42.303C61.7487 41.7803 61.632 41.3953 61.394 41.148C61.156 40.9007 60.7547 40.777 60.19 40.777C59.8494 40.777 59.5204 40.8563 59.203 41.015C58.8857 41.1737 58.664 41.4467 58.538 41.834L56.998 41.351C57.1847 40.7117 57.5394 40.1983 58.062 39.811C58.5894 39.4237 59.2987 39.23 60.19 39.23C60.862 39.23 61.4524 39.3397 61.961 39.559C62.4744 39.7783 62.8547 40.1377 63.102 40.637C63.2374 40.903 63.319 41.176 63.347 41.456C63.375 41.7313 63.389 42.0323 63.389 42.359V47H61.912V45.362L62.157 45.628C61.8164 46.174 61.4174 46.5753 60.96 46.832C60.5074 47.084 59.9404 47.21 59.259 47.21ZM59.595 45.866C59.9777 45.866 60.3044 45.7983 60.575 45.663C60.8457 45.5277 61.0604 45.362 61.219 45.166C61.3824 44.97 61.492 44.7857 61.548 44.613C61.6367 44.3983 61.6857 44.1533 61.695 43.878C61.709 43.598 61.716 43.3717 61.716 43.199L62.234 43.353C61.7254 43.4323 61.289 43.5023 60.925 43.563C60.561 43.6237 60.2484 43.682 59.987 43.738C59.7257 43.7893 59.4947 43.8477 59.294 43.913C59.098 43.983 58.9324 44.0647 58.797 44.158C58.6617 44.2513 58.5567 44.3587 58.482 44.48C58.412 44.6013 58.377 44.7437 58.377 44.907C58.377 45.0937 58.4237 45.2593 58.517 45.404C58.6104 45.544 58.7457 45.656 58.923 45.74C59.105 45.824 59.329 45.866 59.595 45.866ZM68.5504 47.21C67.7944 47.21 67.1341 47.0397 66.5694 46.699C66.0048 46.3583 65.5661 45.8893 65.2534 45.292C64.9454 44.69 64.7914 43.9993 64.7914 43.22C64.7914 42.4267 64.9501 41.7313 65.2674 41.134C65.5848 40.5367 66.0258 40.07 66.5904 39.734C67.1551 39.398 67.8084 39.23 68.5504 39.23C69.3111 39.23 69.9738 39.4003 70.5384 39.741C71.1031 40.0817 71.5418 40.553 71.8544 41.155C72.1671 41.7523 72.3234 42.4407 72.3234 43.22C72.3234 44.004 72.1648 44.697 71.8474 45.299C71.5348 45.8963 71.0961 46.3653 70.5314 46.706C69.9668 47.042 69.3064 47.21 68.5504 47.21ZM68.5504 45.628C69.2224 45.628 69.7218 45.404 70.0484 44.956C70.3751 44.508 70.5384 43.9293 70.5384 43.22C70.5384 42.4873 70.3728 41.904 70.0414 41.47C69.7101 41.0313 69.2131 40.812 68.5504 40.812C68.0978 40.812 67.7244 40.9147 67.4304 41.12C67.1411 41.3207 66.9264 41.603 66.7864 41.967C66.6464 42.3263 66.5764 42.744 66.5764 43.22C66.5764 43.9527 66.7421 44.5383 67.0734 44.977C67.4094 45.411 67.9018 45.628 68.5504 45.628Z" fill="white"/>
</svg>
