<svg width="124" height="163" viewBox="0 0 124 163" fill="none" xmlns="http://www.w3.org/2000/svg">
<g filter="url(#filter0_d_0_1)">
<rect x="24" y="16" width="76" height="115" rx="8" fill="white"/>
</g>
<path d="M45.0669 119.24C43.9203 119.24 42.9469 118.987 42.1469 118.48C41.3469 117.973 40.7363 117.269 40.3149 116.368C39.8989 115.467 39.6909 114.424 39.6909 113.24C39.6909 112.056 39.8989 111.013 40.3149 110.112C40.7363 109.211 41.3469 108.507 42.1469 108C42.9469 107.493 43.9203 107.24 45.0669 107.24C46.4003 107.24 47.4963 107.579 48.3549 108.256C49.2189 108.933 49.8136 109.845 50.1389 110.992L48.6909 111.376C48.4563 110.517 48.0376 109.84 47.4349 109.344C46.8323 108.848 46.0429 108.6 45.0669 108.6C44.2083 108.6 43.4936 108.795 42.9229 109.184C42.3523 109.573 41.9229 110.117 41.6349 110.816C41.3469 111.509 41.2003 112.317 41.1949 113.24C41.1896 114.157 41.3309 114.965 41.6189 115.664C41.9069 116.357 42.3389 116.901 42.9149 117.296C43.4909 117.685 44.2083 117.88 45.0669 117.88C46.0429 117.88 46.8323 117.632 47.4349 117.136C48.0376 116.635 48.4563 115.957 48.6909 115.104L50.1389 115.488C49.8136 116.629 49.2189 117.541 48.3549 118.224C47.4963 118.901 46.4003 119.24 45.0669 119.24ZM54.3494 119.24C53.7041 119.24 53.1628 119.123 52.7254 118.888C52.2934 118.648 51.9654 118.333 51.7414 117.944C51.5228 117.555 51.4134 117.128 51.4134 116.664C51.4134 116.211 51.4988 115.819 51.6694 115.488C51.8454 115.152 52.0908 114.875 52.4054 114.656C52.7201 114.432 53.0961 114.256 53.5334 114.128C53.9441 114.016 54.4028 113.92 54.9094 113.84C55.4214 113.755 55.9388 113.677 56.4614 113.608C56.9841 113.539 57.4721 113.472 57.9254 113.408L57.4134 113.704C57.4294 112.936 57.2748 112.368 56.9494 112C56.6294 111.632 56.0748 111.448 55.2854 111.448C54.7628 111.448 54.3041 111.568 53.9094 111.808C53.5201 112.043 53.2454 112.427 53.0854 112.96L51.7334 112.552C51.9414 111.795 52.3441 111.2 52.9414 110.768C53.5388 110.336 54.3254 110.12 55.3014 110.12C56.0854 110.12 56.7574 110.261 57.3174 110.544C57.8828 110.821 58.2881 111.243 58.5334 111.808C58.6561 112.075 58.7334 112.365 58.7654 112.68C58.7974 112.989 58.8134 113.315 58.8134 113.656V119H57.5494V116.928L57.8454 117.12C57.5201 117.819 57.0641 118.347 56.4774 118.704C55.8961 119.061 55.1868 119.24 54.3494 119.24ZM54.5654 118.048C55.0774 118.048 55.5201 117.957 55.8934 117.776C56.2721 117.589 56.5761 117.347 56.8054 117.048C57.0348 116.744 57.1841 116.413 57.2534 116.056C57.3334 115.789 57.3761 115.493 57.3814 115.168C57.3921 114.837 57.3974 114.584 57.3974 114.408L57.8934 114.624C57.4294 114.688 56.9734 114.749 56.5254 114.808C56.0774 114.867 55.6534 114.931 55.2534 115C54.8534 115.064 54.4934 115.141 54.1734 115.232C53.9388 115.307 53.7174 115.403 53.5094 115.52C53.3068 115.637 53.1414 115.789 53.0134 115.976C52.8908 116.157 52.8294 116.384 52.8294 116.656C52.8294 116.891 52.8881 117.115 53.0054 117.328C53.1281 117.541 53.3148 117.715 53.5654 117.848C53.8214 117.981 54.1548 118.048 54.5654 118.048ZM60.8934 119V110.36H62.1654V112.448L61.9574 112.176C62.0588 111.909 62.1894 111.664 62.3494 111.44C62.5148 111.216 62.6988 111.032 62.9014 110.888C63.1254 110.707 63.3788 110.568 63.6614 110.472C63.9441 110.376 64.2321 110.32 64.5254 110.304C64.8188 110.283 65.0934 110.301 65.3494 110.36V111.696C65.0508 111.616 64.7228 111.595 64.3654 111.632C64.0081 111.669 63.6774 111.8 63.3734 112.024C63.0961 112.221 62.8801 112.461 62.7254 112.744C62.5761 113.027 62.4721 113.333 62.4134 113.664C62.3548 113.989 62.3254 114.323 62.3254 114.664V119H60.8934ZM73.0142 119V114.672C73.0142 114.261 72.9769 113.867 72.9022 113.488C72.8329 113.109 72.7075 112.771 72.5262 112.472C72.3502 112.168 72.1102 111.928 71.8062 111.752C71.5075 111.576 71.1289 111.488 70.6702 111.488C70.3129 111.488 69.9875 111.549 69.6942 111.672C69.4062 111.789 69.1582 111.971 68.9502 112.216C68.7422 112.461 68.5795 112.771 68.4622 113.144C68.3502 113.512 68.2942 113.947 68.2942 114.448L67.3582 114.16C67.3582 113.323 67.5075 112.605 67.8062 112.008C68.1102 111.405 68.5342 110.944 69.0782 110.624C69.6275 110.299 70.2729 110.136 71.0142 110.136C71.5742 110.136 72.0515 110.224 72.4462 110.4C72.8409 110.576 73.1689 110.811 73.4302 111.104C73.6915 111.392 73.8969 111.717 74.0462 112.08C74.1955 112.437 74.2995 112.803 74.3582 113.176C74.4222 113.544 74.4542 113.893 74.4542 114.224V119H73.0142ZM66.8542 119V110.36H68.1342V112.672H68.2942V119H66.8542ZM80.1999 119.24C79.3519 119.24 78.6106 119.053 77.9759 118.68C77.3466 118.301 76.8559 117.776 76.5039 117.104C76.1519 116.427 75.9759 115.637 75.9759 114.736C75.9759 113.792 76.1493 112.976 76.4959 112.288C76.8426 111.595 77.3253 111.061 77.9439 110.688C78.5679 110.309 79.2986 110.12 80.1359 110.12C81.0053 110.12 81.7439 110.32 82.3519 110.72C82.9653 111.12 83.4239 111.691 83.7279 112.432C84.0373 113.173 84.1706 114.056 84.1279 115.08H82.6879V114.568C82.6719 113.507 82.4559 112.715 82.0399 112.192C81.6239 111.664 81.0053 111.4 80.1839 111.4C79.3039 111.4 78.6346 111.683 78.1759 112.248C77.7173 112.813 77.4879 113.624 77.4879 114.68C77.4879 115.699 77.7173 116.488 78.1759 117.048C78.6346 117.608 79.2879 117.888 80.1359 117.888C80.7066 117.888 81.2026 117.757 81.6239 117.496C82.0453 117.235 82.3759 116.859 82.6159 116.368L83.9839 116.84C83.6479 117.603 83.1413 118.195 82.4639 118.616C81.7919 119.032 81.0373 119.24 80.1999 119.24ZM77.0079 115.08V113.936H83.3919V115.08H77.0079Z" fill="#125C40"/>
<path d="M37.0611 52.8764C36.3763 54.1484 34.6673 57.4424 35.4696 61.5876C36.3469 66.1307 39.6278 68.6484 40.4954 69.2909C46.069 73.4361 53.0256 71.6163 54.229 71.3032C57.4186 70.4683 60.905 67.3895 67.8811 61.2516C76.5759 53.5939 77.0684 51.5588 80.7766 50.1989C81.4288 49.9542 83.2422 49.3509 84.2108 47.6843C84.6702 46.863 84.9043 45.9347 84.8894 44.9937C84.8745 44.0527 84.6112 43.1323 84.126 42.3259C83.3302 41.0768 82.0811 40.4865 80.7766 40.0658C76.9118 38.8134 73.3472 39.2993 69.3031 39.981C64.4436 40.7996 60.7061 41.6117 56.6587 42.4922C48.6488 44.2729 47.7487 44.6121 46.8746 45.0067C43.9785 46.2754 39.5789 48.2159 37.0611 52.8764Z" stroke="#125C40" stroke-width="2" stroke-miterlimit="10"/>
<path d="M30.2775 57.651C30.0395 59.0991 29.2991 63.9324 31.9539 68.7071C36.7089 77.2943 47.8889 77.5748 48.701 77.5845C56.7468 77.6596 62.7249 72.7642 65.6178 70.3802C69.5314 67.1645 69.4042 65.7131 74.6648 61.6723C77.9262 59.1643 82.4921 56.2421 83.7086 55.4757C88.7083 52.2828 90.7662 51.3175 91.7479 48.7736C92.9187 45.7405 91.7479 42.8248 91.5815 42.4106C89.4258 37.1925 82.6356 35.8879 80.0232 35.3759C75.7834 34.554 72.9069 35.115 64.2806 36.7163C61.1758 37.2903 55.3183 38.3731 47.3638 39.8146C46.4702 40.1277 32.3094 45.3394 30.2775 57.651Z" stroke="#125C40" stroke-width="2" stroke-miterlimit="10"/>
<path d="M44.0112 58.4044C44.0112 60.4167 46.4312 60.6678 49.4153 60.6678C52.3995 60.6678 54.9075 57.6413 54.8162 55.629C54.6727 52.4655 50.9645 51.8719 47.3639 53.7146C44.7026 55.0648 44.0112 56.3921 44.0112 58.4044Z" stroke="#125C40" stroke-width="2" stroke-miterlimit="10"/>
<path d="M92 44C92 44 92.9154 45.3296 93.0035 45.7601C93.2513 46.9309 93.7927 49.5139 92.7523 52.2078C92.2559 53.4777 91.484 54.6216 90.4922 55.5572C90.4922 55.5572 85.6752 56.7737 82.4105 59.4089C79.1459 62.0441 75.7508 66.822 73.1156 70.3378C70.4804 73.8535 60.0701 79.5088 60.0701 79.5088C48.2966 83.0343 36.3306 87.3361 30.7537 65.9121" stroke="#125C40" stroke-width="2" stroke-miterlimit="10"/>
<defs>
<filter id="filter0_d_0_1" x="0" y="0" width="124" height="163" filterUnits="userSpaceOnUse" color-interpolation-filters="sRGB">
<feFlood flood-opacity="0" result="BackgroundImageFix"/>
<feColorMatrix in="SourceAlpha" type="matrix" values="0 0 0 0 0 0 0 0 0 0 0 0 0 0 0 0 0 0 127 0" result="hardAlpha"/>
<feOffset dy="8"/>
<feGaussianBlur stdDeviation="12"/>
<feComposite in2="hardAlpha" operator="out"/>
<feColorMatrix type="matrix" values="0 0 0 0 0.439216 0 0 0 0 0.564706 0 0 0 0 0.690196 0 0 0 0.2 0"/>
<feBlend mode="normal" in2="BackgroundImageFix" result="effect1_dropShadow_0_1"/>
<feBlend mode="normal" in="SourceGraphic" in2="effect1_dropShadow_0_1" result="shape"/>
</filter>
</defs>
</svg>
