<svg width="23" height="23" viewBox="0 0 23 23" fill="none" xmlns="http://www.w3.org/2000/svg">
<path d="M15 7.41667C15 11.2827 10.9167 12.0833 16.1667 15C12.0833 15 9.79283 15 8 15C4.13401 15 1 11.866 1 8C1 4.13401 4.13401 1 8 1C11.866 1 15 3.55067 15 7.41667Z" stroke="#125C40" stroke-width="2" stroke-linecap="round" stroke-linejoin="round"/>
<path d="M18 8.95203C20.463 9.91733 22 12.0883 22 15C22 18.866 18.866 22 15 22C13.2072 22 10.9167 22 6.83334 22C10.6947 19.8548 9.73513 19.3147 8.88765 17.5" stroke="#125C40" stroke-width="2" stroke-linecap="round" stroke-linejoin="round"/>
<path d="M4.8012 5.66663H11.2179M4.5 9.16663H6.5512M11.2179 9.16663H9.46787" stroke="#56BA50" stroke-width="2" stroke-linecap="round"/>
</svg>
