<svg width="83" height="16" viewBox="0 0 83 16" fill="none" xmlns="http://www.w3.org/2000/svg">
<g clip-path="url(#clip0_1633_8499)">
<path d="M2 4.25H3.33333H14" stroke="white" stroke-width="2" stroke-linecap="round" stroke-linejoin="round"/>
<path d="M12.6666 4.25V13C12.6666 13.3315 12.5261 13.6495 12.2761 13.8839C12.026 14.1183 11.6869 14.25 11.3333 14.25H4.66659C4.31296 14.25 3.97382 14.1183 3.72378 13.8839C3.47373 13.6495 3.33325 13.3315 3.33325 13V4.25M5.33325 4.25V3C5.33325 2.66848 5.47373 2.35054 5.72378 2.11612C5.97382 1.8817 6.31296 1.75 6.66659 1.75H9.33325C9.68687 1.75 10.026 1.8817 10.2761 2.11612C10.5261 2.35054 10.6666 2.66848 10.6666 3V4.25" stroke="white" stroke-width="2" stroke-linecap="round" stroke-linejoin="round"/>
</g>
<path d="M24.98 13V2.92H31.56V4.698H26.884V6.854H30.72V8.632H26.884V11.222H31.56V13H24.98ZM32.3978 13L35.7858 7.904L32.4958 2.92H34.8338L36.9758 6.28L39.0898 2.92H41.4418L38.1518 7.904L41.5258 13H39.1878L36.9758 9.528L34.7498 13H32.3978ZM46.5462 13.21C45.5382 13.21 44.6679 12.9907 43.9352 12.552C43.2072 12.1133 42.6449 11.4997 42.2482 10.711C41.8562 9.92233 41.6602 9.00533 41.6602 7.96C41.6602 6.91467 41.8562 5.99767 42.2482 5.209C42.6449 4.42033 43.2072 3.80667 43.9352 3.368C44.6679 2.92933 45.5382 2.71 46.5462 2.71C47.7036 2.71 48.6742 2.997 49.4582 3.571C50.2469 4.145 50.8022 4.922 51.1242 5.902L49.2062 6.434C49.0196 5.82267 48.7046 5.349 48.2612 5.013C47.8179 4.67233 47.2462 4.502 46.5462 4.502C45.9069 4.502 45.3726 4.64433 44.9432 4.929C44.5186 5.21367 44.1989 5.615 43.9842 6.133C43.7696 6.651 43.6622 7.26 43.6622 7.96C43.6622 8.66 43.7696 9.269 43.9842 9.787C44.1989 10.305 44.5186 10.7063 44.9432 10.991C45.3726 11.2757 45.9069 11.418 46.5462 11.418C47.2462 11.418 47.8179 11.2477 48.2612 10.907C48.7046 10.5663 49.0196 10.0927 49.2062 9.486L51.1242 10.018C50.8022 10.998 50.2469 11.775 49.4582 12.349C48.6742 12.923 47.7036 13.21 46.5462 13.21ZM52.8055 13V2.92H54.7095V11.222H59.0495V13H52.8055ZM64.3418 13.21C63.5298 13.21 62.8158 13.0467 62.1998 12.72C61.5838 12.3887 61.1031 11.9243 60.7578 11.327C60.4124 10.7297 60.2398 10.0273 60.2398 9.22V2.934L62.1718 2.92V9.206C62.1718 9.53733 62.2278 9.83833 62.3398 10.109C62.4518 10.3797 62.6058 10.613 62.8018 10.809C63.0024 11.005 63.2334 11.1567 63.4948 11.264C63.7608 11.3667 64.0431 11.418 64.3418 11.418C64.6498 11.418 64.9344 11.3643 65.1958 11.257C65.4618 11.1497 65.6928 10.998 65.8888 10.802C66.0848 10.606 66.2364 10.3727 66.3438 10.102C66.4558 9.83133 66.5118 9.53267 66.5118 9.206V2.92H68.4438V9.22C68.4438 10.0273 68.2711 10.7297 67.9258 11.327C67.5804 11.9243 67.0998 12.3887 66.4838 12.72C65.8678 13.0467 65.1538 13.21 64.3418 13.21ZM70.538 13V2.92H72.442V13H70.538ZM74.5405 13V2.92H78.7965C78.8945 2.92 79.0252 2.92467 79.1885 2.934C79.3565 2.93867 79.5059 2.95267 79.6365 2.976C80.2385 3.06933 80.7309 3.26767 81.1135 3.571C81.5009 3.87433 81.7855 4.257 81.9675 4.719C82.1495 5.17633 82.2405 5.68733 82.2405 6.252C82.2405 7.09667 82.0305 7.82 81.6105 8.422C81.1905 9.01933 80.5325 9.388 79.6365 9.528L78.7965 9.584H76.4445V13H74.5405ZM80.2245 13L78.2365 8.898L80.1965 8.52L82.3805 13H80.2245ZM76.4445 7.806H78.7125C78.8105 7.806 78.9179 7.80133 79.0345 7.792C79.1512 7.78267 79.2585 7.764 79.3565 7.736C79.6132 7.666 79.8115 7.54933 79.9515 7.386C80.0915 7.218 80.1872 7.03367 80.2385 6.833C80.2945 6.62767 80.3225 6.434 80.3225 6.252C80.3225 6.07 80.2945 5.87867 80.2385 5.678C80.1872 5.47267 80.0915 5.28833 79.9515 5.125C79.8115 4.957 79.6132 4.838 79.3565 4.768C79.2585 4.74 79.1512 4.72133 79.0345 4.712C78.9179 4.70267 78.8105 4.698 78.7125 4.698H76.4445V7.806Z" fill="white"/>
<defs>
<clipPath id="clip0_1633_8499">
<rect width="16" height="15" fill="white" transform="translate(0 0.5)"/>
</clipPath>
</defs>
</svg>
