<svg width="138" height="102" viewBox="0 0 138 102" fill="none" xmlns="http://www.w3.org/2000/svg">
<g filter="url(#filter0_ii_1927_8575)">
<path d="M1 1H129C133.418 1 137 4.58172 137 9V93C137 97.4183 133.418 101 129 101H1V1Z" fill="#8D3E3E"/>
<path d="M1 1H129C133.418 1 137 4.58172 137 9V93C137 97.4183 133.418 101 129 101H1V1Z" stroke="#D93333"/>
<g clip-path="url(#clip0_1927_8575)">
<path d="M11 47.25H12.3333H23" stroke="white" stroke-width="2" stroke-linecap="round" stroke-linejoin="round"/>
<path d="M21.6666 47.25V56C21.6666 56.3315 21.5261 56.6495 21.2761 56.8839C21.026 57.1183 20.6869 57.25 20.3333 57.25H13.6666C13.313 57.25 12.9738 57.1183 12.7238 56.8839C12.4737 56.6495 12.3333 56.3315 12.3333 56V47.25M14.3333 47.25V46C14.3333 45.6685 14.4737 45.3505 14.7238 45.1161C14.9738 44.8817 15.313 44.75 15.6666 44.75H18.3333C18.6869 44.75 19.026 44.8817 19.2761 45.1161C19.5261 45.3505 19.6666 45.6685 19.6666 46V47.25" stroke="white" stroke-width="2" stroke-linecap="round" stroke-linejoin="round"/>
</g>
<path d="M33.98 56V45.92H40.56V47.698H35.884V49.854H39.72V51.632H35.884V54.222H40.56V56H33.98ZM41.3978 56L44.7858 50.904L41.4958 45.92H43.8338L45.9758 49.28L48.0898 45.92H50.4418L47.1518 50.904L50.5258 56H48.1878L45.9758 52.528L43.7498 56H41.3978ZM55.5462 56.21C54.5382 56.21 53.6679 55.9907 52.9352 55.552C52.2072 55.1133 51.6449 54.4997 51.2482 53.711C50.8562 52.9223 50.6602 52.0053 50.6602 50.96C50.6602 49.9147 50.8562 48.9977 51.2482 48.209C51.6449 47.4203 52.2072 46.8067 52.9352 46.368C53.6679 45.9293 54.5382 45.71 55.5462 45.71C56.7036 45.71 57.6742 45.997 58.4582 46.571C59.2469 47.145 59.8022 47.922 60.1242 48.902L58.2062 49.434C58.0196 48.8227 57.7046 48.349 57.2612 48.013C56.8179 47.6723 56.2462 47.502 55.5462 47.502C54.9069 47.502 54.3726 47.6443 53.9432 47.929C53.5186 48.2137 53.1989 48.615 52.9842 49.133C52.7696 49.651 52.6622 50.26 52.6622 50.96C52.6622 51.66 52.7696 52.269 52.9842 52.787C53.1989 53.305 53.5186 53.7063 53.9432 53.991C54.3726 54.2757 54.9069 54.418 55.5462 54.418C56.2462 54.418 56.8179 54.2477 57.2612 53.907C57.7046 53.5663 58.0196 53.0927 58.2062 52.486L60.1242 53.018C59.8022 53.998 59.2469 54.775 58.4582 55.349C57.6742 55.923 56.7036 56.21 55.5462 56.21ZM61.8055 56V45.92H63.7095V54.222H68.0495V56H61.8055ZM73.3418 56.21C72.5298 56.21 71.8158 56.0467 71.1998 55.72C70.5838 55.3887 70.1031 54.9243 69.7578 54.327C69.4124 53.7297 69.2398 53.0273 69.2398 52.22V45.934L71.1718 45.92V52.206C71.1718 52.5373 71.2278 52.8383 71.3398 53.109C71.4518 53.3797 71.6058 53.613 71.8018 53.809C72.0024 54.005 72.2334 54.1567 72.4948 54.264C72.7608 54.3667 73.0431 54.418 73.3418 54.418C73.6498 54.418 73.9344 54.3643 74.1958 54.257C74.4618 54.1497 74.6928 53.998 74.8888 53.802C75.0848 53.606 75.2364 53.3727 75.3438 53.102C75.4558 52.8313 75.5118 52.5327 75.5118 52.206V45.92H77.4438V52.22C77.4438 53.0273 77.2711 53.7297 76.9258 54.327C76.5804 54.9243 76.0998 55.3887 75.4838 55.72C74.8678 56.0467 74.1538 56.21 73.3418 56.21ZM79.538 56V45.92H81.442V56H79.538ZM83.5405 56V45.92H87.7965C87.8945 45.92 88.0252 45.9247 88.1885 45.934C88.3565 45.9387 88.5059 45.9527 88.6365 45.976C89.2385 46.0693 89.7309 46.2677 90.1135 46.571C90.5009 46.8743 90.7855 47.257 90.9675 47.719C91.1495 48.1763 91.2405 48.6873 91.2405 49.252C91.2405 50.0967 91.0305 50.82 90.6105 51.422C90.1905 52.0193 89.5325 52.388 88.6365 52.528L87.7965 52.584H85.4445V56H83.5405ZM89.2245 56L87.2365 51.898L89.1965 51.52L91.3805 56H89.2245ZM85.4445 50.806H87.7125C87.8105 50.806 87.9179 50.8013 88.0345 50.792C88.1512 50.7827 88.2585 50.764 88.3565 50.736C88.6132 50.666 88.8115 50.5493 88.9515 50.386C89.0915 50.218 89.1872 50.0337 89.2385 49.833C89.2945 49.6277 89.3225 49.434 89.3225 49.252C89.3225 49.07 89.2945 48.8787 89.2385 48.678C89.1872 48.4727 89.0915 48.2883 88.9515 48.125C88.8115 47.957 88.6132 47.838 88.3565 47.768C88.2585 47.74 88.1512 47.7213 88.0345 47.712C87.9179 47.7027 87.8105 47.698 87.7125 47.698H85.4445V50.806Z" fill="white"/>
</g>
<defs>
<filter id="filter0_ii_1927_8575" x="0.5" y="0.5" width="137" height="101" filterUnits="userSpaceOnUse" color-interpolation-filters="sRGB">
<feFlood flood-opacity="0" result="BackgroundImageFix"/>
<feBlend mode="normal" in="SourceGraphic" in2="BackgroundImageFix" result="shape"/>
<feColorMatrix in="SourceAlpha" type="matrix" values="0 0 0 0 0 0 0 0 0 0 0 0 0 0 0 0 0 0 127 0" result="hardAlpha"/>
<feOffset/>
<feGaussianBlur stdDeviation="7.5"/>
<feComposite in2="hardAlpha" operator="arithmetic" k2="-1" k3="1"/>
<feColorMatrix type="matrix" values="0 0 0 0 0 0 0 0 0 0 0 0 0 0 0 0 0 0 0.25 0"/>
<feBlend mode="normal" in2="shape" result="effect1_innerShadow_1927_8575"/>
<feColorMatrix in="SourceAlpha" type="matrix" values="0 0 0 0 0 0 0 0 0 0 0 0 0 0 0 0 0 0 127 0" result="hardAlpha"/>
<feOffset/>
<feGaussianBlur stdDeviation="2"/>
<feComposite in2="hardAlpha" operator="arithmetic" k2="-1" k3="1"/>
<feColorMatrix type="matrix" values="0 0 0 0 0 0 0 0 0 0 0 0 0 0 0 0 0 0 0.75 0"/>
<feBlend mode="normal" in2="effect1_innerShadow_1927_8575" result="effect2_innerShadow_1927_8575"/>
</filter>
<clipPath id="clip0_1927_8575">
<rect width="16" height="15" fill="white" transform="translate(9 43.5)"/>
</clipPath>
</defs>
</svg>
