<svg width="144" height="144" viewBox="0 0 144 144" fill="none" xmlns="http://www.w3.org/2000/svg">
<rect x="1" y="1" width="142" height="142" rx="7" fill="white" stroke="#56BA50" stroke-width="2"/>
<path d="M30.5015 124V113.92H37.0115V115.502H32.1885V117.987H36.1715V119.569H32.1885V122.418H37.0115V124H30.5015ZM43.9199 124V120.36C43.9199 120.122 43.9036 119.858 43.8709 119.569C43.8383 119.28 43.7613 119.002 43.6399 118.736C43.5233 118.465 43.3459 118.244 43.1079 118.071C42.8746 117.898 42.5573 117.812 42.1559 117.812C41.9413 117.812 41.7289 117.847 41.5189 117.917C41.3089 117.987 41.1176 118.108 40.9449 118.281C40.7769 118.449 40.6416 118.682 40.5389 118.981C40.4363 119.275 40.3849 119.653 40.3849 120.115L39.3839 119.688C39.3839 119.044 39.5076 118.461 39.7549 117.938C40.0069 117.415 40.3756 117 40.8609 116.692C41.3463 116.379 41.9436 116.223 42.6529 116.223C43.2129 116.223 43.6749 116.316 44.0389 116.503C44.4029 116.69 44.6923 116.928 44.9069 117.217C45.1216 117.506 45.2803 117.814 45.3829 118.141C45.4856 118.468 45.5509 118.778 45.5789 119.072C45.6116 119.361 45.6279 119.597 45.6279 119.779V124H43.9199ZM38.6769 124V116.44H40.1819V118.785H40.3849V124H38.6769ZM50.6146 124.21C49.8352 124.21 49.1702 124.037 48.6196 123.692C48.0689 123.342 47.6466 122.866 47.3526 122.264C47.0632 121.662 46.9162 120.981 46.9116 120.22C46.9162 119.445 47.0679 118.759 47.3666 118.162C47.6699 117.56 48.0992 117.089 48.6546 116.748C49.2099 116.403 49.8702 116.23 50.6356 116.23C51.4942 116.23 52.2199 116.447 52.8126 116.881C53.4099 117.31 53.7996 117.898 53.9816 118.645L52.3016 119.1C52.1709 118.694 51.9539 118.379 51.6506 118.155C51.3472 117.926 51.0019 117.812 50.6146 117.812C50.1759 117.812 49.8142 117.917 49.5296 118.127C49.2449 118.332 49.0349 118.617 48.8996 118.981C48.7642 119.345 48.6966 119.758 48.6966 120.22C48.6966 120.939 48.8576 121.52 49.1796 121.963C49.5016 122.406 49.9799 122.628 50.6146 122.628C51.0626 122.628 51.4149 122.525 51.6716 122.32C51.9329 122.115 52.1289 121.818 52.2596 121.431L53.9816 121.816C53.7482 122.586 53.3399 123.179 52.7566 123.594C52.1732 124.005 51.4592 124.21 50.6146 124.21ZM58.5182 124.21C57.7622 124.21 57.1019 124.04 56.5372 123.699C55.9726 123.358 55.5339 122.889 55.2212 122.292C54.9132 121.69 54.7592 120.999 54.7592 120.22C54.7592 119.427 54.9179 118.731 55.2352 118.134C55.5526 117.537 55.9936 117.07 56.5582 116.734C57.1229 116.398 57.7762 116.23 58.5182 116.23C59.2789 116.23 59.9416 116.4 60.5062 116.741C61.0709 117.082 61.5096 117.553 61.8222 118.155C62.1349 118.752 62.2912 119.441 62.2912 120.22C62.2912 121.004 62.1326 121.697 61.8152 122.299C61.5026 122.896 61.0639 123.365 60.4992 123.706C59.9346 124.042 59.2742 124.21 58.5182 124.21ZM58.5182 122.628C59.1902 122.628 59.6896 122.404 60.0162 121.956C60.3429 121.508 60.5062 120.929 60.5062 120.22C60.5062 119.487 60.3406 118.904 60.0092 118.47C59.6779 118.031 59.1809 117.812 58.5182 117.812C58.0656 117.812 57.6922 117.915 57.3982 118.12C57.1089 118.321 56.8942 118.603 56.7542 118.967C56.6142 119.326 56.5442 119.744 56.5442 120.22C56.5442 120.953 56.7099 121.538 57.0412 121.977C57.3772 122.411 57.8696 122.628 58.5182 122.628ZM72.9125 124V119.408C72.9125 118.89 72.7842 118.486 72.5275 118.197C72.2708 117.903 71.9232 117.756 71.4845 117.756C71.2138 117.756 70.9712 117.819 70.7565 117.945C70.5418 118.066 70.3715 118.248 70.2455 118.491C70.1195 118.729 70.0565 119.014 70.0565 119.345L69.3075 118.904C69.3028 118.381 69.4195 117.922 69.6575 117.525C69.9002 117.124 70.2268 116.811 70.6375 116.587C71.0482 116.363 71.5055 116.251 72.0095 116.251C72.8448 116.251 73.4842 116.503 73.9275 117.007C74.3755 117.506 74.5995 118.164 74.5995 118.981V124H72.9125ZM63.8195 124V116.44H65.3105V118.785H65.5205V124H63.8195ZM68.3765 124V119.429C68.3765 118.902 68.2482 118.491 67.9915 118.197C67.7348 117.903 67.3848 117.756 66.9415 117.756C66.5122 117.756 66.1668 117.903 65.9055 118.197C65.6488 118.491 65.5205 118.874 65.5205 119.345L64.7645 118.841C64.7645 118.351 64.8858 117.91 65.1285 117.518C65.3712 117.126 65.6978 116.818 66.1085 116.594C66.5238 116.365 66.9882 116.251 67.5015 116.251C68.0662 116.251 68.5375 116.372 68.9155 116.615C69.2982 116.853 69.5828 117.18 69.7695 117.595C69.9608 118.006 70.0565 118.47 70.0565 118.988V124H68.3765ZM79.7393 124.21C78.9739 124.21 78.3019 124.044 77.7233 123.713C77.1446 123.382 76.6919 122.922 76.3653 122.334C76.0433 121.746 75.8823 121.069 75.8823 120.304C75.8823 119.478 76.0409 118.762 76.3583 118.155C76.6756 117.544 77.1166 117.07 77.6813 116.734C78.2459 116.398 78.8993 116.23 79.6413 116.23C80.4253 116.23 81.0903 116.414 81.6363 116.783C82.1869 117.147 82.5953 117.663 82.8613 118.33C83.1273 118.997 83.2276 119.784 83.1623 120.689H81.4893V120.073C81.4846 119.252 81.3399 118.652 81.0553 118.274C80.7706 117.896 80.3226 117.707 79.7113 117.707C79.0206 117.707 78.5073 117.922 78.1713 118.351C77.8353 118.776 77.6673 119.399 77.6673 120.22C77.6673 120.985 77.8353 121.578 78.1713 121.998C78.5073 122.418 78.9973 122.628 79.6413 122.628C80.0566 122.628 80.4136 122.537 80.7123 122.355C81.0156 122.168 81.2489 121.9 81.4123 121.55L83.0783 122.054C82.7889 122.735 82.3409 123.265 81.7343 123.643C81.1323 124.021 80.4673 124.21 79.7393 124.21ZM77.1353 120.689V119.415H82.3363V120.689H77.1353ZM89.7481 124V120.36C89.7481 120.122 89.7317 119.858 89.6991 119.569C89.6664 119.28 89.5894 119.002 89.4681 118.736C89.3514 118.465 89.1741 118.244 88.9361 118.071C88.7027 117.898 88.3854 117.812 87.9841 117.812C87.7694 117.812 87.5571 117.847 87.3471 117.917C87.1371 117.987 86.9457 118.108 86.7731 118.281C86.6051 118.449 86.4697 118.682 86.3671 118.981C86.2644 119.275 86.2131 119.653 86.2131 120.115L85.2121 119.688C85.2121 119.044 85.3357 118.461 85.5831 117.938C85.8351 117.415 86.2037 117 86.6891 116.692C87.1744 116.379 87.7717 116.223 88.4811 116.223C89.0411 116.223 89.5031 116.316 89.8671 116.503C90.2311 116.69 90.5204 116.928 90.7351 117.217C90.9497 117.506 91.1084 117.814 91.2111 118.141C91.3137 118.468 91.3791 118.778 91.4071 119.072C91.4397 119.361 91.4561 119.597 91.4561 119.779V124H89.7481ZM84.5051 124V116.44H86.0101V118.785H86.2131V124H84.5051ZM96.1907 124.21C95.4954 124.21 94.8887 124.035 94.3707 123.685C93.8527 123.335 93.4514 122.859 93.1667 122.257C92.882 121.655 92.7397 120.976 92.7397 120.22C92.7397 119.455 92.882 118.773 93.1667 118.176C93.456 117.574 93.8644 117.1 94.3917 116.755C94.919 116.405 95.5397 116.23 96.2537 116.23C96.9724 116.23 97.5744 116.405 98.0597 116.755C98.5497 117.1 98.9207 117.574 99.1727 118.176C99.4247 118.778 99.5507 119.459 99.5507 120.22C99.5507 120.971 99.4247 121.65 99.1727 122.257C98.9207 122.859 98.545 123.335 98.0457 123.685C97.5464 124.035 96.928 124.21 96.1907 124.21ZM96.4497 122.698C96.9024 122.698 97.2664 122.595 97.5417 122.39C97.8217 122.18 98.0247 121.888 98.1507 121.515C98.2814 121.142 98.3467 120.71 98.3467 120.22C98.3467 119.725 98.2814 119.294 98.1507 118.925C98.0247 118.552 97.8264 118.262 97.5557 118.057C97.285 117.847 96.935 117.742 96.5057 117.742C96.053 117.742 95.6797 117.854 95.3857 118.078C95.0917 118.297 94.8747 118.596 94.7347 118.974C94.5947 119.347 94.5247 119.763 94.5247 120.22C94.5247 120.682 94.5924 121.102 94.7277 121.48C94.8677 121.853 95.08 122.15 95.3647 122.369C95.6494 122.588 96.011 122.698 96.4497 122.698ZM98.3467 124V118.694H98.1367V113.92H99.8377V124H98.3467ZM103.914 124.21C103.368 124.21 102.906 124.107 102.528 123.902C102.15 123.692 101.863 123.414 101.667 123.069C101.476 122.724 101.38 122.343 101.38 121.928C101.38 121.564 101.441 121.237 101.562 120.948C101.684 120.654 101.87 120.402 102.122 120.192C102.374 119.977 102.701 119.802 103.102 119.667C103.406 119.569 103.76 119.48 104.166 119.401C104.577 119.322 105.02 119.249 105.496 119.184C105.977 119.114 106.479 119.039 107.001 118.96L106.399 119.303C106.404 118.78 106.287 118.395 106.049 118.148C105.811 117.901 105.41 117.777 104.845 117.777C104.505 117.777 104.176 117.856 103.858 118.015C103.541 118.174 103.319 118.447 103.193 118.834L101.653 118.351C101.84 117.712 102.195 117.198 102.717 116.811C103.245 116.424 103.954 116.23 104.845 116.23C105.517 116.23 106.108 116.34 106.616 116.559C107.13 116.778 107.51 117.138 107.757 117.637C107.893 117.903 107.974 118.176 108.002 118.456C108.03 118.731 108.044 119.032 108.044 119.359V124H106.567V122.362L106.812 122.628C106.472 123.174 106.073 123.575 105.615 123.832C105.163 124.084 104.596 124.21 103.914 124.21ZM104.25 122.866C104.633 122.866 104.96 122.798 105.23 122.663C105.501 122.528 105.716 122.362 105.874 122.166C106.038 121.97 106.147 121.786 106.203 121.613C106.292 121.398 106.341 121.153 106.35 120.878C106.364 120.598 106.371 120.372 106.371 120.199L106.889 120.353C106.381 120.432 105.944 120.502 105.58 120.563C105.216 120.624 104.904 120.682 104.642 120.738C104.381 120.789 104.15 120.848 103.949 120.913C103.753 120.983 103.588 121.065 103.452 121.158C103.317 121.251 103.212 121.359 103.137 121.48C103.067 121.601 103.032 121.744 103.032 121.907C103.032 122.094 103.079 122.259 103.172 122.404C103.266 122.544 103.401 122.656 103.578 122.74C103.76 122.824 103.984 122.866 104.25 122.866ZM109.867 124V116.44H111.358V118.281L111.176 118.043C111.269 117.791 111.393 117.562 111.547 117.357C111.705 117.147 111.894 116.974 112.114 116.839C112.3 116.713 112.506 116.615 112.73 116.545C112.958 116.47 113.192 116.426 113.43 116.412C113.668 116.393 113.899 116.403 114.123 116.44V118.015C113.899 117.95 113.64 117.929 113.346 117.952C113.056 117.975 112.795 118.057 112.562 118.197C112.328 118.323 112.137 118.484 111.988 118.68C111.843 118.876 111.736 119.1 111.666 119.352C111.596 119.599 111.561 119.868 111.561 120.157V124H109.867Z" fill="#56BA50"/>
<path d="M95.356 79.9769V66.8552H105.22V79.9769H120.015V60.1304L100.288 42.4012L80.5605 60.1304V69.6436" stroke="#56BA50" stroke-width="2" stroke-linecap="round" stroke-linejoin="round"/>
<path d="M120.016 60.2497H128L100.288 35.8254L72.5762 60.2497H80.561" stroke="#56BA50" stroke-width="2" stroke-linecap="round" stroke-linejoin="round"/>
<path d="M112.031 45.9756V35.8254H120.016V52.8778L112.031 45.9756Z" stroke="#56BA50" stroke-width="2" stroke-linecap="round" stroke-linejoin="round"/>
<mask id="path-6-inside-1_287_3641" fill="white">
<path fill-rule="evenodd" clip-rule="evenodd" d="M24.5 58.6477C21.7386 58.6477 19.5 60.8863 19.5 63.6477V82.2926C19.5 85.054 21.7386 87.2926 24.5 87.2926H29.6784C29.6735 87.1894 29.6711 87.0856 29.6711 86.9812C29.6711 83.3701 32.5985 80.4427 36.2096 80.4427C39.8207 80.4427 42.7481 83.3701 42.7481 86.9812C42.7481 87.0856 42.7457 87.1894 42.7408 87.2926H46.3277C46.6018 87.2926 46.8708 87.2705 47.133 87.2281L70.3553 87.0346L70.3551 86.9812C70.3551 83.3701 73.2825 80.4427 76.8936 80.4427C80.4862 80.4427 83.4021 83.3401 83.4319 86.9256L86.227 86.9023C86.8267 86.8973 87.4205 86.7845 87.9802 86.5692L88.1772 86.4935C90.5345 85.5868 91.8456 83.0644 91.233 80.6141L90.6814 78.4077C90.2152 76.5431 88.7215 75.1107 86.8389 74.7231L77.1913 72.7369C76.6619 72.6279 76.1537 72.4338 75.6865 72.1621L60.2831 63.2066C59.6261 62.8247 58.8906 62.5975 58.1327 62.5424L51.0595 62.0279C50.3865 60.0615 48.5222 58.6477 46.3277 58.6477H24.5Z"/>
</mask>
<path d="M29.6784 87.2926V89.2926H31.7743L31.6762 87.1989L29.6784 87.2926ZM42.7408 87.2926L40.743 87.1989L40.6449 89.2926H42.7408V87.2926ZM47.133 87.2281L47.1163 85.2282L46.9638 85.2294L46.8133 85.2538L47.133 87.2281ZM70.3553 87.0346L70.372 89.0345L72.3633 89.0179L72.3553 87.0266L70.3553 87.0346ZM70.3551 86.9812H68.3551L68.3551 86.9892L70.3551 86.9812ZM83.4319 86.9256L81.432 86.9423L81.4487 88.9422L83.4486 88.9255L83.4319 86.9256ZM86.227 86.9023L86.2437 88.9022H86.2437L86.227 86.9023ZM87.9802 86.5692L87.2623 84.7025L87.2623 84.7025L87.9802 86.5692ZM88.1772 86.4935L88.8951 88.3602L88.8951 88.3602L88.1772 86.4935ZM91.233 80.6141L93.1733 80.129L91.233 80.6141ZM90.6814 78.4077L92.6217 77.9227V77.9227L90.6814 78.4077ZM86.8389 74.7231L86.4356 76.682L86.8389 74.7231ZM77.1913 72.7369L77.5946 70.7779V70.7779L77.1913 72.7369ZM75.6865 72.1621L74.6812 73.8911L74.6812 73.8911L75.6865 72.1621ZM60.2831 63.2066L59.2778 64.9357L59.2779 64.9357L60.2831 63.2066ZM58.1327 62.5424L57.9876 64.5371L57.9876 64.5371L58.1327 62.5424ZM51.0595 62.0279L49.1672 62.6755L49.5954 63.9267L50.9144 64.0227L51.0595 62.0279ZM21.5 63.6477C21.5 61.9908 22.8431 60.6477 24.5 60.6477V56.6477C20.634 56.6477 17.5 59.7817 17.5 63.6477H21.5ZM21.5 82.2926V63.6477H17.5V82.2926H21.5ZM24.5 85.2926C22.8431 85.2926 21.5 83.9495 21.5 82.2926H17.5C17.5 86.1586 20.634 89.2926 24.5 89.2926V85.2926ZM29.6784 85.2926H24.5V89.2926H29.6784V85.2926ZM31.6762 87.1989C31.6728 87.1269 31.6711 87.0544 31.6711 86.9812H27.6711C27.6711 87.1169 27.6743 87.2519 27.6805 87.3863L31.6762 87.1989ZM31.6711 86.9812C31.6711 84.4747 33.703 82.4427 36.2096 82.4427V78.4427C31.4939 78.4427 27.6711 82.2655 27.6711 86.9812H31.6711ZM36.2096 82.4427C38.7161 82.4427 40.7481 84.4747 40.7481 86.9812H44.7481C44.7481 82.2655 40.9253 78.4427 36.2096 78.4427V82.4427ZM40.7481 86.9812C40.7481 87.0544 40.7464 87.1269 40.743 87.1989L44.7386 87.3863C44.7449 87.2519 44.7481 87.1168 44.7481 86.9812H40.7481ZM46.3277 85.2926H42.7408V89.2926H46.3277V85.2926ZM46.8133 85.2538C46.6565 85.2792 46.4944 85.2926 46.3277 85.2926V89.2926C46.7093 89.2926 47.0852 89.2619 47.4526 89.2024L46.8133 85.2538ZM70.3387 85.0346L47.1163 85.2282L47.1496 89.228L70.372 89.0345L70.3387 85.0346ZM68.3551 86.9892L68.3554 87.0426L72.3553 87.0266L72.3551 86.9732L68.3551 86.9892ZM76.8936 78.4427C72.178 78.4427 68.3551 82.2655 68.3551 86.9812H72.3551C72.3551 84.4747 74.3871 82.4427 76.8936 82.4427V78.4427ZM85.4319 86.9089C85.3928 82.2263 81.5852 78.4427 76.8936 78.4427V82.4427C79.3872 82.4427 81.4113 84.4539 81.432 86.9423L85.4319 86.9089ZM86.2104 84.9024L83.4153 84.9257L83.4486 88.9255L86.2437 88.9022L86.2104 84.9024ZM87.2623 84.7025C86.9265 84.8317 86.5701 84.8994 86.2103 84.9024L86.2437 88.9022C87.0832 88.8952 87.9146 88.7373 88.6982 88.4359L87.2623 84.7025ZM87.4592 84.6268L87.2623 84.7025L88.6982 88.4359L88.8951 88.3602L87.4592 84.6268ZM89.2927 81.0991C89.6602 82.5693 88.8736 84.0828 87.4592 84.6268L88.8951 88.3602C92.1954 87.0908 94.0309 83.5594 93.1733 80.129L89.2927 81.0991ZM88.7411 78.8928L89.2927 81.0991L93.1733 80.129L92.6217 77.9227L88.7411 78.8928ZM86.4356 76.682C87.5652 76.9146 88.4614 77.774 88.7411 78.8928L92.6217 77.9227C91.969 75.3122 89.8778 73.3068 87.2422 72.7642L86.4356 76.682ZM76.788 74.6958L86.4356 76.682L87.2422 72.7642L77.5946 70.7779L76.788 74.6958ZM74.6812 73.8911C75.3354 74.2714 76.0469 74.5432 76.788 74.6958L77.5946 70.7779C77.277 70.7125 76.9721 70.5961 76.6917 70.4331L74.6812 73.8911ZM59.2779 64.9357L74.6812 73.8911L76.6917 70.4331L61.2883 61.4776L59.2779 64.9357ZM57.9876 64.5371C58.4424 64.5702 58.8836 64.7065 59.2778 64.9357L61.2883 61.4776C60.3685 60.9429 59.3389 60.6248 58.2777 60.5476L57.9876 64.5371ZM50.9144 64.0227L57.9876 64.5371L58.2777 60.5476L51.2046 60.0332L50.9144 64.0227ZM46.3277 60.6477C47.6413 60.6477 48.7626 61.4932 49.1672 62.6755L52.9518 61.3804C52.0105 58.6298 49.4031 56.6477 46.3277 56.6477V60.6477ZM24.5 60.6477H46.3277V56.6477H24.5V60.6477Z" fill="#56BA50" mask="url(#path-6-inside-1_287_3641)"/>
<circle cx="36.297" cy="87.2407" r="4.172" stroke="#56BA50" stroke-width="2"/>
<circle cx="76.9806" cy="87.0677" r="4.172" stroke="#56BA50" stroke-width="2"/>
</svg>
