<svg width="138" height="102" viewBox="0 0 138 102" fill="none" xmlns="http://www.w3.org/2000/svg">
<g filter="url(#filter0_ii_1928_8586)">
<rect x="1" y="1" width="136" height="100" fill="#56BA50"/>
<rect x="1" y="1" width="136" height="100" stroke="#56BA50"/>
<path d="M11.817 56.2554C12.0003 56.2044 12.1653 56.1023 12.2926 55.9608L18.3473 49.2334L17.604 48.5644L18.3473 49.2334C18.7751 48.758 19 48.1338 19 47.5022C19 46.8706 18.7751 46.2464 18.3473 45.771C17.9163 45.2922 17.3078 45 16.648 45C15.9882 45 15.3797 45.2922 14.9487 45.771L8.89404 52.4984C8.77936 52.6259 8.69936 52.7806 8.66172 52.9479L8.02439 55.7805C7.94719 56.1236 8.05589 56.482 8.31066 56.7244C8.56542 56.9669 8.9288 57.0576 9.26764 56.9635L11.817 56.2554Z" stroke="white" stroke-width="2" stroke-linecap="round" stroke-linejoin="round"/>
<path d="M26.98 56V45.92H33.56V47.698H28.884V49.854H32.72V51.632H28.884V54.222H33.56V56H26.98ZM35.2378 56V45.92H38.4998C38.5791 45.92 38.7425 45.9223 38.9898 45.927C39.2371 45.9317 39.4751 45.948 39.7038 45.976C40.5158 46.074 41.2041 46.3563 41.7688 46.823C42.3335 47.2897 42.7628 47.8823 43.0568 48.601C43.3508 49.3197 43.4978 50.106 43.4978 50.96C43.4978 51.814 43.3508 52.6003 43.0568 53.319C42.7628 54.0377 42.3335 54.6303 41.7688 55.097C41.2041 55.5637 40.5158 55.846 39.7038 55.944C39.4751 55.972 39.2371 55.9883 38.9898 55.993C38.7425 55.9977 38.5791 56 38.4998 56H35.2378ZM37.1698 54.208H38.4998C38.6258 54.208 38.7961 54.2057 39.0108 54.201C39.2255 54.1917 39.4191 54.1707 39.5918 54.138C40.0305 54.0493 40.3875 53.844 40.6628 53.522C40.9428 53.2 41.1481 52.8127 41.2788 52.36C41.4141 51.9073 41.4818 51.4407 41.4818 50.96C41.4818 50.456 41.4118 49.9777 41.2718 49.525C41.1365 49.0723 40.9288 48.6897 40.6488 48.377C40.3688 48.0643 40.0165 47.866 39.5918 47.782C39.4191 47.7447 39.2255 47.7237 39.0108 47.719C38.7961 47.7143 38.6258 47.712 38.4998 47.712H37.1698V54.208ZM45.3173 56V45.92H47.2213V56H45.3173ZM51.6578 56V47.698H48.4798V45.92H56.7398V47.698H53.5618V56H51.6578ZM56.8913 56L59.9713 45.92H62.8133L65.8933 56H63.9333L61.1893 47.11H61.5533L58.8513 56H56.8913ZM58.7393 53.9V52.122H64.0593V53.9H58.7393ZM67.148 56V45.92H71.404C71.502 45.92 71.6326 45.9247 71.796 45.934C71.964 45.9387 72.1133 45.9527 72.244 45.976C72.846 46.0693 73.3383 46.2677 73.721 46.571C74.1083 46.8743 74.393 47.257 74.575 47.719C74.757 48.1763 74.848 48.6873 74.848 49.252C74.848 50.0967 74.638 50.82 74.218 51.422C73.798 52.0193 73.14 52.388 72.244 52.528L71.404 52.584H69.052V56H67.148ZM72.832 56L70.844 51.898L72.804 51.52L74.988 56H72.832ZM69.052 50.806H71.32C71.418 50.806 71.5253 50.8013 71.642 50.792C71.7586 50.7827 71.866 50.764 71.964 50.736C72.2206 50.666 72.419 50.5493 72.559 50.386C72.699 50.218 72.7946 50.0337 72.846 49.833C72.902 49.6277 72.93 49.434 72.93 49.252C72.93 49.07 72.902 48.8787 72.846 48.678C72.7946 48.4727 72.699 48.2883 72.559 48.125C72.419 47.957 72.2206 47.838 71.964 47.768C71.866 47.74 71.7586 47.7213 71.642 47.712C71.5253 47.7027 71.418 47.698 71.32 47.698H69.052V50.806Z" fill="white"/>
</g>
<defs>
<filter id="filter0_ii_1928_8586" x="0.5" y="0.5" width="137" height="101" filterUnits="userSpaceOnUse" color-interpolation-filters="sRGB">
<feFlood flood-opacity="0" result="BackgroundImageFix"/>
<feBlend mode="normal" in="SourceGraphic" in2="BackgroundImageFix" result="shape"/>
<feColorMatrix in="SourceAlpha" type="matrix" values="0 0 0 0 0 0 0 0 0 0 0 0 0 0 0 0 0 0 127 0" result="hardAlpha"/>
<feOffset/>
<feGaussianBlur stdDeviation="7.5"/>
<feComposite in2="hardAlpha" operator="arithmetic" k2="-1" k3="1"/>
<feColorMatrix type="matrix" values="0 0 0 0 0 0 0 0 0 0 0 0 0 0 0 0 0 0 0.25 0"/>
<feBlend mode="normal" in2="shape" result="effect1_innerShadow_1928_8586"/>
<feColorMatrix in="SourceAlpha" type="matrix" values="0 0 0 0 0 0 0 0 0 0 0 0 0 0 0 0 0 0 127 0" result="hardAlpha"/>
<feOffset/>
<feGaussianBlur stdDeviation="2"/>
<feComposite in2="hardAlpha" operator="arithmetic" k2="-1" k3="1"/>
<feColorMatrix type="matrix" values="0 0 0 0 0 0 0 0 0 0 0 0 0 0 0 0 0 0 0.75 0"/>
<feBlend mode="normal" in2="effect1_innerShadow_1928_8586" result="effect2_innerShadow_1928_8586"/>
</filter>
</defs>
</svg>
