<svg width="360" height="168" viewBox="0 0 360 168" fill="none" xmlns="http://www.w3.org/2000/svg">
<g filter="url(#filter0_d_287_3641)">
<rect x="17" y="17" width="326" height="54" rx="7" stroke="#CBCBCB" stroke-width="2" shape-rendering="crispEdges"/>
</g>
<g filter="url(#filter1_d_287_3641)">
<rect x="17" y="81" width="326" height="54" rx="7" stroke="#CBCBCB" stroke-width="2" shape-rendering="crispEdges"/>
</g>
<path d="M68.494 43.18C67.63 43.18 66.89 42.992 66.274 42.616C65.658 42.236 65.184 41.708 64.852 41.032C64.524 40.356 64.36 39.572 64.36 38.68C64.36 37.788 64.524 37.004 64.852 36.328C65.184 35.652 65.658 35.126 66.274 34.75C66.89 34.37 67.63 34.18 68.494 34.18C69.49 34.18 70.32 34.43 70.984 34.93C71.648 35.426 72.114 36.096 72.382 36.94L70.924 37.342C70.756 36.778 70.47 36.338 70.066 36.022C69.662 35.702 69.138 35.542 68.494 35.542C67.914 35.542 67.43 35.672 67.042 35.932C66.658 36.192 66.368 36.558 66.172 37.03C65.98 37.498 65.882 38.048 65.878 38.68C65.878 39.312 65.974 39.864 66.166 40.336C66.362 40.804 66.654 41.168 67.042 41.428C67.43 41.688 67.914 41.818 68.494 41.818C69.138 41.818 69.662 41.658 70.066 41.338C70.47 41.018 70.756 40.578 70.924 40.018L72.382 40.42C72.114 41.264 71.648 41.936 70.984 42.436C70.32 42.932 69.49 43.18 68.494 43.18ZM72.865 43L75.589 34.36H77.707L80.431 43H78.943L76.471 35.248H76.795L74.353 43H72.865ZM74.383 41.128V39.778H78.919V41.128H74.383ZM81.5158 43V34.36H82.9798L86.9878 40.45V34.36H88.4518V43H86.9878L82.9798 36.91V43H81.5158ZM93.7831 43.18C92.9191 43.18 92.1791 42.992 91.5631 42.616C90.9471 42.236 90.4731 41.708 90.1411 41.032C89.8131 40.356 89.6491 39.572 89.6491 38.68C89.6491 37.788 89.8131 37.004 90.1411 36.328C90.4731 35.652 90.9471 35.126 91.5631 34.75C92.1791 34.37 92.9191 34.18 93.7831 34.18C94.7791 34.18 95.6091 34.43 96.2731 34.93C96.9371 35.426 97.4031 36.096 97.6711 36.94L96.2131 37.342C96.0451 36.778 95.7591 36.338 95.3551 36.022C94.9511 35.702 94.4271 35.542 93.7831 35.542C93.2031 35.542 92.7191 35.672 92.3311 35.932C91.9471 36.192 91.6571 36.558 91.4611 37.03C91.2691 37.498 91.1711 38.048 91.1671 38.68C91.1671 39.312 91.2631 39.864 91.4551 40.336C91.6511 40.804 91.9431 41.168 92.3311 41.428C92.7191 41.688 93.2031 41.818 93.7831 41.818C94.4271 41.818 94.9511 41.658 95.3551 41.338C95.7591 41.018 96.0451 40.578 96.2131 40.018L97.6711 40.42C97.4031 41.264 96.9371 41.936 96.2731 42.436C95.6091 42.932 94.7791 43.18 93.7831 43.18ZM98.9884 43V34.36H104.568V35.716H100.434V37.846H103.848V39.202H100.434V41.644H104.568V43H98.9884ZM106.128 43V34.36H107.574V41.644H111.39V43H106.128ZM111.806 43L114.53 34.36H116.648L119.372 43H117.884L115.412 35.248H115.736L113.294 43H111.806ZM113.324 41.128V39.778H117.86V41.128H113.324ZM120.457 43V34.36H124.027C124.111 34.36 124.219 34.364 124.351 34.372C124.483 34.376 124.605 34.388 124.717 34.408C125.217 34.484 125.629 34.65 125.953 34.906C126.281 35.162 126.523 35.486 126.679 35.878C126.839 36.266 126.919 36.698 126.919 37.174C126.919 37.878 126.741 38.484 126.385 38.992C126.029 39.496 125.483 39.808 124.747 39.928L124.129 39.982H121.903V43H120.457ZM125.419 43L123.715 39.484L125.185 39.16L127.057 43H125.419ZM121.903 38.632H123.967C124.047 38.632 124.137 38.628 124.237 38.62C124.337 38.612 124.429 38.596 124.513 38.572C124.753 38.512 124.941 38.406 125.077 38.254C125.217 38.102 125.315 37.93 125.371 37.738C125.431 37.546 125.461 37.358 125.461 37.174C125.461 36.99 125.431 36.802 125.371 36.61C125.315 36.414 125.217 36.24 125.077 36.088C124.941 35.936 124.753 35.83 124.513 35.77C124.429 35.746 124.337 35.732 124.237 35.728C124.137 35.72 124.047 35.716 123.967 35.716H121.903V38.632ZM134.435 43.18C133.571 43.18 132.831 42.992 132.215 42.616C131.599 42.236 131.125 41.708 130.793 41.032C130.465 40.356 130.301 39.572 130.301 38.68C130.301 37.788 130.465 37.004 130.793 36.328C131.125 35.652 131.599 35.126 132.215 34.75C132.831 34.37 133.571 34.18 134.435 34.18C135.299 34.18 136.039 34.37 136.655 34.75C137.275 35.126 137.749 35.652 138.077 36.328C138.409 37.004 138.575 37.788 138.575 38.68C138.575 39.572 138.409 40.356 138.077 41.032C137.749 41.708 137.275 42.236 136.655 42.616C136.039 42.992 135.299 43.18 134.435 43.18ZM134.435 41.818C135.015 41.822 135.497 41.694 135.881 41.434C136.269 41.174 136.559 40.808 136.751 40.336C136.947 39.864 137.045 39.312 137.045 38.68C137.045 38.048 136.947 37.5 136.751 37.036C136.559 36.568 136.269 36.204 135.881 35.944C135.497 35.684 135.015 35.55 134.435 35.542C133.855 35.538 133.373 35.666 132.989 35.926C132.605 36.186 132.315 36.552 132.119 37.024C131.927 37.496 131.831 38.048 131.831 38.68C131.831 39.312 131.927 39.862 132.119 40.33C132.311 40.794 132.599 41.156 132.983 41.416C133.371 41.676 133.855 41.81 134.435 41.818ZM142.292 43V34.36H143.738V43H142.292ZM147.611 43V35.716H144.815V34.36H151.853V35.716H149.057V43H147.611ZM152.813 43V34.36H158.393V35.716H154.259V37.846H157.673V39.202H154.259V41.644H158.393V43H152.813ZM159.832 43V34.36H161.134L164.122 40.48L167.11 34.36H168.412V43H167.062V37.462L164.41 43H163.834L161.188 37.462V43H159.832Z" fill="#ABABAB"/>
<path d="M68.038 107.18C67.406 107.18 66.836 107.07 66.328 106.85C65.824 106.63 65.408 106.316 65.08 105.908C64.756 105.496 64.55 105.008 64.462 104.444L65.962 104.216C66.09 104.728 66.352 105.124 66.748 105.404C67.148 105.684 67.608 105.824 68.128 105.824C68.436 105.824 68.726 105.776 68.998 105.68C69.27 105.584 69.49 105.444 69.658 105.26C69.83 105.076 69.916 104.85 69.916 104.582C69.916 104.462 69.896 104.352 69.856 104.252C69.816 104.148 69.756 104.056 69.676 103.976C69.6 103.896 69.5 103.824 69.376 103.76C69.256 103.692 69.116 103.634 68.956 103.586L66.724 102.926C66.532 102.87 66.324 102.796 66.1 102.704C65.88 102.608 65.67 102.478 65.47 102.314C65.274 102.146 65.112 101.934 64.984 101.678C64.86 101.418 64.798 101.098 64.798 100.718C64.798 100.162 64.938 99.696 65.218 99.32C65.502 98.94 65.882 98.656 66.358 98.468C66.838 98.28 67.37 98.188 67.954 98.192C68.546 98.196 69.074 98.298 69.538 98.498C70.002 98.694 70.39 98.98 70.702 99.356C71.014 99.732 71.234 100.186 71.362 100.718L69.808 100.988C69.744 100.684 69.62 100.426 69.436 100.214C69.256 99.998 69.034 99.834 68.77 99.722C68.51 99.61 68.232 99.55 67.936 99.542C67.648 99.538 67.38 99.582 67.132 99.674C66.888 99.762 66.69 99.89 66.538 100.058C66.39 100.226 66.316 100.422 66.316 100.646C66.316 100.858 66.38 101.032 66.508 101.168C66.636 101.3 66.794 101.406 66.982 101.486C67.174 101.562 67.368 101.626 67.564 101.678L69.112 102.11C69.324 102.166 69.562 102.242 69.826 102.338C70.09 102.434 70.344 102.568 70.588 102.74C70.832 102.912 71.032 103.138 71.188 103.418C71.348 103.698 71.428 104.054 71.428 104.486C71.428 104.934 71.334 105.328 71.146 105.668C70.962 106.004 70.712 106.284 70.396 106.508C70.08 106.732 69.718 106.9 69.31 107.012C68.906 107.124 68.482 107.18 68.038 107.18ZM76.2067 107.18C75.5187 107.18 74.9127 107.04 74.3887 106.76C73.8687 106.48 73.4607 106.086 73.1647 105.578C72.8727 105.07 72.7267 104.474 72.7267 103.79V98.372L74.1907 98.36V103.754C74.1907 104.078 74.2447 104.368 74.3527 104.624C74.4647 104.88 74.6147 105.098 74.8027 105.278C74.9907 105.454 75.2067 105.588 75.4507 105.68C75.6947 105.772 75.9467 105.818 76.2067 105.818C76.4747 105.818 76.7287 105.772 76.9687 105.68C77.2127 105.584 77.4287 105.448 77.6167 105.272C77.8047 105.092 77.9527 104.874 78.0607 104.618C78.1687 104.362 78.2227 104.074 78.2227 103.754V98.36H79.6867V103.79C79.6867 104.474 79.5387 105.07 79.2427 105.578C78.9507 106.086 78.5427 106.48 78.0187 106.76C77.4987 107.04 76.8947 107.18 76.2067 107.18ZM81.3634 107V98.36H84.7894C85.3734 98.36 85.8514 98.478 86.2234 98.714C86.5994 98.946 86.8774 99.244 87.0574 99.608C87.2414 99.972 87.3334 100.348 87.3334 100.736C87.3334 101.212 87.2194 101.616 86.9914 101.948C86.7674 102.28 86.4614 102.504 86.0734 102.62V102.32C86.6174 102.444 87.0294 102.702 87.3094 103.094C87.5934 103.486 87.7354 103.932 87.7354 104.432C87.7354 104.944 87.6374 105.392 87.4414 105.776C87.2454 106.16 86.9534 106.46 86.5654 106.676C86.1814 106.892 85.7054 107 85.1374 107H81.3634ZM82.8274 105.638H84.9574C85.2094 105.638 85.4354 105.588 85.6354 105.488C85.8354 105.384 85.9914 105.24 86.1034 105.056C86.2194 104.868 86.2774 104.646 86.2774 104.39C86.2774 104.158 86.2274 103.95 86.1274 103.766C86.0274 103.582 85.8814 103.436 85.6894 103.328C85.4974 103.216 85.2674 103.16 84.9994 103.16H82.8274V105.638ZM82.8274 101.81H84.7714C84.9794 101.81 85.1654 101.77 85.3294 101.69C85.4934 101.61 85.6234 101.492 85.7194 101.336C85.8154 101.18 85.8634 100.988 85.8634 100.76C85.8634 100.46 85.7674 100.21 85.5754 100.01C85.3834 99.81 85.1154 99.71 84.7714 99.71H82.8274V101.81ZM92.1318 107.18C91.4998 107.18 90.9298 107.07 90.4218 106.85C89.9178 106.63 89.5018 106.316 89.1738 105.908C88.8498 105.496 88.6438 105.008 88.5558 104.444L90.0558 104.216C90.1838 104.728 90.4458 105.124 90.8418 105.404C91.2418 105.684 91.7018 105.824 92.2218 105.824C92.5298 105.824 92.8198 105.776 93.0918 105.68C93.3638 105.584 93.5838 105.444 93.7518 105.26C93.9238 105.076 94.0098 104.85 94.0098 104.582C94.0098 104.462 93.9898 104.352 93.9498 104.252C93.9098 104.148 93.8498 104.056 93.7698 103.976C93.6938 103.896 93.5938 103.824 93.4698 103.76C93.3498 103.692 93.2098 103.634 93.0498 103.586L90.8178 102.926C90.6258 102.87 90.4178 102.796 90.1938 102.704C89.9738 102.608 89.7638 102.478 89.5638 102.314C89.3678 102.146 89.2058 101.934 89.0778 101.678C88.9538 101.418 88.8918 101.098 88.8918 100.718C88.8918 100.162 89.0318 99.696 89.3118 99.32C89.5958 98.94 89.9758 98.656 90.4518 98.468C90.9318 98.28 91.4638 98.188 92.0478 98.192C92.6398 98.196 93.1678 98.298 93.6318 98.498C94.0958 98.694 94.4838 98.98 94.7958 99.356C95.1078 99.732 95.3278 100.186 95.4558 100.718L93.9018 100.988C93.8378 100.684 93.7138 100.426 93.5298 100.214C93.3498 99.998 93.1278 99.834 92.8638 99.722C92.6038 99.61 92.3258 99.55 92.0298 99.542C91.7418 99.538 91.4738 99.582 91.2258 99.674C90.9818 99.762 90.7838 99.89 90.6318 100.058C90.4838 100.226 90.4098 100.422 90.4098 100.646C90.4098 100.858 90.4738 101.032 90.6018 101.168C90.7298 101.3 90.8878 101.406 91.0758 101.486C91.2678 101.562 91.4618 101.626 91.6578 101.678L93.2058 102.11C93.4178 102.166 93.6558 102.242 93.9198 102.338C94.1838 102.434 94.4378 102.568 94.6818 102.74C94.9258 102.912 95.1258 103.138 95.2818 103.418C95.4418 103.698 95.5218 104.054 95.5218 104.486C95.5218 104.934 95.4278 105.328 95.2398 105.668C95.0558 106.004 94.8058 106.284 94.4898 106.508C94.1738 106.732 93.8118 106.9 93.4038 107.012C92.9998 107.124 92.5758 107.18 92.1318 107.18ZM98.8965 107V99.716H96.1005V98.36H103.138V99.716H100.342V107H98.8965ZM104.218 107V98.36H105.664V107H104.218ZM109.537 107V99.716H106.741V98.36H113.779V99.716H110.983V107H109.537ZM118.218 107.18C117.53 107.18 116.924 107.04 116.4 106.76C115.88 106.48 115.472 106.086 115.176 105.578C114.884 105.07 114.738 104.474 114.738 103.79V98.372L116.202 98.36V103.754C116.202 104.078 116.256 104.368 116.364 104.624C116.476 104.88 116.626 105.098 116.814 105.278C117.002 105.454 117.218 105.588 117.462 105.68C117.706 105.772 117.958 105.818 118.218 105.818C118.486 105.818 118.74 105.772 118.98 105.68C119.224 105.584 119.44 105.448 119.628 105.272C119.816 105.092 119.964 104.874 120.072 104.618C120.18 104.362 120.234 104.074 120.234 103.754V98.36H121.698V103.79C121.698 104.474 121.55 105.07 121.254 105.578C120.962 106.086 120.554 106.48 120.03 106.76C119.51 107.04 118.906 107.18 118.218 107.18ZM123.495 107V98.36H124.941V107H123.495ZM126.738 107V98.36H130.308C130.392 98.36 130.5 98.364 130.632 98.372C130.764 98.376 130.886 98.388 130.998 98.408C131.498 98.484 131.91 98.65 132.234 98.906C132.562 99.162 132.804 99.486 132.96 99.878C133.12 100.266 133.2 100.698 133.2 101.174C133.2 101.878 133.022 102.484 132.666 102.992C132.31 103.496 131.764 103.808 131.028 103.928L130.41 103.982H128.184V107H126.738ZM131.7 107L129.996 103.484L131.466 103.16L133.338 107H131.7ZM128.184 102.632H130.248C130.328 102.632 130.418 102.628 130.518 102.62C130.618 102.612 130.71 102.596 130.794 102.572C131.034 102.512 131.222 102.406 131.358 102.254C131.498 102.102 131.596 101.93 131.652 101.738C131.712 101.546 131.742 101.358 131.742 101.174C131.742 100.99 131.712 100.802 131.652 100.61C131.596 100.414 131.498 100.24 131.358 100.088C131.222 99.936 131.034 99.83 130.794 99.77C130.71 99.746 130.618 99.732 130.518 99.728C130.418 99.72 130.328 99.716 130.248 99.716H128.184V102.632ZM140.717 107.18C139.853 107.18 139.113 106.992 138.497 106.616C137.881 106.236 137.407 105.708 137.075 105.032C136.747 104.356 136.583 103.572 136.583 102.68C136.583 101.788 136.747 101.004 137.075 100.328C137.407 99.652 137.881 99.126 138.497 98.75C139.113 98.37 139.853 98.18 140.717 98.18C141.581 98.18 142.321 98.37 142.937 98.75C143.557 99.126 144.031 99.652 144.359 100.328C144.691 101.004 144.857 101.788 144.857 102.68C144.857 103.572 144.691 104.356 144.359 105.032C144.031 105.708 143.557 106.236 142.937 106.616C142.321 106.992 141.581 107.18 140.717 107.18ZM140.717 105.818C141.297 105.822 141.779 105.694 142.163 105.434C142.551 105.174 142.841 104.808 143.033 104.336C143.229 103.864 143.327 103.312 143.327 102.68C143.327 102.048 143.229 101.5 143.033 101.036C142.841 100.568 142.551 100.204 142.163 99.944C141.779 99.684 141.297 99.55 140.717 99.542C140.137 99.538 139.655 99.666 139.271 99.926C138.887 100.186 138.597 100.552 138.401 101.024C138.209 101.496 138.113 102.048 138.113 102.68C138.113 103.312 138.209 103.862 138.401 104.33C138.593 104.794 138.881 105.156 139.265 105.416C139.653 105.676 140.137 105.81 140.717 105.818ZM148.573 107V98.36H150.019V107H148.573ZM153.893 107V99.716H151.097V98.36H158.135V99.716H155.339V107H153.893ZM159.094 107V98.36H164.674V99.716H160.54V101.846H163.954V103.202H160.54V105.644H164.674V107H159.094ZM166.113 107V98.36H167.415L170.403 104.48L173.391 98.36H174.693V107H173.343V101.462L170.691 107H170.115L167.469 101.462V107H166.113Z" fill="#ABABAB"/>
<path d="M67.615 56.15C66.8983 56.15 66.2933 55.9917 65.8 55.675C65.3067 55.355 64.9333 54.9133 64.68 54.35C64.4267 53.7867 64.3 53.1367 64.3 52.4C64.3 51.6633 64.4267 51.0133 64.68 50.45C64.9333 49.8867 65.3067 49.4467 65.8 49.13C66.2933 48.81 66.8983 48.65 67.615 48.65C68.335 48.65 68.94 48.81 69.43 49.13C69.9233 49.4467 70.2967 49.8867 70.55 50.45C70.8067 51.0133 70.935 51.6633 70.935 52.4C70.935 53.1367 70.8067 53.7867 70.55 54.35C70.2967 54.9133 69.9233 55.355 69.43 55.675C68.94 55.9917 68.335 56.15 67.615 56.15ZM67.615 55.445C68.1783 55.445 68.6483 55.3167 69.025 55.06C69.4017 54.8033 69.6833 54.4467 69.87 53.99C70.06 53.53 70.155 53 70.155 52.4C70.155 51.8 70.06 51.2717 69.87 50.815C69.6833 50.3583 69.4017 50.0017 69.025 49.745C68.6483 49.4883 68.1783 49.3583 67.615 49.355C67.0517 49.355 66.5833 49.4833 66.21 49.74C65.8367 49.9967 65.555 50.355 65.365 50.815C65.1783 51.2717 65.0833 51.8 65.08 52.4C65.0767 53 65.1683 53.5283 65.355 53.985C65.545 54.4383 65.8283 54.795 66.205 55.055C66.5817 55.3117 67.0517 55.4417 67.615 55.445ZM74.0383 49.575V48.75H74.7733V49.575H74.0383ZM74.0383 56V50.6H74.7733V56H74.0383ZM79.2123 56C78.9089 56.0633 78.6089 56.0883 78.3123 56.075C78.0189 56.0617 77.7556 55.9983 77.5223 55.885C77.2923 55.7717 77.1173 55.595 76.9973 55.355C76.9006 55.155 76.8473 54.9533 76.8373 54.75C76.8306 54.5433 76.8273 54.3083 76.8273 54.045V49.1H77.5573V54.015C77.5573 54.2417 77.5589 54.4317 77.5623 54.585C77.5689 54.735 77.6039 54.8683 77.6673 54.985C77.7873 55.2083 77.9773 55.3417 78.2373 55.385C78.5006 55.4283 78.8256 55.4183 79.2123 55.355V56ZM75.6723 51.23V50.6H79.2123V51.23H75.6723ZM82.3659 56.15C81.8392 56.15 81.3825 56.0333 80.9959 55.8C80.6125 55.5667 80.3142 55.2383 80.1009 54.815C79.8875 54.3917 79.7809 53.895 79.7809 53.325C79.7809 52.735 79.8859 52.225 80.0959 51.795C80.3059 51.365 80.6009 51.0333 80.9809 50.8C81.3642 50.5667 81.8159 50.45 82.3359 50.45C82.8692 50.45 83.3242 50.5733 83.7009 50.82C84.0775 51.0633 84.3625 51.4133 84.5559 51.87C84.7492 52.3267 84.8375 52.8717 84.8209 53.505H84.0709V53.245C84.0575 52.545 83.9059 52.0167 83.6159 51.66C83.3292 51.3033 82.9092 51.125 82.3559 51.125C81.7759 51.125 81.3309 51.3133 81.0209 51.69C80.7142 52.0667 80.5609 52.6033 80.5609 53.3C80.5609 53.98 80.7142 54.5083 81.0209 54.885C81.3309 55.2583 81.7692 55.445 82.3359 55.445C82.7225 55.445 83.0592 55.3567 83.3459 55.18C83.6359 55 83.8642 54.7417 84.0309 54.405L84.7159 54.67C84.5025 55.14 84.1875 55.505 83.7709 55.765C83.3575 56.0217 82.8892 56.15 82.3659 56.15ZM80.3009 53.505V52.89H84.4259V53.505H80.3009ZM92.224 56L92.229 52.455C92.229 52.0383 92.1123 51.7117 91.879 51.475C91.649 51.235 91.3557 51.115 90.999 51.115C90.7957 51.115 90.5973 51.1617 90.404 51.255C90.2107 51.3483 90.0507 51.4983 89.924 51.705C89.8007 51.9117 89.739 52.1817 89.739 52.515L89.304 52.39C89.294 52.0033 89.369 51.665 89.529 51.375C89.6923 51.085 89.9157 50.86 90.199 50.7C90.4857 50.5367 90.809 50.455 91.169 50.455C91.7123 50.455 92.1473 50.6233 92.474 50.96C92.8007 51.2933 92.964 51.745 92.964 52.315L92.959 56H92.224ZM85.779 56V50.6H86.439V51.93H86.519V56H85.779ZM89.009 56L89.014 52.505C89.014 52.075 88.899 51.7367 88.669 51.49C88.4423 51.24 88.1423 51.115 87.769 51.115C87.3957 51.115 87.094 51.2433 86.864 51.5C86.634 51.7533 86.519 52.0917 86.519 52.515L86.079 52.275C86.079 51.9283 86.1607 51.6183 86.324 51.345C86.4873 51.0683 86.7107 50.8517 86.994 50.695C87.2773 50.535 87.599 50.455 87.959 50.455C88.3023 50.455 88.6073 50.5283 88.874 50.675C89.144 50.8217 89.3557 51.035 89.509 51.315C89.6623 51.595 89.739 51.935 89.739 52.335L89.734 56H89.009ZM98.2775 56.145C97.6442 56.145 97.1225 56.0083 96.7125 55.735C96.3058 55.4617 96.0558 55.0817 95.9625 54.595L96.7125 54.47C96.7925 54.7767 96.9742 55.0217 97.2575 55.205C97.5442 55.385 97.8975 55.475 98.3175 55.475C98.7275 55.475 99.0508 55.39 99.2875 55.22C99.5242 55.0467 99.6425 54.8117 99.6425 54.515C99.6425 54.3483 99.6042 54.2133 99.5275 54.11C99.4542 54.0033 99.3025 53.905 99.0725 53.815C98.8425 53.725 98.4992 53.6183 98.0425 53.495C97.5525 53.3617 97.1692 53.2283 96.8925 53.095C96.6158 52.9617 96.4192 52.8083 96.3025 52.635C96.1858 52.4583 96.1275 52.2433 96.1275 51.99C96.1275 51.6833 96.2142 51.415 96.3875 51.185C96.5608 50.9517 96.8008 50.7717 97.1075 50.645C97.4142 50.515 97.7708 50.45 98.1775 50.45C98.5842 50.45 98.9475 50.5167 99.2675 50.65C99.5908 50.78 99.8508 50.9633 100.048 51.2C100.244 51.4367 100.361 51.7117 100.398 52.025L99.6475 52.16C99.5975 51.8433 99.4392 51.5933 99.1725 51.41C98.9092 51.2233 98.5742 51.1267 98.1675 51.12C97.7842 51.11 97.4725 51.1833 97.2325 51.34C96.9925 51.4933 96.8725 51.6983 96.8725 51.955C96.8725 52.0983 96.9158 52.2217 97.0025 52.325C97.0892 52.425 97.2458 52.52 97.4725 52.61C97.7025 52.7 98.0292 52.7983 98.4525 52.905C98.9492 53.0317 99.3392 53.165 99.6225 53.305C99.9058 53.445 100.108 53.61 100.228 53.8C100.348 53.99 100.408 54.225 100.408 54.505C100.408 55.015 100.218 55.4167 99.8375 55.71C99.4608 56 98.9408 56.145 98.2775 56.145ZM103.801 56.15C103.275 56.15 102.818 56.0333 102.431 55.8C102.048 55.5667 101.75 55.2383 101.536 54.815C101.323 54.3917 101.216 53.895 101.216 53.325C101.216 52.735 101.321 52.225 101.531 51.795C101.741 51.365 102.036 51.0333 102.416 50.8C102.8 50.5667 103.251 50.45 103.771 50.45C104.305 50.45 104.76 50.5733 105.136 50.82C105.513 51.0633 105.798 51.4133 105.991 51.87C106.185 52.3267 106.273 52.8717 106.256 53.505H105.506V53.245C105.493 52.545 105.341 52.0167 105.051 51.66C104.765 51.3033 104.345 51.125 103.791 51.125C103.211 51.125 102.766 51.3133 102.456 51.69C102.15 52.0667 101.996 52.6033 101.996 53.3C101.996 53.98 102.15 54.5083 102.456 54.885C102.766 55.2583 103.205 55.445 103.771 55.445C104.158 55.445 104.495 55.3567 104.781 55.18C105.071 55 105.3 54.7417 105.466 54.405L106.151 54.67C105.938 55.14 105.623 55.505 105.206 55.765C104.793 56.0217 104.325 56.15 103.801 56.15ZM101.736 53.505V52.89H105.861V53.505H101.736ZM107.366 56V50.6H108.026V51.9L107.896 51.73C107.956 51.57 108.034 51.4233 108.131 51.29C108.228 51.1533 108.333 51.0417 108.446 50.955C108.586 50.8317 108.749 50.7383 108.936 50.675C109.123 50.6083 109.311 50.57 109.501 50.56C109.691 50.5467 109.864 50.56 110.021 50.6V51.29C109.824 51.24 109.609 51.2283 109.376 51.255C109.143 51.2817 108.928 51.375 108.731 51.535C108.551 51.675 108.416 51.8433 108.326 52.04C108.236 52.2333 108.176 52.44 108.146 52.66C108.116 52.8767 108.101 53.0917 108.101 53.305V56H107.366ZM113.214 49.75H112.584L113.184 48.2H113.814L113.214 49.75ZM112.309 56.15C111.903 56.15 111.561 56.0767 111.284 55.93C111.011 55.7833 110.806 55.5883 110.669 55.345C110.533 55.1017 110.464 54.8367 110.464 54.55C110.464 54.2567 110.523 54.0067 110.639 53.8C110.759 53.59 110.921 53.4183 111.124 53.285C111.331 53.1517 111.569 53.05 111.839 52.98C112.113 52.9133 112.414 52.855 112.744 52.805C113.078 52.7517 113.403 52.7067 113.719 52.67C114.039 52.63 114.319 52.5917 114.559 52.555L114.299 52.715C114.309 52.1817 114.206 51.7867 113.989 51.53C113.773 51.2733 113.396 51.145 112.859 51.145C112.489 51.145 112.176 51.2283 111.919 51.395C111.666 51.5617 111.488 51.825 111.384 52.185L110.669 51.975C110.793 51.4917 111.041 51.1167 111.414 50.85C111.788 50.5833 112.273 50.45 112.869 50.45C113.363 50.45 113.781 50.5433 114.124 50.73C114.471 50.9133 114.716 51.18 114.859 51.53C114.926 51.6867 114.969 51.8617 114.989 52.055C115.009 52.2483 115.019 52.445 115.019 52.645V56H114.364V54.645L114.554 54.725C114.371 55.1883 114.086 55.5417 113.699 55.785C113.313 56.0283 112.849 56.15 112.309 56.15ZM112.394 55.515C112.738 55.515 113.038 55.4533 113.294 55.33C113.551 55.2067 113.758 55.0383 113.914 54.825C114.071 54.6083 114.173 54.365 114.219 54.095C114.259 53.9217 114.281 53.7317 114.284 53.525C114.288 53.315 114.289 53.1583 114.289 53.055L114.569 53.2C114.319 53.2333 114.048 53.2667 113.754 53.3C113.464 53.3333 113.178 53.3717 112.894 53.415C112.614 53.4583 112.361 53.51 112.134 53.57C111.981 53.6133 111.833 53.675 111.689 53.755C111.546 53.8317 111.428 53.935 111.334 54.065C111.244 54.195 111.199 54.3567 111.199 54.55C111.199 54.7067 111.238 54.8583 111.314 55.005C111.394 55.1517 111.521 55.2733 111.694 55.37C111.871 55.4667 112.104 55.515 112.394 55.515ZM120.563 56.15C120.02 56.15 119.56 56.0283 119.183 55.785C118.806 55.5417 118.52 55.2067 118.323 54.78C118.13 54.35 118.03 53.8567 118.023 53.3C118.03 52.7333 118.133 52.2367 118.333 51.81C118.533 51.38 118.821 51.0467 119.198 50.81C119.575 50.57 120.031 50.45 120.568 50.45C121.115 50.45 121.59 50.5833 121.993 50.85C122.4 51.1167 122.678 51.4817 122.828 51.945L122.108 52.175C121.981 51.8517 121.78 51.6017 121.503 51.425C121.23 51.245 120.916 51.155 120.563 51.155C120.166 51.155 119.838 51.2467 119.578 51.43C119.318 51.61 119.125 51.8617 118.998 52.185C118.871 52.5083 118.806 52.88 118.803 53.3C118.81 53.9467 118.96 54.4667 119.253 54.86C119.546 55.25 119.983 55.445 120.563 55.445C120.93 55.445 121.241 55.3617 121.498 55.195C121.758 55.025 121.955 54.7783 122.088 54.455L122.828 54.675C122.628 55.155 122.335 55.5217 121.948 55.775C121.561 56.025 121.1 56.15 120.563 56.15ZM125.376 56.15C124.969 56.15 124.628 56.0767 124.351 55.93C124.078 55.7833 123.873 55.5883 123.736 55.345C123.599 55.1017 123.531 54.8367 123.531 54.55C123.531 54.2567 123.589 54.0067 123.706 53.8C123.826 53.59 123.988 53.4183 124.191 53.285C124.398 53.1517 124.636 53.05 124.906 52.98C125.179 52.9133 125.481 52.855 125.811 52.805C126.144 52.7517 126.469 52.7067 126.786 52.67C127.106 52.63 127.386 52.5917 127.626 52.555L127.366 52.715C127.376 52.1817 127.273 51.7867 127.056 51.53C126.839 51.2733 126.463 51.145 125.926 51.145C125.556 51.145 125.243 51.2283 124.986 51.395C124.733 51.5617 124.554 51.825 124.451 52.185L123.736 51.975C123.859 51.4917 124.108 51.1167 124.481 50.85C124.854 50.5833 125.339 50.45 125.936 50.45C126.429 50.45 126.848 50.5433 127.191 50.73C127.538 50.9133 127.783 51.18 127.926 51.53C127.993 51.6867 128.036 51.8617 128.056 52.055C128.076 52.2483 128.086 52.445 128.086 52.645V56H127.431V54.645L127.621 54.725C127.438 55.1883 127.153 55.5417 126.766 55.785C126.379 56.0283 125.916 56.15 125.376 56.15ZM125.461 55.515C125.804 55.515 126.104 55.4533 126.361 55.33C126.618 55.2067 126.824 55.0383 126.981 54.825C127.138 54.6083 127.239 54.365 127.286 54.095C127.326 53.9217 127.348 53.7317 127.351 53.525C127.354 53.315 127.356 53.1583 127.356 53.055L127.636 53.2C127.386 53.2333 127.114 53.2667 126.821 53.3C126.531 53.3333 126.244 53.3717 125.961 53.415C125.681 53.4583 125.428 53.51 125.201 53.57C125.048 53.6133 124.899 53.675 124.756 53.755C124.613 53.8317 124.494 53.935 124.401 54.065C124.311 54.195 124.266 54.3567 124.266 54.55C124.266 54.7067 124.304 54.8583 124.381 55.005C124.461 55.1517 124.588 55.2733 124.761 55.37C124.938 55.4667 125.171 55.515 125.461 55.515ZM133.288 56V53.245C133.288 52.945 133.259 52.67 133.203 52.42C133.146 52.1667 133.054 51.9467 132.928 51.76C132.804 51.57 132.643 51.4233 132.443 51.32C132.246 51.2167 132.006 51.165 131.723 51.165C131.463 51.165 131.233 51.21 131.033 51.3C130.836 51.39 130.669 51.52 130.533 51.69C130.399 51.8567 130.298 52.06 130.228 52.3C130.158 52.54 130.123 52.8133 130.123 53.12L129.603 53.005C129.603 52.4517 129.699 51.9867 129.893 51.61C130.086 51.2333 130.353 50.9483 130.693 50.755C131.033 50.5617 131.423 50.465 131.863 50.465C132.186 50.465 132.468 50.515 132.708 50.615C132.951 50.715 133.156 50.85 133.323 51.02C133.493 51.19 133.629 51.385 133.733 51.605C133.836 51.8217 133.911 52.0533 133.958 52.3C134.004 52.5433 134.028 52.7867 134.028 53.03V56H133.288ZM129.383 56V50.6H130.048V51.93H130.123V56H129.383ZM137.536 56.15C136.992 56.15 136.532 56.0283 136.156 55.785C135.779 55.5417 135.492 55.2067 135.296 54.78C135.102 54.35 135.002 53.8567 134.996 53.3C135.002 52.7333 135.106 52.2367 135.306 51.81C135.506 51.38 135.794 51.0467 136.171 50.81C136.547 50.57 137.004 50.45 137.541 50.45C138.087 50.45 138.562 50.5833 138.966 50.85C139.372 51.1167 139.651 51.4817 139.801 51.945L139.081 52.175C138.954 51.8517 138.752 51.6017 138.476 51.425C138.202 51.245 137.889 51.155 137.536 51.155C137.139 51.155 136.811 51.2467 136.551 51.43C136.291 51.61 136.097 51.8617 135.971 52.185C135.844 52.5083 135.779 52.88 135.776 53.3C135.782 53.9467 135.932 54.4667 136.226 54.86C136.519 55.25 136.956 55.445 137.536 55.445C137.902 55.445 138.214 55.3617 138.471 55.195C138.731 55.025 138.927 54.7783 139.061 54.455L139.801 54.675C139.601 55.155 139.307 55.5217 138.921 55.775C138.534 56.025 138.072 56.15 137.536 56.15ZM142.971 56.15C142.445 56.15 141.988 56.0333 141.601 55.8C141.218 55.5667 140.92 55.2383 140.706 54.815C140.493 54.3917 140.386 53.895 140.386 53.325C140.386 52.735 140.491 52.225 140.701 51.795C140.911 51.365 141.206 51.0333 141.586 50.8C141.97 50.5667 142.421 50.45 142.941 50.45C143.475 50.45 143.93 50.5733 144.306 50.82C144.683 51.0633 144.968 51.4133 145.161 51.87C145.355 52.3267 145.443 52.8717 145.426 53.505H144.676V53.245C144.663 52.545 144.511 52.0167 144.221 51.66C143.935 51.3033 143.515 51.125 142.961 51.125C142.381 51.125 141.936 51.3133 141.626 51.69C141.32 52.0667 141.166 52.6033 141.166 53.3C141.166 53.98 141.32 54.5083 141.626 54.885C141.936 55.2583 142.375 55.445 142.941 55.445C143.328 55.445 143.665 55.3567 143.951 55.18C144.241 55 144.47 54.7417 144.636 54.405L145.321 54.67C145.108 55.14 144.793 55.505 144.376 55.765C143.963 56.0217 143.495 56.15 142.971 56.15ZM140.906 53.505V52.89H145.031V53.505H140.906ZM146.636 56V48.65H147.371V56H146.636ZM150.415 56.15C150.008 56.15 149.667 56.0767 149.39 55.93C149.117 55.7833 148.912 55.5883 148.775 55.345C148.638 55.1017 148.57 54.8367 148.57 54.55C148.57 54.2567 148.628 54.0067 148.745 53.8C148.865 53.59 149.027 53.4183 149.23 53.285C149.437 53.1517 149.675 53.05 149.945 52.98C150.218 52.9133 150.52 52.855 150.85 52.805C151.183 52.7517 151.508 52.7067 151.825 52.67C152.145 52.63 152.425 52.5917 152.665 52.555L152.405 52.715C152.415 52.1817 152.312 51.7867 152.095 51.53C151.878 51.2733 151.502 51.145 150.965 51.145C150.595 51.145 150.282 51.2283 150.025 51.395C149.772 51.5617 149.593 51.825 149.49 52.185L148.775 51.975C148.898 51.4917 149.147 51.1167 149.52 50.85C149.893 50.5833 150.378 50.45 150.975 50.45C151.468 50.45 151.887 50.5433 152.23 50.73C152.577 50.9133 152.822 51.18 152.965 51.53C153.032 51.6867 153.075 51.8617 153.095 52.055C153.115 52.2483 153.125 52.445 153.125 52.645V56H152.47V54.645L152.66 54.725C152.477 55.1883 152.192 55.5417 151.805 55.785C151.418 56.0283 150.955 56.15 150.415 56.15ZM150.5 55.515C150.843 55.515 151.143 55.4533 151.4 55.33C151.657 55.2067 151.863 55.0383 152.02 54.825C152.177 54.6083 152.278 54.365 152.325 54.095C152.365 53.9217 152.387 53.7317 152.39 53.525C152.393 53.315 152.395 53.1583 152.395 53.055L152.675 53.2C152.425 53.2333 152.153 53.2667 151.86 53.3C151.57 53.3333 151.283 53.3717 151 53.415C150.72 53.4583 150.467 53.51 150.24 53.57C150.087 53.6133 149.938 53.675 149.795 53.755C149.652 53.8317 149.533 53.935 149.44 54.065C149.35 54.195 149.305 54.3567 149.305 54.55C149.305 54.7067 149.343 54.8583 149.42 55.005C149.5 55.1517 149.627 55.2733 149.8 55.37C149.977 55.4667 150.21 55.515 150.5 55.515ZM156.522 56.15C156.018 56.15 155.588 56.025 155.232 55.775C154.875 55.5217 154.602 55.18 154.412 54.75C154.222 54.32 154.127 53.835 154.127 53.295C154.127 52.7583 154.22 52.275 154.407 51.845C154.597 51.415 154.868 51.075 155.222 50.825C155.575 50.575 155.998 50.45 156.492 50.45C156.998 50.45 157.425 50.5733 157.772 50.82C158.118 51.0667 158.38 51.405 158.557 51.835C158.737 52.2617 158.827 52.7483 158.827 53.295C158.827 53.8317 158.738 54.3167 158.562 54.75C158.385 55.18 158.125 55.5217 157.782 55.775C157.438 56.025 157.018 56.15 156.522 56.15ZM156.597 55.465C156.98 55.465 157.297 55.3717 157.547 55.185C157.797 54.9983 157.983 54.7417 158.107 54.415C158.23 54.085 158.292 53.7117 158.292 53.295C158.292 52.8717 158.23 52.4983 158.107 52.175C157.983 51.8483 157.797 51.5933 157.547 51.41C157.3 51.2267 156.988 51.135 156.612 51.135C156.225 51.135 155.905 51.23 155.652 51.42C155.398 51.61 155.21 51.8683 155.087 52.195C154.967 52.5217 154.907 52.8883 154.907 53.295C154.907 53.705 154.968 54.075 155.092 54.405C155.218 54.7317 155.407 54.99 155.657 55.18C155.907 55.37 156.22 55.465 156.597 55.465ZM158.292 56V51.935H158.212V48.8H158.952V56H158.292ZM162.609 56.15C162.073 56.15 161.614 56.0283 161.234 55.785C160.854 55.5417 160.563 55.205 160.359 54.775C160.156 54.345 160.054 53.8517 160.054 53.295C160.054 52.7283 160.158 52.2317 160.364 51.805C160.571 51.3783 160.864 51.0467 161.244 50.81C161.628 50.57 162.083 50.45 162.609 50.45C163.149 50.45 163.609 50.5717 163.989 50.815C164.373 51.055 164.664 51.39 164.864 51.82C165.068 52.2467 165.169 52.7383 165.169 53.295C165.169 53.8617 165.068 54.36 164.864 54.79C164.661 55.2167 164.368 55.55 163.984 55.79C163.601 56.03 163.143 56.15 162.609 56.15ZM162.609 55.445C163.209 55.445 163.656 55.2467 163.949 54.85C164.243 54.45 164.389 53.9317 164.389 53.295C164.389 52.6417 164.241 52.1217 163.944 51.735C163.651 51.3483 163.206 51.155 162.609 51.155C162.206 51.155 161.873 51.2467 161.609 51.43C161.349 51.61 161.154 51.8617 161.024 52.185C160.898 52.505 160.834 52.875 160.834 53.295C160.834 53.945 160.984 54.4667 161.284 54.86C161.584 55.25 162.026 55.445 162.609 55.445ZM170.559 56.15C170.033 56.15 169.576 56.0333 169.189 55.8C168.806 55.5667 168.508 55.2383 168.294 54.815C168.081 54.3917 167.974 53.895 167.974 53.325C167.974 52.735 168.079 52.225 168.289 51.795C168.499 51.365 168.794 51.0333 169.174 50.8C169.558 50.5667 170.009 50.45 170.529 50.45C171.063 50.45 171.518 50.5733 171.894 50.82C172.271 51.0633 172.556 51.4133 172.749 51.87C172.943 52.3267 173.031 52.8717 173.014 53.505H172.264V53.245C172.251 52.545 172.099 52.0167 171.809 51.66C171.523 51.3033 171.103 51.125 170.549 51.125C169.969 51.125 169.524 51.3133 169.214 51.69C168.908 52.0667 168.754 52.6033 168.754 53.3C168.754 53.98 168.908 54.5083 169.214 54.885C169.524 55.2583 169.963 55.445 170.529 55.445C170.916 55.445 171.253 55.3567 171.539 55.18C171.829 55 172.058 54.7417 172.224 54.405L172.909 54.67C172.696 55.14 172.381 55.505 171.964 55.765C171.551 56.0217 171.083 56.15 170.559 56.15ZM168.494 53.505V52.89H172.619V53.505H168.494ZM176.126 56V50.6H176.786V51.9L176.656 51.73C176.716 51.57 176.794 51.4233 176.891 51.29C176.987 51.1533 177.092 51.0417 177.206 50.955C177.346 50.8317 177.509 50.7383 177.696 50.675C177.882 50.6083 178.071 50.57 178.261 50.56C178.451 50.5467 178.624 50.56 178.781 50.6V51.29C178.584 51.24 178.369 51.2283 178.136 51.255C177.902 51.2817 177.687 51.375 177.491 51.535C177.311 51.675 177.176 51.8433 177.086 52.04C176.996 52.2333 176.936 52.44 176.906 52.66C176.876 52.8767 176.861 53.0917 176.861 53.305V56H176.126ZM181.917 56.15C181.39 56.15 180.933 56.0333 180.547 55.8C180.163 55.5667 179.865 55.2383 179.652 54.815C179.438 54.3917 179.332 53.895 179.332 53.325C179.332 52.735 179.437 52.225 179.647 51.795C179.857 51.365 180.152 51.0333 180.532 50.8C180.915 50.5667 181.367 50.45 181.887 50.45C182.42 50.45 182.875 50.5733 183.252 50.82C183.628 51.0633 183.913 51.4133 184.107 51.87C184.3 52.3267 184.388 52.8717 184.372 53.505H183.622V53.245C183.608 52.545 183.457 52.0167 183.167 51.66C182.88 51.3033 182.46 51.125 181.907 51.125C181.327 51.125 180.882 51.3133 180.572 51.69C180.265 52.0667 180.112 52.6033 180.112 53.3C180.112 53.98 180.265 54.5083 180.572 54.885C180.882 55.2583 181.32 55.445 181.887 55.445C182.273 55.445 182.61 55.3567 182.897 55.18C183.187 55 183.415 54.7417 183.582 54.405L184.267 54.67C184.053 55.14 183.738 55.505 183.322 55.765C182.908 56.0217 182.44 56.15 181.917 56.15ZM179.852 53.505V52.89H183.977V53.505H179.852ZM191.775 56L191.78 52.455C191.78 52.0383 191.663 51.7117 191.43 51.475C191.2 51.235 190.906 51.115 190.55 51.115C190.346 51.115 190.148 51.1617 189.955 51.255C189.761 51.3483 189.601 51.4983 189.475 51.705C189.351 51.9117 189.29 52.1817 189.29 52.515L188.855 52.39C188.845 52.0033 188.92 51.665 189.08 51.375C189.243 51.085 189.466 50.86 189.75 50.7C190.036 50.5367 190.36 50.455 190.72 50.455C191.263 50.455 191.698 50.6233 192.025 50.96C192.351 51.2933 192.515 51.745 192.515 52.315L192.51 56H191.775ZM185.33 56V50.6H185.99V51.93H186.07V56H185.33ZM188.56 56L188.565 52.505C188.565 52.075 188.45 51.7367 188.22 51.49C187.993 51.24 187.693 51.115 187.32 51.115C186.946 51.115 186.645 51.2433 186.415 51.5C186.185 51.7533 186.07 52.0917 186.07 52.515L185.63 52.275C185.63 51.9283 185.711 51.6183 185.875 51.345C186.038 51.0683 186.261 50.8517 186.545 50.695C186.828 50.535 187.15 50.455 187.51 50.455C187.853 50.455 188.158 50.5283 188.425 50.675C188.695 50.8217 188.906 51.035 189.06 51.315C189.213 51.595 189.29 51.935 189.29 52.335L189.285 56H188.56ZM196.037 56.15C195.5 56.15 195.042 56.0283 194.662 55.785C194.282 55.5417 193.99 55.205 193.787 54.775C193.584 54.345 193.482 53.8517 193.482 53.295C193.482 52.7283 193.585 52.2317 193.792 51.805C193.999 51.3783 194.292 51.0467 194.672 50.81C195.055 50.57 195.51 50.45 196.037 50.45C196.577 50.45 197.037 50.5717 197.417 50.815C197.8 51.055 198.092 51.39 198.292 51.82C198.495 52.2467 198.597 52.7383 198.597 53.295C198.597 53.8617 198.495 54.36 198.292 54.79C198.089 55.2167 197.795 55.55 197.412 55.79C197.029 56.03 196.57 56.15 196.037 56.15ZM196.037 55.445C196.637 55.445 197.084 55.2467 197.377 54.85C197.67 54.45 197.817 53.9317 197.817 53.295C197.817 52.6417 197.669 52.1217 197.372 51.735C197.079 51.3483 196.634 51.155 196.037 51.155C195.634 51.155 195.3 51.2467 195.037 51.43C194.777 51.61 194.582 51.8617 194.452 52.185C194.325 52.505 194.262 52.875 194.262 53.295C194.262 53.945 194.412 54.4667 194.712 54.86C195.012 55.25 195.454 55.445 196.037 55.445ZM200.965 56L199.005 50.6H199.75L201.345 55.04L202.93 50.6H203.685L201.725 56H200.965ZM204.683 49.575V48.75H205.418V49.575H204.683ZM204.683 56V50.6H205.418V56H204.683ZM209.012 56.15C208.508 56.15 208.078 56.025 207.722 55.775C207.365 55.5217 207.092 55.18 206.902 54.75C206.712 54.32 206.617 53.835 206.617 53.295C206.617 52.7583 206.71 52.275 206.897 51.845C207.087 51.415 207.358 51.075 207.712 50.825C208.065 50.575 208.488 50.45 208.982 50.45C209.488 50.45 209.915 50.5733 210.262 50.82C210.608 51.0667 210.87 51.405 211.047 51.835C211.227 52.2617 211.317 52.7483 211.317 53.295C211.317 53.8317 211.228 54.3167 211.052 54.75C210.875 55.18 210.615 55.5217 210.272 55.775C209.928 56.025 209.508 56.15 209.012 56.15ZM209.087 55.465C209.47 55.465 209.787 55.3717 210.037 55.185C210.287 54.9983 210.473 54.7417 210.597 54.415C210.72 54.085 210.782 53.7117 210.782 53.295C210.782 52.8717 210.72 52.4983 210.597 52.175C210.473 51.8483 210.287 51.5933 210.037 51.41C209.79 51.2267 209.478 51.135 209.102 51.135C208.715 51.135 208.395 51.23 208.142 51.42C207.888 51.61 207.7 51.8683 207.577 52.195C207.457 52.5217 207.397 52.8883 207.397 53.295C207.397 53.705 207.458 54.075 207.582 54.405C207.708 54.7317 207.897 54.99 208.147 55.18C208.397 55.37 208.71 55.465 209.087 55.465ZM210.782 56V51.935H210.702V48.8H211.442V56H210.782ZM215.1 56.15C214.563 56.15 214.105 56.0283 213.725 55.785C213.345 55.5417 213.053 55.205 212.85 54.775C212.646 54.345 212.545 53.8517 212.545 53.295C212.545 52.7283 212.648 52.2317 212.855 51.805C213.061 51.3783 213.355 51.0467 213.735 50.81C214.118 50.57 214.573 50.45 215.1 50.45C215.64 50.45 216.1 50.5717 216.48 50.815C216.863 51.055 217.155 51.39 217.355 51.82C217.558 52.2467 217.66 52.7383 217.66 53.295C217.66 53.8617 217.558 54.36 217.355 54.79C217.151 55.2167 216.858 55.55 216.475 55.79C216.091 56.03 215.633 56.15 215.1 56.15ZM215.1 55.445C215.7 55.445 216.146 55.2467 216.44 54.85C216.733 54.45 216.88 53.9317 216.88 53.295C216.88 52.6417 216.731 52.1217 216.435 51.735C216.141 51.3483 215.696 51.155 215.1 51.155C214.696 51.155 214.363 51.2467 214.1 51.43C213.84 51.61 213.645 51.8617 213.515 52.185C213.388 52.505 213.325 52.875 213.325 53.295C213.325 53.945 213.475 54.4667 213.775 54.86C214.075 55.25 214.516 55.445 215.1 55.445ZM222.859 56.15C222.356 56.15 221.926 56.025 221.569 55.775C221.213 55.5217 220.939 55.18 220.749 54.75C220.559 54.32 220.464 53.835 220.464 53.295C220.464 52.7583 220.558 52.275 220.744 51.845C220.934 51.415 221.206 51.075 221.559 50.825C221.913 50.575 222.336 50.45 222.829 50.45C223.336 50.45 223.763 50.5733 224.109 50.82C224.456 51.0667 224.718 51.405 224.894 51.835C225.074 52.2617 225.164 52.7483 225.164 53.295C225.164 53.8317 225.076 54.3167 224.899 54.75C224.723 55.18 224.463 55.5217 224.119 55.775C223.776 56.025 223.356 56.15 222.859 56.15ZM222.934 55.465C223.318 55.465 223.634 55.3717 223.884 55.185C224.134 54.9983 224.321 54.7417 224.444 54.415C224.568 54.085 224.629 53.7117 224.629 53.295C224.629 52.8717 224.568 52.4983 224.444 52.175C224.321 51.8483 224.134 51.5933 223.884 51.41C223.638 51.2267 223.326 51.135 222.949 51.135C222.563 51.135 222.243 51.23 221.989 51.42C221.736 51.61 221.548 51.8683 221.424 52.195C221.304 52.5217 221.244 52.8883 221.244 53.295C221.244 53.705 221.306 54.075 221.429 54.405C221.556 54.7317 221.744 54.99 221.994 55.18C222.244 55.37 222.558 55.465 222.934 55.465ZM224.629 56V51.935H224.549V48.8H225.289V56H224.629ZM228.947 56.15C228.411 56.15 227.952 56.0283 227.572 55.785C227.192 55.5417 226.901 55.205 226.697 54.775C226.494 54.345 226.392 53.8517 226.392 53.295C226.392 52.7283 226.496 52.2317 226.702 51.805C226.909 51.3783 227.202 51.0467 227.582 50.81C227.966 50.57 228.421 50.45 228.947 50.45C229.487 50.45 229.947 50.5717 230.327 50.815C230.711 51.055 231.002 51.39 231.202 51.82C231.406 52.2467 231.507 52.7383 231.507 53.295C231.507 53.8617 231.406 54.36 231.202 54.79C230.999 55.2167 230.706 55.55 230.322 55.79C229.939 56.03 229.481 56.15 228.947 56.15ZM228.947 55.445C229.547 55.445 229.994 55.2467 230.287 54.85C230.581 54.45 230.727 53.9317 230.727 53.295C230.727 52.6417 230.579 52.1217 230.282 51.735C229.989 51.3483 229.544 51.155 228.947 51.155C228.544 51.155 228.211 51.2467 227.947 51.43C227.687 51.61 227.492 51.8617 227.362 52.185C227.236 52.505 227.172 52.875 227.172 53.295C227.172 53.945 227.322 54.4667 227.622 54.86C227.922 55.25 228.364 55.445 228.947 55.445ZM237.037 56.15C236.54 56.15 236.12 56.025 235.777 55.775C235.434 55.5217 235.174 55.18 234.997 54.75C234.82 54.3167 234.732 53.8317 234.732 53.295C234.732 52.7483 234.82 52.2617 234.997 51.835C235.177 51.405 235.44 51.0667 235.787 50.82C236.134 50.5733 236.56 50.45 237.067 50.45C237.56 50.45 237.984 50.575 238.337 50.825C238.69 51.075 238.96 51.415 239.147 51.845C239.337 52.275 239.432 52.7583 239.432 53.295C239.432 53.835 239.337 54.32 239.147 54.75C238.957 55.18 238.684 55.5217 238.327 55.775C237.97 56.025 237.54 56.15 237.037 56.15ZM234.607 58.4V50.6H235.267V54.665H235.347V58.4H234.607ZM236.962 55.465C237.339 55.465 237.652 55.37 237.902 55.18C238.152 54.99 238.339 54.7317 238.462 54.405C238.589 54.075 238.652 53.705 238.652 53.295C238.652 52.8883 238.59 52.5217 238.467 52.195C238.344 51.8683 238.155 51.61 237.902 51.42C237.652 51.23 237.334 51.135 236.947 51.135C236.57 51.135 236.257 51.2267 236.007 51.41C235.76 51.5933 235.575 51.8483 235.452 52.175C235.329 52.4983 235.267 52.8717 235.267 53.295C235.267 53.7117 235.329 54.085 235.452 54.415C235.575 54.7417 235.762 54.9983 236.012 55.185C236.262 55.3717 236.579 55.465 236.962 55.465ZM242.815 56.15C242.288 56.15 241.832 56.0333 241.445 55.8C241.062 55.5667 240.763 55.2383 240.55 54.815C240.337 54.3917 240.23 53.895 240.23 53.325C240.23 52.735 240.335 52.225 240.545 51.795C240.755 51.365 241.05 51.0333 241.43 50.8C241.813 50.5667 242.265 50.45 242.785 50.45C243.318 50.45 243.773 50.5733 244.15 50.82C244.527 51.0633 244.812 51.4133 245.005 51.87C245.198 52.3267 245.287 52.8717 245.27 53.505H244.52V53.245C244.507 52.545 244.355 52.0167 244.065 51.66C243.778 51.3033 243.358 51.125 242.805 51.125C242.225 51.125 241.78 51.3133 241.47 51.69C241.163 52.0667 241.01 52.6033 241.01 53.3C241.01 53.98 241.163 54.5083 241.47 54.885C241.78 55.2583 242.218 55.445 242.785 55.445C243.172 55.445 243.508 55.3567 243.795 55.18C244.085 55 244.313 54.7417 244.48 54.405L245.165 54.67C244.952 55.14 244.637 55.505 244.22 55.765C243.807 56.0217 243.338 56.15 242.815 56.15ZM240.75 53.505V52.89H244.875V53.505H240.75ZM248.475 56.15C247.971 56.15 247.541 56.025 247.185 55.775C246.828 55.5217 246.555 55.18 246.365 54.75C246.175 54.32 246.08 53.835 246.08 53.295C246.08 52.7583 246.173 52.275 246.36 51.845C246.55 51.415 246.821 51.075 247.175 50.825C247.528 50.575 247.951 50.45 248.445 50.45C248.951 50.45 249.378 50.5733 249.725 50.82C250.071 51.0667 250.333 51.405 250.51 51.835C250.69 52.2617 250.78 52.7483 250.78 53.295C250.78 53.8317 250.691 54.3167 250.515 54.75C250.338 55.18 250.078 55.5217 249.735 55.775C249.391 56.025 248.971 56.15 248.475 56.15ZM248.55 55.465C248.933 55.465 249.25 55.3717 249.5 55.185C249.75 54.9983 249.936 54.7417 250.06 54.415C250.183 54.085 250.245 53.7117 250.245 53.295C250.245 52.8717 250.183 52.4983 250.06 52.175C249.936 51.8483 249.75 51.5933 249.5 51.41C249.253 51.2267 248.941 51.135 248.565 51.135C248.178 51.135 247.858 51.23 247.605 51.42C247.351 51.61 247.163 51.8683 247.04 52.195C246.92 52.5217 246.86 52.8883 246.86 53.295C246.86 53.705 246.921 54.075 247.045 54.405C247.171 54.7317 247.36 54.99 247.61 55.18C247.86 55.37 248.173 55.465 248.55 55.465ZM250.245 56V51.935H250.165V48.8H250.905V56H250.245ZM252.407 49.575V48.75H253.142V49.575H252.407ZM252.407 56V50.6H253.142V56H252.407ZM256.736 56.15C256.233 56.15 255.803 56.025 255.446 55.775C255.09 55.5217 254.816 55.18 254.626 54.75C254.436 54.32 254.341 53.835 254.341 53.295C254.341 52.7583 254.435 52.275 254.621 51.845C254.811 51.415 255.083 51.075 255.436 50.825C255.79 50.575 256.213 50.45 256.706 50.45C257.213 50.45 257.64 50.5733 257.986 50.82C258.333 51.0667 258.595 51.405 258.771 51.835C258.951 52.2617 259.041 52.7483 259.041 53.295C259.041 53.8317 258.953 54.3167 258.776 54.75C258.6 55.18 258.34 55.5217 257.996 55.775C257.653 56.025 257.233 56.15 256.736 56.15ZM256.811 55.465C257.195 55.465 257.511 55.3717 257.761 55.185C258.011 54.9983 258.198 54.7417 258.321 54.415C258.445 54.085 258.506 53.7117 258.506 53.295C258.506 52.8717 258.445 52.4983 258.321 52.175C258.198 51.8483 258.011 51.5933 257.761 51.41C257.515 51.2267 257.203 51.135 256.826 51.135C256.44 51.135 256.12 51.23 255.866 51.42C255.613 51.61 255.425 51.8683 255.301 52.195C255.181 52.5217 255.121 52.8883 255.121 53.295C255.121 53.705 255.183 54.075 255.306 54.405C255.433 54.7317 255.621 54.99 255.871 55.18C256.121 55.37 256.435 55.465 256.811 55.465ZM258.506 56V51.935H258.426V48.8H259.166V56H258.506ZM262.824 56.15C262.287 56.15 261.829 56.0283 261.449 55.785C261.069 55.5417 260.777 55.205 260.574 54.775C260.371 54.345 260.269 53.8517 260.269 53.295C260.269 52.7283 260.372 52.2317 260.579 51.805C260.786 51.3783 261.079 51.0467 261.459 50.81C261.842 50.57 262.297 50.45 262.824 50.45C263.364 50.45 263.824 50.5717 264.204 50.815C264.587 51.055 264.879 51.39 265.079 51.82C265.282 52.2467 265.384 52.7383 265.384 53.295C265.384 53.8617 265.282 54.36 265.079 54.79C264.876 55.2167 264.582 55.55 264.199 55.79C263.816 56.03 263.357 56.15 262.824 56.15ZM262.824 55.445C263.424 55.445 263.871 55.2467 264.164 54.85C264.457 54.45 264.604 53.9317 264.604 53.295C264.604 52.6417 264.456 52.1217 264.159 51.735C263.866 51.3483 263.421 51.155 262.824 51.155C262.421 51.155 262.087 51.2467 261.824 51.43C261.564 51.61 261.369 51.8617 261.239 52.185C261.112 52.505 261.049 52.875 261.049 53.295C261.049 53.945 261.199 54.4667 261.499 54.86C261.799 55.25 262.241 55.445 262.824 55.445ZM266.432 56V55.145H267.287V56H266.432Z" fill="#ABABAB"/>
<path d="M67.615 120.15C66.8983 120.15 66.2933 119.992 65.8 119.675C65.3067 119.355 64.9333 118.913 64.68 118.35C64.4267 117.787 64.3 117.137 64.3 116.4C64.3 115.663 64.4267 115.013 64.68 114.45C64.9333 113.887 65.3067 113.447 65.8 113.13C66.2933 112.81 66.8983 112.65 67.615 112.65C68.335 112.65 68.94 112.81 69.43 113.13C69.9233 113.447 70.2967 113.887 70.55 114.45C70.8067 115.013 70.935 115.663 70.935 116.4C70.935 117.137 70.8067 117.787 70.55 118.35C70.2967 118.913 69.9233 119.355 69.43 119.675C68.94 119.992 68.335 120.15 67.615 120.15ZM67.615 119.445C68.1783 119.445 68.6483 119.317 69.025 119.06C69.4017 118.803 69.6833 118.447 69.87 117.99C70.06 117.53 70.155 117 70.155 116.4C70.155 115.8 70.06 115.272 69.87 114.815C69.6833 114.358 69.4017 114.002 69.025 113.745C68.6483 113.488 68.1783 113.358 67.615 113.355C67.0517 113.355 66.5833 113.483 66.21 113.74C65.8367 113.997 65.555 114.355 65.365 114.815C65.1783 115.272 65.0833 115.8 65.08 116.4C65.0767 117 65.1683 117.528 65.355 117.985C65.545 118.438 65.8283 118.795 66.205 119.055C66.5817 119.312 67.0517 119.442 67.615 119.445ZM74.0383 113.575V112.75H74.7733V113.575H74.0383ZM74.0383 120V114.6H74.7733V120H74.0383ZM79.2123 120C78.9089 120.063 78.6089 120.088 78.3123 120.075C78.0189 120.062 77.7556 119.998 77.5223 119.885C77.2923 119.772 77.1173 119.595 76.9973 119.355C76.9006 119.155 76.8473 118.953 76.8373 118.75C76.8306 118.543 76.8273 118.308 76.8273 118.045V113.1H77.5573V118.015C77.5573 118.242 77.5589 118.432 77.5623 118.585C77.5689 118.735 77.6039 118.868 77.6673 118.985C77.7873 119.208 77.9773 119.342 78.2373 119.385C78.5006 119.428 78.8256 119.418 79.2123 119.355V120ZM75.6723 115.23V114.6H79.2123V115.23H75.6723ZM82.3659 120.15C81.8392 120.15 81.3825 120.033 80.9959 119.8C80.6125 119.567 80.3142 119.238 80.1009 118.815C79.8875 118.392 79.7809 117.895 79.7809 117.325C79.7809 116.735 79.8859 116.225 80.0959 115.795C80.3059 115.365 80.6009 115.033 80.9809 114.8C81.3642 114.567 81.8159 114.45 82.3359 114.45C82.8692 114.45 83.3242 114.573 83.7009 114.82C84.0775 115.063 84.3625 115.413 84.5559 115.87C84.7492 116.327 84.8375 116.872 84.8209 117.505H84.0709V117.245C84.0575 116.545 83.9059 116.017 83.6159 115.66C83.3292 115.303 82.9092 115.125 82.3559 115.125C81.7759 115.125 81.3309 115.313 81.0209 115.69C80.7142 116.067 80.5609 116.603 80.5609 117.3C80.5609 117.98 80.7142 118.508 81.0209 118.885C81.3309 119.258 81.7692 119.445 82.3359 119.445C82.7225 119.445 83.0592 119.357 83.3459 119.18C83.6359 119 83.8642 118.742 84.0309 118.405L84.7159 118.67C84.5025 119.14 84.1875 119.505 83.7709 119.765C83.3575 120.022 82.8892 120.15 82.3659 120.15ZM80.3009 117.505V116.89H84.4259V117.505H80.3009ZM92.224 120L92.229 116.455C92.229 116.038 92.1123 115.712 91.879 115.475C91.649 115.235 91.3557 115.115 90.999 115.115C90.7957 115.115 90.5973 115.162 90.404 115.255C90.2107 115.348 90.0507 115.498 89.924 115.705C89.8007 115.912 89.739 116.182 89.739 116.515L89.304 116.39C89.294 116.003 89.369 115.665 89.529 115.375C89.6923 115.085 89.9157 114.86 90.199 114.7C90.4857 114.537 90.809 114.455 91.169 114.455C91.7123 114.455 92.1473 114.623 92.474 114.96C92.8007 115.293 92.964 115.745 92.964 116.315L92.959 120H92.224ZM85.779 120V114.6H86.439V115.93H86.519V120H85.779ZM89.009 120L89.014 116.505C89.014 116.075 88.899 115.737 88.669 115.49C88.4423 115.24 88.1423 115.115 87.769 115.115C87.3957 115.115 87.094 115.243 86.864 115.5C86.634 115.753 86.519 116.092 86.519 116.515L86.079 116.275C86.079 115.928 86.1607 115.618 86.324 115.345C86.4873 115.068 86.7107 114.852 86.994 114.695C87.2773 114.535 87.599 114.455 87.959 114.455C88.3023 114.455 88.6073 114.528 88.874 114.675C89.144 114.822 89.3557 115.035 89.509 115.315C89.6623 115.595 89.739 115.935 89.739 116.335L89.734 120H89.009ZM98.2775 120.145C97.6442 120.145 97.1225 120.008 96.7125 119.735C96.3058 119.462 96.0558 119.082 95.9625 118.595L96.7125 118.47C96.7925 118.777 96.9742 119.022 97.2575 119.205C97.5442 119.385 97.8975 119.475 98.3175 119.475C98.7275 119.475 99.0508 119.39 99.2875 119.22C99.5242 119.047 99.6425 118.812 99.6425 118.515C99.6425 118.348 99.6042 118.213 99.5275 118.11C99.4542 118.003 99.3025 117.905 99.0725 117.815C98.8425 117.725 98.4992 117.618 98.0425 117.495C97.5525 117.362 97.1692 117.228 96.8925 117.095C96.6158 116.962 96.4192 116.808 96.3025 116.635C96.1858 116.458 96.1275 116.243 96.1275 115.99C96.1275 115.683 96.2142 115.415 96.3875 115.185C96.5608 114.952 96.8008 114.772 97.1075 114.645C97.4142 114.515 97.7708 114.45 98.1775 114.45C98.5842 114.45 98.9475 114.517 99.2675 114.65C99.5908 114.78 99.8508 114.963 100.048 115.2C100.244 115.437 100.361 115.712 100.398 116.025L99.6475 116.16C99.5975 115.843 99.4392 115.593 99.1725 115.41C98.9092 115.223 98.5742 115.127 98.1675 115.12C97.7842 115.11 97.4725 115.183 97.2325 115.34C96.9925 115.493 96.8725 115.698 96.8725 115.955C96.8725 116.098 96.9158 116.222 97.0025 116.325C97.0892 116.425 97.2458 116.52 97.4725 116.61C97.7025 116.7 98.0292 116.798 98.4525 116.905C98.9492 117.032 99.3392 117.165 99.6225 117.305C99.9058 117.445 100.108 117.61 100.228 117.8C100.348 117.99 100.408 118.225 100.408 118.505C100.408 119.015 100.218 119.417 99.8375 119.71C99.4608 120 98.9408 120.145 98.2775 120.145ZM103.801 120.15C103.275 120.15 102.818 120.033 102.431 119.8C102.048 119.567 101.75 119.238 101.536 118.815C101.323 118.392 101.216 117.895 101.216 117.325C101.216 116.735 101.321 116.225 101.531 115.795C101.741 115.365 102.036 115.033 102.416 114.8C102.8 114.567 103.251 114.45 103.771 114.45C104.305 114.45 104.76 114.573 105.136 114.82C105.513 115.063 105.798 115.413 105.991 115.87C106.185 116.327 106.273 116.872 106.256 117.505H105.506V117.245C105.493 116.545 105.341 116.017 105.051 115.66C104.765 115.303 104.345 115.125 103.791 115.125C103.211 115.125 102.766 115.313 102.456 115.69C102.15 116.067 101.996 116.603 101.996 117.3C101.996 117.98 102.15 118.508 102.456 118.885C102.766 119.258 103.205 119.445 103.771 119.445C104.158 119.445 104.495 119.357 104.781 119.18C105.071 119 105.3 118.742 105.466 118.405L106.151 118.67C105.938 119.14 105.623 119.505 105.206 119.765C104.793 120.022 104.325 120.15 103.801 120.15ZM101.736 117.505V116.89H105.861V117.505H101.736ZM107.366 120V114.6H108.026V115.9L107.896 115.73C107.956 115.57 108.034 115.423 108.131 115.29C108.228 115.153 108.333 115.042 108.446 114.955C108.586 114.832 108.749 114.738 108.936 114.675C109.123 114.608 109.311 114.57 109.501 114.56C109.691 114.547 109.864 114.56 110.021 114.6V115.29C109.824 115.24 109.609 115.228 109.376 115.255C109.143 115.282 108.928 115.375 108.731 115.535C108.551 115.675 108.416 115.843 108.326 116.04C108.236 116.233 108.176 116.44 108.146 116.66C108.116 116.877 108.101 117.092 108.101 117.305V120H107.366ZM113.214 113.75H112.584L113.184 112.2H113.814L113.214 113.75ZM112.309 120.15C111.903 120.15 111.561 120.077 111.284 119.93C111.011 119.783 110.806 119.588 110.669 119.345C110.533 119.102 110.464 118.837 110.464 118.55C110.464 118.257 110.523 118.007 110.639 117.8C110.759 117.59 110.921 117.418 111.124 117.285C111.331 117.152 111.569 117.05 111.839 116.98C112.113 116.913 112.414 116.855 112.744 116.805C113.078 116.752 113.403 116.707 113.719 116.67C114.039 116.63 114.319 116.592 114.559 116.555L114.299 116.715C114.309 116.182 114.206 115.787 113.989 115.53C113.773 115.273 113.396 115.145 112.859 115.145C112.489 115.145 112.176 115.228 111.919 115.395C111.666 115.562 111.488 115.825 111.384 116.185L110.669 115.975C110.793 115.492 111.041 115.117 111.414 114.85C111.788 114.583 112.273 114.45 112.869 114.45C113.363 114.45 113.781 114.543 114.124 114.73C114.471 114.913 114.716 115.18 114.859 115.53C114.926 115.687 114.969 115.862 114.989 116.055C115.009 116.248 115.019 116.445 115.019 116.645V120H114.364V118.645L114.554 118.725C114.371 119.188 114.086 119.542 113.699 119.785C113.313 120.028 112.849 120.15 112.309 120.15ZM112.394 119.515C112.738 119.515 113.038 119.453 113.294 119.33C113.551 119.207 113.758 119.038 113.914 118.825C114.071 118.608 114.173 118.365 114.219 118.095C114.259 117.922 114.281 117.732 114.284 117.525C114.288 117.315 114.289 117.158 114.289 117.055L114.569 117.2C114.319 117.233 114.048 117.267 113.754 117.3C113.464 117.333 113.178 117.372 112.894 117.415C112.614 117.458 112.361 117.51 112.134 117.57C111.981 117.613 111.833 117.675 111.689 117.755C111.546 117.832 111.428 117.935 111.334 118.065C111.244 118.195 111.199 118.357 111.199 118.55C111.199 118.707 111.238 118.858 111.314 119.005C111.394 119.152 111.521 119.273 111.694 119.37C111.871 119.467 112.104 119.515 112.394 119.515ZM120.338 120.145C119.705 120.145 119.183 120.008 118.773 119.735C118.366 119.462 118.116 119.082 118.023 118.595L118.773 118.47C118.853 118.777 119.035 119.022 119.318 119.205C119.605 119.385 119.958 119.475 120.378 119.475C120.788 119.475 121.111 119.39 121.348 119.22C121.585 119.047 121.703 118.812 121.703 118.515C121.703 118.348 121.665 118.213 121.588 118.11C121.515 118.003 121.363 117.905 121.133 117.815C120.903 117.725 120.56 117.618 120.103 117.495C119.613 117.362 119.23 117.228 118.953 117.095C118.676 116.962 118.48 116.808 118.363 116.635C118.246 116.458 118.188 116.243 118.188 115.99C118.188 115.683 118.275 115.415 118.448 115.185C118.621 114.952 118.861 114.772 119.168 114.645C119.475 114.515 119.831 114.45 120.238 114.45C120.645 114.45 121.008 114.517 121.328 114.65C121.651 114.78 121.911 114.963 122.108 115.2C122.305 115.437 122.421 115.712 122.458 116.025L121.708 116.16C121.658 115.843 121.5 115.593 121.233 115.41C120.97 115.223 120.635 115.127 120.228 115.12C119.845 115.11 119.533 115.183 119.293 115.34C119.053 115.493 118.933 115.698 118.933 115.955C118.933 116.098 118.976 116.222 119.063 116.325C119.15 116.425 119.306 116.52 119.533 116.61C119.763 116.7 120.09 116.798 120.513 116.905C121.01 117.032 121.4 117.165 121.683 117.305C121.966 117.445 122.168 117.61 122.288 117.8C122.408 117.99 122.468 118.225 122.468 118.505C122.468 119.015 122.278 119.417 121.898 119.71C121.521 120 121.001 120.145 120.338 120.145ZM125.642 120.135C125.319 120.135 125.035 120.085 124.792 119.985C124.552 119.885 124.347 119.75 124.177 119.58C124.01 119.41 123.875 119.217 123.772 119C123.669 118.78 123.594 118.548 123.547 118.305C123.5 118.058 123.477 117.813 123.477 117.57V114.6H124.217V117.355C124.217 117.652 124.245 117.927 124.302 118.18C124.359 118.433 124.449 118.655 124.572 118.845C124.699 119.032 124.86 119.177 125.057 119.28C125.257 119.383 125.499 119.435 125.782 119.435C126.042 119.435 126.27 119.39 126.467 119.3C126.667 119.21 126.834 119.082 126.967 118.915C127.104 118.745 127.207 118.54 127.277 118.3C127.347 118.057 127.382 117.783 127.382 117.48L127.902 117.595C127.902 118.148 127.805 118.613 127.612 118.99C127.419 119.367 127.152 119.652 126.812 119.845C126.472 120.038 126.082 120.135 125.642 120.135ZM127.457 120V118.67H127.382V114.6H128.117V120H127.457ZM131.939 120.15C131.443 120.15 131.023 120.025 130.679 119.775C130.336 119.522 130.076 119.18 129.899 118.75C129.723 118.317 129.634 117.832 129.634 117.295C129.634 116.748 129.723 116.262 129.899 115.835C130.079 115.405 130.343 115.067 130.689 114.82C131.036 114.573 131.463 114.45 131.969 114.45C132.463 114.45 132.886 114.575 133.239 114.825C133.593 115.075 133.863 115.415 134.049 115.845C134.239 116.275 134.334 116.758 134.334 117.295C134.334 117.835 134.239 118.32 134.049 118.75C133.859 119.18 133.586 119.522 133.229 119.775C132.873 120.025 132.443 120.15 131.939 120.15ZM129.509 120V112.8H130.249V115.935H130.169V120H129.509ZM131.864 119.465C132.241 119.465 132.554 119.37 132.804 119.18C133.054 118.99 133.241 118.732 133.364 118.405C133.491 118.075 133.554 117.705 133.554 117.295C133.554 116.888 133.493 116.522 133.369 116.195C133.246 115.868 133.058 115.61 132.804 115.42C132.554 115.23 132.236 115.135 131.849 115.135C131.473 115.135 131.159 115.227 130.909 115.41C130.663 115.593 130.478 115.848 130.354 116.175C130.231 116.498 130.169 116.872 130.169 117.295C130.169 117.712 130.231 118.085 130.354 118.415C130.478 118.742 130.664 118.998 130.914 119.185C131.164 119.372 131.481 119.465 131.864 119.465ZM137.399 120.145C136.765 120.145 136.244 120.008 135.834 119.735C135.427 119.462 135.177 119.082 135.084 118.595L135.834 118.47C135.914 118.777 136.095 119.022 136.379 119.205C136.665 119.385 137.019 119.475 137.439 119.475C137.849 119.475 138.172 119.39 138.409 119.22C138.645 119.047 138.764 118.812 138.764 118.515C138.764 118.348 138.725 118.213 138.649 118.11C138.575 118.003 138.424 117.905 138.194 117.815C137.964 117.725 137.62 117.618 137.164 117.495C136.674 117.362 136.29 117.228 136.014 117.095C135.737 116.962 135.54 116.808 135.424 116.635C135.307 116.458 135.249 116.243 135.249 115.99C135.249 115.683 135.335 115.415 135.509 115.185C135.682 114.952 135.922 114.772 136.229 114.645C136.535 114.515 136.892 114.45 137.299 114.45C137.705 114.45 138.069 114.517 138.389 114.65C138.712 114.78 138.972 114.963 139.169 115.2C139.365 115.437 139.482 115.712 139.519 116.025L138.769 116.16C138.719 115.843 138.56 115.593 138.294 115.41C138.03 115.223 137.695 115.127 137.289 115.12C136.905 115.11 136.594 115.183 136.354 115.34C136.114 115.493 135.994 115.698 135.994 115.955C135.994 116.098 136.037 116.222 136.124 116.325C136.21 116.425 136.367 116.52 136.594 116.61C136.824 116.7 137.15 116.798 137.574 116.905C138.07 117.032 138.46 117.165 138.744 117.305C139.027 117.445 139.229 117.61 139.349 117.8C139.469 117.99 139.529 118.225 139.529 118.505C139.529 119.015 139.339 119.417 138.959 119.71C138.582 120 138.062 120.145 137.399 120.145ZM143.578 120C143.274 120.063 142.974 120.088 142.678 120.075C142.384 120.062 142.121 119.998 141.888 119.885C141.658 119.772 141.483 119.595 141.363 119.355C141.266 119.155 141.213 118.953 141.203 118.75C141.196 118.543 141.193 118.308 141.193 118.045V113.1H141.923V118.015C141.923 118.242 141.924 118.432 141.928 118.585C141.934 118.735 141.969 118.868 142.033 118.985C142.153 119.208 142.343 119.342 142.603 119.385C142.866 119.428 143.191 119.418 143.578 119.355V120ZM140.038 115.23V114.6H143.578V115.23H140.038ZM144.741 113.575V112.75H145.476V113.575H144.741ZM144.741 120V114.6H145.476V120H144.741ZM149.915 120C149.612 120.063 149.312 120.088 149.015 120.075C148.722 120.062 148.459 119.998 148.225 119.885C147.995 119.772 147.82 119.595 147.7 119.355C147.604 119.155 147.55 118.953 147.54 118.75C147.534 118.543 147.53 118.308 147.53 118.045V113.1H148.26V118.015C148.26 118.242 148.262 118.432 148.265 118.585C148.272 118.735 148.307 118.868 148.37 118.985C148.49 119.208 148.68 119.342 148.94 119.385C149.204 119.428 149.529 119.418 149.915 119.355V120ZM146.375 115.23V114.6H149.915V115.23H146.375ZM153.044 120.135C152.721 120.135 152.438 120.085 152.194 119.985C151.954 119.885 151.749 119.75 151.579 119.58C151.413 119.41 151.278 119.217 151.174 119C151.071 118.78 150.996 118.548 150.949 118.305C150.903 118.058 150.879 117.813 150.879 117.57V114.6H151.619V117.355C151.619 117.652 151.648 117.927 151.704 118.18C151.761 118.433 151.851 118.655 151.974 118.845C152.101 119.032 152.263 119.177 152.459 119.28C152.659 119.383 152.901 119.435 153.184 119.435C153.444 119.435 153.673 119.39 153.869 119.3C154.069 119.21 154.236 119.082 154.369 118.915C154.506 118.745 154.609 118.54 154.679 118.3C154.749 118.057 154.784 117.783 154.784 117.48L155.304 117.595C155.304 118.148 155.208 118.613 155.014 118.99C154.821 119.367 154.554 119.652 154.214 119.845C153.874 120.038 153.484 120.135 153.044 120.135ZM154.859 120V118.67H154.784V114.6H155.519V120H154.859ZM157.712 113.75H157.082L157.677 112.2H158.307L157.712 113.75ZM157.017 120V114.6H157.752V120H157.017ZM161.346 120.15C160.842 120.15 160.412 120.025 160.056 119.775C159.699 119.522 159.426 119.18 159.236 118.75C159.046 118.32 158.951 117.835 158.951 117.295C158.951 116.758 159.044 116.275 159.231 115.845C159.421 115.415 159.692 115.075 160.046 114.825C160.399 114.575 160.822 114.45 161.316 114.45C161.822 114.45 162.249 114.573 162.596 114.82C162.942 115.067 163.204 115.405 163.381 115.835C163.561 116.262 163.651 116.748 163.651 117.295C163.651 117.832 163.562 118.317 163.386 118.75C163.209 119.18 162.949 119.522 162.606 119.775C162.262 120.025 161.842 120.15 161.346 120.15ZM161.421 119.465C161.804 119.465 162.121 119.372 162.371 119.185C162.621 118.998 162.807 118.742 162.931 118.415C163.054 118.085 163.116 117.712 163.116 117.295C163.116 116.872 163.054 116.498 162.931 116.175C162.807 115.848 162.621 115.593 162.371 115.41C162.124 115.227 161.812 115.135 161.436 115.135C161.049 115.135 160.729 115.23 160.476 115.42C160.222 115.61 160.034 115.868 159.911 116.195C159.791 116.522 159.731 116.888 159.731 117.295C159.731 117.705 159.792 118.075 159.916 118.405C160.042 118.732 160.231 118.99 160.481 119.18C160.731 119.37 161.044 119.465 161.421 119.465ZM163.116 120V115.935H163.036V112.8H163.776V120H163.116ZM167.434 120.15C166.897 120.15 166.439 120.028 166.059 119.785C165.679 119.542 165.387 119.205 165.184 118.775C164.98 118.345 164.879 117.852 164.879 117.295C164.879 116.728 164.982 116.232 165.189 115.805C165.395 115.378 165.689 115.047 166.069 114.81C166.452 114.57 166.907 114.45 167.434 114.45C167.974 114.45 168.434 114.572 168.814 114.815C169.197 115.055 169.489 115.39 169.689 115.82C169.892 116.247 169.994 116.738 169.994 117.295C169.994 117.862 169.892 118.36 169.689 118.79C169.485 119.217 169.192 119.55 168.809 119.79C168.425 120.03 167.967 120.15 167.434 120.15ZM167.434 119.445C168.034 119.445 168.48 119.247 168.774 118.85C169.067 118.45 169.214 117.932 169.214 117.295C169.214 116.642 169.065 116.122 168.769 115.735C168.475 115.348 168.03 115.155 167.434 115.155C167.03 115.155 166.697 115.247 166.434 115.43C166.174 115.61 165.979 115.862 165.849 116.185C165.722 116.505 165.659 116.875 165.659 117.295C165.659 117.945 165.809 118.467 166.109 118.86C166.409 119.25 166.85 119.445 167.434 119.445ZM175.523 120.15C175.027 120.15 174.607 120.025 174.263 119.775C173.92 119.522 173.66 119.18 173.483 118.75C173.307 118.317 173.218 117.832 173.218 117.295C173.218 116.748 173.307 116.262 173.483 115.835C173.663 115.405 173.927 115.067 174.273 114.82C174.62 114.573 175.047 114.45 175.553 114.45C176.047 114.45 176.47 114.575 176.823 114.825C177.177 115.075 177.447 115.415 177.633 115.845C177.823 116.275 177.918 116.758 177.918 117.295C177.918 117.835 177.823 118.32 177.633 118.75C177.443 119.18 177.17 119.522 176.813 119.775C176.457 120.025 176.027 120.15 175.523 120.15ZM173.093 122.4V114.6H173.753V118.665H173.833V122.4H173.093ZM175.448 119.465C175.825 119.465 176.138 119.37 176.388 119.18C176.638 118.99 176.825 118.732 176.948 118.405C177.075 118.075 177.138 117.705 177.138 117.295C177.138 116.888 177.077 116.522 176.953 116.195C176.83 115.868 176.642 115.61 176.388 115.42C176.138 115.23 175.82 115.135 175.433 115.135C175.057 115.135 174.743 115.227 174.493 115.41C174.247 115.593 174.062 115.848 173.938 116.175C173.815 116.498 173.753 116.872 173.753 117.295C173.753 117.712 173.815 118.085 173.938 118.415C174.062 118.742 174.248 118.998 174.498 119.185C174.748 119.372 175.065 119.465 175.448 119.465ZM181.271 120.15C180.735 120.15 180.276 120.028 179.896 119.785C179.516 119.542 179.225 119.205 179.021 118.775C178.818 118.345 178.716 117.852 178.716 117.295C178.716 116.728 178.82 116.232 179.026 115.805C179.233 115.378 179.526 115.047 179.906 114.81C180.29 114.57 180.745 114.45 181.271 114.45C181.811 114.45 182.271 114.572 182.651 114.815C183.035 115.055 183.326 115.39 183.526 115.82C183.73 116.247 183.831 116.738 183.831 117.295C183.831 117.862 183.73 118.36 183.526 118.79C183.323 119.217 183.03 119.55 182.646 119.79C182.263 120.03 181.805 120.15 181.271 120.15ZM181.271 119.445C181.871 119.445 182.318 119.247 182.611 118.85C182.905 118.45 183.051 117.932 183.051 117.295C183.051 116.642 182.903 116.122 182.606 115.735C182.313 115.348 181.868 115.155 181.271 115.155C180.868 115.155 180.535 115.247 180.271 115.43C180.011 115.61 179.816 115.862 179.686 116.185C179.56 116.505 179.496 116.875 179.496 117.295C179.496 117.945 179.646 118.467 179.946 118.86C180.246 119.25 180.688 119.445 181.271 119.445ZM184.934 120V114.6H185.594V115.9L185.464 115.73C185.524 115.57 185.603 115.423 185.699 115.29C185.796 115.153 185.901 115.042 186.014 114.955C186.154 114.832 186.318 114.738 186.504 114.675C186.691 114.608 186.879 114.57 187.069 114.56C187.259 114.547 187.433 114.56 187.589 114.6V115.29C187.393 115.24 187.178 115.228 186.944 115.255C186.711 115.282 186.496 115.375 186.299 115.535C186.119 115.675 185.984 115.843 185.894 116.04C185.804 116.233 185.744 116.44 185.714 116.66C185.684 116.877 185.669 117.092 185.669 117.305V120H184.934ZM192.605 120.135C192.282 120.135 191.998 120.085 191.755 119.985C191.515 119.885 191.31 119.75 191.14 119.58C190.973 119.41 190.838 119.217 190.735 119C190.632 118.78 190.557 118.548 190.51 118.305C190.463 118.058 190.44 117.813 190.44 117.57V114.6H191.18V117.355C191.18 117.652 191.208 117.927 191.265 118.18C191.322 118.433 191.412 118.655 191.535 118.845C191.662 119.032 191.823 119.177 192.02 119.28C192.22 119.383 192.462 119.435 192.745 119.435C193.005 119.435 193.233 119.39 193.43 119.3C193.63 119.21 193.797 119.082 193.93 118.915C194.067 118.745 194.17 118.54 194.24 118.3C194.31 118.057 194.345 117.783 194.345 117.48L194.865 117.595C194.865 118.148 194.768 118.613 194.575 118.99C194.382 119.367 194.115 119.652 193.775 119.845C193.435 120.038 193.045 120.135 192.605 120.135ZM194.42 120V118.67H194.345V114.6H195.08V120H194.42ZM202.917 120L202.922 116.455C202.922 116.038 202.806 115.712 202.572 115.475C202.342 115.235 202.049 115.115 201.692 115.115C201.489 115.115 201.291 115.162 201.097 115.255C200.904 115.348 200.744 115.498 200.617 115.705C200.494 115.912 200.432 116.182 200.432 116.515L199.997 116.39C199.987 116.003 200.062 115.665 200.222 115.375C200.386 115.085 200.609 114.86 200.892 114.7C201.179 114.537 201.502 114.455 201.862 114.455C202.406 114.455 202.841 114.623 203.167 114.96C203.494 115.293 203.657 115.745 203.657 116.315L203.652 120H202.917ZM196.472 120V114.6H197.132V115.93H197.212V120H196.472ZM199.702 120L199.707 116.505C199.707 116.075 199.592 115.737 199.362 115.49C199.136 115.24 198.836 115.115 198.462 115.115C198.089 115.115 197.787 115.243 197.557 115.5C197.327 115.753 197.212 116.092 197.212 116.515L196.772 116.275C196.772 115.928 196.854 115.618 197.017 115.345C197.181 115.068 197.404 114.852 197.687 114.695C197.971 114.535 198.292 114.455 198.652 114.455C198.996 114.455 199.301 114.528 199.567 114.675C199.837 114.822 200.049 115.035 200.202 115.315C200.356 115.595 200.432 115.935 200.432 116.335L200.427 120H199.702ZM207.056 113.575V112.75H207.791V113.575H207.056ZM207.056 120V114.6H207.791V120H207.056ZM212.23 120C211.927 120.063 211.627 120.088 211.33 120.075C211.037 120.062 210.773 119.998 210.54 119.885C210.31 119.772 210.135 119.595 210.015 119.355C209.918 119.155 209.865 118.953 209.855 118.75C209.848 118.543 209.845 118.308 209.845 118.045V113.1H210.575V118.015C210.575 118.242 210.577 118.432 210.58 118.585C210.587 118.735 210.622 118.868 210.685 118.985C210.805 119.208 210.995 119.342 211.255 119.385C211.518 119.428 211.843 119.418 212.23 119.355V120ZM208.69 115.23V114.6H212.23V115.23H208.69ZM215.383 120.15C214.857 120.15 214.4 120.033 214.013 119.8C213.63 119.567 213.332 119.238 213.118 118.815C212.905 118.392 212.798 117.895 212.798 117.325C212.798 116.735 212.903 116.225 213.113 115.795C213.323 115.365 213.618 115.033 213.998 114.8C214.382 114.567 214.833 114.45 215.353 114.45C215.887 114.45 216.342 114.573 216.718 114.82C217.095 115.063 217.38 115.413 217.573 115.87C217.767 116.327 217.855 116.872 217.838 117.505H217.088V117.245C217.075 116.545 216.923 116.017 216.633 115.66C216.347 115.303 215.927 115.125 215.373 115.125C214.793 115.125 214.348 115.313 214.038 115.69C213.732 116.067 213.578 116.603 213.578 117.3C213.578 117.98 213.732 118.508 214.038 118.885C214.348 119.258 214.787 119.445 215.353 119.445C215.74 119.445 216.077 119.357 216.363 119.18C216.653 119 216.882 118.742 217.048 118.405L217.733 118.67C217.52 119.14 217.205 119.505 216.788 119.765C216.375 120.022 215.907 120.15 215.383 120.15ZM213.318 117.505V116.89H217.443V117.505H213.318ZM225.242 120L225.247 116.455C225.247 116.038 225.13 115.712 224.897 115.475C224.667 115.235 224.373 115.115 224.017 115.115C223.813 115.115 223.615 115.162 223.422 115.255C223.228 115.348 223.068 115.498 222.942 115.705C222.818 115.912 222.757 116.182 222.757 116.515L222.322 116.39C222.312 116.003 222.387 115.665 222.547 115.375C222.71 115.085 222.933 114.86 223.217 114.7C223.503 114.537 223.827 114.455 224.187 114.455C224.73 114.455 225.165 114.623 225.492 114.96C225.818 115.293 225.982 115.745 225.982 116.315L225.977 120H225.242ZM218.797 120V114.6H219.457V115.93H219.537V120H218.797ZM222.027 120L222.032 116.505C222.032 116.075 221.917 115.737 221.687 115.49C221.46 115.24 221.16 115.115 220.787 115.115C220.413 115.115 220.112 115.243 219.882 115.5C219.652 115.753 219.537 116.092 219.537 116.515L219.097 116.275C219.097 115.928 219.178 115.618 219.342 115.345C219.505 115.068 219.728 114.852 220.012 114.695C220.295 114.535 220.617 114.455 220.977 114.455C221.32 114.455 221.625 114.528 221.892 114.675C222.162 114.822 222.373 115.035 222.527 115.315C222.68 115.595 222.757 115.935 222.757 116.335L222.752 120H222.027ZM231.295 120.145C230.662 120.145 230.14 120.008 229.73 119.735C229.323 119.462 229.073 119.082 228.98 118.595L229.73 118.47C229.81 118.777 229.992 119.022 230.275 119.205C230.562 119.385 230.915 119.475 231.335 119.475C231.745 119.475 232.068 119.39 232.305 119.22C232.542 119.047 232.66 118.812 232.66 118.515C232.66 118.348 232.622 118.213 232.545 118.11C232.472 118.003 232.32 117.905 232.09 117.815C231.86 117.725 231.517 117.618 231.06 117.495C230.57 117.362 230.187 117.228 229.91 117.095C229.633 116.962 229.437 116.808 229.32 116.635C229.203 116.458 229.145 116.243 229.145 115.99C229.145 115.683 229.232 115.415 229.405 115.185C229.578 114.952 229.818 114.772 230.125 114.645C230.432 114.515 230.788 114.45 231.195 114.45C231.602 114.45 231.965 114.517 232.285 114.65C232.608 114.78 232.868 114.963 233.065 115.2C233.262 115.437 233.378 115.712 233.415 116.025L232.665 116.16C232.615 115.843 232.457 115.593 232.19 115.41C231.927 115.223 231.592 115.127 231.185 115.12C230.802 115.11 230.49 115.183 230.25 115.34C230.01 115.493 229.89 115.698 229.89 115.955C229.89 116.098 229.933 116.222 230.02 116.325C230.107 116.425 230.263 116.52 230.49 116.61C230.72 116.7 231.047 116.798 231.47 116.905C231.967 117.032 232.357 117.165 232.64 117.305C232.923 117.445 233.125 117.61 233.245 117.8C233.365 117.99 233.425 118.225 233.425 118.505C233.425 119.015 233.235 119.417 232.855 119.71C232.478 120 231.958 120.145 231.295 120.145ZM236.819 120.15C236.292 120.15 235.836 120.033 235.449 119.8C235.066 119.567 234.767 119.238 234.554 118.815C234.341 118.392 234.234 117.895 234.234 117.325C234.234 116.735 234.339 116.225 234.549 115.795C234.759 115.365 235.054 115.033 235.434 114.8C235.817 114.567 236.269 114.45 236.789 114.45C237.322 114.45 237.777 114.573 238.154 114.82C238.531 115.063 238.816 115.413 239.009 115.87C239.202 116.327 239.291 116.872 239.274 117.505H238.524V117.245C238.511 116.545 238.359 116.017 238.069 115.66C237.782 115.303 237.362 115.125 236.809 115.125C236.229 115.125 235.784 115.313 235.474 115.69C235.167 116.067 235.014 116.603 235.014 117.3C235.014 117.98 235.167 118.508 235.474 118.885C235.784 119.258 236.222 119.445 236.789 119.445C237.176 119.445 237.512 119.357 237.799 119.18C238.089 119 238.317 118.742 238.484 118.405L239.169 118.67C238.956 119.14 238.641 119.505 238.224 119.765C237.811 120.022 237.342 120.15 236.819 120.15ZM234.754 117.505V116.89H238.879V117.505H234.754ZM246.677 120L246.682 116.455C246.682 116.038 246.565 115.712 246.332 115.475C246.102 115.235 245.809 115.115 245.452 115.115C245.249 115.115 245.05 115.162 244.857 115.255C244.664 115.348 244.504 115.498 244.377 115.705C244.254 115.912 244.192 116.182 244.192 116.515L243.757 116.39C243.747 116.003 243.822 115.665 243.982 115.375C244.145 115.085 244.369 114.86 244.652 114.7C244.939 114.537 245.262 114.455 245.622 114.455C246.165 114.455 246.6 114.623 246.927 114.96C247.254 115.293 247.417 115.745 247.417 116.315L247.412 120H246.677ZM240.232 120V114.6H240.892V115.93H240.972V120H240.232ZM243.462 120L243.467 116.505C243.467 116.075 243.352 115.737 243.122 115.49C242.895 115.24 242.595 115.115 242.222 115.115C241.849 115.115 241.547 115.243 241.317 115.5C241.087 115.753 240.972 116.092 240.972 116.515L240.532 116.275C240.532 115.928 240.614 115.618 240.777 115.345C240.94 115.068 241.164 114.852 241.447 114.695C241.73 114.535 242.052 114.455 242.412 114.455C242.755 114.455 243.06 114.528 243.327 114.675C243.597 114.822 243.809 115.035 243.962 115.315C244.115 115.595 244.192 115.935 244.192 116.335L244.187 120H243.462ZM250.969 120.15C250.443 120.15 249.986 120.033 249.599 119.8C249.216 119.567 248.918 119.238 248.704 118.815C248.491 118.392 248.384 117.895 248.384 117.325C248.384 116.735 248.489 116.225 248.699 115.795C248.909 115.365 249.204 115.033 249.584 114.8C249.968 114.567 250.419 114.45 250.939 114.45C251.473 114.45 251.928 114.573 252.304 114.82C252.681 115.063 252.966 115.413 253.159 115.87C253.353 116.327 253.441 116.872 253.424 117.505H252.674V117.245C252.661 116.545 252.509 116.017 252.219 115.66C251.933 115.303 251.513 115.125 250.959 115.125C250.379 115.125 249.934 115.313 249.624 115.69C249.318 116.067 249.164 116.603 249.164 117.3C249.164 117.98 249.318 118.508 249.624 118.885C249.934 119.258 250.373 119.445 250.939 119.445C251.326 119.445 251.663 119.357 251.949 119.18C252.239 119 252.468 118.742 252.634 118.405L253.319 118.67C253.106 119.14 252.791 119.505 252.374 119.765C251.961 120.022 251.493 120.15 250.969 120.15ZM248.904 117.505V116.89H253.029V117.505H248.904ZM254.634 120V112.65H255.369V120H254.634ZM260.768 120V117.245C260.768 116.945 260.74 116.67 260.683 116.42C260.626 116.167 260.535 115.947 260.408 115.76C260.285 115.57 260.123 115.423 259.923 115.32C259.726 115.217 259.486 115.165 259.203 115.165C258.943 115.165 258.713 115.21 258.513 115.3C258.316 115.39 258.15 115.52 258.013 115.69C257.88 115.857 257.778 116.06 257.708 116.3C257.638 116.54 257.603 116.813 257.603 117.12L257.083 117.005C257.083 116.452 257.18 115.987 257.373 115.61C257.566 115.233 257.833 114.948 258.173 114.755C258.513 114.562 258.903 114.465 259.343 114.465C259.666 114.465 259.948 114.515 260.188 114.615C260.431 114.715 260.636 114.85 260.803 115.02C260.973 115.19 261.11 115.385 261.213 115.605C261.316 115.822 261.391 116.053 261.438 116.3C261.485 116.543 261.508 116.787 261.508 117.03V120H260.768ZM256.863 120V112.8H257.528V116.865H257.603V120H256.863ZM264.35 120.15C263.944 120.15 263.602 120.077 263.325 119.93C263.052 119.783 262.847 119.588 262.71 119.345C262.574 119.102 262.505 118.837 262.505 118.55C262.505 118.257 262.564 118.007 262.68 117.8C262.8 117.59 262.962 117.418 263.165 117.285C263.372 117.152 263.61 117.05 263.88 116.98C264.154 116.913 264.455 116.855 264.785 116.805C265.119 116.752 265.444 116.707 265.76 116.67C266.08 116.63 266.36 116.592 266.6 116.555L266.34 116.715C266.35 116.182 266.247 115.787 266.03 115.53C265.814 115.273 265.437 115.145 264.9 115.145C264.53 115.145 264.217 115.228 263.96 115.395C263.707 115.562 263.529 115.825 263.425 116.185L262.71 115.975C262.834 115.492 263.082 115.117 263.455 114.85C263.829 114.583 264.314 114.45 264.91 114.45C265.404 114.45 265.822 114.543 266.165 114.73C266.512 114.913 266.757 115.18 266.9 115.53C266.967 115.687 267.01 115.862 267.03 116.055C267.05 116.248 267.06 116.445 267.06 116.645V120H266.405V118.645L266.595 118.725C266.412 119.188 266.127 119.542 265.74 119.785C265.354 120.028 264.89 120.15 264.35 120.15ZM264.435 119.515C264.779 119.515 265.079 119.453 265.335 119.33C265.592 119.207 265.799 119.038 265.955 118.825C266.112 118.608 266.214 118.365 266.26 118.095C266.3 117.922 266.322 117.732 266.325 117.525C266.329 117.315 266.33 117.158 266.33 117.055L266.61 117.2C266.36 117.233 266.089 117.267 265.795 117.3C265.505 117.333 265.219 117.372 264.935 117.415C264.655 117.458 264.402 117.51 264.175 117.57C264.022 117.613 263.874 117.675 263.73 117.755C263.587 117.832 263.469 117.935 263.375 118.065C263.285 118.195 263.24 118.357 263.24 118.55C263.24 118.707 263.279 118.858 263.355 119.005C263.435 119.152 263.562 119.273 263.735 119.37C263.912 119.467 264.145 119.515 264.435 119.515ZM272.262 120V117.245C272.262 116.945 272.234 116.67 272.177 116.42C272.12 116.167 272.029 115.947 271.902 115.76C271.779 115.57 271.617 115.423 271.417 115.32C271.22 115.217 270.98 115.165 270.697 115.165C270.437 115.165 270.207 115.21 270.007 115.3C269.81 115.39 269.644 115.52 269.507 115.69C269.374 115.857 269.272 116.06 269.202 116.3C269.132 116.54 269.097 116.813 269.097 117.12L268.577 117.005C268.577 116.452 268.674 115.987 268.867 115.61C269.06 115.233 269.327 114.948 269.667 114.755C270.007 114.562 270.397 114.465 270.837 114.465C271.16 114.465 271.442 114.515 271.682 114.615C271.925 114.715 272.13 114.85 272.297 115.02C272.467 115.19 272.604 115.385 272.707 115.605C272.81 115.822 272.885 116.053 272.932 116.3C272.979 116.543 273.002 116.787 273.002 117.03V120H272.262ZM268.357 120V114.6H269.022V115.93H269.097V120H268.357ZM277.24 120C276.936 120.063 276.636 120.088 276.34 120.075C276.046 120.062 275.783 119.998 275.55 119.885C275.32 119.772 275.145 119.595 275.025 119.355C274.928 119.155 274.875 118.953 274.865 118.75C274.858 118.543 274.855 118.308 274.855 118.045V113.1H275.585V118.015C275.585 118.242 275.586 118.432 275.59 118.585C275.596 118.735 275.631 118.868 275.695 118.985C275.815 119.208 276.005 119.342 276.265 119.385C276.528 119.428 276.853 119.418 277.24 119.355V120ZM273.7 115.23V114.6H277.24V115.23H273.7ZM280.393 120.15C279.867 120.15 279.41 120.033 279.023 119.8C278.64 119.567 278.342 119.238 278.128 118.815C277.915 118.392 277.808 117.895 277.808 117.325C277.808 116.735 277.913 116.225 278.123 115.795C278.333 115.365 278.628 115.033 279.008 114.8C279.392 114.567 279.843 114.45 280.363 114.45C280.897 114.45 281.352 114.573 281.728 114.82C282.105 115.063 282.39 115.413 282.583 115.87C282.777 116.327 282.865 116.872 282.848 117.505H282.098V117.245C282.085 116.545 281.933 116.017 281.643 115.66C281.357 115.303 280.937 115.125 280.383 115.125C279.803 115.125 279.358 115.313 279.048 115.69C278.742 116.067 278.588 116.603 278.588 117.3C278.588 117.98 278.742 118.508 279.048 118.885C279.358 119.258 279.797 119.445 280.363 119.445C280.75 119.445 281.087 119.357 281.373 119.18C281.663 119 281.892 118.742 282.058 118.405L282.743 118.67C282.53 119.14 282.215 119.505 281.798 119.765C281.385 120.022 280.917 120.15 280.393 120.15ZM278.328 117.505V116.89H282.453V117.505H278.328ZM283.903 120V119.145H284.758V120H283.903Z" fill="#ABABAB"/>
<circle cx="44" cy="44" r="11" stroke="#CBCBCB" stroke-width="2"/>
<circle cx="44" cy="108" r="11" stroke="#CBCBCB" stroke-width="2"/>
<defs>
<filter id="filter0_d_287_3641" x="-8" y="0" width="376" height="104" filterUnits="userSpaceOnUse" color-interpolation-filters="sRGB">
<feFlood flood-opacity="0" result="BackgroundImageFix"/>
<feColorMatrix in="SourceAlpha" type="matrix" values="0 0 0 0 0 0 0 0 0 0 0 0 0 0 0 0 0 0 127 0" result="hardAlpha"/>
<feOffset dy="8"/>
<feGaussianBlur stdDeviation="12"/>
<feComposite in2="hardAlpha" operator="out"/>
<feColorMatrix type="matrix" values="0 0 0 0 0.439216 0 0 0 0 0.564706 0 0 0 0 0.690196 0 0 0 0.2 0"/>
<feBlend mode="normal" in2="BackgroundImageFix" result="effect1_dropShadow_287_3641"/>
<feBlend mode="normal" in="SourceGraphic" in2="effect1_dropShadow_287_3641" result="shape"/>
</filter>
<filter id="filter1_d_287_3641" x="-8" y="64" width="376" height="104" filterUnits="userSpaceOnUse" color-interpolation-filters="sRGB">
<feFlood flood-opacity="0" result="BackgroundImageFix"/>
<feColorMatrix in="SourceAlpha" type="matrix" values="0 0 0 0 0 0 0 0 0 0 0 0 0 0 0 0 0 0 127 0" result="hardAlpha"/>
<feOffset dy="8"/>
<feGaussianBlur stdDeviation="12"/>
<feComposite in2="hardAlpha" operator="out"/>
<feColorMatrix type="matrix" values="0 0 0 0 0.439216 0 0 0 0 0.564706 0 0 0 0 0.690196 0 0 0 0.2 0"/>
<feBlend mode="normal" in2="BackgroundImageFix" result="effect1_dropShadow_287_3641"/>
<feBlend mode="normal" in="SourceGraphic" in2="effect1_dropShadow_287_3641" result="shape"/>
</filter>
</defs>
</svg>
