<svg width="23" height="21" viewBox="0 0 23 21" fill="none" xmlns="http://www.w3.org/2000/svg">
<path d="M12 5.5V11H16" stroke="#56BA50" stroke-width="2" stroke-linecap="round" stroke-linejoin="round"/>
<path d="M12.3297 18.1318C11.7775 18.1218 11.3218 18.5613 11.3118 19.1135C11.3018 19.6657 11.7413 20.1215 12.2935 20.1314L12.3297 18.1318ZM17.115 17.7689L17.6554 18.6102L17.6554 18.6102L17.115 17.7689ZM20.3517 13.9672L19.4349 13.5678L20.3517 13.9672ZM20.9309 9.00794L19.9467 9.18526L20.9309 9.00794ZM18.6572 4.56273L19.377 3.86852L19.377 3.86852L18.6572 4.56273ZM14.2971 2.12984L14.0843 3.10694L14.2971 2.12984ZM9.3202 2.52932L9.68612 3.45997L9.68612 3.45997L9.3202 2.52932ZM12.2935 20.1314C14.1919 20.1658 16.0579 19.6364 17.6554 18.6102L16.5745 16.9275C15.3098 17.7399 13.8326 18.1589 12.3297 18.1318L12.2935 20.1314ZM17.6554 18.6102C19.253 17.5841 20.5103 16.1073 21.2685 14.3665L19.4349 13.5678C18.8347 14.9459 17.8393 16.1151 16.5745 16.9275L17.6554 18.6102ZM21.2685 14.3665C22.0267 12.6257 22.2517 10.6992 21.915 8.83061L19.9467 9.18526C20.2133 10.6646 20.0352 12.1897 19.4349 13.5678L21.2685 14.3665ZM21.915 8.83061C21.5783 6.96199 20.6951 5.23517 19.377 3.86852L17.9375 5.25693C18.9809 6.33887 19.6802 7.70593 19.9467 9.18526L21.915 8.83061ZM19.377 3.86852C18.0589 2.50187 16.3651 1.55678 14.5099 1.15275L14.0843 3.10694C15.5531 3.4268 16.894 4.175 17.9375 5.25693L19.377 3.86852ZM14.5099 1.15275C12.6547 0.748717 10.7213 0.903899 8.95429 1.59867L9.68612 3.45997C11.085 2.90994 12.6156 2.78708 14.0843 3.10694L14.5099 1.15275ZM8.95429 1.59867C7.18725 2.29344 5.66592 3.4966 4.58268 5.05599L6.22526 6.19701C7.08283 4.96249 8.28721 4.00999 9.68612 3.45997L8.95429 1.59867ZM4.58268 5.05599C3.49944 6.61538 2.90294 8.46097 2.86862 10.3594L4.86829 10.3955C4.89547 8.89263 5.3677 7.43153 6.22526 6.19701L4.58268 5.05599Z" fill="#125C40"/>
<path d="M1.81152 7.22766L2.88144 11.0818L6.35269 9.09446" stroke="#125C40" stroke-width="2" stroke-linecap="round" stroke-linejoin="round"/>
</svg>
