<svg width="53" height="65" viewBox="0 0 53 65" fill="none" xmlns="http://www.w3.org/2000/svg">
<path d="M43.3519 17.6362C41.9495 17.5906 41.3136 17.5808 40.4395 17.7602C39.1852 18.0207 37.9968 18.5333 36.9466 19.2669C35.8782 20.0755 35.0524 21.1619 34.5593 22.4076C33.9429 23.9176 36.0497 39.2624 40.2047 60.4157C40.5993 62.4247 41.1211 63.5172 43.8868 63.7064C46.9231 63.9118 48.6908 47.6506 51.7695 25.2222C51.7532 23.9437 52.0957 20.5747 50.0736 19.3191C49.5681 19.0191 47.1123 17.77 43.3519 17.6362Z" stroke="#56BA50" stroke-width="2" stroke-miterlimit="10" stroke-linecap="round"/>
<path d="M31.3564 6.21167C31.4184 6.4628 38.0129 11.8017 39.6469 17.3917" stroke="#56BA50" stroke-width="2" stroke-miterlimit="10" stroke-linecap="round"/>
<path d="M40.3384 1C40.8406 1.25113 43.124 10.325 43.0001 17.5" stroke="#56BA50" stroke-width="2" stroke-miterlimit="10" stroke-linecap="round"/>
<path d="M51.0163 7.59448C48.4002 10.473 46.7481 14.0965 46.2905 17.9591" stroke="#56BA50" stroke-width="2" stroke-miterlimit="10" stroke-linecap="round"/>
<path d="M35 32.5C32.5342 31.0543 30.5101 30.5655 27.6548 30.698C25.3064 30.8235 23.023 31.5138 20.9984 32.7103C20.02 32.058 15.5291 29.1782 10.0695 30.4469C7.9378 30.8968 5.97773 31.9429 4.41755 33.4636C1.35187 36.5261 1.15618 40.5343 1.02572 42.7585C0.732197 48.3029 3.02168 52.3698 4.28709 54.568C6.37763 58.1848 8.92804 62.5942 13.3309 62.9823C16.5923 63.2726 19.2633 61.2016 20.3657 60.2199C21.1875 60.9048 23.8814 62.9758 27.1493 62.4801C29.292 62.1539 30.6585 60.8885 32.8045 58.8371C34.9904 56.742 36.8514 54.3325 38.326 51.6882" stroke="#56BA50" stroke-width="2" stroke-miterlimit="10" stroke-linecap="round"/>
<path d="M20.9919 32.7103C20.9919 32.7103 17.9185 24.0893 26.0002 23" stroke="#56BA50" stroke-width="2" stroke-miterlimit="10" stroke-linecap="round"/>
<path d="M12.7016 17.1731C12.7016 17.1731 21.4095 17.3427 21.2432 23.5393V25.3396C15.9141 26.9898 12.1244 25.894 12.7016 17.1731Z" stroke="#56BA50" stroke-width="2" stroke-miterlimit="10" stroke-linecap="round"/>
</svg>
