<svg width="245" height="48" viewBox="0 0 245 48" fill="none" xmlns="http://www.w3.org/2000/svg">
<rect width="245" height="48" rx="5" fill="#FFD863"/>
<path d="M74.1903 30V18.48H78.8463C78.9583 18.48 79.097 18.4853 79.2623 18.496C79.4276 18.5013 79.585 18.5173 79.7343 18.544C80.3743 18.6453 80.9076 18.864 81.3343 19.2C81.7663 19.536 82.089 19.96 82.3023 20.472C82.5156 20.984 82.6223 21.5493 82.6223 22.168C82.6223 22.792 82.5156 23.36 82.3023 23.872C82.089 24.384 81.7663 24.808 81.3343 25.144C80.9076 25.48 80.3743 25.6987 79.7343 25.8C79.585 25.8213 79.425 25.8373 79.2543 25.848C79.089 25.8587 78.953 25.864 78.8463 25.864H75.8623V30H74.1903ZM75.8623 24.28H78.7823C78.889 24.28 79.0063 24.2747 79.1343 24.264C79.2676 24.2533 79.393 24.2347 79.5103 24.208C79.8516 24.128 80.1263 23.9813 80.3343 23.768C80.5423 23.5493 80.6916 23.2987 80.7823 23.016C80.873 22.7333 80.9183 22.4507 80.9183 22.168C80.9183 21.8853 80.873 21.6053 80.7823 21.328C80.6916 21.0453 80.5423 20.7973 80.3343 20.584C80.1263 20.3653 79.8516 20.216 79.5103 20.136C79.393 20.104 79.2676 20.0827 79.1343 20.072C79.0063 20.0613 78.889 20.056 78.7823 20.056H75.8623V24.28ZM84.2216 30V21.36H85.7096V23.456L85.5016 23.184C85.6082 22.9067 85.7469 22.6533 85.9176 22.424C86.0882 22.1893 86.2856 21.9973 86.5096 21.848C86.7282 21.688 86.9709 21.5653 87.2376 21.48C87.5096 21.3893 87.7869 21.336 88.0696 21.32C88.3522 21.2987 88.6242 21.312 88.8856 21.36V22.928C88.6029 22.8533 88.2882 22.832 87.9416 22.864C87.6002 22.896 87.2856 23.0053 86.9976 23.192C86.7256 23.368 86.5096 23.5813 86.3496 23.832C86.1949 24.0827 86.0829 24.3627 86.0136 24.672C85.9442 24.976 85.9096 25.2987 85.9096 25.64V30H84.2216ZM94.0048 30.24C93.1408 30.24 92.3915 30.0453 91.7568 29.656C91.1221 29.2667 90.6315 28.7307 90.2848 28.048C89.9435 27.36 89.7728 26.568 89.7728 25.672C89.7728 24.7707 89.9488 23.9787 90.3008 23.296C90.6528 22.608 91.1461 22.0747 91.7808 21.696C92.4155 21.312 93.1568 21.12 94.0048 21.12C94.8688 21.12 95.6181 21.3147 96.2528 21.704C96.8875 22.0933 97.3781 22.6293 97.7248 23.312C98.0715 23.9947 98.2448 24.7813 98.2448 25.672C98.2448 26.5733 98.0688 27.368 97.7168 28.056C97.3701 28.7387 96.8795 29.2747 96.2448 29.664C95.6101 30.048 94.8635 30.24 94.0048 30.24ZM94.0048 28.664C94.8315 28.664 95.4475 28.3867 95.8528 27.832C96.2635 27.272 96.4688 26.552 96.4688 25.672C96.4688 24.7707 96.2608 24.0507 95.8448 23.512C95.4341 22.968 94.8208 22.696 94.0048 22.696C93.4448 22.696 92.9835 22.824 92.6208 23.08C92.2581 23.3307 91.9888 23.68 91.8128 24.128C91.6368 24.5707 91.5488 25.0853 91.5488 25.672C91.5488 26.5787 91.7568 27.304 92.1728 27.848C92.5888 28.392 93.1995 28.664 94.0048 28.664ZM103.699 30.24C102.813 30.24 102.061 30.0427 101.443 29.648C100.824 29.2533 100.349 28.712 100.019 28.024C99.6935 27.336 99.5281 26.5547 99.5228 25.68C99.5281 24.7893 99.6988 24.0027 100.035 23.32C100.371 22.632 100.851 22.0933 101.475 21.704C102.099 21.3147 102.848 21.12 103.723 21.12C104.667 21.12 105.472 21.3547 106.139 21.824C106.811 22.2933 107.253 22.936 107.467 23.752L105.803 24.232C105.637 23.7467 105.365 23.3707 104.987 23.104C104.613 22.832 104.184 22.696 103.699 22.696C103.149 22.696 102.699 22.8267 102.347 23.088C101.995 23.344 101.733 23.696 101.563 24.144C101.392 24.592 101.304 25.104 101.299 25.68C101.304 26.5707 101.507 27.2907 101.907 27.84C102.312 28.3893 102.909 28.664 103.699 28.664C104.237 28.664 104.672 28.5413 105.003 28.296C105.339 28.0453 105.595 27.688 105.771 27.224L107.467 27.624C107.184 28.4667 106.717 29.1147 106.067 29.568C105.416 30.016 104.627 30.24 103.699 30.24ZM112.353 30.232C111.755 30.232 111.254 30.136 110.849 29.944C110.443 29.752 110.113 29.5013 109.857 29.192C109.606 28.8773 109.414 28.536 109.281 28.168C109.147 27.8 109.057 27.44 109.009 27.088C108.961 26.736 108.937 26.4267 108.937 26.16V21.36H110.633V25.608C110.633 25.944 110.659 26.2907 110.713 26.648C110.771 27 110.878 27.328 111.033 27.632C111.193 27.936 111.414 28.1813 111.697 28.368C111.985 28.5547 112.358 28.648 112.817 28.648C113.115 28.648 113.398 28.6 113.665 28.504C113.931 28.4027 114.163 28.2427 114.361 28.024C114.563 27.8053 114.721 27.5173 114.833 27.16C114.95 26.8027 115.009 26.368 115.009 25.856L116.049 26.248C116.049 27.032 115.902 27.7253 115.609 28.328C115.315 28.9253 114.894 29.392 114.345 29.728C113.795 30.064 113.131 30.232 112.353 30.232ZM115.209 30V27.504H115.009V21.36H116.697V30H115.209ZM118.94 30V21.36H120.428V23.456L120.22 23.184C120.327 22.9067 120.466 22.6533 120.636 22.424C120.807 22.1893 121.004 21.9973 121.228 21.848C121.447 21.688 121.69 21.5653 121.956 21.48C122.228 21.3893 122.506 21.336 122.788 21.32C123.071 21.2987 123.343 21.312 123.604 21.36V22.928C123.322 22.8533 123.007 22.832 122.66 22.864C122.319 22.896 122.004 23.0053 121.716 23.192C121.444 23.368 121.228 23.5813 121.068 23.832C120.914 24.0827 120.802 24.3627 120.732 24.672C120.663 24.976 120.628 25.2987 120.628 25.64V30H118.94ZM127.333 30.24C126.693 30.24 126.157 30.1227 125.725 29.888C125.293 29.648 124.965 29.3333 124.741 28.944C124.523 28.5493 124.413 28.1173 124.413 27.648C124.413 27.2107 124.491 26.8267 124.645 26.496C124.8 26.1653 125.029 25.8853 125.333 25.656C125.637 25.4213 126.011 25.232 126.453 25.088C126.837 24.976 127.272 24.8773 127.757 24.792C128.243 24.7067 128.752 24.6267 129.285 24.552C129.824 24.4773 130.357 24.4027 130.885 24.328L130.277 24.664C130.288 23.9867 130.144 23.4853 129.845 23.16C129.552 22.8293 129.045 22.664 128.325 22.664C127.872 22.664 127.456 22.7707 127.077 22.984C126.699 23.192 126.435 23.5387 126.285 24.024L124.725 23.544C124.939 22.8027 125.344 22.2133 125.941 21.776C126.544 21.3387 127.344 21.12 128.341 21.12C129.115 21.12 129.787 21.2533 130.357 21.52C130.933 21.7813 131.355 22.1973 131.621 22.768C131.76 23.0507 131.845 23.3493 131.877 23.664C131.909 23.9787 131.925 24.3173 131.925 24.68V30H130.445V28.024L130.733 28.28C130.376 28.9413 129.92 29.4347 129.365 29.76C128.816 30.08 128.139 30.24 127.333 30.24ZM127.629 28.872C128.104 28.872 128.512 28.7893 128.853 28.624C129.195 28.4533 129.469 28.2373 129.677 27.976C129.885 27.7147 130.021 27.4427 130.085 27.16C130.176 26.904 130.227 26.616 130.237 26.296C130.253 25.976 130.261 25.72 130.261 25.528L130.805 25.728C130.277 25.808 129.797 25.88 129.365 25.944C128.933 26.008 128.541 26.072 128.189 26.136C127.843 26.1947 127.533 26.2667 127.261 26.352C127.032 26.432 126.827 26.528 126.645 26.64C126.469 26.752 126.328 26.888 126.221 27.048C126.12 27.208 126.069 27.4027 126.069 27.632C126.069 27.856 126.125 28.064 126.237 28.256C126.349 28.4427 126.52 28.592 126.749 28.704C126.979 28.816 127.272 28.872 127.629 28.872ZM134.003 30V21.36H135.491V23.456L135.283 23.184C135.389 22.9067 135.528 22.6533 135.699 22.424C135.869 22.1893 136.067 21.9973 136.291 21.848C136.509 21.688 136.752 21.5653 137.019 21.48C137.291 21.3893 137.568 21.336 137.851 21.32C138.133 21.2987 138.405 21.312 138.667 21.36V22.928C138.384 22.8533 138.069 22.832 137.723 22.864C137.381 22.896 137.067 23.0053 136.779 23.192C136.507 23.368 136.291 23.5813 136.131 23.832C135.976 24.0827 135.864 24.3627 135.795 24.672C135.725 24.976 135.691 25.2987 135.691 25.64V30H134.003ZM149.457 30V25.752C149.457 25.416 149.428 25.072 149.369 24.72C149.316 24.3627 149.209 24.032 149.049 23.728C148.895 23.424 148.673 23.1787 148.385 22.992C148.103 22.8053 147.732 22.712 147.273 22.712C146.975 22.712 146.692 22.7627 146.425 22.864C146.159 22.96 145.924 23.1173 145.721 23.336C145.524 23.5547 145.367 23.8427 145.249 24.2C145.137 24.5573 145.081 24.992 145.081 25.504L144.041 25.112C144.041 24.328 144.188 23.6373 144.481 23.04C144.775 22.4373 145.196 21.968 145.745 21.632C146.295 21.296 146.959 21.128 147.737 21.128C148.335 21.128 148.836 21.224 149.241 21.416C149.647 21.608 149.975 21.8613 150.225 22.176C150.481 22.4853 150.676 22.824 150.809 23.192C150.943 23.56 151.033 23.92 151.081 24.272C151.129 24.624 151.153 24.9333 151.153 25.2V30H149.457ZM143.385 30V21.36H144.881V23.856H145.081V30H143.385ZM155.677 30.24C155.037 30.24 154.501 30.1227 154.069 29.888C153.637 29.648 153.309 29.3333 153.085 28.944C152.867 28.5493 152.757 28.1173 152.757 27.648C152.757 27.2107 152.835 26.8267 152.989 26.496C153.144 26.1653 153.373 25.8853 153.677 25.656C153.981 25.4213 154.355 25.232 154.797 25.088C155.181 24.976 155.616 24.8773 156.101 24.792C156.587 24.7067 157.096 24.6267 157.629 24.552C158.168 24.4773 158.701 24.4027 159.229 24.328L158.621 24.664C158.632 23.9867 158.488 23.4853 158.189 23.16C157.896 22.8293 157.389 22.664 156.669 22.664C156.216 22.664 155.8 22.7707 155.421 22.984C155.043 23.192 154.779 23.5387 154.629 24.024L153.069 23.544C153.283 22.8027 153.688 22.2133 154.285 21.776C154.888 21.3387 155.688 21.12 156.685 21.12C157.459 21.12 158.131 21.2533 158.701 21.52C159.277 21.7813 159.699 22.1973 159.965 22.768C160.104 23.0507 160.189 23.3493 160.221 23.664C160.253 23.9787 160.269 24.3173 160.269 24.68V30H158.789V28.024L159.077 28.28C158.72 28.9413 158.264 29.4347 157.709 29.76C157.16 30.08 156.483 30.24 155.677 30.24ZM155.973 28.872C156.448 28.872 156.856 28.7893 157.197 28.624C157.539 28.4533 157.813 28.2373 158.021 27.976C158.229 27.7147 158.365 27.4427 158.429 27.16C158.52 26.904 158.571 26.616 158.581 26.296C158.597 25.976 158.605 25.72 158.605 25.528L159.149 25.728C158.621 25.808 158.141 25.88 157.709 25.944C157.277 26.008 156.885 26.072 156.533 26.136C156.187 26.1947 155.877 26.2667 155.605 26.352C155.376 26.432 155.171 26.528 154.989 26.64C154.813 26.752 154.672 26.888 154.565 27.048C154.464 27.208 154.413 27.4027 154.413 27.632C154.413 27.856 154.469 28.064 154.581 28.256C154.693 28.4427 154.864 28.592 155.093 28.704C155.323 28.816 155.616 28.872 155.973 28.872ZM165.71 30V18.24H167.382V30H165.71ZM173.536 30.24C172.672 30.24 171.923 30.0453 171.288 29.656C170.653 29.2667 170.163 28.7307 169.816 28.048C169.475 27.36 169.304 26.568 169.304 25.672C169.304 24.7707 169.48 23.9787 169.832 23.296C170.184 22.608 170.677 22.0747 171.312 21.696C171.947 21.312 172.688 21.12 173.536 21.12C174.4 21.12 175.149 21.3147 175.784 21.704C176.419 22.0933 176.909 22.6293 177.256 23.312C177.603 23.9947 177.776 24.7813 177.776 25.672C177.776 26.5733 177.6 27.368 177.248 28.056C176.901 28.7387 176.411 29.2747 175.776 29.664C175.141 30.048 174.395 30.24 173.536 30.24ZM173.536 28.664C174.363 28.664 174.979 28.3867 175.384 27.832C175.795 27.272 176 26.552 176 25.672C176 24.7707 175.792 24.0507 175.376 23.512C174.965 22.968 174.352 22.696 173.536 22.696C172.976 22.696 172.515 22.824 172.152 23.08C171.789 23.3307 171.52 23.68 171.344 24.128C171.168 24.5707 171.08 25.0853 171.08 25.672C171.08 26.5787 171.288 27.304 171.704 27.848C172.12 28.392 172.731 28.664 173.536 28.664ZM178.254 33.84V32.256H178.694C179.137 32.256 179.459 32.1493 179.662 31.936C179.87 31.7227 179.974 31.3947 179.974 30.952V21.36H181.654V31.632C181.654 32.336 181.459 32.88 181.07 33.264C180.686 33.648 180.134 33.84 179.414 33.84H178.254ZM179.974 19.944V18.32H181.654V19.944H179.974ZM186.38 30.24C185.74 30.24 185.204 30.1227 184.772 29.888C184.34 29.648 184.012 29.3333 183.788 28.944C183.57 28.5493 183.46 28.1173 183.46 27.648C183.46 27.2107 183.538 26.8267 183.692 26.496C183.847 26.1653 184.076 25.8853 184.38 25.656C184.684 25.4213 185.058 25.232 185.5 25.088C185.884 24.976 186.319 24.8773 186.804 24.792C187.29 24.7067 187.799 24.6267 188.332 24.552C188.871 24.4773 189.404 24.4027 189.932 24.328L189.324 24.664C189.335 23.9867 189.191 23.4853 188.892 23.16C188.599 22.8293 188.092 22.664 187.372 22.664C186.919 22.664 186.503 22.7707 186.124 22.984C185.746 23.192 185.482 23.5387 185.332 24.024L183.772 23.544C183.986 22.8027 184.391 22.2133 184.988 21.776C185.591 21.3387 186.391 21.12 187.388 21.12C188.162 21.12 188.834 21.2533 189.404 21.52C189.98 21.7813 190.402 22.1973 190.668 22.768C190.807 23.0507 190.892 23.3493 190.924 23.664C190.956 23.9787 190.972 24.3173 190.972 24.68V30H189.492V28.024L189.78 28.28C189.423 28.9413 188.967 29.4347 188.412 29.76C187.863 30.08 187.186 30.24 186.38 30.24ZM186.676 28.872C187.151 28.872 187.559 28.7893 187.9 28.624C188.242 28.4533 188.516 28.2373 188.724 27.976C188.932 27.7147 189.068 27.4427 189.132 27.16C189.223 26.904 189.274 26.616 189.284 26.296C189.3 25.976 189.308 25.72 189.308 25.528L189.852 25.728C189.324 25.808 188.844 25.88 188.412 25.944C187.98 26.008 187.588 26.072 187.236 26.136C186.89 26.1947 186.58 26.2667 186.308 26.352C186.079 26.432 185.874 26.528 185.692 26.64C185.516 26.752 185.375 26.888 185.268 27.048C185.167 27.208 185.116 27.4027 185.116 27.632C185.116 27.856 185.172 28.064 185.284 28.256C185.396 28.4427 185.567 28.592 185.796 28.704C186.026 28.816 186.319 28.872 186.676 28.872Z" fill="#393939"/>
<circle cx="24" cy="24" r="6.5" stroke="white" stroke-width="3"/>
<circle cx="24" cy="24" r="3" fill="white"/>
</svg>
