<svg width="277" height="54" viewBox="0 0 277 54" fill="none" xmlns="http://www.w3.org/2000/svg">
<rect width="277" height="54" rx="5" fill="#FFD863"/>
<path d="M91.5042 33V21.48H96.1602C96.2722 21.48 96.4109 21.4853 96.5762 21.496C96.7416 21.5013 96.8989 21.5173 97.0482 21.544C97.6882 21.6453 98.2215 21.864 98.6482 22.2C99.0802 22.536 99.4029 22.96 99.6162 23.472C99.8295 23.984 99.9362 24.5493 99.9362 25.168C99.9362 25.792 99.8295 26.36 99.6162 26.872C99.4029 27.384 99.0802 27.808 98.6482 28.144C98.2215 28.48 97.6882 28.6987 97.0482 28.8C96.8989 28.8213 96.7389 28.8373 96.5682 28.848C96.4029 28.8587 96.2669 28.864 96.1602 28.864H93.1762V33H91.5042ZM93.1762 27.28H96.0962C96.2029 27.28 96.3202 27.2747 96.4482 27.264C96.5815 27.2533 96.7069 27.2347 96.8242 27.208C97.1655 27.128 97.4402 26.9813 97.6482 26.768C97.8562 26.5493 98.0055 26.2987 98.0962 26.016C98.1869 25.7333 98.2322 25.4507 98.2322 25.168C98.2322 24.8853 98.1869 24.6053 98.0962 24.328C98.0055 24.0453 97.8562 23.7973 97.6482 23.584C97.4402 23.3653 97.1655 23.216 96.8242 23.136C96.7069 23.104 96.5815 23.0827 96.4482 23.072C96.3202 23.0613 96.2029 23.056 96.0962 23.056H93.1762V27.28ZM101.535 33V24.36H103.023V26.456L102.815 26.184C102.922 25.9067 103.061 25.6533 103.231 25.424C103.402 25.1893 103.599 24.9973 103.823 24.848C104.042 24.688 104.285 24.5653 104.551 24.48C104.823 24.3893 105.101 24.336 105.383 24.32C105.666 24.2987 105.938 24.312 106.199 24.36V25.928C105.917 25.8533 105.602 25.832 105.255 25.864C104.914 25.896 104.599 26.0053 104.311 26.192C104.039 26.368 103.823 26.5813 103.663 26.832C103.509 27.0827 103.397 27.3627 103.327 27.672C103.258 27.976 103.223 28.2987 103.223 28.64V33H101.535ZM111.319 33.24C110.455 33.24 109.705 33.0453 109.071 32.656C108.436 32.2667 107.945 31.7307 107.599 31.048C107.257 30.36 107.087 29.568 107.087 28.672C107.087 27.7707 107.263 26.9787 107.615 26.296C107.967 25.608 108.46 25.0747 109.095 24.696C109.729 24.312 110.471 24.12 111.319 24.12C112.183 24.12 112.932 24.3147 113.567 24.704C114.201 25.0933 114.692 25.6293 115.039 26.312C115.385 26.9947 115.559 27.7813 115.559 28.672C115.559 29.5733 115.383 30.368 115.031 31.056C114.684 31.7387 114.193 32.2747 113.559 32.664C112.924 33.048 112.177 33.24 111.319 33.24ZM111.319 31.664C112.145 31.664 112.761 31.3867 113.167 30.832C113.577 30.272 113.783 29.552 113.783 28.672C113.783 27.7707 113.575 27.0507 113.159 26.512C112.748 25.968 112.135 25.696 111.319 25.696C110.759 25.696 110.297 25.824 109.935 26.08C109.572 26.3307 109.303 26.68 109.127 27.128C108.951 27.5707 108.863 28.0853 108.863 28.672C108.863 29.5787 109.071 30.304 109.487 30.848C109.903 31.392 110.513 31.664 111.319 31.664ZM121.013 33.24C120.127 33.24 119.375 33.0427 118.757 32.648C118.138 32.2533 117.663 31.712 117.333 31.024C117.007 30.336 116.842 29.5547 116.837 28.68C116.842 27.7893 117.013 27.0027 117.349 26.32C117.685 25.632 118.165 25.0933 118.789 24.704C119.413 24.3147 120.162 24.12 121.037 24.12C121.981 24.12 122.786 24.3547 123.453 24.824C124.125 25.2933 124.567 25.936 124.781 26.752L123.117 27.232C122.951 26.7467 122.679 26.3707 122.301 26.104C121.927 25.832 121.498 25.696 121.013 25.696C120.463 25.696 120.013 25.8267 119.661 26.088C119.309 26.344 119.047 26.696 118.877 27.144C118.706 27.592 118.618 28.104 118.613 28.68C118.618 29.5707 118.821 30.2907 119.221 30.84C119.626 31.3893 120.223 31.664 121.013 31.664C121.551 31.664 121.986 31.5413 122.317 31.296C122.653 31.0453 122.909 30.688 123.085 30.224L124.781 30.624C124.498 31.4667 124.031 32.1147 123.381 32.568C122.73 33.016 121.941 33.24 121.013 33.24ZM129.666 33.232C129.069 33.232 128.568 33.136 128.162 32.944C127.757 32.752 127.426 32.5013 127.17 32.192C126.92 31.8773 126.728 31.536 126.594 31.168C126.461 30.8 126.37 30.44 126.322 30.088C126.274 29.736 126.25 29.4267 126.25 29.16V24.36H127.946V28.608C127.946 28.944 127.973 29.2907 128.026 29.648C128.085 30 128.192 30.328 128.346 30.632C128.506 30.936 128.728 31.1813 129.01 31.368C129.298 31.5547 129.672 31.648 130.13 31.648C130.429 31.648 130.712 31.6 130.978 31.504C131.245 31.4027 131.477 31.2427 131.674 31.024C131.877 30.8053 132.034 30.5173 132.146 30.16C132.264 29.8027 132.322 29.368 132.322 28.856L133.362 29.248C133.362 30.032 133.216 30.7253 132.922 31.328C132.629 31.9253 132.208 32.392 131.658 32.728C131.109 33.064 130.445 33.232 129.666 33.232ZM132.522 33V30.504H132.322V24.36H134.01V33H132.522ZM136.254 33V24.36H137.742V26.456L137.534 26.184C137.641 25.9067 137.78 25.6533 137.95 25.424C138.121 25.1893 138.318 24.9973 138.542 24.848C138.761 24.688 139.004 24.5653 139.27 24.48C139.542 24.3893 139.82 24.336 140.102 24.32C140.385 24.2987 140.657 24.312 140.918 24.36V25.928C140.636 25.8533 140.321 25.832 139.974 25.864C139.633 25.896 139.318 26.0053 139.03 26.192C138.758 26.368 138.542 26.5813 138.382 26.832C138.228 27.0827 138.116 27.3627 138.046 27.672C137.977 27.976 137.942 28.2987 137.942 28.64V33H136.254ZM144.632 33.24C143.992 33.24 143.456 33.1227 143.024 32.888C142.592 32.648 142.264 32.3333 142.04 31.944C141.821 31.5493 141.712 31.1173 141.712 30.648C141.712 30.2107 141.789 29.8267 141.944 29.496C142.098 29.1653 142.328 28.8853 142.632 28.656C142.936 28.4213 143.309 28.232 143.752 28.088C144.136 27.976 144.57 27.8773 145.056 27.792C145.541 27.7067 146.05 27.6267 146.584 27.552C147.122 27.4773 147.656 27.4027 148.184 27.328L147.576 27.664C147.586 26.9867 147.442 26.4853 147.144 26.16C146.85 25.8293 146.344 25.664 145.624 25.664C145.17 25.664 144.754 25.7707 144.376 25.984C143.997 26.192 143.733 26.5387 143.584 27.024L142.024 26.544C142.237 25.8027 142.642 25.2133 143.24 24.776C143.842 24.3387 144.642 24.12 145.64 24.12C146.413 24.12 147.085 24.2533 147.656 24.52C148.232 24.7813 148.653 25.1973 148.92 25.768C149.058 26.0507 149.144 26.3493 149.176 26.664C149.208 26.9787 149.224 27.3173 149.224 27.68V33H147.744V31.024L148.032 31.28C147.674 31.9413 147.218 32.4347 146.664 32.76C146.114 33.08 145.437 33.24 144.632 33.24ZM144.928 31.872C145.402 31.872 145.81 31.7893 146.152 31.624C146.493 31.4533 146.768 31.2373 146.976 30.976C147.184 30.7147 147.32 30.4427 147.384 30.16C147.474 29.904 147.525 29.616 147.536 29.296C147.552 28.976 147.56 28.72 147.56 28.528L148.104 28.728C147.576 28.808 147.096 28.88 146.664 28.944C146.232 29.008 145.84 29.072 145.488 29.136C145.141 29.1947 144.832 29.2667 144.56 29.352C144.33 29.432 144.125 29.528 143.944 29.64C143.768 29.752 143.626 29.888 143.52 30.048C143.418 30.208 143.368 30.4027 143.368 30.632C143.368 30.856 143.424 31.064 143.536 31.256C143.648 31.4427 143.818 31.592 144.048 31.704C144.277 31.816 144.57 31.872 144.928 31.872ZM151.301 33V24.36H152.789V26.456L152.581 26.184C152.688 25.9067 152.826 25.6533 152.997 25.424C153.168 25.1893 153.365 24.9973 153.589 24.848C153.808 24.688 154.05 24.5653 154.317 24.48C154.589 24.3893 154.866 24.336 155.149 24.32C155.432 24.2987 155.704 24.312 155.965 24.36V25.928C155.682 25.8533 155.368 25.832 155.021 25.864C154.68 25.896 154.365 26.0053 154.077 26.192C153.805 26.368 153.589 26.5813 153.429 26.832C153.274 27.0827 153.162 27.3627 153.093 27.672C153.024 27.976 152.989 28.2987 152.989 28.64V33H151.301ZM166.756 33V28.752C166.756 28.416 166.726 28.072 166.668 27.72C166.614 27.3627 166.508 27.032 166.348 26.728C166.193 26.424 165.972 26.1787 165.684 25.992C165.401 25.8053 165.03 25.712 164.572 25.712C164.273 25.712 163.99 25.7627 163.724 25.864C163.457 25.96 163.222 26.1173 163.02 26.336C162.822 26.5547 162.665 26.8427 162.548 27.2C162.436 27.5573 162.38 27.992 162.38 28.504L161.34 28.112C161.34 27.328 161.486 26.6373 161.78 26.04C162.073 25.4373 162.494 24.968 163.044 24.632C163.593 24.296 164.257 24.128 165.036 24.128C165.633 24.128 166.134 24.224 166.54 24.416C166.945 24.608 167.273 24.8613 167.524 25.176C167.78 25.4853 167.974 25.824 168.108 26.192C168.241 26.56 168.332 26.92 168.38 27.272C168.428 27.624 168.452 27.9333 168.452 28.2V33H166.756ZM160.684 33V24.36H162.18V26.856H162.38V33H160.684ZM172.975 33.24C172.335 33.24 171.799 33.1227 171.367 32.888C170.935 32.648 170.607 32.3333 170.383 31.944C170.165 31.5493 170.055 31.1173 170.055 30.648C170.055 30.2107 170.133 29.8267 170.287 29.496C170.442 29.1653 170.671 28.8853 170.975 28.656C171.279 28.4213 171.653 28.232 172.095 28.088C172.479 27.976 172.914 27.8773 173.399 27.792C173.885 27.7067 174.394 27.6267 174.927 27.552C175.466 27.4773 175.999 27.4027 176.527 27.328L175.919 27.664C175.93 26.9867 175.786 26.4853 175.487 26.16C175.194 25.8293 174.687 25.664 173.967 25.664C173.514 25.664 173.098 25.7707 172.719 25.984C172.341 26.192 172.077 26.5387 171.927 27.024L170.367 26.544C170.581 25.8027 170.986 25.2133 171.583 24.776C172.186 24.3387 172.986 24.12 173.983 24.12C174.757 24.12 175.429 24.2533 175.999 24.52C176.575 24.7813 176.997 25.1973 177.263 25.768C177.402 26.0507 177.487 26.3493 177.519 26.664C177.551 26.9787 177.567 27.3173 177.567 27.68V33H176.087V31.024L176.375 31.28C176.018 31.9413 175.562 32.4347 175.007 32.76C174.458 33.08 173.781 33.24 172.975 33.24ZM173.271 31.872C173.746 31.872 174.154 31.7893 174.495 31.624C174.837 31.4533 175.111 31.2373 175.319 30.976C175.527 30.7147 175.663 30.4427 175.727 30.16C175.818 29.904 175.869 29.616 175.879 29.296C175.895 28.976 175.903 28.72 175.903 28.528L176.447 28.728C175.919 28.808 175.439 28.88 175.007 28.944C174.575 29.008 174.183 29.072 173.831 29.136C173.485 29.1947 173.175 29.2667 172.903 29.352C172.674 29.432 172.469 29.528 172.287 29.64C172.111 29.752 171.97 29.888 171.863 30.048C171.762 30.208 171.711 30.4027 171.711 30.632C171.711 30.856 171.767 31.064 171.879 31.256C171.991 31.4427 172.162 31.592 172.391 31.704C172.621 31.816 172.914 31.872 173.271 31.872ZM183.008 33V21.24H184.68V33H183.008ZM190.834 33.24C189.97 33.24 189.221 33.0453 188.586 32.656C187.952 32.2667 187.461 31.7307 187.114 31.048C186.773 30.36 186.602 29.568 186.602 28.672C186.602 27.7707 186.778 26.9787 187.13 26.296C187.482 25.608 187.976 25.0747 188.61 24.696C189.245 24.312 189.986 24.12 190.834 24.12C191.698 24.12 192.448 24.3147 193.082 24.704C193.717 25.0933 194.208 25.6293 194.554 26.312C194.901 26.9947 195.074 27.7813 195.074 28.672C195.074 29.5733 194.898 30.368 194.546 31.056C194.2 31.7387 193.709 32.2747 193.074 32.664C192.44 33.048 191.693 33.24 190.834 33.24ZM190.834 31.664C191.661 31.664 192.277 31.3867 192.682 30.832C193.093 30.272 193.298 29.552 193.298 28.672C193.298 27.7707 193.09 27.0507 192.674 26.512C192.264 25.968 191.65 25.696 190.834 25.696C190.274 25.696 189.813 25.824 189.45 26.08C189.088 26.3307 188.818 26.68 188.642 27.128C188.466 27.5707 188.378 28.0853 188.378 28.672C188.378 29.5787 188.586 30.304 189.002 30.848C189.418 31.392 190.029 31.664 190.834 31.664ZM195.552 36.84V35.256H195.992C196.435 35.256 196.758 35.1493 196.96 34.936C197.168 34.7227 197.272 34.3947 197.272 33.952V24.36H198.952V34.632C198.952 35.336 198.758 35.88 198.368 36.264C197.984 36.648 197.432 36.84 196.712 36.84H195.552ZM197.272 22.944V21.32H198.952V22.944H197.272ZM203.679 33.24C203.039 33.24 202.503 33.1227 202.071 32.888C201.639 32.648 201.311 32.3333 201.087 31.944C200.868 31.5493 200.759 31.1173 200.759 30.648C200.759 30.2107 200.836 29.8267 200.991 29.496C201.145 29.1653 201.375 28.8853 201.679 28.656C201.983 28.4213 202.356 28.232 202.799 28.088C203.183 27.976 203.617 27.8773 204.103 27.792C204.588 27.7067 205.097 27.6267 205.631 27.552C206.169 27.4773 206.703 27.4027 207.231 27.328L206.623 27.664C206.633 26.9867 206.489 26.4853 206.191 26.16C205.897 25.8293 205.391 25.664 204.671 25.664C204.217 25.664 203.801 25.7707 203.423 25.984C203.044 26.192 202.78 26.5387 202.631 27.024L201.071 26.544C201.284 25.8027 201.689 25.2133 202.287 24.776C202.889 24.3387 203.689 24.12 204.687 24.12C205.46 24.12 206.132 24.2533 206.703 24.52C207.279 24.7813 207.7 25.1973 207.967 25.768C208.105 26.0507 208.191 26.3493 208.223 26.664C208.255 26.9787 208.271 27.3173 208.271 27.68V33H206.791V31.024L207.079 31.28C206.721 31.9413 206.265 32.4347 205.711 32.76C205.161 33.08 204.484 33.24 203.679 33.24ZM203.975 31.872C204.449 31.872 204.857 31.7893 205.199 31.624C205.54 31.4533 205.815 31.2373 206.023 30.976C206.231 30.7147 206.367 30.4427 206.431 30.16C206.521 29.904 206.572 29.616 206.583 29.296C206.599 28.976 206.607 28.72 206.607 28.528L207.151 28.728C206.623 28.808 206.143 28.88 205.711 28.944C205.279 29.008 204.887 29.072 204.535 29.136C204.188 29.1947 203.879 29.2667 203.607 29.352C203.377 29.432 203.172 29.528 202.991 29.64C202.815 29.752 202.673 29.888 202.567 30.048C202.465 30.208 202.415 30.4027 202.415 30.632C202.415 30.856 202.471 31.064 202.583 31.256C202.695 31.4427 202.865 31.592 203.095 31.704C203.324 31.816 203.617 31.872 203.975 31.872Z" fill="#393939"/>
<path d="M34.6796 27C34.6796 31.1351 31.3087 34.5 27.1347 34.5C22.9607 34.5 19.5898 31.1351 19.5898 27C19.5898 22.8649 22.9607 19.5 27.1347 19.5C31.3087 19.5 34.6796 22.8649 34.6796 27Z" stroke="white" stroke-width="3"/>
<ellipse cx="27.1347" cy="27" rx="3.39184" ry="3.375" fill="white"/>
</svg>
