<svg width="41" height="63" viewBox="0 0 41 63" fill="none" xmlns="http://www.w3.org/2000/svg">
<path d="M4.8513 20.8746C4.13357 24.0337 3.47608 27.6852 3.01768 31.3158C1.87822 40.3267 1.87822 49.4452 3.01768 58.4561H14.0509" stroke="#125C40" stroke-width="2" stroke-miterlimit="10"/>
<path d="M11.7456 20.8746C12.0495 22.7895 12.8353 25.7206 14.9309 27.0775C16.1725 27.8896 17.2386 27.8372 18.2576 28.086C22.3833 29.1076 24.4264 34.8102 25.5214 37.875C26.2793 40.0073 26.7694 42.2255 26.9804 44.4786" stroke="#125C40" stroke-width="2" stroke-miterlimit="10"/>
<path d="M13.3069 15.7273H3.72229V20.8719H13.3069V15.7273Z" stroke="#125C40" stroke-width="2" stroke-miterlimit="10"/>
<path d="M10.8891 10.8342H6.4989V15.7274H10.8891V10.8342Z" stroke="#125C40" stroke-width="2" stroke-miterlimit="10"/>
<path d="M20.3193 3.66992H1.04785V10.8342H20.3193V3.66992Z" stroke="#125C40" stroke-width="2" stroke-miterlimit="10" stroke-linejoin="round"/>
<path d="M20.3192 4.9325H23.5228C24.1192 4.9325 24.6912 5.16942 25.113 5.59116C25.5347 6.01289 25.7716 6.58489 25.7716 7.18131C25.7716 7.77773 25.5347 8.34972 25.113 8.77146C24.6912 9.19319 24.1192 9.43012 23.5228 9.43012H20.3192" stroke="#125C40" stroke-width="2" stroke-miterlimit="10"/>
<path d="M16.3298 10.8342C16.8197 15.4733 20.8851 18.6926 24.7121 18.2499" stroke="#125C40" stroke-width="2" stroke-miterlimit="10" stroke-linecap="round"/>
<path d="M39.7923 48.4759V48.5702C39.7923 49.8799 39.0851 51.1713 38.0504 52.1877C37.1644 53.0699 36.061 53.7024 34.852 54.0213C31.8763 54.7364 30.6609 52.3815 26.4697 52.7561C23.9341 52.9814 23.9917 53.8746 21.291 54.0213C19.9813 54.092 16.7122 54.2675 14.7581 52.3343C14.5665 52.1489 14.3912 51.9473 14.2342 51.7319C13.6452 50.8372 13.3235 49.7931 13.3069 48.7221C13.3058 48.398 13.34 48.0748 13.4091 47.7581C14.0744 44.641 17.9067 42.7445 20.8772 42.8781C23.384 42.9907 23.6931 44.4733 26.3597 44.5074C29.0709 44.5362 29.6052 43.0117 32.0204 42.8781C35.3445 42.6973 39.7033 45.2827 39.7923 48.4759Z" stroke="#125C40" stroke-width="2" stroke-miterlimit="10"/>
<path d="M14.7659 52.3317C16.72 54.2649 20.0048 54.0894 21.2988 54.0187C23.9995 53.872 23.9419 52.9709 26.4775 52.7535C30.6687 52.3789 31.8762 54.7338 34.8598 54.0187C36.0688 53.6998 37.1721 53.0673 38.0582 52.1851" stroke="#125C40" stroke-width="2" stroke-miterlimit="10"/>
<path d="M39.7924 55.5327C39.8578 58.0003 37.3563 60.4704 34.852 61.0755C31.8763 61.7906 30.6609 59.4357 26.4698 59.8103C23.9341 60.0356 23.9917 60.9288 21.2911 61.0755C19.8635 61.1515 16.0783 61.3558 14.2421 58.7861C13.647 57.8924 13.3198 56.8472 13.2991 55.7737" stroke="#125C40" stroke-width="2" stroke-miterlimit="10"/>
<path d="M39.7922 55.5223V48.5702" stroke="#125C40" stroke-width="2" stroke-miterlimit="10"/>
<path d="M13.3069 55.9754V48.5885" stroke="#125C40" stroke-width="2" stroke-miterlimit="10"/>
</svg>
