<svg width="100" height="30" viewBox="0 0 100 30" fill="none" xmlns="http://www.w3.org/2000/svg">
<path d="M22.95 8.30005C24.523 9.87354 25.5941 11.8781 26.0279 14.0603C26.4617 16.2425 26.2387 18.5043 25.3871 20.5597C24.5355 22.6152 23.0935 24.372 21.2436 25.608C19.3936 26.844 17.2187 27.5037 14.9938 27.5037C12.7689 27.5037 10.594 26.844 8.744 25.608C6.89402 24.372 5.45208 22.6152 4.60049 20.5597C3.74889 18.5043 3.52589 16.2425 3.95968 14.0603C4.39346 11.8781 5.46456 9.87354 7.03753 8.30005" stroke="white" stroke-width="2" stroke-linecap="round" stroke-linejoin="round"/>
<path d="M15 2.5V15" stroke="white" stroke-width="2" stroke-linecap="round" stroke-linejoin="round"/>
<path d="M50.7639 26.98C49.1105 26.98 47.6172 26.6973 46.2839 26.132C44.9612 25.556 43.8679 24.74 43.0039 23.684C42.1505 22.6173 41.5959 21.3533 41.3399 19.892L44.8279 19.364C45.1799 20.772 45.9159 21.8707 47.0359 22.66C48.1559 23.4387 49.4625 23.828 50.9559 23.828C51.8839 23.828 52.7372 23.684 53.5159 23.396C54.2945 23.0973 54.9185 22.676 55.3879 22.132C55.8679 21.5773 56.1079 20.916 56.1079 20.148C56.1079 19.732 56.0332 19.364 55.8839 19.044C55.7452 18.724 55.5479 18.4467 55.2919 18.212C55.0465 17.9667 54.7425 17.7587 54.3799 17.588C54.0279 17.4067 53.6385 17.252 53.2119 17.124L47.3079 15.38C46.7319 15.2093 46.1452 14.9907 45.5479 14.724C44.9505 14.4467 44.4012 14.0893 43.8999 13.652C43.4092 13.204 43.0092 12.6547 42.6999 12.004C42.3905 11.3427 42.2359 10.5427 42.2359 9.604C42.2359 8.18533 42.5985 6.98533 43.3239 6.004C44.0599 5.012 45.0519 4.26533 46.2999 3.764C47.5479 3.252 48.9452 2.996 50.4919 2.996C52.0492 3.01733 53.4412 3.29467 54.6679 3.828C55.9052 4.36133 56.9292 5.12933 57.7399 6.132C58.5612 7.124 59.1265 8.32933 59.4359 9.748L55.8519 10.356C55.6919 9.492 55.3505 8.75067 54.8279 8.132C54.3052 7.50267 53.6652 7.02267 52.9079 6.692C52.1505 6.35067 51.3292 6.17467 50.4439 6.164C49.5905 6.14267 48.8065 6.27067 48.0919 6.548C47.3879 6.82533 46.8225 7.21467 46.3959 7.716C45.9799 8.21733 45.7719 8.79333 45.7719 9.444C45.7719 10.084 45.9585 10.6013 46.3319 10.996C46.7052 11.3907 47.1639 11.7053 47.7079 11.94C48.2625 12.164 48.8119 12.3507 49.3559 12.5L53.6119 13.7C54.1452 13.8493 54.7479 14.052 55.4199 14.308C56.1025 14.5533 56.7585 14.9 57.3879 15.348C58.0279 15.796 58.5559 16.3933 58.9719 17.14C59.3879 17.876 59.5959 18.804 59.5959 19.924C59.5959 21.0867 59.3612 22.1107 58.8919 22.996C58.4225 23.8707 57.7772 24.6067 56.9559 25.204C56.1452 25.7907 55.2065 26.2333 54.1399 26.532C53.0732 26.8307 51.9479 26.98 50.7639 26.98ZM67.8856 26.98C66.6056 26.98 65.5336 26.7453 64.6696 26.276C63.8056 25.796 63.1496 25.1667 62.7016 24.388C62.2643 23.5987 62.0456 22.7347 62.0456 21.796C62.0456 20.9213 62.2003 20.1533 62.5096 19.492C62.819 18.8307 63.2776 18.2707 63.8856 17.812C64.4936 17.3427 65.2403 16.964 66.1256 16.676C66.8936 16.452 67.763 16.2547 68.7336 16.084C69.7043 15.9133 70.723 15.7533 71.7896 15.604C72.867 15.4547 73.9336 15.3053 74.9896 15.156L73.7736 15.828C73.795 14.4733 73.507 13.4707 72.9096 12.82C72.323 12.1587 71.3096 11.828 69.8696 11.828C68.963 11.828 68.131 12.0413 67.3736 12.468C66.6163 12.884 66.0883 13.5773 65.7896 14.548L62.6696 13.588C63.0963 12.1053 63.907 10.9267 65.1016 10.052C66.307 9.17733 67.907 8.74 69.9016 8.74C71.4483 8.74 72.7923 9.00667 73.9336 9.54C75.0856 10.0627 75.9283 10.8947 76.4616 12.036C76.739 12.6013 76.9096 13.1987 76.9736 13.828C77.0376 14.4573 77.0696 15.1347 77.0696 15.86V26.5H74.1096V22.548L74.6856 23.06C73.971 24.3827 73.059 25.3693 71.9496 26.02C70.851 26.66 69.4963 26.98 67.8856 26.98ZM68.4776 24.244C69.427 24.244 70.243 24.0787 70.9256 23.748C71.6083 23.4067 72.1576 22.9747 72.5736 22.452C72.9896 21.9293 73.2616 21.3853 73.3896 20.82C73.571 20.308 73.6723 19.732 73.6936 19.092C73.7256 18.452 73.7416 17.94 73.7416 17.556L74.8296 17.956C73.7736 18.116 72.8136 18.26 71.9496 18.388C71.0856 18.516 70.3016 18.644 69.5976 18.772C68.9043 18.8893 68.2856 19.0333 67.7416 19.204C67.283 19.364 66.8723 19.556 66.5096 19.78C66.1576 20.004 65.875 20.276 65.6616 20.596C65.459 20.916 65.3576 21.3053 65.3576 21.764C65.3576 22.212 65.4696 22.628 65.6936 23.012C65.9176 23.3853 66.259 23.684 66.7176 23.908C67.1763 24.132 67.763 24.244 68.4776 24.244ZM81.5444 6.388V3.14H84.8884V6.388H81.5444ZM81.5444 26.5V9.22H84.8884V26.5H81.5444ZM89.6931 26.5V9.22H92.6691V13.412L92.2531 12.868C92.4665 12.3133 92.7438 11.8067 93.0851 11.348C93.4265 10.8787 93.8211 10.4947 94.2691 10.196C94.7065 9.876 95.1918 9.63067 95.7251 9.46C96.2691 9.27867 96.8238 9.172 97.3891 9.14C97.9545 9.09733 98.4985 9.124 99.0211 9.22V12.356C98.4558 12.2067 97.8265 12.164 97.1331 12.228C96.4505 12.292 95.8211 12.5107 95.2451 12.884C94.7011 13.236 94.2691 13.6627 93.9491 14.164C93.6398 14.6653 93.4158 15.2253 93.2771 15.844C93.1385 16.452 93.0691 17.0973 93.0691 17.78V26.5H89.6931Z" fill="white"/>
</svg>
