<svg width="68" height="48" viewBox="0 0 68 48" fill="none" xmlns="http://www.w3.org/2000/svg">
<path d="M3.41229 19.0604C3.54416 19.6842 3.60847 20.3205 3.6041 20.9582L3.46193 23.8917L3.66502 32.3246C3.89068 33.2272 4.3939 34.5022 5.56281 35.1927C6.13297 35.5182 6.77493 35.6973 7.43126 35.714C9.48701 35.7974 15.9815 35.7726 24.7709 35.5831C25.2741 35.5447 26.0706 35.398 26.6393 34.8C27.2554 34.1569 27.3163 33.2994 27.3366 32.8887C27.4201 31.3272 27.3366 26.7485 27.2486 21.0823C27.2283 19.6922 28.0858 17.4401 28.088 17.4311C28.9162 15.7973 29.8143 14.0462 29.9723 13.2023C30.5161 10.2913 27.5329 6.54084 25.1635 5.32002C19.3393 2.32554 11.6939 2.35713 7.02508 4.68367C5.68692 5.36064 1 8.20845 1 12.5637C1 15.2016 3.11893 17.2416 3.41229 19.0604Z" stroke="#F2B600" stroke-width="2" stroke-miterlimit="10" stroke-linejoin="round"/>
<path d="M15.2099 3.0025H40.0194C43.2937 3.06343 46.7305 3.79682 49.6889 5.32001C52.0583 6.54083 55.0438 10.2913 54.4999 13.2023C54.3397 14.0462 53.4439 15.7951 52.6157 17.4311C52.2857 18.3147 52.0328 19.2253 51.8597 20.1525L52.9431 26.2398V32.5" stroke="#F2B600" stroke-width="2" stroke-miterlimit="10" stroke-linecap="round" stroke-linejoin="round"/>
<path d="M23.7573 35.6034C24.9059 35.6034 23.8498 35.5853 27 35.6034L23.7573 35.6034Z" fill="#D9D9D9"/>
<path d="M26.9943 36.6033C27.5465 36.6065 27.9968 36.1614 28 35.6091C28.0031 35.0568 27.558 34.6065 27.0057 34.6034L26.9943 36.6033ZM23.7573 36.6034C24.9476 36.6034 23.8321 36.5852 26.9943 36.6033L27.0057 34.6034C23.8676 34.5854 24.8643 34.6034 23.7573 34.6034V36.6034Z" fill="#F2B600"/>
<path d="M45.7177 35.2069C47.7325 32.5287 49.2442 30.1321 49.9248 29.056C50.3462 28.4245 50.5989 27.6978 50.6592 26.9438C50.6852 26.2627 50.5681 25.5836 50.3154 24.9494C50.0626 24.3151 49.6796 23.7394 49.1904 23.2586C46.7076 21.1039 39.372 24.417 34.5784 28.514C28.1467 34.0112 26.6618 40.6057 27.0599 43.369C27.13 44.1329 27.4512 44.8533 27.9745 45.4201C29.1393 46.5812 31.0411 46.4191 31.7755 46.3527C33.8575 46.172 36.0122 45.0242 38.0808 43.4035" stroke="#F2B600" stroke-width="2" stroke-miterlimit="10"/>
<path d="M51.5009 34.5452C44.1303 34.4071 39.3072 37.8026 37.9407 39.8113C37.5368 40.3466 37.3222 40.9982 37.33 41.6658C37.3973 43.0793 38.7181 44.057 39.2292 44.4423C44.5392 48.3878 58.0456 44.5459 61.0692 43.6877C61.7115 43.5157 62.2991 43.1857 62.7773 42.7286C63.1936 42.3046 63.5165 41.8 63.7258 41.2468C63.935 40.6935 64.0261 40.1034 63.9932 39.5137C63.6596 36.7133 56.9912 34.6515 51.5009 34.5452Z" stroke="#F2B600" stroke-width="2" stroke-miterlimit="10"/>
<path d="M28.9 35.5921C31.1039 36.5141 33.16 37.7484 35.0035 39.256C36.3862 40.3613 34.2208 33.8598 29.8468 33.9422" stroke="#F2B600" stroke-width="2" stroke-miterlimit="10"/>
<path d="M31.5684 31.5695C33.9309 32.4928 36.1384 33.7639 38.1158 35.3397C39.4985 36.445 37.3303 29.9434 32.9591 30.0258" stroke="#F2B600" stroke-width="2" stroke-miterlimit="10"/>
<path d="M40.4319 37.9674C42.6103 39.255 44.5791 40.8601 46.2719 42.7287C47.4528 44.0438 46.3849 37.2793 42.0567 36.6496" stroke="#F2B600" stroke-width="2" stroke-miterlimit="10"/>
<path d="M44.9565 35.64C47.0416 37.3224 48.9938 39.1592 50.7964 41.1345C51.98 42.447 51.4555 35.5257 47.1273 34.8934" stroke="#F2B600" stroke-width="2" stroke-miterlimit="10"/>
<path d="M50.6674 34.7313C52.6167 36.4547 54.4676 38.2838 56.2115 40.2099C57.3924 41.5251 57.1664 35.3637 52.8409 34.7313" stroke="#F2B600" stroke-width="2" stroke-miterlimit="10"/>
<path d="M35.2697 28.2935C37.7001 29.1782 39.9707 30.4431 41.9946 32.0397C43.3746 33.145 41.2092 26.6435 36.8352 26.7259" stroke="#F2B600" stroke-width="2" stroke-miterlimit="10"/>
</svg>
