<svg width="432" height="586" viewBox="0 0 432 586" fill="none" xmlns="http://www.w3.org/2000/svg">
<rect x="1" y="1" width="430" height="584" rx="16" fill="white"/>
<rect x="1" y="1" width="430" height="584" rx="16" stroke="#56BA50" stroke-width="2"/>
<path d="M117.643 167.738C117.643 196.28 83.1554 201.037 83.1554 229.579V403.208C83.1554 415.031 92.7394 424.615 104.562 424.615H136.077H168.186C180.009 424.615 189.593 415.031 189.593 403.208V229.579C189.593 201.037 155.105 196.28 155.105 167.738" stroke="#56BA50" stroke-width="12"/>
<mask id="path-3-inside-1_1746_17" fill="white">
<path d="M103.373 140.386C103.373 135.131 107.632 130.872 112.886 130.872H159.267C164.521 130.872 168.781 135.131 168.781 140.386V168.927H103.373V140.386Z"/>
</mask>
<path d="M103.373 140.386C103.373 135.131 107.632 130.872 112.886 130.872H159.267C164.521 130.872 168.781 135.131 168.781 140.386V168.927H103.373V140.386Z" stroke="#56BA50" stroke-width="24" mask="url(#path-3-inside-1_1746_17)"/>
<path d="M210.839 244.909C210.114 242.238 212.442 239.601 215.124 239.941C232.267 242.118 260.991 245.309 282.354 245.309C303.716 245.309 332.441 242.118 349.583 239.941C352.265 239.601 354.593 242.238 353.868 244.909C348.3 265.423 338.872 304.282 338.872 333.043C338.872 361.804 348.3 400.663 353.868 421.176C354.593 423.848 352.265 426.485 349.583 426.145C332.441 423.968 303.716 420.777 282.354 420.777C260.991 420.777 232.267 423.968 215.124 426.145C212.442 426.485 210.114 423.848 210.839 421.176C216.407 400.663 225.835 361.804 225.835 333.043C225.835 304.282 216.407 265.423 210.839 244.909Z" stroke="#56BA50" stroke-width="12"/>
<path d="M111.032 518V483.44H125.624C125.96 483.44 126.408 483.456 126.968 483.488C127.544 483.504 128.056 483.552 128.504 483.632C130.568 483.952 132.256 484.632 133.568 485.672C134.896 486.712 135.872 488.024 136.496 489.608C137.12 491.176 137.432 492.928 137.432 494.864C137.432 496.8 137.112 498.56 136.472 500.144C135.848 501.712 134.872 503.016 133.544 504.056C132.232 505.096 130.552 505.776 128.504 506.096C128.056 506.16 127.544 506.208 126.968 506.24C126.392 506.272 125.944 506.288 125.624 506.288H117.56V518H111.032ZM117.56 500.192H125.336C125.672 500.192 126.04 500.176 126.44 500.144C126.84 500.112 127.208 500.048 127.544 499.952C128.424 499.712 129.104 499.312 129.584 498.752C130.064 498.176 130.392 497.544 130.568 496.856C130.76 496.152 130.856 495.488 130.856 494.864C130.856 494.24 130.76 493.584 130.568 492.896C130.392 492.192 130.064 491.56 129.584 491C129.104 490.424 128.424 490.016 127.544 489.776C127.208 489.68 126.84 489.616 126.44 489.584C126.04 489.552 125.672 489.536 125.336 489.536H117.56V500.192ZM142.251 518V492.08H148.011V498.416L147.387 497.6C147.723 496.704 148.171 495.888 148.731 495.152C149.291 494.416 149.979 493.808 150.795 493.328C151.419 492.944 152.099 492.648 152.835 492.44C153.571 492.216 154.331 492.08 155.115 492.032C155.899 491.968 156.683 491.984 157.467 492.08V498.176C156.747 497.952 155.907 497.88 154.947 497.96C154.003 498.024 153.147 498.24 152.379 498.608C151.611 498.96 150.963 499.432 150.435 500.024C149.907 500.6 149.507 501.288 149.235 502.088C148.963 502.872 148.827 503.76 148.827 504.752V518H142.251ZM173.227 518.72C170.619 518.72 168.331 518.136 166.363 516.968C164.395 515.8 162.859 514.192 161.755 512.144C160.667 510.08 160.123 507.712 160.123 505.04C160.123 502.336 160.683 499.96 161.803 497.912C162.923 495.848 164.467 494.24 166.435 493.088C168.403 491.936 170.667 491.36 173.227 491.36C175.835 491.36 178.123 491.944 180.091 493.112C182.075 494.28 183.619 495.896 184.723 497.96C185.827 500.008 186.379 502.368 186.379 505.04C186.379 507.728 185.819 510.104 184.699 512.168C183.595 514.216 182.051 515.824 180.067 516.992C178.099 518.144 175.819 518.72 173.227 518.72ZM173.227 512.624C175.323 512.624 176.883 511.92 177.907 510.512C178.947 509.088 179.467 507.264 179.467 505.04C179.467 502.736 178.939 500.896 177.883 499.52C176.843 498.144 175.291 497.456 173.227 497.456C171.803 497.456 170.635 497.776 169.723 498.416C168.811 499.056 168.131 499.944 167.683 501.08C167.251 502.216 167.035 503.536 167.035 505.04C167.035 507.36 167.555 509.208 168.595 510.584C169.651 511.944 171.195 512.624 173.227 512.624ZM202.169 518.72C199.785 518.72 197.697 518.12 195.905 516.92C194.113 515.72 192.713 514.088 191.705 512.024C190.713 509.96 190.217 507.632 190.217 505.04C190.217 502.4 190.721 500.056 191.729 498.008C192.753 495.944 194.185 494.32 196.025 493.136C197.865 491.952 200.025 491.36 202.505 491.36C204.969 491.36 207.041 491.96 208.721 493.16C210.401 494.36 211.673 495.992 212.537 498.056C213.401 500.12 213.833 502.448 213.833 505.04C213.833 507.632 213.393 509.96 212.513 512.024C211.649 514.088 210.353 515.72 208.625 516.92C206.897 518.12 204.745 518.72 202.169 518.72ZM203.225 512.912C204.681 512.912 205.841 512.584 206.705 511.928C207.585 511.272 208.217 510.352 208.601 509.168C208.985 507.984 209.177 506.608 209.177 505.04C209.177 503.472 208.985 502.096 208.601 500.912C208.217 499.728 207.601 498.808 206.753 498.152C205.921 497.496 204.825 497.168 203.465 497.168C202.009 497.168 200.809 497.528 199.865 498.248C198.937 498.952 198.249 499.904 197.801 501.104C197.353 502.288 197.129 503.6 197.129 505.04C197.129 506.496 197.345 507.824 197.777 509.024C198.209 510.208 198.873 511.152 199.769 511.856C200.665 512.56 201.817 512.912 203.225 512.912ZM209.177 518V500.24H208.361V483.44H214.937V518H209.177ZM231.305 518.768C229.273 518.768 227.617 518.424 226.337 517.736C225.057 517.048 224.057 516.176 223.337 515.12C222.633 514.064 222.129 512.968 221.825 511.832C221.521 510.68 221.337 509.632 221.273 508.688C221.209 507.744 221.177 507.056 221.177 506.624V492.08H227.801V504.32C227.801 504.912 227.833 505.672 227.897 506.6C227.961 507.512 228.161 508.432 228.497 509.36C228.833 510.288 229.377 511.064 230.129 511.688C230.897 512.312 231.977 512.624 233.369 512.624C233.929 512.624 234.529 512.536 235.169 512.36C235.809 512.184 236.409 511.848 236.969 511.352C237.529 510.84 237.985 510.096 238.337 509.12C238.705 508.128 238.889 506.832 238.889 505.232L242.633 507.008C242.633 509.056 242.217 510.976 241.385 512.768C240.553 514.56 239.297 516.008 237.617 517.112C235.953 518.216 233.849 518.768 231.305 518.768ZM239.705 518V509.408H238.889V492.08H245.465V518H239.705ZM267.725 518C265.933 518.336 264.173 518.48 262.445 518.432C260.733 518.4 259.197 518.104 257.837 517.544C256.493 516.968 255.469 516.048 254.765 514.784C254.125 513.6 253.789 512.4 253.757 511.184C253.725 509.952 253.709 508.56 253.709 507.008V484.88H260.237V506.624C260.237 507.632 260.245 508.544 260.261 509.36C260.293 510.16 260.461 510.8 260.765 511.28C261.341 512.192 262.261 512.688 263.525 512.768C264.789 512.848 266.189 512.784 267.725 512.576V518ZM249.293 497.12V492.08H267.725V497.12H249.293ZM283.712 518.72C281.104 518.72 278.816 518.136 276.848 516.968C274.88 515.8 273.344 514.192 272.24 512.144C271.152 510.08 270.608 507.712 270.608 505.04C270.608 502.336 271.168 499.96 272.288 497.912C273.408 495.848 274.952 494.24 276.92 493.088C278.888 491.936 281.152 491.36 283.712 491.36C286.32 491.36 288.608 491.944 290.576 493.112C292.56 494.28 294.104 495.896 295.208 497.96C296.312 500.008 296.864 502.368 296.864 505.04C296.864 507.728 296.304 510.104 295.184 512.168C294.08 514.216 292.536 515.824 290.552 516.992C288.584 518.144 286.304 518.72 283.712 518.72ZM283.712 512.624C285.808 512.624 287.368 511.92 288.392 510.512C289.432 509.088 289.952 507.264 289.952 505.04C289.952 502.736 289.424 500.896 288.368 499.52C287.328 498.144 285.776 497.456 283.712 497.456C282.288 497.456 281.12 497.776 280.208 498.416C279.296 499.056 278.616 499.944 278.168 501.08C277.736 502.216 277.52 503.536 277.52 505.04C277.52 507.36 278.04 509.208 279.08 510.584C280.136 511.944 281.68 512.624 283.712 512.624ZM311.566 518.72C308.302 518.72 305.662 517.984 303.646 516.512C301.646 515.024 300.43 512.928 299.998 510.224L306.67 509.216C306.942 510.432 307.542 511.384 308.47 512.072C309.414 512.76 310.606 513.104 312.046 513.104C313.23 513.104 314.142 512.88 314.782 512.432C315.422 511.968 315.742 511.328 315.742 510.512C315.742 510 315.614 509.592 315.358 509.288C315.102 508.968 314.526 508.656 313.63 508.352C312.75 508.048 311.374 507.648 309.502 507.152C307.39 506.608 305.702 506 304.438 505.328C303.174 504.656 302.262 503.856 301.702 502.928C301.142 501.984 300.862 500.848 300.862 499.52C300.862 497.856 301.286 496.416 302.134 495.2C302.982 493.968 304.174 493.024 305.71 492.368C307.262 491.696 309.086 491.36 311.182 491.36C313.214 491.36 315.014 491.672 316.582 492.296C318.15 492.92 319.414 493.808 320.374 494.96C321.35 496.112 321.95 497.472 322.174 499.04L315.502 500.24C315.39 499.28 314.974 498.52 314.254 497.96C313.534 497.4 312.558 497.072 311.326 496.976C310.126 496.896 309.158 497.056 308.422 497.456C307.702 497.856 307.342 498.432 307.342 499.184C307.342 499.632 307.494 500.008 307.798 500.312C308.118 500.616 308.766 500.928 309.742 501.248C310.734 501.568 312.238 501.984 314.254 502.496C316.222 503.008 317.798 503.608 318.982 504.296C320.182 504.968 321.054 505.784 321.598 506.744C322.142 507.688 322.414 508.832 322.414 510.176C322.414 512.832 321.454 514.92 319.534 516.44C317.614 517.96 314.958 518.72 311.566 518.72Z" fill="#56BA50"/>
</svg>
