<svg width="360" height="152" viewBox="0 0 360 152" fill="none" xmlns="http://www.w3.org/2000/svg">
<g filter="url(#filter0_d_304_16125)">
<rect y="16" width="360" height="104" fill="#FFFBD3"/>
</g>
<path d="M308 56.5H52" stroke="#CBCBCB" stroke-width="2"/>
<circle cx="53" cy="57" r="16" fill="#FFFBD3" stroke="#56BA50" stroke-width="2"/>
<circle cx="138" cy="57" r="15" fill="#FFFBD3" stroke="#CBCBCB" stroke-width="2"/>
<circle cx="223" cy="57" r="15" fill="#FFFBD3" stroke="#CBCBCB" stroke-width="2"/>
<circle cx="308" cy="57" r="15" fill="#FFFBD3" stroke="#CBCBCB" stroke-width="2"/>
<path d="M52.6607 61V52.761L50.7707 53.916V52.054L52.6607 50.92H54.3827V61H52.6607Z" fill="#56BA50"/>
<path d="M134.53 60.986V59.516L138.842 55.673C139.178 55.3743 139.411 55.092 139.542 54.826C139.673 54.56 139.738 54.3033 139.738 54.056C139.738 53.72 139.666 53.4213 139.521 53.16C139.376 52.894 139.176 52.684 138.919 52.53C138.667 52.376 138.375 52.299 138.044 52.299C137.694 52.299 137.384 52.3807 137.113 52.544C136.847 52.7027 136.639 52.915 136.49 53.181C136.341 53.447 136.271 53.734 136.28 54.042H134.544C134.544 53.37 134.693 52.7843 134.992 52.285C135.295 51.7857 135.711 51.3983 136.238 51.123C136.77 50.8477 137.384 50.71 138.079 50.71C138.723 50.71 139.302 50.8547 139.815 51.144C140.328 51.4287 140.732 51.8253 141.026 52.334C141.32 52.838 141.467 53.419 141.467 54.077C141.467 54.5577 141.402 54.9613 141.271 55.288C141.14 55.6147 140.944 55.9157 140.683 56.191C140.426 56.4663 140.107 56.772 139.724 57.108L136.665 59.817L136.511 59.397H141.467V60.986H134.53Z" fill="#ABABAB"/>
<path d="M222.797 61.189C222.293 61.189 221.817 61.091 221.369 60.895C220.921 60.699 220.531 60.4213 220.2 60.062C219.873 59.7027 219.637 59.278 219.493 58.788L221.124 58.347C221.24 58.7483 221.453 59.0587 221.761 59.278C222.073 59.4927 222.416 59.5977 222.79 59.593C223.121 59.593 223.417 59.516 223.679 59.362C223.94 59.208 224.145 59.0003 224.295 58.739C224.444 58.473 224.519 58.1767 224.519 57.85C224.519 57.3507 224.358 56.933 224.036 56.597C223.714 56.261 223.298 56.093 222.79 56.093C222.636 56.093 222.484 56.114 222.335 56.156C222.19 56.198 222.05 56.2563 221.915 56.331L221.145 55.001L224.533 52.103L224.68 52.509H219.885V50.92H226.066V52.516L223.343 55.134L223.329 54.637C223.94 54.679 224.46 54.8493 224.89 55.148C225.324 55.4467 225.655 55.8317 225.884 56.303C226.117 56.7743 226.234 57.29 226.234 57.85C226.234 58.4847 226.077 59.054 225.765 59.558C225.457 60.062 225.041 60.461 224.519 60.755C224.001 61.0443 223.427 61.189 222.797 61.189Z" fill="#ABABAB"/>
<path d="M308.907 61V59.334H304.441V57.759L307.668 50.92H309.593L306.366 57.759H308.907V55.134H310.615V57.759H311.56V59.334H310.615V61H308.907Z" fill="#ABABAB"/>
<path d="M34.1545 94V85.36H37.7245C37.8085 85.36 37.9165 85.364 38.0485 85.372C38.1805 85.376 38.3025 85.388 38.4145 85.408C38.9145 85.484 39.3265 85.65 39.6505 85.906C39.9785 86.162 40.2205 86.486 40.3765 86.878C40.5365 87.266 40.6165 87.698 40.6165 88.174C40.6165 88.646 40.5365 89.078 40.3765 89.47C40.2165 89.858 39.9725 90.18 39.6445 90.436C39.3205 90.692 38.9105 90.858 38.4145 90.934C38.3025 90.95 38.1785 90.962 38.0425 90.97C37.9105 90.978 37.8045 90.982 37.7245 90.982H35.6005V94H34.1545ZM35.6005 89.632H37.6645C37.7445 89.632 37.8345 89.628 37.9345 89.62C38.0345 89.612 38.1265 89.596 38.2105 89.572C38.4505 89.512 38.6385 89.406 38.7745 89.254C38.9145 89.102 39.0125 88.93 39.0685 88.738C39.1285 88.546 39.1585 88.358 39.1585 88.174C39.1585 87.99 39.1285 87.802 39.0685 87.61C39.0125 87.414 38.9145 87.24 38.7745 87.088C38.6385 86.936 38.4505 86.83 38.2105 86.77C38.1265 86.746 38.0345 86.732 37.9345 86.728C37.8345 86.72 37.7445 86.716 37.6645 86.716H35.6005V89.632ZM44.659 94.18C44.003 94.18 43.427 94.038 42.931 93.754C42.435 93.47 42.047 93.076 41.767 92.572C41.491 92.068 41.353 91.488 41.353 90.832C41.353 90.124 41.489 89.51 41.761 88.99C42.033 88.466 42.411 88.06 42.895 87.772C43.379 87.484 43.939 87.34 44.575 87.34C45.247 87.34 45.817 87.498 46.285 87.814C46.757 88.126 47.107 88.568 47.335 89.14C47.563 89.712 47.649 90.386 47.593 91.162H46.159V90.634C46.155 89.93 46.031 89.416 45.787 89.092C45.543 88.768 45.159 88.606 44.635 88.606C44.043 88.606 43.603 88.79 43.315 89.158C43.027 89.522 42.883 90.056 42.883 90.76C42.883 91.416 43.027 91.924 43.315 92.284C43.603 92.644 44.023 92.824 44.575 92.824C44.931 92.824 45.237 92.746 45.493 92.59C45.753 92.43 45.953 92.2 46.093 91.9L47.521 92.332C47.273 92.916 46.889 93.37 46.369 93.694C45.853 94.018 45.283 94.18 44.659 94.18ZM42.427 91.162V90.07H46.885V91.162H42.427ZM51.5298 94.18C50.9338 94.18 50.4138 94.03 49.9698 93.73C49.5258 93.43 49.1818 93.022 48.9378 92.506C48.6938 91.99 48.5718 91.408 48.5718 90.76C48.5718 90.104 48.6938 89.52 48.9378 89.008C49.1858 88.492 49.5358 88.086 49.9878 87.79C50.4398 87.49 50.9718 87.34 51.5838 87.34C52.1998 87.34 52.7158 87.49 53.1318 87.79C53.5518 88.086 53.8698 88.492 54.0858 89.008C54.3018 89.524 54.4098 90.108 54.4098 90.76C54.4098 91.404 54.3018 91.986 54.0858 92.506C53.8698 93.022 53.5478 93.43 53.1198 93.73C52.6918 94.03 52.1618 94.18 51.5298 94.18ZM51.7518 92.884C52.1398 92.884 52.4518 92.796 52.6878 92.62C52.9278 92.44 53.1018 92.19 53.2098 91.87C53.3218 91.55 53.3778 91.18 53.3778 90.76C53.3778 90.336 53.3218 89.966 53.2098 89.65C53.1018 89.33 52.9318 89.082 52.6998 88.906C52.4678 88.726 52.1678 88.636 51.7998 88.636C51.4118 88.636 51.0918 88.732 50.8398 88.924C50.5878 89.112 50.4018 89.368 50.2818 89.692C50.1618 90.012 50.1018 90.368 50.1018 90.76C50.1018 91.156 50.1598 91.516 50.2758 91.84C50.3958 92.16 50.5778 92.414 50.8218 92.602C51.0658 92.79 51.3758 92.884 51.7518 92.884ZM53.3778 94V89.452H53.1978V85.36H54.6558V94H53.3778ZM56.458 86.536V85.21H57.904V86.536H56.458ZM56.458 94V87.52H57.904V94H56.458ZM62.2993 94.18C61.7033 94.18 61.1833 94.03 60.7393 93.73C60.2953 93.43 59.9513 93.022 59.7073 92.506C59.4633 91.99 59.3413 91.408 59.3413 90.76C59.3413 90.104 59.4633 89.52 59.7073 89.008C59.9553 88.492 60.3053 88.086 60.7573 87.79C61.2093 87.49 61.7413 87.34 62.3533 87.34C62.9693 87.34 63.4853 87.49 63.9013 87.79C64.3213 88.086 64.6393 88.492 64.8553 89.008C65.0713 89.524 65.1793 90.108 65.1793 90.76C65.1793 91.404 65.0713 91.986 64.8553 92.506C64.6393 93.022 64.3173 93.43 63.8893 93.73C63.4613 94.03 62.9313 94.18 62.2993 94.18ZM62.5213 92.884C62.9093 92.884 63.2213 92.796 63.4573 92.62C63.6973 92.44 63.8713 92.19 63.9793 91.87C64.0913 91.55 64.1473 91.18 64.1473 90.76C64.1473 90.336 64.0913 89.966 63.9793 89.65C63.8713 89.33 63.7013 89.082 63.4693 88.906C63.2373 88.726 62.9373 88.636 62.5693 88.636C62.1813 88.636 61.8613 88.732 61.6093 88.924C61.3573 89.112 61.1713 89.368 61.0513 89.692C60.9313 90.012 60.8713 90.368 60.8713 90.76C60.8713 91.156 60.9293 91.516 61.0453 91.84C61.1653 92.16 61.3473 92.414 61.5913 92.602C61.8353 92.79 62.1453 92.884 62.5213 92.884ZM64.1473 94V89.452H63.9673V85.36H65.4253V94H64.1473ZM69.9696 94.18C69.3216 94.18 68.7556 94.034 68.2716 93.742C67.7876 93.45 67.4116 93.048 67.1436 92.536C66.8796 92.02 66.7476 91.428 66.7476 90.76C66.7476 90.08 66.8836 89.484 67.1556 88.972C67.4276 88.46 67.8056 88.06 68.2896 87.772C68.7736 87.484 69.3336 87.34 69.9696 87.34C70.6216 87.34 71.1896 87.486 71.6736 87.778C72.1576 88.07 72.5336 88.474 72.8016 88.99C73.0696 89.502 73.2036 90.092 73.2036 90.76C73.2036 91.432 73.0676 92.026 72.7956 92.542C72.5276 93.054 72.1516 93.456 71.6676 93.748C71.1836 94.036 70.6176 94.18 69.9696 94.18ZM69.9696 92.824C70.5456 92.824 70.9736 92.632 71.2536 92.248C71.5336 91.864 71.6736 91.368 71.6736 90.76C71.6736 90.132 71.5316 89.632 71.2476 89.26C70.9636 88.884 70.5376 88.696 69.9696 88.696C69.5816 88.696 69.2616 88.784 69.0096 88.96C68.7616 89.132 68.5776 89.374 68.4576 89.686C68.3376 89.994 68.2776 90.352 68.2776 90.76C68.2776 91.388 68.4196 91.89 68.7036 92.266C68.9916 92.638 69.4136 92.824 69.9696 92.824Z" fill="#56BA50"/>
<path d="M124.015 94V85.36H125.461V92.644H129.277V94H124.015ZM133.155 94.18C132.507 94.18 131.941 94.034 131.457 93.742C130.973 93.45 130.597 93.048 130.329 92.536C130.065 92.02 129.933 91.428 129.933 90.76C129.933 90.08 130.069 89.484 130.341 88.972C130.613 88.46 130.991 88.06 131.475 87.772C131.959 87.484 132.519 87.34 133.155 87.34C133.807 87.34 134.375 87.486 134.859 87.778C135.343 88.07 135.719 88.474 135.987 88.99C136.255 89.502 136.389 90.092 136.389 90.76C136.389 91.432 136.253 92.026 135.981 92.542C135.713 93.054 135.337 93.456 134.853 93.748C134.369 94.036 133.803 94.18 133.155 94.18ZM133.155 92.824C133.731 92.824 134.159 92.632 134.439 92.248C134.719 91.864 134.859 91.368 134.859 90.76C134.859 90.132 134.717 89.632 134.433 89.26C134.149 88.884 133.723 88.696 133.155 88.696C132.767 88.696 132.447 88.784 132.195 88.96C131.947 89.132 131.763 89.374 131.643 89.686C131.523 89.994 131.463 90.352 131.463 90.76C131.463 91.388 131.605 91.89 131.889 92.266C132.177 92.638 132.599 92.824 133.155 92.824ZM140.525 94.18C139.857 94.18 139.287 94.032 138.815 93.736C138.343 93.436 137.981 93.028 137.729 92.512C137.481 91.996 137.355 91.412 137.351 90.76C137.355 90.096 137.485 89.508 137.741 88.996C138.001 88.48 138.369 88.076 138.845 87.784C139.321 87.488 139.887 87.34 140.543 87.34C141.279 87.34 141.901 87.526 142.409 87.898C142.921 88.266 143.255 88.77 143.411 89.41L141.971 89.8C141.859 89.452 141.673 89.182 141.413 88.99C141.153 88.794 140.857 88.696 140.525 88.696C140.149 88.696 139.839 88.786 139.595 88.966C139.351 89.142 139.171 89.386 139.055 89.698C138.939 90.01 138.881 90.364 138.881 90.76C138.881 91.376 139.019 91.874 139.295 92.254C139.571 92.634 139.981 92.824 140.525 92.824C140.909 92.824 141.211 92.736 141.431 92.56C141.655 92.384 141.823 92.13 141.935 91.798L143.411 92.128C143.211 92.788 142.861 93.296 142.361 93.652C141.861 94.004 141.249 94.18 140.525 94.18ZM146.32 94.18C145.852 94.18 145.456 94.092 145.132 93.916C144.808 93.736 144.562 93.498 144.394 93.202C144.23 92.906 144.148 92.58 144.148 92.224C144.148 91.912 144.2 91.632 144.304 91.384C144.408 91.132 144.568 90.916 144.784 90.736C145 90.552 145.28 90.402 145.624 90.286C145.884 90.202 146.188 90.126 146.536 90.058C146.888 89.99 147.268 89.928 147.676 89.872C148.088 89.812 148.518 89.748 148.966 89.68L148.45 89.974C148.454 89.526 148.354 89.196 148.15 88.984C147.946 88.772 147.602 88.666 147.118 88.666C146.826 88.666 146.544 88.734 146.272 88.87C146 89.006 145.81 89.24 145.702 89.572L144.382 89.158C144.542 88.61 144.846 88.17 145.294 87.838C145.746 87.506 146.354 87.34 147.118 87.34C147.694 87.34 148.2 87.434 148.636 87.622C149.076 87.81 149.402 88.118 149.614 88.546C149.73 88.774 149.8 89.008 149.824 89.248C149.848 89.484 149.86 89.742 149.86 90.022V94H148.594V92.596L148.804 92.824C148.512 93.292 148.17 93.636 147.778 93.856C147.39 94.072 146.904 94.18 146.32 94.18ZM146.608 93.028C146.936 93.028 147.216 92.97 147.448 92.854C147.68 92.738 147.864 92.596 148 92.428C148.14 92.26 148.234 92.102 148.282 91.954C148.358 91.77 148.4 91.56 148.408 91.324C148.42 91.084 148.426 90.89 148.426 90.742L148.87 90.874C148.434 90.942 148.06 91.002 147.748 91.054C147.436 91.106 147.168 91.156 146.944 91.204C146.72 91.248 146.522 91.298 146.35 91.354C146.182 91.414 146.04 91.484 145.924 91.564C145.808 91.644 145.718 91.736 145.654 91.84C145.594 91.944 145.564 92.066 145.564 92.206C145.564 92.366 145.604 92.508 145.684 92.632C145.764 92.752 145.88 92.848 146.032 92.92C146.188 92.992 146.38 93.028 146.608 93.028ZM151.542 94V85.18H152.988V94H151.542Z" fill="#606060"/>
<path d="M206.1 94V85.36H208.854C208.926 85.36 209.068 85.362 209.28 85.366C209.496 85.37 209.704 85.384 209.904 85.408C210.588 85.496 211.166 85.74 211.638 86.14C212.114 86.536 212.474 87.042 212.718 87.658C212.962 88.274 213.084 88.948 213.084 89.68C213.084 90.412 212.962 91.086 212.718 91.702C212.474 92.318 212.114 92.826 211.638 93.226C211.166 93.622 210.588 93.864 209.904 93.952C209.708 93.976 209.502 93.99 209.286 93.994C209.07 93.998 208.926 94 208.854 94H206.1ZM207.57 92.638H208.854C208.974 92.638 209.126 92.634 209.31 92.626C209.498 92.618 209.664 92.6 209.808 92.572C210.216 92.496 210.548 92.314 210.804 92.026C211.06 91.738 211.248 91.388 211.368 90.976C211.492 90.564 211.554 90.132 211.554 89.68C211.554 89.212 211.492 88.772 211.368 88.36C211.244 87.948 211.052 87.602 210.792 87.322C210.536 87.042 210.208 86.864 209.808 86.788C209.664 86.756 209.498 86.738 209.31 86.734C209.126 86.726 208.974 86.722 208.854 86.722H207.57V92.638ZM216.314 94.18C215.846 94.18 215.45 94.092 215.126 93.916C214.802 93.736 214.556 93.498 214.388 93.202C214.224 92.906 214.142 92.58 214.142 92.224C214.142 91.912 214.194 91.632 214.298 91.384C214.402 91.132 214.562 90.916 214.778 90.736C214.994 90.552 215.274 90.402 215.618 90.286C215.878 90.202 216.182 90.126 216.53 90.058C216.882 89.99 217.262 89.928 217.67 89.872C218.082 89.812 218.512 89.748 218.96 89.68L218.444 89.974C218.448 89.526 218.348 89.196 218.144 88.984C217.94 88.772 217.596 88.666 217.112 88.666C216.82 88.666 216.538 88.734 216.266 88.87C215.994 89.006 215.804 89.24 215.696 89.572L214.376 89.158C214.536 88.61 214.84 88.17 215.288 87.838C215.74 87.506 216.348 87.34 217.112 87.34C217.688 87.34 218.194 87.434 218.63 87.622C219.07 87.81 219.396 88.118 219.608 88.546C219.724 88.774 219.794 89.008 219.818 89.248C219.842 89.484 219.854 89.742 219.854 90.022V94H218.588V92.596L218.798 92.824C218.506 93.292 218.164 93.636 217.772 93.856C217.384 94.072 216.898 94.18 216.314 94.18ZM216.602 93.028C216.93 93.028 217.21 92.97 217.442 92.854C217.674 92.738 217.858 92.596 217.994 92.428C218.134 92.26 218.228 92.102 218.276 91.954C218.352 91.77 218.394 91.56 218.402 91.324C218.414 91.084 218.42 90.89 218.42 90.742L218.864 90.874C218.428 90.942 218.054 91.002 217.742 91.054C217.43 91.106 217.162 91.156 216.938 91.204C216.714 91.248 216.516 91.298 216.344 91.354C216.176 91.414 216.034 91.484 215.918 91.564C215.802 91.644 215.712 91.736 215.648 91.84C215.588 91.944 215.558 92.066 215.558 92.206C215.558 92.366 215.598 92.508 215.678 92.632C215.758 92.752 215.874 92.848 216.026 92.92C216.182 92.992 216.374 93.028 216.602 93.028ZM224.014 94.18C223.418 94.18 222.898 94.03 222.454 93.73C222.01 93.43 221.666 93.022 221.422 92.506C221.178 91.99 221.056 91.408 221.056 90.76C221.056 90.104 221.178 89.52 221.422 89.008C221.67 88.492 222.02 88.086 222.472 87.79C222.924 87.49 223.456 87.34 224.068 87.34C224.684 87.34 225.2 87.49 225.616 87.79C226.036 88.086 226.354 88.492 226.57 89.008C226.786 89.524 226.894 90.108 226.894 90.76C226.894 91.404 226.786 91.986 226.57 92.506C226.354 93.022 226.032 93.43 225.604 93.73C225.176 94.03 224.646 94.18 224.014 94.18ZM224.236 92.884C224.624 92.884 224.936 92.796 225.172 92.62C225.412 92.44 225.586 92.19 225.694 91.87C225.806 91.55 225.862 91.18 225.862 90.76C225.862 90.336 225.806 89.966 225.694 89.65C225.586 89.33 225.416 89.082 225.184 88.906C224.952 88.726 224.652 88.636 224.284 88.636C223.896 88.636 223.576 88.732 223.324 88.924C223.072 89.112 222.886 89.368 222.766 89.692C222.646 90.012 222.586 90.368 222.586 90.76C222.586 91.156 222.644 91.516 222.76 91.84C222.88 92.16 223.062 92.414 223.306 92.602C223.55 92.79 223.86 92.884 224.236 92.884ZM225.862 94V89.452H225.682V85.36H227.14V94H225.862ZM231.684 94.18C231.036 94.18 230.47 94.034 229.986 93.742C229.502 93.45 229.126 93.048 228.858 92.536C228.594 92.02 228.462 91.428 228.462 90.76C228.462 90.08 228.598 89.484 228.87 88.972C229.142 88.46 229.52 88.06 230.004 87.772C230.488 87.484 231.048 87.34 231.684 87.34C232.336 87.34 232.904 87.486 233.388 87.778C233.872 88.07 234.248 88.474 234.516 88.99C234.784 89.502 234.918 90.092 234.918 90.76C234.918 91.432 234.782 92.026 234.51 92.542C234.242 93.054 233.866 93.456 233.382 93.748C232.898 94.036 232.332 94.18 231.684 94.18ZM231.684 92.824C232.26 92.824 232.688 92.632 232.968 92.248C233.248 91.864 233.388 91.368 233.388 90.76C233.388 90.132 233.246 89.632 232.962 89.26C232.678 88.884 232.252 88.696 231.684 88.696C231.296 88.696 230.976 88.784 230.724 88.96C230.476 89.132 230.292 89.374 230.172 89.686C230.052 89.994 229.992 90.352 229.992 90.76C229.992 91.388 230.134 91.89 230.418 92.266C230.706 92.638 231.128 92.824 231.684 92.824ZM238.59 94.18C237.79 94.18 237.14 94 236.64 93.64C236.14 93.28 235.836 92.774 235.728 92.122L237.204 91.894C237.28 92.214 237.448 92.466 237.708 92.65C237.968 92.834 238.296 92.926 238.692 92.926C239.04 92.926 239.308 92.858 239.496 92.722C239.688 92.582 239.784 92.392 239.784 92.152C239.784 92.004 239.748 91.886 239.676 91.798C239.608 91.706 239.456 91.618 239.22 91.534C238.984 91.45 238.622 91.344 238.134 91.216C237.59 91.072 237.158 90.918 236.838 90.754C236.518 90.586 236.288 90.388 236.148 90.16C236.008 89.932 235.938 89.656 235.938 89.332C235.938 88.928 236.044 88.576 236.256 88.276C236.468 87.976 236.764 87.746 237.144 87.586C237.524 87.422 237.972 87.34 238.488 87.34C238.992 87.34 239.438 87.418 239.826 87.574C240.218 87.73 240.534 87.952 240.774 88.24C241.014 88.528 241.162 88.866 241.218 89.254L239.742 89.518C239.706 89.242 239.58 89.024 239.364 88.864C239.152 88.704 238.868 88.614 238.512 88.594C238.172 88.574 237.898 88.626 237.69 88.75C237.482 88.87 237.378 89.04 237.378 89.26C237.378 89.384 237.42 89.49 237.504 89.578C237.588 89.666 237.756 89.754 238.008 89.842C238.264 89.93 238.644 90.038 239.148 90.166C239.664 90.298 240.076 90.45 240.384 90.622C240.696 90.79 240.92 90.992 241.056 91.228C241.196 91.464 241.266 91.75 241.266 92.086C241.266 92.738 241.028 93.25 240.552 93.622C240.08 93.994 239.426 94.18 238.59 94.18Z" fill="#606060"/>
<path d="M276.217 94V85.36H279.787C279.871 85.36 279.979 85.364 280.111 85.372C280.243 85.376 280.365 85.388 280.477 85.408C280.977 85.484 281.389 85.65 281.713 85.906C282.041 86.162 282.283 86.486 282.439 86.878C282.599 87.266 282.679 87.698 282.679 88.174C282.679 88.646 282.599 89.078 282.439 89.47C282.279 89.858 282.035 90.18 281.707 90.436C281.383 90.692 280.973 90.858 280.477 90.934C280.365 90.95 280.241 90.962 280.105 90.97C279.973 90.978 279.867 90.982 279.787 90.982H277.663V94H276.217ZM277.663 89.632H279.727C279.807 89.632 279.897 89.628 279.997 89.62C280.097 89.612 280.189 89.596 280.273 89.572C280.513 89.512 280.701 89.406 280.837 89.254C280.977 89.102 281.075 88.93 281.131 88.738C281.191 88.546 281.221 88.358 281.221 88.174C281.221 87.99 281.191 87.802 281.131 87.61C281.075 87.414 280.977 87.24 280.837 87.088C280.701 86.936 280.513 86.83 280.273 86.77C280.189 86.746 280.097 86.732 279.997 86.728C279.897 86.72 279.807 86.716 279.727 86.716H277.663V89.632ZM285.529 94.18C285.061 94.18 284.665 94.092 284.341 93.916C284.017 93.736 283.771 93.498 283.603 93.202C283.439 92.906 283.357 92.58 283.357 92.224C283.357 91.912 283.409 91.632 283.513 91.384C283.617 91.132 283.777 90.916 283.993 90.736C284.209 90.552 284.489 90.402 284.833 90.286C285.093 90.202 285.397 90.126 285.745 90.058C286.097 89.99 286.477 89.928 286.885 89.872C287.297 89.812 287.727 89.748 288.175 89.68L287.659 89.974C287.663 89.526 287.563 89.196 287.359 88.984C287.155 88.772 286.811 88.666 286.327 88.666C286.035 88.666 285.753 88.734 285.481 88.87C285.209 89.006 285.019 89.24 284.911 89.572L283.591 89.158C283.751 88.61 284.055 88.17 284.503 87.838C284.955 87.506 285.563 87.34 286.327 87.34C286.903 87.34 287.409 87.434 287.845 87.622C288.285 87.81 288.611 88.118 288.823 88.546C288.939 88.774 289.009 89.008 289.033 89.248C289.057 89.484 289.069 89.742 289.069 90.022V94H287.803V92.596L288.013 92.824C287.721 93.292 287.379 93.636 286.987 93.856C286.599 94.072 286.113 94.18 285.529 94.18ZM285.817 93.028C286.145 93.028 286.425 92.97 286.657 92.854C286.889 92.738 287.073 92.596 287.209 92.428C287.349 92.26 287.443 92.102 287.491 91.954C287.567 91.77 287.609 91.56 287.617 91.324C287.629 91.084 287.635 90.89 287.635 90.742L288.079 90.874C287.643 90.942 287.269 91.002 286.957 91.054C286.645 91.106 286.377 91.156 286.153 91.204C285.929 91.248 285.731 91.298 285.559 91.354C285.391 91.414 285.249 91.484 285.133 91.564C285.017 91.644 284.927 91.736 284.863 91.84C284.803 91.944 284.773 92.066 284.773 92.206C284.773 92.366 284.813 92.508 284.893 92.632C284.973 92.752 285.089 92.848 285.241 92.92C285.397 92.992 285.589 93.028 285.817 93.028ZM293.355 97.06C292.995 97.06 292.649 97.004 292.317 96.892C291.989 96.78 291.693 96.618 291.429 96.406C291.165 96.198 290.949 95.946 290.781 95.65L292.113 94.99C292.237 95.226 292.411 95.4 292.635 95.512C292.863 95.628 293.105 95.686 293.361 95.686C293.661 95.686 293.929 95.632 294.165 95.524C294.401 95.42 294.583 95.264 294.711 95.056C294.843 94.852 294.905 94.596 294.897 94.288V92.446H295.077V87.52H296.343V94.312C296.343 94.476 296.335 94.632 296.319 94.78C296.307 94.932 296.285 95.08 296.253 95.224C296.157 95.644 295.973 95.988 295.701 96.256C295.429 96.528 295.091 96.73 294.687 96.862C294.287 96.994 293.843 97.06 293.355 97.06ZM293.229 94.18C292.633 94.18 292.113 94.03 291.669 93.73C291.225 93.43 290.881 93.022 290.637 92.506C290.393 91.99 290.271 91.408 290.271 90.76C290.271 90.104 290.393 89.52 290.637 89.008C290.885 88.492 291.235 88.086 291.687 87.79C292.139 87.49 292.671 87.34 293.283 87.34C293.899 87.34 294.415 87.49 294.831 87.79C295.251 88.086 295.569 88.492 295.785 89.008C296.001 89.524 296.109 90.108 296.109 90.76C296.109 91.404 296.001 91.986 295.785 92.506C295.569 93.022 295.247 93.43 294.819 93.73C294.391 94.03 293.861 94.18 293.229 94.18ZM293.451 92.884C293.839 92.884 294.151 92.796 294.387 92.62C294.627 92.44 294.801 92.19 294.909 91.87C295.021 91.55 295.077 91.18 295.077 90.76C295.077 90.336 295.021 89.966 294.909 89.65C294.801 89.33 294.631 89.082 294.399 88.906C294.167 88.726 293.867 88.636 293.499 88.636C293.111 88.636 292.791 88.732 292.539 88.924C292.287 89.112 292.101 89.368 291.981 89.692C291.861 90.012 291.801 90.368 291.801 90.76C291.801 91.156 291.859 91.516 291.975 91.84C292.095 92.16 292.277 92.414 292.521 92.602C292.765 92.79 293.075 92.884 293.451 92.884ZM299.838 94.18C299.37 94.18 298.974 94.092 298.65 93.916C298.326 93.736 298.08 93.498 297.912 93.202C297.748 92.906 297.666 92.58 297.666 92.224C297.666 91.912 297.718 91.632 297.822 91.384C297.926 91.132 298.086 90.916 298.302 90.736C298.518 90.552 298.798 90.402 299.142 90.286C299.402 90.202 299.706 90.126 300.054 90.058C300.406 89.99 300.786 89.928 301.194 89.872C301.606 89.812 302.036 89.748 302.484 89.68L301.968 89.974C301.972 89.526 301.872 89.196 301.668 88.984C301.464 88.772 301.12 88.666 300.636 88.666C300.344 88.666 300.062 88.734 299.79 88.87C299.518 89.006 299.328 89.24 299.22 89.572L297.9 89.158C298.06 88.61 298.364 88.17 298.812 87.838C299.264 87.506 299.872 87.34 300.636 87.34C301.212 87.34 301.718 87.434 302.154 87.622C302.594 87.81 302.92 88.118 303.132 88.546C303.248 88.774 303.318 89.008 303.342 89.248C303.366 89.484 303.378 89.742 303.378 90.022V94H302.112V92.596L302.322 92.824C302.03 93.292 301.688 93.636 301.296 93.856C300.908 94.072 300.422 94.18 299.838 94.18ZM300.126 93.028C300.454 93.028 300.734 92.97 300.966 92.854C301.198 92.738 301.382 92.596 301.518 92.428C301.658 92.26 301.752 92.102 301.8 91.954C301.876 91.77 301.918 91.56 301.926 91.324C301.938 91.084 301.944 90.89 301.944 90.742L302.388 90.874C301.952 90.942 301.578 91.002 301.266 91.054C300.954 91.106 300.686 91.156 300.462 91.204C300.238 91.248 300.04 91.298 299.868 91.354C299.7 91.414 299.558 91.484 299.442 91.564C299.326 91.644 299.236 91.736 299.172 91.84C299.112 91.944 299.082 92.066 299.082 92.206C299.082 92.366 299.122 92.508 299.202 92.632C299.282 92.752 299.398 92.848 299.55 92.92C299.706 92.992 299.898 93.028 300.126 93.028ZM312.722 94V90.064C312.722 89.62 312.612 89.274 312.392 89.026C312.172 88.774 311.874 88.648 311.498 88.648C311.266 88.648 311.058 88.702 310.874 88.81C310.69 88.914 310.544 89.07 310.436 89.278C310.328 89.482 310.274 89.726 310.274 90.01L309.632 89.632C309.628 89.184 309.728 88.79 309.932 88.45C310.14 88.106 310.42 87.838 310.772 87.646C311.124 87.454 311.516 87.358 311.948 87.358C312.664 87.358 313.212 87.574 313.592 88.006C313.976 88.434 314.168 88.998 314.168 89.698V94H312.722ZM304.928 94V87.52H306.206V89.53H306.386V94H304.928ZM308.834 94V90.082C308.834 89.63 308.724 89.278 308.504 89.026C308.284 88.774 307.984 88.648 307.604 88.648C307.236 88.648 306.94 88.774 306.716 89.026C306.496 89.278 306.386 89.606 306.386 90.01L305.738 89.578C305.738 89.158 305.842 88.78 306.05 88.444C306.258 88.108 306.538 87.844 306.89 87.652C307.246 87.456 307.644 87.358 308.084 87.358C308.568 87.358 308.972 87.462 309.296 87.67C309.624 87.874 309.868 88.154 310.028 88.51C310.192 88.862 310.274 89.26 310.274 89.704V94H308.834ZM318.573 94.18C317.917 94.18 317.341 94.038 316.845 93.754C316.349 93.47 315.961 93.076 315.681 92.572C315.405 92.068 315.267 91.488 315.267 90.832C315.267 90.124 315.403 89.51 315.675 88.99C315.947 88.466 316.325 88.06 316.809 87.772C317.293 87.484 317.853 87.34 318.489 87.34C319.161 87.34 319.731 87.498 320.199 87.814C320.671 88.126 321.021 88.568 321.249 89.14C321.477 89.712 321.563 90.386 321.507 91.162H320.073V90.634C320.069 89.93 319.945 89.416 319.701 89.092C319.457 88.768 319.073 88.606 318.549 88.606C317.957 88.606 317.517 88.79 317.229 89.158C316.941 89.522 316.797 90.056 316.797 90.76C316.797 91.416 316.941 91.924 317.229 92.284C317.517 92.644 317.937 92.824 318.489 92.824C318.845 92.824 319.151 92.746 319.407 92.59C319.667 92.43 319.867 92.2 320.007 91.9L321.435 92.332C321.187 92.916 320.803 93.37 320.283 93.694C319.767 94.018 319.197 94.18 318.573 94.18ZM316.341 91.162V90.07H320.799V91.162H316.341ZM327.152 94V90.88C327.152 90.676 327.138 90.45 327.11 90.202C327.082 89.954 327.016 89.716 326.912 89.488C326.812 89.256 326.66 89.066 326.456 88.918C326.256 88.77 325.984 88.696 325.64 88.696C325.456 88.696 325.274 88.726 325.094 88.786C324.914 88.846 324.75 88.95 324.602 89.098C324.458 89.242 324.342 89.442 324.254 89.698C324.166 89.95 324.122 90.274 324.122 90.67L323.264 90.304C323.264 89.752 323.37 89.252 323.582 88.804C323.798 88.356 324.114 88 324.53 87.736C324.946 87.468 325.458 87.334 326.066 87.334C326.546 87.334 326.942 87.414 327.254 87.574C327.566 87.734 327.814 87.938 327.998 88.186C328.182 88.434 328.318 88.698 328.406 88.978C328.494 89.258 328.55 89.524 328.574 89.776C328.602 90.024 328.616 90.226 328.616 90.382V94H327.152ZM322.658 94V87.52H323.948V89.53H324.122V94H322.658ZM333.98 94C333.552 94.08 333.132 94.114 332.72 94.102C332.312 94.094 331.946 94.02 331.622 93.88C331.298 93.736 331.052 93.51 330.884 93.202C330.736 92.922 330.658 92.636 330.65 92.344C330.642 92.052 330.638 91.722 330.638 91.354V85.72H332.078V91.27C332.078 91.53 332.08 91.758 332.084 91.954C332.092 92.15 332.134 92.31 332.21 92.434C332.354 92.674 332.584 92.808 332.9 92.836C333.216 92.864 333.576 92.848 333.98 92.788V94ZM329.462 88.654V87.52H333.98V88.654H329.462ZM337.907 94.18C337.259 94.18 336.693 94.034 336.209 93.742C335.725 93.45 335.349 93.048 335.081 92.536C334.817 92.02 334.685 91.428 334.685 90.76C334.685 90.08 334.821 89.484 335.093 88.972C335.365 88.46 335.743 88.06 336.227 87.772C336.711 87.484 337.271 87.34 337.907 87.34C338.559 87.34 339.127 87.486 339.611 87.778C340.095 88.07 340.471 88.474 340.739 88.99C341.007 89.502 341.141 90.092 341.141 90.76C341.141 91.432 341.005 92.026 340.733 92.542C340.465 93.054 340.089 93.456 339.605 93.748C339.121 94.036 338.555 94.18 337.907 94.18ZM337.907 92.824C338.483 92.824 338.911 92.632 339.191 92.248C339.471 91.864 339.611 91.368 339.611 90.76C339.611 90.132 339.469 89.632 339.185 89.26C338.901 88.884 338.475 88.696 337.907 88.696C337.519 88.696 337.199 88.784 336.947 88.96C336.699 89.132 336.515 89.374 336.395 89.686C336.275 89.994 336.215 90.352 336.215 90.76C336.215 91.388 336.357 91.89 336.641 92.266C336.929 92.638 337.351 92.824 337.907 92.824Z" fill="#606060"/>
<defs>
<filter id="filter0_d_304_16125" x="-24" y="0" width="408" height="152" filterUnits="userSpaceOnUse" color-interpolation-filters="sRGB">
<feFlood flood-opacity="0" result="BackgroundImageFix"/>
<feColorMatrix in="SourceAlpha" type="matrix" values="0 0 0 0 0 0 0 0 0 0 0 0 0 0 0 0 0 0 127 0" result="hardAlpha"/>
<feOffset dy="8"/>
<feGaussianBlur stdDeviation="12"/>
<feComposite in2="hardAlpha" operator="out"/>
<feColorMatrix type="matrix" values="0 0 0 0 0.439216 0 0 0 0 0.564706 0 0 0 0 0.690196 0 0 0 0.2 0"/>
<feBlend mode="normal" in2="BackgroundImageFix" result="effect1_dropShadow_304_16125"/>
<feBlend mode="normal" in="SourceGraphic" in2="effect1_dropShadow_304_16125" result="shape"/>
</filter>
</defs>
</svg>
