<svg width="22" height="22" viewBox="0 0 22 22" fill="none" xmlns="http://www.w3.org/2000/svg">
<path d="M21 10.1216V11.8796C21 12.0571 20.965 12.2329 20.8971 12.3969C20.8291 12.5609 20.7295 12.7099 20.604 12.8355C20.4784 12.961 20.3293 13.0606 20.1653 13.1285C20.0012 13.1965 19.8254 13.2314 19.6478 13.2314H18.3123C18.1696 13.7032 17.9806 14.1598 17.7481 14.5944L18.6907 15.5369C18.9439 15.7905 19.0862 16.1343 19.0862 16.4926C19.0862 16.851 18.9439 17.1947 18.6907 17.4484L17.4476 18.6912C17.3221 18.8169 17.1731 18.9165 17.0091 18.9845C16.845 19.0525 16.6692 19.0875 16.4916 19.0875C16.3141 19.0875 16.1382 19.0525 15.9742 18.9845C15.8101 18.9165 15.6611 18.8169 15.5356 18.6912L14.593 17.7488C14.1582 17.9815 13.7016 18.1708 13.2297 18.314V19.6492C13.2294 20.0076 13.0868 20.3512 12.8333 20.6044C12.5797 20.8577 12.236 21 11.8775 21H10.1203C9.76202 20.9997 9.41854 20.8573 9.16523 20.6041C8.91192 20.3508 8.76949 20.0074 8.76919 19.6492V18.314C8.29707 18.1715 7.84037 17.9821 7.40588 17.7488L6.46325 18.6912C6.33777 18.8169 6.18875 18.9165 6.02472 18.9845C5.86068 19.0525 5.68485 19.0875 5.50727 19.0875C5.32969 19.0875 5.15386 19.0525 4.98982 18.9845C4.82579 18.9165 4.67677 18.8169 4.55129 18.6912L3.30706 17.454C3.05384 17.2003 2.91163 16.8566 2.91163 16.4982C2.91163 16.1398 3.05384 15.7961 3.30706 15.5424L4.24969 14.6C4.01715 14.1654 3.82815 13.7088 3.68545 13.237H2.34996C2.17211 13.2367 1.99606 13.2013 1.8319 13.1329C1.66774 13.0645 1.5187 12.9644 1.3933 12.8383C1.2679 12.7122 1.16861 12.5626 1.10113 12.3981C1.03364 12.2336 0.999279 12.0574 1.00001 11.8796V10.1216C1.00148 9.76398 1.14459 9.42155 1.39802 9.16923C1.65144 8.91691 1.99453 8.77524 2.35219 8.77524H3.68767C3.82931 8.30161 4.01757 7.84318 4.24969 7.40668L3.30706 6.46425C3.05384 6.2106 2.91163 5.86686 2.91163 5.50849C2.91163 5.15011 3.05384 4.80637 3.30706 4.55271L4.55129 3.30876C4.805 3.0556 5.14881 2.91342 5.50727 2.91342C5.86573 2.91342 6.20954 3.0556 6.46325 3.30876L7.40588 4.25119C7.84062 4.01869 8.29727 3.82973 8.76919 3.68707V2.35188C8.76919 1.99353 8.9115 1.64984 9.16484 1.39635C9.41818 1.14286 9.76183 1.00029 10.1203 1H11.8798C12.2384 1 12.5823 1.14243 12.8359 1.39596C13.0895 1.64948 13.2319 1.99334 13.2319 2.35188V3.68707C13.704 3.82984 14.1607 4.01917 14.5952 4.25229L15.5379 3.30876C15.7916 3.0556 16.1354 2.91342 16.4939 2.91342C16.8523 2.91342 17.1961 3.0556 17.4498 3.30876L18.6929 4.55271C18.9462 4.80637 19.0884 5.15011 19.0884 5.50849C19.0884 5.86686 18.9462 6.2106 18.6929 6.46425L17.7503 7.40668C17.9832 7.84309 18.1722 8.30152 18.3146 8.77524H19.65C20.0073 8.77583 20.3498 8.91776 20.6028 9.17002C20.8557 9.42228 20.9985 9.76437 21 10.1216Z" stroke="white" stroke-width="2" stroke-miterlimit="10"/>
<circle cx="11" cy="11" r="3" stroke="white" stroke-width="2"/>
</svg>
