<svg width="86" height="54" viewBox="0 0 86 54" fill="none" xmlns="http://www.w3.org/2000/svg">
<path d="M8 1H78C81.866 1 85 4.13401 85 8V46C85 49.866 81.866 53 78 53H8C4.13401 53 1 49.866 1 46V8C1 4.13401 4.13401 1 8 1Z" fill="white" stroke="#56BA50" stroke-width="2"/>
<path d="M48.6579 20.25L36.7763 26.4375" stroke="#56BA50" stroke-width="2"/>
<path d="M36.2105 28.125L48.6579 34.875" stroke="#56BA50" stroke-width="2"/>
<path d="M53.1461 35.8836C53.1461 37.1164 52.1267 38.1422 50.8362 38.1422C49.5457 38.1422 48.5263 37.1164 48.5263 35.8836C48.5263 34.6509 49.5457 33.625 50.8362 33.625C52.1267 33.625 53.1461 34.6509 53.1461 35.8836Z" stroke="#56BA50" stroke-width="2"/>
<path d="M53.1461 19.0086C53.1461 20.2414 52.1267 21.2672 50.8362 21.2672C49.5457 21.2672 48.5263 20.2414 48.5263 19.0086C48.5263 17.7759 49.5457 16.75 50.8362 16.75C52.1267 16.75 53.1461 17.7759 53.1461 19.0086Z" stroke="#56BA50" stroke-width="2"/>
<path d="M37.304 26.8836C37.304 28.1164 36.2846 29.1422 34.9941 29.1422C33.7036 29.1422 32.6842 28.1164 32.6842 26.8836C32.6842 25.6509 33.7036 24.625 34.9941 24.625C36.2846 24.625 37.304 25.6509 37.304 26.8836Z" stroke="#56BA50" stroke-width="2"/>
</svg>
