<svg width="115" height="96" viewBox="0 0 115 96" fill="none" xmlns="http://www.w3.org/2000/svg">
<g filter="url(#filter0_d_367_13918)">
<path d="M24 24C24 19.5817 27.5817 16 32 16H92C96.4183 16 100 19.5817 100 24V56C100 60.4183 96.4183 64 92 64H32C27.5817 64 24 60.4183 24 56V24Z" fill="white"/>
<path d="M25 24C25 20.134 28.134 17 32 17H92C95.866 17 99 20.134 99 24V56C99 59.866 95.866 63 92 63H32C28.134 63 25 59.866 25 56V24Z" stroke="#56BA50" stroke-width="2"/>
</g>
<path d="M67 34L56.5 39.5" stroke="#56BA50" stroke-width="2"/>
<path d="M56 41L67 47" stroke="#56BA50" stroke-width="2"/>
<path d="M70.85 47.8966C70.85 48.9348 69.9974 49.7931 68.925 49.7931C67.8526 49.7931 67 48.9348 67 47.8966C67 46.8583 67.8526 46 68.925 46C69.9974 46 70.85 46.8583 70.85 47.8966Z" stroke="#56BA50" stroke-width="2"/>
<path d="M70.85 32.8966C70.85 33.9348 69.9974 34.7931 68.925 34.7931C67.8526 34.7931 67 33.9348 67 32.8966C67 31.8583 67.8526 31 68.925 31C69.9974 31 70.85 31.8583 70.85 32.8966Z" stroke="#56BA50" stroke-width="2"/>
<path d="M56.85 39.8966C56.85 40.9348 55.9974 41.7931 54.925 41.7931C53.8526 41.7931 53 40.9348 53 39.8966C53 38.8583 53.8526 38 54.925 38C55.9974 38 56.85 38.8583 56.85 39.8966Z" stroke="#56BA50" stroke-width="2"/>
<defs>
<filter id="filter0_d_367_13918" x="0" y="0" width="124" height="96" filterUnits="userSpaceOnUse" color-interpolation-filters="sRGB">
<feFlood flood-opacity="0" result="BackgroundImageFix"/>
<feColorMatrix in="SourceAlpha" type="matrix" values="0 0 0 0 0 0 0 0 0 0 0 0 0 0 0 0 0 0 127 0" result="hardAlpha"/>
<feOffset dy="8"/>
<feGaussianBlur stdDeviation="12"/>
<feComposite in2="hardAlpha" operator="out"/>
<feColorMatrix type="matrix" values="0 0 0 0 0.439216 0 0 0 0 0.564706 0 0 0 0 0.690196 0 0 0 0.2 0"/>
<feBlend mode="normal" in2="BackgroundImageFix" result="effect1_dropShadow_367_13918"/>
<feBlend mode="normal" in="SourceGraphic" in2="effect1_dropShadow_367_13918" result="shape"/>
</filter>
</defs>
</svg>
