<svg width="76" height="48" viewBox="0 0 76 48" fill="none" xmlns="http://www.w3.org/2000/svg">
<path d="M8 1H68C71.866 1 75 4.13401 75 8V40C75 43.866 71.866 47 68 47H8C4.13401 47 1 43.866 1 40V8C1 4.13401 4.13401 1 8 1Z" fill="white" stroke="#56BA50" stroke-width="2"/>
<path d="M43 18L32.5 23.5" stroke="#56BA50" stroke-width="2"/>
<path d="M32 25L43 31" stroke="#56BA50" stroke-width="2"/>
<path d="M46.85 31.8966C46.85 32.9348 45.9974 33.7931 44.925 33.7931C43.8526 33.7931 43 32.9348 43 31.8966C43 30.8583 43.8526 30 44.925 30C45.9974 30 46.85 30.8583 46.85 31.8966Z" stroke="#56BA50" stroke-width="2"/>
<path d="M46.85 16.8966C46.85 17.9348 45.9974 18.7931 44.925 18.7931C43.8526 18.7931 43 17.9348 43 16.8966C43 15.8583 43.8526 15 44.925 15C45.9974 15 46.85 15.8583 46.85 16.8966Z" stroke="#56BA50" stroke-width="2"/>
<path d="M32.85 23.8966C32.85 24.9348 31.9974 25.7931 30.925 25.7931C29.8526 25.7931 29 24.9348 29 23.8966C29 22.8583 29.8526 22 30.925 22C31.9974 22 32.85 22.8583 32.85 23.8966Z" stroke="#56BA50" stroke-width="2"/>
</svg>
