<svg width="20" height="21" viewBox="0 0 20 21" fill="none" xmlns="http://www.w3.org/2000/svg">
<path d="M15 4L4.5 9.5" stroke="white" stroke-width="2"/>
<path d="M4 11L15 17" stroke="white" stroke-width="2"/>
<path d="M18.85 17.8966C18.85 18.9348 17.9974 19.7931 16.925 19.7931C15.8526 19.7931 15 18.9348 15 17.8966C15 16.8583 15.8526 16 16.925 16C17.9974 16 18.85 16.8583 18.85 17.8966Z" stroke="white" stroke-width="2"/>
<path d="M18.85 2.89655C18.85 3.9348 17.9974 4.7931 16.925 4.7931C15.8526 4.7931 15 3.9348 15 2.89655C15 1.85831 15.8526 1 16.925 1C17.9974 1 18.85 1.85831 18.85 2.89655Z" stroke="white" stroke-width="2"/>
<path d="M4.85 9.89655C4.85 10.9348 3.99739 11.7931 2.925 11.7931C1.85261 11.7931 1 10.9348 1 9.89655C1 8.85831 1.85261 8 2.925 8C3.99739 8 4.85 8.85831 4.85 9.89655Z" stroke="white" stroke-width="2"/>
</svg>
