<svg width="40" height="28" viewBox="0 0 40 28" fill="none" xmlns="http://www.w3.org/2000/svg">
<path d="M13.9265 8.25154H24.3546M1 3.86206H7.89412L12.1507 20.2759H31.4397L32.2 14.6076" stroke="white" stroke-width="2" stroke-linecap="round" stroke-linejoin="round"/>
<path d="M17.5494 25.1033C17.5494 26.1416 16.6968 26.9999 15.6244 26.9999C14.5521 26.9999 13.6994 26.1416 13.6994 25.1033C13.6994 24.0651 14.5521 23.2068 15.6244 23.2068C16.6968 23.2068 17.5494 24.0651 17.5494 25.1033Z" stroke="white" stroke-width="2"/>
<path d="M30.225 25.1033C30.225 26.1416 29.3724 26.9999 28.3 26.9999C27.2276 26.9999 26.375 26.1416 26.375 25.1033C26.375 24.0651 27.2276 23.2068 28.3 23.2068C29.3724 23.2068 30.225 24.0651 30.225 25.1033Z" stroke="white" stroke-width="2"/>
<ellipse cx="31.2242" cy="8.68966" rx="8.775" ry="8.68966" fill="#F2B600"/>
</svg>
