<svg width="89" height="12" viewBox="0 0 89 12" fill="none" xmlns="http://www.w3.org/2000/svg">
<path d="M5.5 10L5.5 2M5.5 2L10 6M5.5 2L1 6" stroke="white" stroke-width="2" stroke-linecap="round" stroke-linejoin="round"/>
<path d="M14.98 11V0.92H21.56V2.698H16.884V4.854H20.72V6.632H16.884V9.222H21.56V11H14.98ZM23.2378 11V0.92H25.1698L29.5518 7.64V0.92H31.4838V11H29.5518L25.1698 4.28V11H23.2378ZM37.763 11.21C36.755 11.21 35.8847 10.9907 35.152 10.552C34.424 10.1133 33.8617 9.49967 33.465 8.711C33.073 7.92233 32.877 7.00533 32.877 5.96C32.877 4.91467 33.073 3.99767 33.465 3.209C33.8617 2.42033 34.424 1.80667 35.152 1.368C35.8847 0.929333 36.755 0.71 37.763 0.71C38.9204 0.71 39.891 0.997 40.675 1.571C41.4637 2.145 42.019 2.922 42.341 3.902L40.423 4.434C40.2364 3.82267 39.9214 3.349 39.478 3.013C39.0347 2.67233 38.463 2.502 37.763 2.502C37.1237 2.502 36.5894 2.64433 36.16 2.929C35.7354 3.21367 35.4157 3.615 35.201 4.133C34.9864 4.651 34.879 5.26 34.879 5.96C34.879 6.66 34.9864 7.269 35.201 7.787C35.4157 8.305 35.7354 8.70633 36.16 8.991C36.5894 9.27567 37.1237 9.418 37.763 9.418C38.463 9.418 39.0347 9.24767 39.478 8.907C39.9214 8.56633 40.2364 8.09267 40.423 7.486L42.341 8.018C42.019 8.998 41.4637 9.775 40.675 10.349C39.891 10.923 38.9204 11.21 37.763 11.21ZM48.2083 11.21C47.2003 11.21 46.33 10.9907 45.5973 10.552C44.8693 10.1133 44.307 9.49967 43.9103 8.711C43.5183 7.92233 43.3223 7.00533 43.3223 5.96C43.3223 4.91467 43.5183 3.99767 43.9103 3.209C44.307 2.42033 44.8693 1.80667 45.5973 1.368C46.33 0.929333 47.2003 0.71 48.2083 0.71C49.2163 0.71 50.0843 0.929333 50.8123 1.368C51.545 1.80667 52.1073 2.42033 52.4993 3.209C52.896 3.99767 53.0943 4.91467 53.0943 5.96C53.0943 7.00533 52.896 7.92233 52.4993 8.711C52.1073 9.49967 51.545 10.1133 50.8123 10.552C50.0843 10.9907 49.2163 11.21 48.2083 11.21ZM48.2083 9.418C48.8477 9.42733 49.3797 9.28967 49.8043 9.005C50.229 8.72033 50.5463 8.31667 50.7563 7.794C50.971 7.27133 51.0783 6.66 51.0783 5.96C51.0783 5.26 50.971 4.65333 50.7563 4.14C50.5463 3.62667 50.229 3.22767 49.8043 2.943C49.3797 2.65833 48.8477 2.51133 48.2083 2.502C47.569 2.49267 47.037 2.63033 46.6123 2.915C46.1877 3.19967 45.868 3.60333 45.6533 4.126C45.4433 4.64867 45.3383 5.26 45.3383 5.96C45.3383 6.66 45.4433 7.26667 45.6533 7.78C45.868 8.29333 46.1877 8.69233 46.6123 8.977C47.037 9.26167 47.569 9.40867 48.2083 9.418ZM54.6317 11V0.92H56.5357V9.222H60.8757V11H54.6317ZM62.0659 11V0.92H63.9699V5.064H68.4779V0.92H70.3819V11H68.4779V6.842H63.9699V11H62.0659ZM72.3472 11V0.92H78.9272V2.698H74.2512V4.854H78.0872V6.632H74.2512V9.222H78.9272V11H72.3472ZM80.605 11V0.92H84.861C84.959 0.92 85.0897 0.924666 85.253 0.933999C85.421 0.938666 85.5703 0.952666 85.701 0.976C86.303 1.06933 86.7953 1.26767 87.178 1.571C87.5653 1.87433 87.85 2.257 88.032 2.719C88.214 3.17633 88.305 3.68733 88.305 4.252C88.305 5.09667 88.095 5.82 87.675 6.422C87.255 7.01933 86.597 7.388 85.701 7.528L84.861 7.584H82.509V11H80.605ZM86.289 11L84.301 6.898L86.261 6.52L88.445 11H86.289ZM82.509 5.806H84.777C84.875 5.806 84.9823 5.80133 85.099 5.792C85.2157 5.78267 85.323 5.764 85.421 5.736C85.6777 5.666 85.876 5.54933 86.016 5.386C86.156 5.218 86.2517 5.03367 86.303 4.833C86.359 4.62767 86.387 4.434 86.387 4.252C86.387 4.07 86.359 3.87867 86.303 3.678C86.2517 3.47267 86.156 3.28833 86.016 3.125C85.876 2.957 85.6777 2.838 85.421 2.768C85.323 2.74 85.2157 2.72133 85.099 2.712C84.9823 2.70267 84.875 2.698 84.777 2.698H82.509V5.806Z" fill="white"/>
</svg>
