<svg width="21" height="23" viewBox="0 0 21 23" fill="none" xmlns="http://www.w3.org/2000/svg">
<path d="M17.5084 8.10527C17.5084 8.96371 17.1277 10.0391 16.431 11.2413C15.7461 12.4232 14.8148 13.6276 13.8511 14.7183C12.8902 15.8058 11.9165 16.7583 11.1637 17.4353C10.8665 17.7026 10.6085 17.9227 10.4031 18.0887C10.1978 17.9227 9.93975 17.7026 9.64253 17.4353C8.88971 16.7583 7.91608 15.8058 6.95514 14.7183C5.99142 13.6276 5.06019 12.4232 4.37524 11.2413C3.67859 10.0391 3.29786 8.96371 3.29786 8.10527C3.29786 4.18114 6.47899 1 10.4031 1C14.3273 1 17.5084 4.18114 17.5084 8.10527Z" stroke="#125C40" stroke-width="2"/>
<circle cx="10.4215" cy="7.97663" r="2.21638" stroke="#56BA50" stroke-width="2"/>
<path d="M15.4036 16.3392H16.4666C17.2509 16.3392 17.9628 16.7976 18.2873 17.5116L19.0422 19.1725C19.6441 20.4966 18.6761 22.0001 17.2215 22.0001H3.23607C1.7493 22.0001 0.782312 20.4354 1.44721 19.1056L2.27762 17.4448C2.61641 16.7672 3.30893 16.3392 4.06648 16.3392H5.18123" stroke="#125C40" stroke-width="2" stroke-linecap="round"/>
</svg>
