<svg width="46" height="21" viewBox="0 0 46 21" fill="none" xmlns="http://www.w3.org/2000/svg">
<path d="M29.0878 6.03782C29.7439 4.31916 31.0533 2.88905 32.7629 2.02408C34.4725 1.1591 36.4608 0.920714 38.3432 1.35502C40.2257 1.78932 41.8686 2.86546 42.9541 4.3753C44.0397 5.88515 44.4908 7.72144 44.2202 9.52902" stroke="white" stroke-width="2" stroke-linecap="round" stroke-linejoin="round"/>
<path d="M41.9297 14.2799C41.333 16.1088 40.0793 17.6516 38.411 18.6097C36.7427 19.5679 34.7784 19.8734 32.8979 19.4671C31.0174 19.0608 29.3544 17.9716 28.2305 16.4102C27.1066 14.8487 26.6016 12.926 26.8133 11.0138" stroke="white" stroke-width="2" stroke-linecap="round" stroke-linejoin="round"/>
<path d="M26.6133 2.26709L28.4301 7.31049L33.4735 5.49369" stroke="white" stroke-width="2" stroke-linecap="round"/>
<path d="M44.2598 17.9014L42.2278 12.9407L37.2672 14.9727" stroke="white" stroke-width="2" stroke-linecap="round"/>
<circle cx="11.3577" cy="11.9286" r="3.64286" stroke="white" stroke-width="2"/>
<circle cx="18.1875" cy="10.1875" r="1" stroke="white" stroke-width="1.125"/>
<path d="M21 16.125V9.25C21 7.86929 20.0051 6.75 18.7778 6.75H16.6944C16.0041 6.75 15.4444 6.19036 15.4444 5.5C15.4444 4.11929 14.4495 3 13.2222 3H8.77778C7.55048 3 6.55556 4.11929 6.55556 5.5C6.55556 6.19036 5.99591 6.75 5.30556 6.75H3.22222C1.99492 6.75 1 7.86929 1 9.25V16.125C1 17.5057 1.99492 18.625 3.22222 18.625H18.7778C20.0051 18.625 21 17.5057 21 16.125Z" stroke="white" stroke-width="2"/>
</svg>
