<svg width="66" height="50" viewBox="0 0 66 50" fill="none" xmlns="http://www.w3.org/2000/svg">
<path d="M8.06115 18.8764C7.37626 20.1484 5.6673 23.4424 6.4696 27.5876C7.3469 32.1307 10.6278 34.6484 11.4954 35.2909C17.069 39.4361 24.0256 37.6163 25.229 37.3032C28.4186 36.4683 31.905 33.3895 38.8811 27.2516C47.5759 19.5939 48.0684 17.5588 51.7766 16.1989C52.4288 15.9542 54.2422 15.3509 55.2108 13.6843C55.6702 12.863 55.9043 11.9347 55.8894 10.9937C55.8745 10.0527 55.6112 9.13234 55.126 8.3259C54.3302 7.0768 53.0811 6.48649 51.7766 6.06577C47.9118 4.8134 44.3472 5.29935 40.3031 5.98097C35.4436 6.79958 31.7061 7.61166 27.6587 8.49223C19.6488 10.2729 18.7487 10.6121 17.8746 11.0067C14.9785 12.2754 10.5789 14.2159 8.06115 18.8764Z" stroke="white" stroke-width="2" stroke-miterlimit="10"/>
<path d="M1.27754 23.651C1.03946 25.0991 0.299113 29.9324 2.95387 34.7071C7.70895 43.2943 18.8889 43.5748 19.701 43.5845C27.7468 43.6596 33.7249 38.7642 36.6178 36.3802C40.5314 33.1645 40.4042 31.7131 45.6648 27.6723C48.9262 25.1643 53.4921 22.2421 54.7086 21.4757C59.7083 18.2828 61.7662 17.3175 62.7479 14.7736C63.9187 11.7405 62.7479 8.82484 62.5815 8.41065C60.4258 3.19246 53.6356 1.88791 51.0232 1.37587C46.7834 0.554008 43.9069 1.11496 35.2806 2.7163C32.1758 3.2903 26.3183 4.37307 18.3638 5.8146C17.4702 6.12769 3.30937 11.3394 1.27754 23.651Z" stroke="white" stroke-width="2" stroke-miterlimit="10"/>
<path d="M15.0112 24.4044C15.0112 26.4167 17.4312 26.6678 20.4153 26.6678C23.3995 26.6678 25.9075 23.6413 25.8162 21.629C25.6727 18.4655 21.9645 17.8719 18.3639 19.7146C15.7026 21.0648 15.0112 22.3921 15.0112 24.4044Z" stroke="white" stroke-width="2" stroke-miterlimit="10"/>
<path d="M63 10C63 10 63.9154 11.3296 64.0035 11.7601C64.2513 12.9309 64.7927 15.5139 63.7523 18.2078C63.2559 19.4777 62.484 20.6216 61.4922 21.5572C61.4922 21.5572 56.6752 22.7737 53.4105 25.4089C50.1459 28.0441 46.7508 32.822 44.1156 36.3378C41.4804 39.8535 31.0701 45.5088 31.0701 45.5088C19.2966 49.0343 7.33061 53.3361 1.75366 31.9121" stroke="white" stroke-width="2" stroke-miterlimit="10"/>
</svg>
