<svg width="429" height="586" viewBox="0 0 429 586" fill="none" xmlns="http://www.w3.org/2000/svg">
<rect x="1" y="1" width="427" height="584" rx="16" fill="white"/>
<rect x="1" y="1" width="427" height="584" rx="16" stroke="#56BA50" stroke-width="2"/>
<path d="M96.5 374C96.5 344.177 120.677 320 150.5 320H278.5C308.323 320 332.5 344.177 332.5 374V428H96.5V374Z" stroke="#56BA50" stroke-width="12"/>
<circle cx="214" cy="221.5" r="73.5" stroke="#56BA50" stroke-width="12"/>
<path d="M133.411 518.72C129.955 518.72 126.971 517.968 124.459 516.464C121.963 514.96 120.035 512.856 118.675 510.152C117.331 507.448 116.659 504.304 116.659 500.72C116.659 497.136 117.331 493.992 118.675 491.288C120.035 488.584 121.963 486.48 124.459 484.976C126.971 483.472 129.955 482.72 133.411 482.72C137.379 482.72 140.707 483.704 143.395 485.672C146.099 487.64 148.003 490.304 149.107 493.664L142.531 495.488C141.891 493.392 140.811 491.768 139.291 490.616C137.771 489.448 135.811 488.864 133.411 488.864C131.219 488.864 129.387 489.352 127.915 490.328C126.459 491.304 125.363 492.68 124.627 494.456C123.891 496.232 123.523 498.32 123.523 500.72C123.523 503.12 123.891 505.208 124.627 506.984C125.363 508.76 126.459 510.136 127.915 511.112C129.387 512.088 131.219 512.576 133.411 512.576C135.811 512.576 137.771 511.992 139.291 510.824C140.811 509.656 141.891 508.032 142.531 505.952L149.107 507.776C148.003 511.136 146.099 513.8 143.395 515.768C140.707 517.736 137.379 518.72 133.411 518.72ZM154.871 518V482.72H161.399V518H154.871ZM169.074 488.48V482.72H175.602V488.48H169.074ZM169.074 518V492.08H175.602V518H169.074ZM194.846 518.72C192.19 518.72 189.846 518.152 187.814 517.016C185.798 515.864 184.214 514.288 183.062 512.288C181.926 510.272 181.358 507.968 181.358 505.376C181.358 502.544 181.918 500.08 183.038 497.984C184.158 495.888 185.702 494.264 187.67 493.112C189.638 491.944 191.902 491.36 194.462 491.36C197.182 491.36 199.494 492 201.398 493.28C203.302 494.56 204.71 496.36 205.622 498.68C206.534 501 206.854 503.728 206.582 506.864H200.126V504.464C200.126 501.824 199.702 499.928 198.854 498.776C198.022 497.608 196.654 497.024 194.75 497.024C192.526 497.024 190.886 497.704 189.83 499.064C188.79 500.408 188.27 502.4 188.27 505.04C188.27 507.456 188.79 509.328 189.83 510.656C190.886 511.968 192.43 512.624 194.462 512.624C195.742 512.624 196.838 512.344 197.75 511.784C198.662 511.224 199.358 510.416 199.838 509.36L206.366 511.232C205.39 513.6 203.846 515.44 201.734 516.752C199.638 518.064 197.342 518.72 194.846 518.72ZM186.254 506.864V502.016H203.438V506.864H186.254ZM228.962 518V505.76C228.962 505.168 228.93 504.416 228.866 503.504C228.802 502.576 228.602 501.648 228.266 500.72C227.93 499.792 227.378 499.016 226.61 498.392C225.858 497.768 224.786 497.456 223.394 497.456C222.834 497.456 222.234 497.544 221.594 497.72C220.954 497.896 220.354 498.24 219.794 498.752C219.234 499.248 218.77 499.984 218.402 500.96C218.05 501.936 217.874 503.232 217.874 504.848L214.13 503.072C214.13 501.024 214.546 499.104 215.378 497.312C216.21 495.52 217.458 494.072 219.122 492.968C220.802 491.864 222.914 491.312 225.458 491.312C227.49 491.312 229.146 491.656 230.426 492.344C231.706 493.032 232.698 493.904 233.402 494.96C234.122 496.016 234.634 497.12 234.938 498.272C235.242 499.408 235.426 500.448 235.49 501.392C235.554 502.336 235.586 503.024 235.586 503.456V518H228.962ZM211.25 518V492.08H217.058V500.672H217.874V518H211.25ZM257.365 518C255.573 518.336 253.813 518.48 252.085 518.432C250.373 518.4 248.837 518.104 247.477 517.544C246.133 516.968 245.109 516.048 244.405 514.784C243.765 513.6 243.429 512.4 243.397 511.184C243.365 509.952 243.349 508.56 243.349 507.008V484.88H249.877V506.624C249.877 507.632 249.885 508.544 249.901 509.36C249.933 510.16 250.101 510.8 250.405 511.28C250.981 512.192 251.901 512.688 253.165 512.768C254.429 512.848 255.829 512.784 257.365 512.576V518ZM238.933 497.12V492.08H257.365V497.12H238.933ZM273.736 518.72C271.08 518.72 268.736 518.152 266.704 517.016C264.688 515.864 263.104 514.288 261.952 512.288C260.816 510.272 260.248 507.968 260.248 505.376C260.248 502.544 260.808 500.08 261.928 497.984C263.048 495.888 264.592 494.264 266.56 493.112C268.528 491.944 270.792 491.36 273.352 491.36C276.072 491.36 278.384 492 280.288 493.28C282.192 494.56 283.6 496.36 284.512 498.68C285.424 501 285.744 503.728 285.472 506.864H279.016V504.464C279.016 501.824 278.592 499.928 277.744 498.776C276.912 497.608 275.544 497.024 273.64 497.024C271.416 497.024 269.776 497.704 268.72 499.064C267.68 500.408 267.16 502.4 267.16 505.04C267.16 507.456 267.68 509.328 268.72 510.656C269.776 511.968 271.32 512.624 273.352 512.624C274.632 512.624 275.728 512.344 276.64 511.784C277.552 511.224 278.248 510.416 278.728 509.36L285.256 511.232C284.28 513.6 282.736 515.44 280.624 516.752C278.528 518.064 276.232 518.72 273.736 518.72ZM265.144 506.864V502.016H282.328V506.864H265.144ZM301.019 518.72C297.755 518.72 295.115 517.984 293.099 516.512C291.099 515.024 289.883 512.928 289.451 510.224L296.123 509.216C296.395 510.432 296.995 511.384 297.923 512.072C298.867 512.76 300.059 513.104 301.499 513.104C302.683 513.104 303.595 512.88 304.235 512.432C304.875 511.968 305.195 511.328 305.195 510.512C305.195 510 305.067 509.592 304.811 509.288C304.555 508.968 303.979 508.656 303.083 508.352C302.203 508.048 300.827 507.648 298.955 507.152C296.843 506.608 295.155 506 293.891 505.328C292.627 504.656 291.715 503.856 291.155 502.928C290.595 501.984 290.315 500.848 290.315 499.52C290.315 497.856 290.739 496.416 291.587 495.2C292.435 493.968 293.627 493.024 295.163 492.368C296.715 491.696 298.539 491.36 300.635 491.36C302.667 491.36 304.467 491.672 306.035 492.296C307.603 492.92 308.867 493.808 309.827 494.96C310.803 496.112 311.403 497.472 311.627 499.04L304.955 500.24C304.843 499.28 304.427 498.52 303.707 497.96C302.987 497.4 302.011 497.072 300.779 496.976C299.579 496.896 298.611 497.056 297.875 497.456C297.155 497.856 296.795 498.432 296.795 499.184C296.795 499.632 296.947 500.008 297.251 500.312C297.571 500.616 298.219 500.928 299.195 501.248C300.187 501.568 301.691 501.984 303.707 502.496C305.675 503.008 307.251 503.608 308.435 504.296C309.635 504.968 310.507 505.784 311.051 506.744C311.595 507.688 311.867 508.832 311.867 510.176C311.867 512.832 310.907 514.92 308.987 516.44C307.067 517.96 304.411 518.72 301.019 518.72Z" fill="#56BA50"/>
</svg>
