<svg width="144" height="144" viewBox="0 0 144 144" fill="none" xmlns="http://www.w3.org/2000/svg">
<rect width="144" height="144" rx="10" fill="#56BA50"/>
<path d="M30.5015 126V115.92H37.0115V117.502H32.1885V119.987H36.1715V121.569H32.1885V124.418H37.0115V126H30.5015ZM43.9199 126V122.36C43.9199 122.122 43.9036 121.858 43.8709 121.569C43.8383 121.28 43.7613 121.002 43.6399 120.736C43.5233 120.465 43.3459 120.244 43.1079 120.071C42.8746 119.898 42.5573 119.812 42.1559 119.812C41.9413 119.812 41.7289 119.847 41.5189 119.917C41.3089 119.987 41.1176 120.108 40.9449 120.281C40.7769 120.449 40.6416 120.682 40.5389 120.981C40.4363 121.275 40.3849 121.653 40.3849 122.115L39.3839 121.688C39.3839 121.044 39.5076 120.461 39.7549 119.938C40.0069 119.415 40.3756 119 40.8609 118.692C41.3463 118.379 41.9436 118.223 42.6529 118.223C43.2129 118.223 43.6749 118.316 44.0389 118.503C44.4029 118.69 44.6923 118.928 44.9069 119.217C45.1216 119.506 45.2803 119.814 45.3829 120.141C45.4856 120.468 45.5509 120.778 45.5789 121.072C45.6116 121.361 45.6279 121.597 45.6279 121.779V126H43.9199ZM38.6769 126V118.44H40.1819V120.785H40.3849V126H38.6769ZM50.6146 126.21C49.8352 126.21 49.1702 126.037 48.6196 125.692C48.0689 125.342 47.6466 124.866 47.3526 124.264C47.0632 123.662 46.9162 122.981 46.9116 122.22C46.9162 121.445 47.0679 120.759 47.3666 120.162C47.6699 119.56 48.0992 119.089 48.6546 118.748C49.2099 118.403 49.8702 118.23 50.6356 118.23C51.4942 118.23 52.2199 118.447 52.8126 118.881C53.4099 119.31 53.7996 119.898 53.9816 120.645L52.3016 121.1C52.1709 120.694 51.9539 120.379 51.6506 120.155C51.3472 119.926 51.0019 119.812 50.6146 119.812C50.1759 119.812 49.8142 119.917 49.5296 120.127C49.2449 120.332 49.0349 120.617 48.8996 120.981C48.7642 121.345 48.6966 121.758 48.6966 122.22C48.6966 122.939 48.8576 123.52 49.1796 123.963C49.5016 124.406 49.9799 124.628 50.6146 124.628C51.0626 124.628 51.4149 124.525 51.6716 124.32C51.9329 124.115 52.1289 123.818 52.2596 123.431L53.9816 123.816C53.7482 124.586 53.3399 125.179 52.7566 125.594C52.1732 126.005 51.4592 126.21 50.6146 126.21ZM58.5182 126.21C57.7622 126.21 57.1019 126.04 56.5372 125.699C55.9726 125.358 55.5339 124.889 55.2212 124.292C54.9132 123.69 54.7592 122.999 54.7592 122.22C54.7592 121.427 54.9179 120.731 55.2352 120.134C55.5526 119.537 55.9936 119.07 56.5582 118.734C57.1229 118.398 57.7762 118.23 58.5182 118.23C59.2789 118.23 59.9416 118.4 60.5062 118.741C61.0709 119.082 61.5096 119.553 61.8222 120.155C62.1349 120.752 62.2912 121.441 62.2912 122.22C62.2912 123.004 62.1326 123.697 61.8152 124.299C61.5026 124.896 61.0639 125.365 60.4992 125.706C59.9346 126.042 59.2742 126.21 58.5182 126.21ZM58.5182 124.628C59.1902 124.628 59.6896 124.404 60.0162 123.956C60.3429 123.508 60.5062 122.929 60.5062 122.22C60.5062 121.487 60.3406 120.904 60.0092 120.47C59.6779 120.031 59.1809 119.812 58.5182 119.812C58.0656 119.812 57.6922 119.915 57.3982 120.12C57.1089 120.321 56.8942 120.603 56.7542 120.967C56.6142 121.326 56.5442 121.744 56.5442 122.22C56.5442 122.953 56.7099 123.538 57.0412 123.977C57.3772 124.411 57.8696 124.628 58.5182 124.628ZM72.9125 126V121.408C72.9125 120.89 72.7842 120.486 72.5275 120.197C72.2708 119.903 71.9232 119.756 71.4845 119.756C71.2138 119.756 70.9712 119.819 70.7565 119.945C70.5418 120.066 70.3715 120.248 70.2455 120.491C70.1195 120.729 70.0565 121.014 70.0565 121.345L69.3075 120.904C69.3028 120.381 69.4195 119.922 69.6575 119.525C69.9002 119.124 70.2268 118.811 70.6375 118.587C71.0482 118.363 71.5055 118.251 72.0095 118.251C72.8448 118.251 73.4842 118.503 73.9275 119.007C74.3755 119.506 74.5995 120.164 74.5995 120.981V126H72.9125ZM63.8195 126V118.44H65.3105V120.785H65.5205V126H63.8195ZM68.3765 126V121.429C68.3765 120.902 68.2482 120.491 67.9915 120.197C67.7348 119.903 67.3848 119.756 66.9415 119.756C66.5122 119.756 66.1668 119.903 65.9055 120.197C65.6488 120.491 65.5205 120.874 65.5205 121.345L64.7645 120.841C64.7645 120.351 64.8858 119.91 65.1285 119.518C65.3712 119.126 65.6978 118.818 66.1085 118.594C66.5238 118.365 66.9882 118.251 67.5015 118.251C68.0662 118.251 68.5375 118.372 68.9155 118.615C69.2982 118.853 69.5828 119.18 69.7695 119.595C69.9608 120.006 70.0565 120.47 70.0565 120.988V126H68.3765ZM79.7393 126.21C78.9739 126.21 78.3019 126.044 77.7233 125.713C77.1446 125.382 76.6919 124.922 76.3653 124.334C76.0433 123.746 75.8823 123.069 75.8823 122.304C75.8823 121.478 76.0409 120.762 76.3583 120.155C76.6756 119.544 77.1166 119.07 77.6813 118.734C78.2459 118.398 78.8993 118.23 79.6413 118.23C80.4253 118.23 81.0903 118.414 81.6363 118.783C82.1869 119.147 82.5953 119.663 82.8613 120.33C83.1273 120.997 83.2276 121.784 83.1623 122.689H81.4893V122.073C81.4846 121.252 81.3399 120.652 81.0553 120.274C80.7706 119.896 80.3226 119.707 79.7113 119.707C79.0206 119.707 78.5073 119.922 78.1713 120.351C77.8353 120.776 77.6673 121.399 77.6673 122.22C77.6673 122.985 77.8353 123.578 78.1713 123.998C78.5073 124.418 78.9973 124.628 79.6413 124.628C80.0566 124.628 80.4136 124.537 80.7123 124.355C81.0156 124.168 81.2489 123.9 81.4123 123.55L83.0783 124.054C82.7889 124.735 82.3409 125.265 81.7343 125.643C81.1323 126.021 80.4673 126.21 79.7393 126.21ZM77.1353 122.689V121.415H82.3363V122.689H77.1353ZM89.7481 126V122.36C89.7481 122.122 89.7317 121.858 89.6991 121.569C89.6664 121.28 89.5894 121.002 89.4681 120.736C89.3514 120.465 89.1741 120.244 88.9361 120.071C88.7027 119.898 88.3854 119.812 87.9841 119.812C87.7694 119.812 87.5571 119.847 87.3471 119.917C87.1371 119.987 86.9457 120.108 86.7731 120.281C86.6051 120.449 86.4697 120.682 86.3671 120.981C86.2644 121.275 86.2131 121.653 86.2131 122.115L85.2121 121.688C85.2121 121.044 85.3357 120.461 85.5831 119.938C85.8351 119.415 86.2037 119 86.6891 118.692C87.1744 118.379 87.7717 118.223 88.4811 118.223C89.0411 118.223 89.5031 118.316 89.8671 118.503C90.2311 118.69 90.5204 118.928 90.7351 119.217C90.9497 119.506 91.1084 119.814 91.2111 120.141C91.3137 120.468 91.3791 120.778 91.4071 121.072C91.4397 121.361 91.4561 121.597 91.4561 121.779V126H89.7481ZM84.5051 126V118.44H86.0101V120.785H86.2131V126H84.5051ZM96.1907 126.21C95.4954 126.21 94.8887 126.035 94.3707 125.685C93.8527 125.335 93.4514 124.859 93.1667 124.257C92.882 123.655 92.7397 122.976 92.7397 122.22C92.7397 121.455 92.882 120.773 93.1667 120.176C93.456 119.574 93.8644 119.1 94.3917 118.755C94.919 118.405 95.5397 118.23 96.2537 118.23C96.9724 118.23 97.5744 118.405 98.0597 118.755C98.5497 119.1 98.9207 119.574 99.1727 120.176C99.4247 120.778 99.5507 121.459 99.5507 122.22C99.5507 122.971 99.4247 123.65 99.1727 124.257C98.9207 124.859 98.545 125.335 98.0457 125.685C97.5464 126.035 96.928 126.21 96.1907 126.21ZM96.4497 124.698C96.9024 124.698 97.2664 124.595 97.5417 124.39C97.8217 124.18 98.0247 123.888 98.1507 123.515C98.2814 123.142 98.3467 122.71 98.3467 122.22C98.3467 121.725 98.2814 121.294 98.1507 120.925C98.0247 120.552 97.8264 120.262 97.5557 120.057C97.285 119.847 96.935 119.742 96.5057 119.742C96.053 119.742 95.6797 119.854 95.3857 120.078C95.0917 120.297 94.8747 120.596 94.7347 120.974C94.5947 121.347 94.5247 121.763 94.5247 122.22C94.5247 122.682 94.5924 123.102 94.7277 123.48C94.8677 123.853 95.08 124.15 95.3647 124.369C95.6494 124.588 96.011 124.698 96.4497 124.698ZM98.3467 126V120.694H98.1367V115.92H99.8377V126H98.3467ZM103.914 126.21C103.368 126.21 102.906 126.107 102.528 125.902C102.15 125.692 101.863 125.414 101.667 125.069C101.476 124.724 101.38 124.343 101.38 123.928C101.38 123.564 101.441 123.237 101.562 122.948C101.684 122.654 101.87 122.402 102.122 122.192C102.374 121.977 102.701 121.802 103.102 121.667C103.406 121.569 103.76 121.48 104.166 121.401C104.577 121.322 105.02 121.249 105.496 121.184C105.977 121.114 106.479 121.039 107.001 120.96L106.399 121.303C106.404 120.78 106.287 120.395 106.049 120.148C105.811 119.901 105.41 119.777 104.845 119.777C104.505 119.777 104.176 119.856 103.858 120.015C103.541 120.174 103.319 120.447 103.193 120.834L101.653 120.351C101.84 119.712 102.195 119.198 102.717 118.811C103.245 118.424 103.954 118.23 104.845 118.23C105.517 118.23 106.108 118.34 106.616 118.559C107.13 118.778 107.51 119.138 107.757 119.637C107.893 119.903 107.974 120.176 108.002 120.456C108.03 120.731 108.044 121.032 108.044 121.359V126H106.567V124.362L106.812 124.628C106.472 125.174 106.073 125.575 105.615 125.832C105.163 126.084 104.596 126.21 103.914 126.21ZM104.25 124.866C104.633 124.866 104.96 124.798 105.23 124.663C105.501 124.528 105.716 124.362 105.874 124.166C106.038 123.97 106.147 123.786 106.203 123.613C106.292 123.398 106.341 123.153 106.35 122.878C106.364 122.598 106.371 122.372 106.371 122.199L106.889 122.353C106.381 122.432 105.944 122.502 105.58 122.563C105.216 122.624 104.904 122.682 104.642 122.738C104.381 122.789 104.15 122.848 103.949 122.913C103.753 122.983 103.588 123.065 103.452 123.158C103.317 123.251 103.212 123.359 103.137 123.48C103.067 123.601 103.032 123.744 103.032 123.907C103.032 124.094 103.079 124.259 103.172 124.404C103.266 124.544 103.401 124.656 103.578 124.74C103.76 124.824 103.984 124.866 104.25 124.866ZM109.867 126V118.44H111.358V120.281L111.176 120.043C111.269 119.791 111.393 119.562 111.547 119.357C111.705 119.147 111.894 118.974 112.114 118.839C112.3 118.713 112.506 118.615 112.73 118.545C112.958 118.47 113.192 118.426 113.43 118.412C113.668 118.393 113.899 118.403 114.123 118.44V120.015C113.899 119.95 113.64 119.929 113.346 119.952C113.056 119.975 112.795 120.057 112.562 120.197C112.328 120.323 112.137 120.484 111.988 120.68C111.843 120.876 111.736 121.1 111.666 121.352C111.596 121.599 111.561 121.868 111.561 122.157V126H109.867Z" fill="white"/>
<path d="M95.356 79.9769V66.8552H105.22V79.9769H120.015V60.1304L100.288 42.4012L80.5605 60.1304V69.6436" stroke="white" stroke-width="2" stroke-linecap="round" stroke-linejoin="round"/>
<path d="M120.016 60.2497H128L100.288 35.8254L72.5762 60.2497H80.561" stroke="white" stroke-width="2" stroke-linecap="round" stroke-linejoin="round"/>
<path d="M112.031 45.9756V35.8254H120.016V52.8778L112.031 45.9756Z" stroke="white" stroke-width="2" stroke-linecap="round" stroke-linejoin="round"/>
<mask id="path-6-inside-1_287_3641" fill="white">
<path fill-rule="evenodd" clip-rule="evenodd" d="M24.5 58.6477C21.7386 58.6477 19.5 60.8863 19.5 63.6477V82.2926C19.5 85.054 21.7386 87.2926 24.5 87.2926H29.6784C29.6735 87.1894 29.6711 87.0856 29.6711 86.9812C29.6711 83.3701 32.5985 80.4427 36.2096 80.4427C39.8207 80.4427 42.7481 83.3701 42.7481 86.9812C42.7481 87.0856 42.7457 87.1894 42.7408 87.2926H46.3277C46.6018 87.2926 46.8708 87.2705 47.133 87.2281L70.3553 87.0346L70.3551 86.9812C70.3551 83.3701 73.2825 80.4427 76.8936 80.4427C80.4862 80.4427 83.4021 83.3401 83.4319 86.9256L86.227 86.9023C86.8267 86.8973 87.4205 86.7845 87.9802 86.5692L88.1772 86.4935C90.5345 85.5868 91.8456 83.0644 91.233 80.6141L90.6814 78.4077C90.2152 76.5431 88.7215 75.1107 86.8389 74.7231L77.1913 72.7369C76.6619 72.6279 76.1537 72.4338 75.6865 72.1621L60.2831 63.2066C59.6261 62.8247 58.8906 62.5975 58.1327 62.5424L51.0595 62.0279C50.3865 60.0615 48.5222 58.6477 46.3277 58.6477H24.5Z"/>
</mask>
<path d="M29.6784 87.2926V89.2926H31.7743L31.6762 87.1989L29.6784 87.2926ZM42.7408 87.2926L40.743 87.1989L40.6449 89.2926H42.7408V87.2926ZM47.133 87.2281L47.1163 85.2282L46.9638 85.2294L46.8133 85.2538L47.133 87.2281ZM70.3553 87.0346L70.372 89.0345L72.3633 89.0179L72.3553 87.0266L70.3553 87.0346ZM70.3551 86.9812H68.3551L68.3551 86.9892L70.3551 86.9812ZM83.4319 86.9256L81.432 86.9423L81.4487 88.9422L83.4486 88.9255L83.4319 86.9256ZM86.227 86.9023L86.2437 88.9022H86.2437L86.227 86.9023ZM87.9802 86.5692L87.2623 84.7025L87.2623 84.7025L87.9802 86.5692ZM88.1772 86.4935L88.8951 88.3602L88.8951 88.3602L88.1772 86.4935ZM91.233 80.6141L93.1733 80.129L91.233 80.6141ZM90.6814 78.4077L92.6217 77.9227V77.9227L90.6814 78.4077ZM86.8389 74.7231L86.4356 76.682L86.8389 74.7231ZM77.1913 72.7369L77.5946 70.7779V70.7779L77.1913 72.7369ZM75.6865 72.1621L74.6812 73.8911L74.6812 73.8911L75.6865 72.1621ZM60.2831 63.2066L59.2778 64.9357L59.2779 64.9357L60.2831 63.2066ZM58.1327 62.5424L57.9876 64.5371L57.9876 64.5371L58.1327 62.5424ZM51.0595 62.0279L49.1672 62.6755L49.5954 63.9267L50.9144 64.0227L51.0595 62.0279ZM21.5 63.6477C21.5 61.9908 22.8431 60.6477 24.5 60.6477V56.6477C20.634 56.6477 17.5 59.7817 17.5 63.6477H21.5ZM21.5 82.2926V63.6477H17.5V82.2926H21.5ZM24.5 85.2926C22.8431 85.2926 21.5 83.9495 21.5 82.2926H17.5C17.5 86.1586 20.634 89.2926 24.5 89.2926V85.2926ZM29.6784 85.2926H24.5V89.2926H29.6784V85.2926ZM31.6762 87.1989C31.6728 87.1269 31.6711 87.0544 31.6711 86.9812H27.6711C27.6711 87.1169 27.6743 87.2519 27.6805 87.3863L31.6762 87.1989ZM31.6711 86.9812C31.6711 84.4747 33.703 82.4427 36.2096 82.4427V78.4427C31.4939 78.4427 27.6711 82.2655 27.6711 86.9812H31.6711ZM36.2096 82.4427C38.7161 82.4427 40.7481 84.4747 40.7481 86.9812H44.7481C44.7481 82.2655 40.9253 78.4427 36.2096 78.4427V82.4427ZM40.7481 86.9812C40.7481 87.0544 40.7464 87.1269 40.743 87.1989L44.7386 87.3863C44.7449 87.2519 44.7481 87.1168 44.7481 86.9812H40.7481ZM46.3277 85.2926H42.7408V89.2926H46.3277V85.2926ZM46.8133 85.2538C46.6565 85.2792 46.4944 85.2926 46.3277 85.2926V89.2926C46.7093 89.2926 47.0852 89.2619 47.4526 89.2024L46.8133 85.2538ZM70.3387 85.0346L47.1163 85.2282L47.1496 89.228L70.372 89.0345L70.3387 85.0346ZM68.3551 86.9892L68.3554 87.0426L72.3553 87.0266L72.3551 86.9732L68.3551 86.9892ZM76.8936 78.4427C72.178 78.4427 68.3551 82.2655 68.3551 86.9812H72.3551C72.3551 84.4747 74.3871 82.4427 76.8936 82.4427V78.4427ZM85.4319 86.9089C85.3928 82.2263 81.5852 78.4427 76.8936 78.4427V82.4427C79.3872 82.4427 81.4113 84.4539 81.432 86.9423L85.4319 86.9089ZM86.2104 84.9024L83.4153 84.9257L83.4486 88.9255L86.2437 88.9022L86.2104 84.9024ZM87.2623 84.7025C86.9265 84.8317 86.5701 84.8994 86.2103 84.9024L86.2437 88.9022C87.0832 88.8952 87.9146 88.7373 88.6982 88.4359L87.2623 84.7025ZM87.4592 84.6268L87.2623 84.7025L88.6982 88.4359L88.8951 88.3602L87.4592 84.6268ZM89.2927 81.0991C89.6602 82.5693 88.8736 84.0828 87.4592 84.6268L88.8951 88.3602C92.1954 87.0908 94.0309 83.5594 93.1733 80.129L89.2927 81.0991ZM88.7411 78.8928L89.2927 81.0991L93.1733 80.129L92.6217 77.9227L88.7411 78.8928ZM86.4356 76.682C87.5652 76.9146 88.4614 77.774 88.7411 78.8928L92.6217 77.9227C91.969 75.3122 89.8778 73.3068 87.2422 72.7642L86.4356 76.682ZM76.788 74.6958L86.4356 76.682L87.2422 72.7642L77.5946 70.7779L76.788 74.6958ZM74.6812 73.8911C75.3354 74.2714 76.0469 74.5432 76.788 74.6958L77.5946 70.7779C77.277 70.7125 76.9721 70.5961 76.6917 70.4331L74.6812 73.8911ZM59.2779 64.9357L74.6812 73.8911L76.6917 70.4331L61.2883 61.4776L59.2779 64.9357ZM57.9876 64.5371C58.4424 64.5702 58.8836 64.7065 59.2778 64.9357L61.2883 61.4776C60.3685 60.9429 59.3389 60.6248 58.2777 60.5476L57.9876 64.5371ZM50.9144 64.0227L57.9876 64.5371L58.2777 60.5476L51.2046 60.0332L50.9144 64.0227ZM46.3277 60.6477C47.6413 60.6477 48.7626 61.4932 49.1672 62.6755L52.9518 61.3804C52.0105 58.6298 49.4031 56.6477 46.3277 56.6477V60.6477ZM24.5 60.6477H46.3277V56.6477H24.5V60.6477Z" fill="white" mask="url(#path-6-inside-1_287_3641)"/>
<circle cx="36.297" cy="87.2407" r="4.172" stroke="white" stroke-width="2"/>
<circle cx="76.9806" cy="87.0677" r="4.172" stroke="white" stroke-width="2"/>
</svg>
