<svg width="68" height="14" viewBox="0 0 68 14" fill="none" xmlns="http://www.w3.org/2000/svg">
<path d="M4.81698 12.2554C5.00033 12.2044 5.16533 12.1023 5.29263 11.9608L11.3473 5.2334L10.604 4.56443L11.3473 5.2334C11.7751 4.75802 12 4.13382 12 3.50221C12 2.8706 11.7751 2.2464 11.3473 1.77102C10.9163 1.29217 10.3078 1 9.64801 1C8.98819 1 8.37968 1.29217 7.94871 1.77102L1.89404 8.49844C1.77936 8.62587 1.69936 8.78064 1.66172 8.94789L1.02439 11.7805C0.947194 12.1236 1.05589 12.482 1.31066 12.7244C1.56542 12.9669 1.9288 13.0576 2.26764 12.9635L4.81698 12.2554Z" stroke="white" stroke-width="2" stroke-linecap="round" stroke-linejoin="round"/>
<path d="M19.98 12V1.92H26.56V3.698H21.884V5.854H25.72V7.632H21.884V10.222H26.56V12H19.98ZM28.2378 12V1.92H31.4998C31.5791 1.92 31.7425 1.92233 31.9898 1.927C32.2371 1.93167 32.4751 1.948 32.7038 1.976C33.5158 2.074 34.2041 2.35633 34.7688 2.823C35.3335 3.28967 35.7628 3.88233 36.0568 4.601C36.3508 5.31967 36.4978 6.106 36.4978 6.96C36.4978 7.814 36.3508 8.60033 36.0568 9.319C35.7628 10.0377 35.3335 10.6303 34.7688 11.097C34.2041 11.5637 33.5158 11.846 32.7038 11.944C32.4751 11.972 32.2371 11.9883 31.9898 11.993C31.7425 11.9977 31.5791 12 31.4998 12H28.2378ZM30.1698 10.208H31.4998C31.6258 10.208 31.7961 10.2057 32.0108 10.201C32.2255 10.1917 32.4191 10.1707 32.5918 10.138C33.0305 10.0493 33.3875 9.844 33.6628 9.522C33.9428 9.2 34.1481 8.81267 34.2788 8.36C34.4141 7.90733 34.4818 7.44067 34.4818 6.96C34.4818 6.456 34.4118 5.97767 34.2718 5.525C34.1365 5.07233 33.9288 4.68967 33.6488 4.377C33.3688 4.06433 33.0165 3.866 32.5918 3.782C32.4191 3.74467 32.2255 3.72367 32.0108 3.719C31.7961 3.71433 31.6258 3.712 31.4998 3.712H30.1698V10.208ZM38.3173 12V1.92H40.2213V12H38.3173ZM44.6578 12V3.698H41.4798V1.92H49.7398V3.698H46.5618V12H44.6578ZM49.8913 12L52.9713 1.92H55.8133L58.8933 12H56.9333L54.1893 3.11H54.5533L51.8513 12H49.8913ZM51.7393 9.9V8.122H57.0593V9.9H51.7393ZM60.148 12V1.92H64.404C64.502 1.92 64.6326 1.92467 64.796 1.934C64.964 1.93867 65.1133 1.95267 65.244 1.976C65.846 2.06933 66.3383 2.26767 66.721 2.571C67.1083 2.87433 67.393 3.257 67.575 3.719C67.757 4.17633 67.848 4.68733 67.848 5.252C67.848 6.09667 67.638 6.82 67.218 7.422C66.798 8.01933 66.14 8.388 65.244 8.528L64.404 8.584H62.052V12H60.148ZM65.832 12L63.844 7.898L65.804 7.52L67.988 12H65.832ZM62.052 6.806H64.32C64.418 6.806 64.5253 6.80133 64.642 6.792C64.7586 6.78267 64.866 6.764 64.964 6.736C65.2206 6.666 65.419 6.54933 65.559 6.386C65.699 6.218 65.7946 6.03367 65.846 5.833C65.902 5.62767 65.93 5.434 65.93 5.252C65.93 5.07 65.902 4.87867 65.846 4.678C65.7946 4.47267 65.699 4.28833 65.559 4.125C65.419 3.957 65.2206 3.838 64.964 3.768C64.866 3.74 64.7586 3.72133 64.642 3.712C64.5253 3.70267 64.418 3.698 64.32 3.698H62.052V6.806Z" fill="white"/>
</svg>
