<svg width="83" height="11" viewBox="0 0 83 11" fill="none" xmlns="http://www.w3.org/2000/svg">
<path d="M5.5 2V10M5.5 10L1 6M5.5 10L10 6" stroke="white" stroke-width="2" stroke-linecap="round" stroke-linejoin="round"/>
<path d="M14.98 11V0.92H21.56V2.698H16.884V4.854H20.72V6.632H16.884V9.222H21.56V11H14.98ZM22.3978 11L25.7858 5.904L22.4958 0.92H24.8338L26.9758 4.28L29.0898 0.92H31.4418L28.1518 5.904L31.5258 11H29.1878L26.9758 7.528L24.7498 11H22.3978ZM32.6441 11V0.92H36.9001C36.9981 0.92 37.1287 0.924666 37.2921 0.933999C37.4601 0.938666 37.6094 0.952666 37.7401 0.976C38.3421 1.06933 38.8344 1.26767 39.2171 1.571C39.6044 1.87433 39.8891 2.257 40.0711 2.719C40.2531 3.17633 40.3441 3.68733 40.3441 4.252C40.3441 4.81667 40.2507 5.33 40.0641 5.792C39.8821 6.24933 39.5974 6.62967 39.2101 6.933C38.8274 7.23633 38.3374 7.43467 37.7401 7.528C37.6094 7.54667 37.4601 7.56067 37.2921 7.57C37.1241 7.57933 36.9934 7.584 36.9001 7.584H34.5481V11H32.6441ZM34.5481 5.806H36.8161C36.9141 5.806 37.0214 5.80133 37.1381 5.792C37.2547 5.78267 37.3621 5.764 37.4601 5.736C37.7167 5.666 37.9151 5.54933 38.0551 5.386C38.1951 5.218 38.2907 5.03367 38.3421 4.833C38.3981 4.62767 38.4261 4.434 38.4261 4.252C38.4261 4.07 38.3981 3.87867 38.3421 3.678C38.2907 3.47267 38.1951 3.28833 38.0551 3.125C37.9151 2.957 37.7167 2.838 37.4601 2.768C37.3621 2.74 37.2547 2.72133 37.1381 2.712C37.0214 2.70267 36.9141 2.698 36.8161 2.698H34.5481V5.806ZM40.3523 11L43.4323 0.92H46.2743L49.3543 11H47.3943L44.6503 2.11H45.0143L42.3123 11H40.3523ZM42.2003 8.9V7.122H47.5203V8.9H42.2003ZM50.6089 11V0.92H52.5409L56.9229 7.64V0.92H58.8549V11H56.9229L52.5409 4.28V11H50.6089ZM60.8081 11V0.92H64.0701C64.1495 0.92 64.3128 0.922333 64.5601 0.927C64.8075 0.931666 65.0455 0.948 65.2741 0.976C66.0861 1.074 66.7745 1.35633 67.3391 1.823C67.9038 2.28967 68.3331 2.88233 68.6271 3.601C68.9211 4.31967 69.0681 5.106 69.0681 5.96C69.0681 6.814 68.9211 7.60033 68.6271 8.319C68.3331 9.03767 67.9038 9.63033 67.3391 10.097C66.7745 10.5637 66.0861 10.846 65.2741 10.944C65.0455 10.972 64.8075 10.9883 64.5601 10.993C64.3128 10.9977 64.1495 11 64.0701 11H60.8081ZM62.7401 9.208H64.0701C64.1961 9.208 64.3665 9.20567 64.5811 9.201C64.7958 9.19167 64.9895 9.17067 65.1621 9.138C65.6008 9.04933 65.9578 8.844 66.2331 8.522C66.5131 8.2 66.7185 7.81267 66.8491 7.36C66.9845 6.90733 67.0521 6.44067 67.0521 5.96C67.0521 5.456 66.9821 4.97767 66.8421 4.525C66.7068 4.07233 66.4991 3.68967 66.2191 3.377C65.9391 3.06433 65.5868 2.866 65.1621 2.782C64.9895 2.74467 64.7958 2.72367 64.5811 2.719C64.3665 2.71433 64.1961 2.712 64.0701 2.712H62.7401V9.208ZM70.8876 11V0.92H72.7916V11H70.8876ZM74.8902 11V0.92H79.1462C79.2442 0.92 79.3748 0.924666 79.5382 0.933999C79.7062 0.938666 79.8555 0.952666 79.9862 0.976C80.5882 1.06933 81.0805 1.26767 81.4632 1.571C81.8505 1.87433 82.1352 2.257 82.3172 2.719C82.4992 3.17633 82.5902 3.68733 82.5902 4.252C82.5902 5.09667 82.3802 5.82 81.9602 6.422C81.5402 7.01933 80.8822 7.388 79.9862 7.528L79.1462 7.584H76.7942V11H74.8902ZM80.5742 11L78.5862 6.898L80.5462 6.52L82.7302 11H80.5742ZM76.7942 5.806H79.0622C79.1602 5.806 79.2675 5.80133 79.3842 5.792C79.5008 5.78267 79.6082 5.764 79.7062 5.736C79.9628 5.666 80.1612 5.54933 80.3012 5.386C80.4412 5.218 80.5368 5.03367 80.5882 4.833C80.6442 4.62767 80.6722 4.434 80.6722 4.252C80.6722 4.07 80.6442 3.87867 80.5882 3.678C80.5368 3.47267 80.4412 3.28833 80.3012 3.125C80.1612 2.957 79.9628 2.838 79.7062 2.768C79.6082 2.74 79.5008 2.72133 79.3842 2.712C79.2675 2.70267 79.1602 2.698 79.0622 2.698H76.7942V5.806Z" fill="white"/>
</svg>
