<svg width="124" height="163" viewBox="0 0 124 163" fill="none" xmlns="http://www.w3.org/2000/svg">
<g filter="url(#filter0_d_0_1)">
<rect x="24" y="16" width="76" height="115" rx="8" fill="white"/>
</g>
<path d="M44.4716 119V107.48H45.8956V112.56H51.9596V107.48H53.3836V119H51.9596V113.912H45.8956V119H44.4716ZM59.3078 119.24C58.4491 119.24 57.7078 119.045 57.0838 118.656C56.4651 118.267 55.9878 117.728 55.6518 117.04C55.3158 116.352 55.1478 115.563 55.1478 114.672C55.1478 113.765 55.3185 112.971 55.6598 112.288C56.0011 111.605 56.4838 111.075 57.1078 110.696C57.7318 110.312 58.4651 110.12 59.3078 110.12C60.1718 110.12 60.9158 110.315 61.5398 110.704C62.1638 111.088 62.6411 111.624 62.9718 112.312C63.3078 112.995 63.4758 113.781 63.4758 114.672C63.4758 115.573 63.3078 116.368 62.9718 117.056C62.6358 117.739 62.1558 118.275 61.5318 118.664C60.9078 119.048 60.1665 119.24 59.3078 119.24ZM59.3078 117.888C60.2038 117.888 60.8705 117.589 61.3078 116.992C61.7451 116.395 61.9638 115.621 61.9638 114.672C61.9638 113.696 61.7425 112.92 61.2998 112.344C60.8571 111.763 60.1931 111.472 59.3078 111.472C58.7051 111.472 58.2091 111.608 57.8198 111.88C57.4305 112.152 57.1398 112.528 56.9478 113.008C56.7558 113.488 56.6598 114.043 56.6598 114.672C56.6598 115.643 56.8838 116.421 57.3318 117.008C57.7798 117.595 58.4385 117.888 59.3078 117.888ZM65.2372 119V110.36H66.5092V112.448L66.3012 112.176C66.4025 111.909 66.5332 111.664 66.6932 111.44C66.8585 111.216 67.0425 111.032 67.2452 110.888C67.4692 110.707 67.7225 110.568 68.0052 110.472C68.2879 110.376 68.5759 110.32 68.8692 110.304C69.1625 110.283 69.4372 110.301 69.6932 110.36V111.696C69.3945 111.616 69.0665 111.595 68.7092 111.632C68.3519 111.669 68.0212 111.8 67.7172 112.024C67.4399 112.221 67.2239 112.461 67.0692 112.744C66.9199 113.027 66.8159 113.333 66.7572 113.664C66.6985 113.989 66.6692 114.323 66.6692 114.664V119H65.2372ZM76.0299 119C75.5179 119.101 75.0113 119.141 74.5099 119.12C74.0139 119.104 73.5713 119.005 73.1819 118.824C72.7926 118.637 72.4966 118.349 72.2939 117.96C72.1233 117.619 72.0299 117.275 72.0139 116.928C72.0033 116.576 71.9979 116.179 71.9979 115.736V107.96H73.4219V115.672C73.4219 116.024 73.4246 116.325 73.4299 116.576C73.4406 116.827 73.4966 117.043 73.5979 117.224C73.7899 117.565 74.0939 117.765 74.5099 117.824C74.9313 117.883 75.4379 117.867 76.0299 117.776V119ZM70.2459 111.536V110.36H76.0299V111.536H70.2459ZM77.9441 108.832V107.36H79.3681V108.832H77.9441ZM77.9441 119V110.36H79.3681V119H77.9441Z" fill="#56BA50"/>
<path d="M74.3519 41.6362C72.9495 41.5906 72.3136 41.5808 71.4395 41.7602C70.1852 42.0207 68.9968 42.5333 67.9466 43.2669C66.8782 44.0755 66.0524 45.1619 65.5593 46.4076C64.9429 47.9176 67.0497 63.2624 71.2047 84.4157C71.5993 86.4247 72.1211 87.5172 74.8868 87.7064C77.9231 87.9118 79.6908 71.6506 82.7695 49.2222C82.7532 47.9437 83.0957 44.5747 81.0736 43.3191C80.5681 43.0191 78.1123 41.77 74.3519 41.6362Z" stroke="#56BA50" stroke-width="2" stroke-miterlimit="10" stroke-linecap="round"/>
<path d="M62.3564 30.2117C62.4184 30.4628 69.0129 35.8017 70.6469 41.3917" stroke="#56BA50" stroke-width="2" stroke-miterlimit="10" stroke-linecap="round"/>
<path d="M71.3384 25C71.8406 25.2511 74.124 34.325 74.0001 41.5" stroke="#56BA50" stroke-width="2" stroke-miterlimit="10" stroke-linecap="round"/>
<path d="M82.0163 31.5945C79.4002 34.473 77.7481 38.0965 77.2905 41.9591" stroke="#56BA50" stroke-width="2" stroke-miterlimit="10" stroke-linecap="round"/>
<path d="M66 56.4999C63.5342 55.0542 61.5101 54.5655 58.6548 54.6979C56.3064 54.8235 54.023 55.5137 51.9984 56.7102C51.02 56.0579 46.5291 53.1781 41.0695 54.4468C38.9378 54.8967 36.9777 55.9429 35.4176 57.4636C32.3519 60.526 32.1562 64.5342 32.0257 66.7585C31.7322 72.3028 34.0217 76.3697 35.2871 78.5679C37.3776 82.1848 39.928 86.5941 44.3309 86.9823C47.5923 87.2725 50.2633 85.2015 51.3657 84.2199C52.1875 84.9048 54.8814 86.9757 58.1493 86.48C60.292 86.1539 61.6585 84.8884 63.8045 82.837C65.9904 80.742 67.8514 78.3325 69.326 75.6881" stroke="#56BA50" stroke-width="2" stroke-miterlimit="10" stroke-linecap="round"/>
<path d="M51.9919 56.7103C51.9919 56.7103 48.9185 48.0893 57.0002 47" stroke="#56BA50" stroke-width="2" stroke-miterlimit="10" stroke-linecap="round"/>
<path d="M43.7016 41.1731C43.7016 41.1731 52.4095 41.3427 52.2432 47.5393V49.3396C46.9141 50.9898 43.1244 49.894 43.7016 41.1731Z" stroke="#56BA50" stroke-width="2" stroke-miterlimit="10" stroke-linecap="round"/>
<defs>
<filter id="filter0_d_0_1" x="0" y="0" width="124" height="163" filterUnits="userSpaceOnUse" color-interpolation-filters="sRGB">
<feFlood flood-opacity="0" result="BackgroundImageFix"/>
<feColorMatrix in="SourceAlpha" type="matrix" values="0 0 0 0 0 0 0 0 0 0 0 0 0 0 0 0 0 0 127 0" result="hardAlpha"/>
<feOffset dy="8"/>
<feGaussianBlur stdDeviation="12"/>
<feComposite in2="hardAlpha" operator="out"/>
<feColorMatrix type="matrix" values="0 0 0 0 0.439216 0 0 0 0 0.564706 0 0 0 0 0.690196 0 0 0 0.2 0"/>
<feBlend mode="normal" in2="BackgroundImageFix" result="effect1_dropShadow_0_1"/>
<feBlend mode="normal" in="SourceGraphic" in2="effect1_dropShadow_0_1" result="shape"/>
</filter>
</defs>
</svg>
