<svg width="285" height="96" viewBox="0 0 285 96" fill="none" xmlns="http://www.w3.org/2000/svg">
<g filter="url(#filter0_d_367_13917)">
<rect x="16" y="16" width="245" height="48" rx="5" fill="#FFD863"/>
</g>
<path d="M90.1981 46V34.48H94.8541C94.9661 34.48 95.1048 34.4853 95.2701 34.496C95.4355 34.5013 95.5928 34.5173 95.7421 34.544C96.3821 34.6453 96.9155 34.864 97.3421 35.2C97.7741 35.536 98.0968 35.96 98.3101 36.472C98.5235 36.984 98.6301 37.5493 98.6301 38.168C98.6301 38.792 98.5235 39.36 98.3101 39.872C98.0968 40.384 97.7741 40.808 97.3421 41.144C96.9155 41.48 96.3821 41.6987 95.7421 41.8C95.5928 41.8213 95.4328 41.8373 95.2621 41.848C95.0968 41.8587 94.9608 41.864 94.8541 41.864H91.8701V46H90.1981ZM91.8701 40.28H94.7901C94.8968 40.28 95.0141 40.2747 95.1421 40.264C95.2755 40.2533 95.4008 40.2347 95.5181 40.208C95.8595 40.128 96.1341 39.9813 96.3421 39.768C96.5501 39.5493 96.6995 39.2987 96.7901 39.016C96.8808 38.7333 96.9261 38.4507 96.9261 38.168C96.9261 37.8853 96.8808 37.6053 96.7901 37.328C96.6995 37.0453 96.5501 36.7973 96.3421 36.584C96.1341 36.3653 95.8595 36.216 95.5181 36.136C95.4008 36.104 95.2755 36.0827 95.1421 36.072C95.0141 36.0613 94.8968 36.056 94.7901 36.056H91.8701V40.28ZM100.229 46V37.36H101.717V39.456L101.509 39.184C101.616 38.9067 101.755 38.6533 101.925 38.424C102.096 38.1893 102.293 37.9973 102.517 37.848C102.736 37.688 102.979 37.5653 103.245 37.48C103.517 37.3893 103.795 37.336 104.077 37.32C104.36 37.2987 104.632 37.312 104.893 37.36V38.928C104.611 38.8533 104.296 38.832 103.949 38.864C103.608 38.896 103.293 39.0053 103.005 39.192C102.733 39.368 102.517 39.5813 102.357 39.832C102.203 40.0827 102.091 40.3627 102.021 40.672C101.952 40.976 101.917 41.2987 101.917 41.64V46H100.229ZM110.013 46.24C109.149 46.24 108.399 46.0453 107.765 45.656C107.13 45.2667 106.639 44.7307 106.293 44.048C105.951 43.36 105.781 42.568 105.781 41.672C105.781 40.7707 105.957 39.9787 106.309 39.296C106.661 38.608 107.154 38.0747 107.789 37.696C108.423 37.312 109.165 37.12 110.013 37.12C110.877 37.12 111.626 37.3147 112.261 37.704C112.895 38.0933 113.386 38.6293 113.733 39.312C114.079 39.9947 114.253 40.7813 114.253 41.672C114.253 42.5733 114.077 43.368 113.725 44.056C113.378 44.7387 112.887 45.2747 112.253 45.664C111.618 46.048 110.871 46.24 110.013 46.24ZM110.013 44.664C110.839 44.664 111.455 44.3867 111.861 43.832C112.271 43.272 112.477 42.552 112.477 41.672C112.477 40.7707 112.269 40.0507 111.853 39.512C111.442 38.968 110.829 38.696 110.013 38.696C109.453 38.696 108.991 38.824 108.629 39.08C108.266 39.3307 107.997 39.68 107.821 40.128C107.645 40.5707 107.557 41.0853 107.557 41.672C107.557 42.5787 107.765 43.304 108.181 43.848C108.597 44.392 109.207 44.664 110.013 44.664ZM119.707 46.24C118.821 46.24 118.069 46.0427 117.451 45.648C116.832 45.2533 116.357 44.712 116.027 44.024C115.701 43.336 115.536 42.5547 115.531 41.68C115.536 40.7893 115.707 40.0027 116.043 39.32C116.379 38.632 116.859 38.0933 117.483 37.704C118.107 37.3147 118.856 37.12 119.731 37.12C120.675 37.12 121.48 37.3547 122.147 37.824C122.819 38.2933 123.261 38.936 123.475 39.752L121.811 40.232C121.645 39.7467 121.373 39.3707 120.995 39.104C120.621 38.832 120.192 38.696 119.707 38.696C119.157 38.696 118.707 38.8267 118.355 39.088C118.003 39.344 117.741 39.696 117.571 40.144C117.4 40.592 117.312 41.104 117.307 41.68C117.312 42.5707 117.515 43.2907 117.915 43.84C118.32 44.3893 118.917 44.664 119.707 44.664C120.245 44.664 120.68 44.5413 121.011 44.296C121.347 44.0453 121.603 43.688 121.779 43.224L123.475 43.624C123.192 44.4667 122.725 45.1147 122.075 45.568C121.424 46.016 120.635 46.24 119.707 46.24ZM128.36 46.232C127.763 46.232 127.262 46.136 126.856 45.944C126.451 45.752 126.12 45.5013 125.864 45.192C125.614 44.8773 125.422 44.536 125.288 44.168C125.155 43.8 125.064 43.44 125.016 43.088C124.968 42.736 124.944 42.4267 124.944 42.16V37.36H126.64V41.608C126.64 41.944 126.667 42.2907 126.72 42.648C126.779 43 126.886 43.328 127.04 43.632C127.2 43.936 127.422 44.1813 127.704 44.368C127.992 44.5547 128.366 44.648 128.824 44.648C129.123 44.648 129.406 44.6 129.672 44.504C129.939 44.4027 130.171 44.2427 130.368 44.024C130.571 43.8053 130.728 43.5173 130.84 43.16C130.958 42.8027 131.016 42.368 131.016 41.856L132.056 42.248C132.056 43.032 131.91 43.7253 131.616 44.328C131.323 44.9253 130.902 45.392 130.352 45.728C129.803 46.064 129.139 46.232 128.36 46.232ZM131.216 46V43.504H131.016V37.36H132.704V46H131.216ZM134.948 46V37.36H136.436V39.456L136.228 39.184C136.335 38.9067 136.473 38.6533 136.644 38.424C136.815 38.1893 137.012 37.9973 137.236 37.848C137.455 37.688 137.697 37.5653 137.964 37.48C138.236 37.3893 138.513 37.336 138.796 37.32C139.079 37.2987 139.351 37.312 139.612 37.36V38.928C139.329 38.8533 139.015 38.832 138.668 38.864C138.327 38.896 138.012 39.0053 137.724 39.192C137.452 39.368 137.236 39.5813 137.076 39.832C136.921 40.0827 136.809 40.3627 136.74 40.672C136.671 40.976 136.636 41.2987 136.636 41.64V46H134.948ZM143.326 46.24C142.686 46.24 142.15 46.1227 141.718 45.888C141.286 45.648 140.958 45.3333 140.734 44.944C140.515 44.5493 140.406 44.1173 140.406 43.648C140.406 43.2107 140.483 42.8267 140.638 42.496C140.792 42.1653 141.022 41.8853 141.326 41.656C141.63 41.4213 142.003 41.232 142.446 41.088C142.83 40.976 143.264 40.8773 143.75 40.792C144.235 40.7067 144.744 40.6267 145.278 40.552C145.816 40.4773 146.35 40.4027 146.878 40.328L146.27 40.664C146.28 39.9867 146.136 39.4853 145.838 39.16C145.544 38.8293 145.038 38.664 144.318 38.664C143.864 38.664 143.448 38.7707 143.07 38.984C142.691 39.192 142.427 39.5387 142.278 40.024L140.718 39.544C140.931 38.8027 141.336 38.2133 141.934 37.776C142.536 37.3387 143.336 37.12 144.334 37.12C145.107 37.12 145.779 37.2533 146.35 37.52C146.926 37.7813 147.347 38.1973 147.614 38.768C147.752 39.0507 147.838 39.3493 147.87 39.664C147.902 39.9787 147.918 40.3173 147.918 40.68V46H146.438V44.024L146.726 44.28C146.368 44.9413 145.912 45.4347 145.358 45.76C144.808 46.08 144.131 46.24 143.326 46.24ZM143.622 44.872C144.096 44.872 144.504 44.7893 144.846 44.624C145.187 44.4533 145.462 44.2373 145.67 43.976C145.878 43.7147 146.014 43.4427 146.078 43.16C146.168 42.904 146.219 42.616 146.23 42.296C146.246 41.976 146.254 41.72 146.254 41.528L146.798 41.728C146.27 41.808 145.79 41.88 145.358 41.944C144.926 42.008 144.534 42.072 144.182 42.136C143.835 42.1947 143.526 42.2667 143.254 42.352C143.024 42.432 142.819 42.528 142.638 42.64C142.462 42.752 142.32 42.888 142.214 43.048C142.112 43.208 142.062 43.4027 142.062 43.632C142.062 43.856 142.118 44.064 142.23 44.256C142.342 44.4427 142.512 44.592 142.742 44.704C142.971 44.816 143.264 44.872 143.622 44.872ZM149.995 46V37.36H151.483V39.456L151.275 39.184C151.382 38.9067 151.52 38.6533 151.691 38.424C151.862 38.1893 152.059 37.9973 152.283 37.848C152.502 37.688 152.744 37.5653 153.011 37.48C153.283 37.3893 153.56 37.336 153.843 37.32C154.126 37.2987 154.398 37.312 154.659 37.36V38.928C154.376 38.8533 154.062 38.832 153.715 38.864C153.374 38.896 153.059 39.0053 152.771 39.192C152.499 39.368 152.283 39.5813 152.123 39.832C151.968 40.0827 151.856 40.3627 151.787 40.672C151.718 40.976 151.683 41.2987 151.683 41.64V46H149.995ZM165.45 46V41.752C165.45 41.416 165.42 41.072 165.362 40.72C165.308 40.3627 165.202 40.032 165.042 39.728C164.887 39.424 164.666 39.1787 164.378 38.992C164.095 38.8053 163.724 38.712 163.266 38.712C162.967 38.712 162.684 38.7627 162.418 38.864C162.151 38.96 161.916 39.1173 161.714 39.336C161.516 39.5547 161.359 39.8427 161.242 40.2C161.13 40.5573 161.074 40.992 161.074 41.504L160.034 41.112C160.034 40.328 160.18 39.6373 160.474 39.04C160.767 38.4373 161.188 37.968 161.738 37.632C162.287 37.296 162.951 37.128 163.73 37.128C164.327 37.128 164.828 37.224 165.234 37.416C165.639 37.608 165.967 37.8613 166.218 38.176C166.474 38.4853 166.668 38.824 166.802 39.192C166.935 39.56 167.026 39.92 167.074 40.272C167.122 40.624 167.146 40.9333 167.146 41.2V46H165.45ZM159.378 46V37.36H160.874V39.856H161.074V46H159.378ZM171.669 46.24C171.029 46.24 170.493 46.1227 170.061 45.888C169.629 45.648 169.301 45.3333 169.077 44.944C168.859 44.5493 168.749 44.1173 168.749 43.648C168.749 43.2107 168.827 42.8267 168.981 42.496C169.136 42.1653 169.365 41.8853 169.669 41.656C169.973 41.4213 170.347 41.232 170.789 41.088C171.173 40.976 171.608 40.8773 172.093 40.792C172.579 40.7067 173.088 40.6267 173.621 40.552C174.16 40.4773 174.693 40.4027 175.221 40.328L174.613 40.664C174.624 39.9867 174.48 39.4853 174.181 39.16C173.888 38.8293 173.381 38.664 172.661 38.664C172.208 38.664 171.792 38.7707 171.413 38.984C171.035 39.192 170.771 39.5387 170.621 40.024L169.061 39.544C169.275 38.8027 169.68 38.2133 170.277 37.776C170.88 37.3387 171.68 37.12 172.677 37.12C173.451 37.12 174.123 37.2533 174.693 37.52C175.269 37.7813 175.691 38.1973 175.957 38.768C176.096 39.0507 176.181 39.3493 176.213 39.664C176.245 39.9787 176.261 40.3173 176.261 40.68V46H174.781V44.024L175.069 44.28C174.712 44.9413 174.256 45.4347 173.701 45.76C173.152 46.08 172.475 46.24 171.669 46.24ZM171.965 44.872C172.44 44.872 172.848 44.7893 173.189 44.624C173.531 44.4533 173.805 44.2373 174.013 43.976C174.221 43.7147 174.357 43.4427 174.421 43.16C174.512 42.904 174.563 42.616 174.573 42.296C174.589 41.976 174.597 41.72 174.597 41.528L175.141 41.728C174.613 41.808 174.133 41.88 173.701 41.944C173.269 42.008 172.877 42.072 172.525 42.136C172.179 42.1947 171.869 42.2667 171.597 42.352C171.368 42.432 171.163 42.528 170.981 42.64C170.805 42.752 170.664 42.888 170.557 43.048C170.456 43.208 170.405 43.4027 170.405 43.632C170.405 43.856 170.461 44.064 170.573 44.256C170.685 44.4427 170.856 44.592 171.085 44.704C171.315 44.816 171.608 44.872 171.965 44.872ZM181.702 46V34.24H183.374V46H181.702ZM189.528 46.24C188.664 46.24 187.915 46.0453 187.28 45.656C186.646 45.2667 186.155 44.7307 185.808 44.048C185.467 43.36 185.296 42.568 185.296 41.672C185.296 40.7707 185.472 39.9787 185.824 39.296C186.176 38.608 186.67 38.0747 187.304 37.696C187.939 37.312 188.68 37.12 189.528 37.12C190.392 37.12 191.142 37.3147 191.776 37.704C192.411 38.0933 192.902 38.6293 193.248 39.312C193.595 39.9947 193.768 40.7813 193.768 41.672C193.768 42.5733 193.592 43.368 193.24 44.056C192.894 44.7387 192.403 45.2747 191.768 45.664C191.134 46.048 190.387 46.24 189.528 46.24ZM189.528 44.664C190.355 44.664 190.971 44.3867 191.376 43.832C191.787 43.272 191.992 42.552 191.992 41.672C191.992 40.7707 191.784 40.0507 191.368 39.512C190.958 38.968 190.344 38.696 189.528 38.696C188.968 38.696 188.507 38.824 188.144 39.08C187.782 39.3307 187.512 39.68 187.336 40.128C187.16 40.5707 187.072 41.0853 187.072 41.672C187.072 42.5787 187.28 43.304 187.696 43.848C188.112 44.392 188.723 44.664 189.528 44.664ZM194.246 49.84V48.256H194.686C195.129 48.256 195.452 48.1493 195.654 47.936C195.862 47.7227 195.966 47.3947 195.966 46.952V37.36H197.646V47.632C197.646 48.336 197.452 48.88 197.062 49.264C196.678 49.648 196.126 49.84 195.406 49.84H194.246ZM195.966 35.944V34.32H197.646V35.944H195.966ZM202.373 46.24C201.733 46.24 201.197 46.1227 200.765 45.888C200.333 45.648 200.005 45.3333 199.781 44.944C199.562 44.5493 199.453 44.1173 199.453 43.648C199.453 43.2107 199.53 42.8267 199.685 42.496C199.839 42.1653 200.069 41.8853 200.373 41.656C200.677 41.4213 201.05 41.232 201.493 41.088C201.877 40.976 202.311 40.8773 202.797 40.792C203.282 40.7067 203.791 40.6267 204.325 40.552C204.863 40.4773 205.397 40.4027 205.925 40.328L205.317 40.664C205.327 39.9867 205.183 39.4853 204.885 39.16C204.591 38.8293 204.085 38.664 203.365 38.664C202.911 38.664 202.495 38.7707 202.117 38.984C201.738 39.192 201.474 39.5387 201.325 40.024L199.765 39.544C199.978 38.8027 200.383 38.2133 200.981 37.776C201.583 37.3387 202.383 37.12 203.381 37.12C204.154 37.12 204.826 37.2533 205.397 37.52C205.973 37.7813 206.394 38.1973 206.661 38.768C206.799 39.0507 206.885 39.3493 206.917 39.664C206.949 39.9787 206.965 40.3173 206.965 40.68V46H205.485V44.024L205.773 44.28C205.415 44.9413 204.959 45.4347 204.405 45.76C203.855 46.08 203.178 46.24 202.373 46.24ZM202.669 44.872C203.143 44.872 203.551 44.7893 203.893 44.624C204.234 44.4533 204.509 44.2373 204.717 43.976C204.925 43.7147 205.061 43.4427 205.125 43.16C205.215 42.904 205.266 42.616 205.277 42.296C205.293 41.976 205.301 41.72 205.301 41.528L205.845 41.728C205.317 41.808 204.837 41.88 204.405 41.944C203.973 42.008 203.581 42.072 203.229 42.136C202.882 42.1947 202.573 42.2667 202.301 42.352C202.071 42.432 201.866 42.528 201.685 42.64C201.509 42.752 201.367 42.888 201.261 43.048C201.159 43.208 201.109 43.4027 201.109 43.632C201.109 43.856 201.165 44.064 201.277 44.256C201.389 44.4427 201.559 44.592 201.789 44.704C202.018 44.816 202.311 44.872 202.669 44.872Z" fill="#393939"/>
<circle cx="40" cy="40" r="6.5" stroke="white" stroke-width="3"/>
<circle cx="40" cy="40" r="3" fill="white"/>
<defs>
<filter id="filter0_d_367_13917" x="-8" y="0" width="293" height="96" filterUnits="userSpaceOnUse" color-interpolation-filters="sRGB">
<feFlood flood-opacity="0" result="BackgroundImageFix"/>
<feColorMatrix in="SourceAlpha" type="matrix" values="0 0 0 0 0 0 0 0 0 0 0 0 0 0 0 0 0 0 127 0" result="hardAlpha"/>
<feOffset dy="8"/>
<feGaussianBlur stdDeviation="12"/>
<feComposite in2="hardAlpha" operator="out"/>
<feColorMatrix type="matrix" values="0 0 0 0 0.439216 0 0 0 0 0.564706 0 0 0 0 0.690196 0 0 0 0.2 0"/>
<feBlend mode="normal" in2="BackgroundImageFix" result="effect1_dropShadow_367_13917"/>
<feBlend mode="normal" in="SourceGraphic" in2="effect1_dropShadow_367_13917" result="shape"/>
</filter>
</defs>
</svg>
