<svg width="360" height="724" viewBox="0 0 360 724" fill="none" xmlns="http://www.w3.org/2000/svg">
<rect y="60" width="360" height="664" fill="white"/>
<circle cx="206" cy="397" r="84" fill="#FFFBD3"/>
<circle cx="269" cy="217" r="84" fill="#F0F0F0"/>
<circle cx="181" cy="400" r="84" fill="#F0F0F0"/>
<circle cx="34" cy="219" r="56" fill="#F0F0F0"/>
<circle cx="156" cy="624" r="56" fill="#F0F0F0"/>
<circle cx="112" cy="141" r="56" fill="#F0F0F0"/>
<g filter="url(#filter0_i_287_3641)">
<path d="M37.5 148H-17C-19.7614 148 -22 145.761 -22 143V27C-22 24.2386 -19.7614 22 -17 22H368.5C371.261 22 373.5 24.2386 373.5 27V128.5C373.5 131.261 371.261 133.5 368.5 133.5H189C186.239 133.5 184 131.261 184 128.5V114C184 111.239 181.761 109 179 109H47.5C44.7386 109 42.5 111.239 42.5 114V143C42.5 145.761 40.2614 148 37.5 148Z" fill="#F0F0F0"/>
</g>
<g filter="url(#filter1_i_287_3641)">
<path d="M241.5 593C241.5 590.239 243.739 588 246.5 588H369.5C372.261 588 374.5 590.239 374.5 593V710C374.5 712.761 372.261 715 369.5 715H246.5C243.739 715 241.5 712.761 241.5 710V593Z" fill="#F0F0F0"/>
</g>
<g filter="url(#filter2_i_287_3641)">
<rect x="-40" y="623" width="96" height="98" rx="5" fill="#F0F0F0"/>
</g>
<rect x="144" y="616" width="22" height="46" rx="4" fill="#F0F0F0" stroke="#CBCBCB" stroke-width="2"/>
<rect x="200" y="616" width="22" height="46" rx="4" fill="#F0F0F0" stroke="#CBCBCB" stroke-width="2"/>
<g filter="url(#filter3_d_287_3641)">
<rect x="304" y="304" width="40" height="180" rx="5" fill="white"/>
<rect x="305" y="305" width="38" height="178" rx="4" stroke="#CBCBCB" stroke-width="2"/>
</g>
<g filter="url(#filter4_d_287_3641)">
<rect x="304" y="208" width="40" height="88" rx="5" fill="white"/>
<rect x="305" y="209" width="38" height="86" rx="4" stroke="#CBCBCB" stroke-width="2"/>
</g>
<g filter="url(#filter5_d_287_3641)">
<rect x="228" y="224" width="40" height="56" rx="5" fill="white"/>
<rect x="229" y="225" width="38" height="54" rx="4" stroke="#CBCBCB" stroke-width="2"/>
</g>
<g filter="url(#filter6_d_287_3641)">
<rect x="186" y="197" width="26" height="80" rx="5" fill="white"/>
<rect x="187" y="198" width="24" height="78" rx="4" stroke="#CBCBCB" stroke-width="2"/>
</g>
<g filter="url(#filter7_d_287_3641)">
<rect x="93" y="192" width="40" height="80" rx="5" fill="white"/>
<rect x="94" y="193" width="38" height="78" rx="4" stroke="#CBCBCB" stroke-width="2"/>
</g>
<g filter="url(#filter8_d_287_3641)">
<rect x="157" y="189" width="26" height="57" rx="5" fill="white"/>
<rect x="158" y="190" width="24" height="55" rx="4" stroke="#CBCBCB" stroke-width="2"/>
</g>
<g filter="url(#filter9_d_287_3641)">
<rect x="158" y="250" width="25" height="32" rx="5" fill="white"/>
<rect x="159" y="251" width="23" height="30" rx="4" stroke="#CBCBCB" stroke-width="2"/>
</g>
<g filter="url(#filter10_d_287_3641)">
<rect x="315.045" y="145" width="40" height="49.5606" rx="5" transform="rotate(45 315.045 145)" fill="white"/>
<rect x="315.045" y="146.414" width="38" height="47.5606" rx="4" transform="rotate(45 315.045 146.414)" stroke="#CBCBCB" stroke-width="2"/>
</g>
<g filter="url(#filter11_d_287_3641)">
<rect x="282" y="148" width="40" height="88" rx="5" transform="rotate(90 282 148)" fill="white"/>
<rect x="281" y="149" width="38" height="86" rx="4" transform="rotate(90 281 149)" stroke="#CBCBCB" stroke-width="2"/>
</g>
<g filter="url(#filter12_d_287_3641)">
<rect x="162" y="119" width="40" height="104" rx="5" transform="rotate(90 162 119)" fill="white"/>
<rect x="161" y="120" width="38" height="102" rx="4" transform="rotate(90 161 120)" stroke="#CBCBCB" stroke-width="2"/>
</g>
<g filter="url(#filter13_d_287_3641)">
<rect x="208" y="320" width="40" height="160" rx="5" fill="white"/>
<rect x="209" y="321" width="38" height="158" rx="4" stroke="#CBCBCB" stroke-width="2"/>
</g>
<g filter="url(#filter14_d_287_3641)">
<rect x="112" y="320" width="40" height="160" rx="5" fill="white"/>
<rect x="113" y="321" width="38" height="158" rx="4" stroke="#CBCBCB" stroke-width="2"/>
</g>
<g filter="url(#filter15_d_287_3641)">
<rect x="16" y="392" width="40" height="88" rx="5" fill="white"/>
<rect x="17" y="393" width="38" height="86" rx="4" stroke="#CBCBCB" stroke-width="2"/>
</g>
<g filter="url(#filter16_d_287_3641)">
<rect x="16" y="493" width="40" height="52" rx="5" fill="white"/>
<rect x="17" y="494" width="38" height="50" rx="4" stroke="#CBCBCB" stroke-width="2"/>
</g>
<g filter="url(#filter17_d_287_3641)">
<rect x="16" y="553" width="40" height="52" rx="5" fill="white"/>
<rect x="17" y="554" width="38" height="50" rx="4" stroke="#CBCBCB" stroke-width="2"/>
</g>
<g filter="url(#filter18_d_287_3641)">
<rect x="143" y="528" width="24" height="80" rx="5" fill="white"/>
<rect x="144" y="529" width="22" height="78" rx="4" stroke="#CBCBCB" stroke-width="2"/>
</g>
<g filter="url(#filter19_d_287_3641)">
<rect x="95" y="529" width="16" height="77" rx="5" fill="white"/>
<rect x="96" y="530" width="14" height="75" rx="4" stroke="#CBCBCB" stroke-width="2"/>
</g>
<g filter="url(#filter20_d_287_3641)">
<rect x="199" y="528" width="24" height="80" rx="5" fill="white"/>
<rect x="200" y="529" width="22" height="78" rx="4" stroke="#CBCBCB" stroke-width="2"/>
</g>
<g filter="url(#filter21_d_287_3641)">
<rect x="16" y="296" width="40" height="88" rx="5" fill="white"/>
<rect x="17" y="297" width="38" height="86" rx="4" stroke="#CBCBCB" stroke-width="2"/>
</g>
<g filter="url(#filter22_d_287_3641)">
<rect x="16" y="224" width="40" height="56" rx="5" fill="white"/>
<rect x="17" y="225" width="38" height="54" rx="4" stroke="#CBCBCB" stroke-width="2"/>
</g>
<g filter="url(#filter23_d_287_3641)">
<rect x="16" y="158" width="40" height="56" rx="5" fill="white"/>
<rect x="17" y="159" width="38" height="54" rx="4" stroke="#CBCBCB" stroke-width="2"/>
</g>
<g filter="url(#filter24_d_287_3641)">
<rect x="270" y="525" width="74" height="43" rx="5" fill="white"/>
<rect x="271" y="526" width="72" height="41" rx="4" stroke="#CBCBCB" stroke-width="2"/>
</g>
<circle cx="127" cy="623" r="16" fill="#ABABAB"/>
<path d="M122.309 617.81C123.989 617.81 125.351 616.457 125.351 614.788C125.351 613.119 123.989 611.766 122.309 611.766C120.629 611.766 119.268 613.119 119.268 614.788C119.268 616.457 120.629 617.81 122.309 617.81Z" fill="#ABABAB" stroke="white" stroke-miterlimit="10"/>
<path d="M127.491 622.127C127.491 620.1 125.171 618.456 122.309 618.456C119.447 618.456 117.128 620.1 117.128 622.127C117.128 623.482 118.165 624.667 119.708 625.305" fill="#ABABAB"/>
<path d="M127.491 622.127C127.491 620.1 125.171 618.456 122.309 618.456C119.447 618.456 117.128 620.1 117.128 622.127C117.128 623.482 118.165 624.667 119.708 625.305" stroke="white" stroke-miterlimit="10"/>
<path d="M131.678 622.127V619.056" stroke="white" stroke-miterlimit="10"/>
<path d="M135.13 622.127H122.048C120.756 622.127 119.708 623.168 119.708 624.453V630.547C119.708 631.831 120.756 632.872 122.048 632.872H135.13C136.422 632.872 137.47 631.831 137.47 630.547V624.453C137.47 623.168 136.422 622.127 135.13 622.127Z" fill="#ABABAB" stroke="white" stroke-miterlimit="10"/>
<path d="M133.231 616.067H130.126C129.296 616.067 128.622 616.736 128.622 617.561C128.622 618.386 129.296 619.056 130.126 619.056H133.231C134.062 619.056 134.735 618.386 134.735 617.561C134.735 616.736 134.062 616.067 133.231 616.067Z" fill="#ABABAB" stroke="white" stroke-miterlimit="10"/>
<g filter="url(#filter25_d_287_3641)">
<rect x="232" y="525" width="29" height="43" rx="5" fill="white"/>
<rect x="233" y="526" width="27" height="41" rx="4" stroke="#CBCBCB" stroke-width="2"/>
</g>
<circle cx="183" cy="623" r="16" fill="#ABABAB"/>
<path d="M178.309 617.81C179.989 617.81 181.351 616.457 181.351 614.788C181.351 613.119 179.989 611.766 178.309 611.766C176.629 611.766 175.268 613.119 175.268 614.788C175.268 616.457 176.629 617.81 178.309 617.81Z" fill="#ABABAB" stroke="white" stroke-miterlimit="10"/>
<path d="M183.491 622.127C183.491 620.1 181.171 618.456 178.309 618.456C175.447 618.456 173.128 620.1 173.128 622.127C173.128 623.482 174.165 624.667 175.708 625.305" fill="#ABABAB"/>
<path d="M183.491 622.127C183.491 620.1 181.171 618.456 178.309 618.456C175.447 618.456 173.128 620.1 173.128 622.127C173.128 623.482 174.165 624.667 175.708 625.305" stroke="white" stroke-miterlimit="10"/>
<path d="M187.678 622.127V619.056" stroke="white" stroke-miterlimit="10"/>
<path d="M191.13 622.127H178.048C176.756 622.127 175.708 623.168 175.708 624.453V630.547C175.708 631.831 176.756 632.872 178.048 632.872H191.13C192.422 632.872 193.47 631.831 193.47 630.547V624.453C193.47 623.168 192.422 622.127 191.13 622.127Z" fill="#ABABAB" stroke="white" stroke-miterlimit="10"/>
<path d="M189.231 616.067H186.126C185.296 616.067 184.622 616.736 184.622 617.561C184.622 618.386 185.296 619.056 186.126 619.056H189.231C190.062 619.056 190.735 618.386 190.735 617.561C190.735 616.736 190.062 616.067 189.231 616.067Z" fill="#ABABAB" stroke="white" stroke-miterlimit="10"/>
<circle cx="112" cy="139" r="16" fill="#ABABAB"/>
<path d="M100.311 137.564C100.363 137.803 100.388 138.046 100.386 138.29L100.331 139.412L100.41 142.637C100.498 142.983 100.695 143.47 101.152 143.734C101.375 143.859 101.626 143.927 101.883 143.934C102.687 143.966 105.226 143.956 108.663 143.884C108.86 143.869 109.171 143.813 109.393 143.584C109.634 143.338 109.658 143.01 109.666 142.853C109.699 142.256 109.666 140.505 109.632 138.337C109.624 137.806 109.959 136.944 109.96 136.941C110.284 136.316 110.635 135.646 110.697 135.323C110.909 134.21 109.743 132.775 108.816 132.309C106.539 131.163 103.55 131.175 101.724 132.065C101.201 132.324 99.3682 133.413 99.3682 135.079C99.3682 136.088 100.197 136.868 100.311 137.564Z" stroke="white" stroke-miterlimit="10"/>
<path d="M104.924 131.422H113.761C115.041 131.445 116.385 131.726 117.541 132.309C118.468 132.775 119.635 134.21 119.423 135.323C119.36 135.646 119.01 136.315 118.686 136.941C118.557 137.279 118.458 137.627 118.39 137.982V139.243" stroke="white" stroke-miterlimit="10"/>
<path d="M108.267 143.891C108.716 143.891 109.223 143.902 110.454 143.909Z" fill="#D9D9D9"/>
<path d="M108.267 143.891C108.716 143.891 109.223 143.902 110.454 143.909" stroke="white" stroke-miterlimit="10"/>
<path d="M116.982 143.344C117.732 142.369 118.295 141.496 118.548 141.104C118.705 140.874 118.799 140.609 118.822 140.335C118.832 140.087 118.788 139.839 118.694 139.608C118.6 139.377 118.457 139.168 118.275 138.993C117.351 138.208 114.619 139.415 112.834 140.907C110.44 142.909 109.887 145.311 110.035 146.317C110.061 146.595 110.181 146.858 110.376 147.064C110.809 147.487 111.517 147.428 111.791 147.404C112.566 147.338 113.368 146.92 114.138 146.33" stroke="white" stroke-miterlimit="10"/>
<path d="M119.135 143.104C116.39 143.053 114.595 144.29 114.086 145.022C113.935 145.217 113.856 145.454 113.858 145.697C113.884 146.212 114.375 146.568 114.566 146.708C116.543 148.145 121.572 146.746 122.697 146.433C122.937 146.371 123.155 146.251 123.333 146.084C123.488 145.93 123.609 145.746 123.687 145.544C123.765 145.343 123.798 145.128 123.786 144.913C123.662 143.893 121.179 143.142 119.135 143.104Z" stroke="white" stroke-miterlimit="10"/>
<path d="M110.72 143.485C111.54 143.821 112.306 144.27 112.992 144.819C113.507 145.222 112.701 142.854 111.072 142.884" stroke="white" stroke-miterlimit="10"/>
<path d="M111.714 142.02C112.594 142.356 113.415 142.819 114.152 143.393C114.667 143.795 113.859 141.427 112.232 141.457" stroke="white" stroke-miterlimit="10"/>
<path d="M115.014 144.35C115.825 144.819 116.558 145.403 117.188 146.084C117.628 146.563 117.23 144.099 115.619 143.87" stroke="white" stroke-miterlimit="10"/>
<path d="M116.698 143.502C117.475 144.115 118.202 144.784 118.873 145.503C119.313 145.981 119.118 143.461 117.507 143.23" stroke="white" stroke-miterlimit="10"/>
<path d="M118.825 143.171C119.551 143.799 120.24 144.465 120.889 145.167C121.329 145.646 121.245 143.401 119.634 143.171" stroke="white" stroke-miterlimit="10"/>
<path d="M113.092 140.826C113.997 141.149 114.842 141.609 115.596 142.191C116.11 142.593 115.303 140.225 113.675 140.255" stroke="white" stroke-miterlimit="10"/>
<circle cx="268" cy="221" r="16" fill="#ABABAB"/>
<path d="M270.298 219.79C269.399 219.266 268.66 219.088 267.619 219.136C266.762 219.182 265.929 219.432 265.19 219.866C264.833 219.63 263.195 218.585 261.203 219.045C260.426 219.209 259.711 219.588 259.141 220.139C258.023 221.25 257.952 222.703 257.904 223.509C257.797 225.52 258.632 226.994 259.094 227.791C259.856 229.103 260.787 230.701 262.393 230.842C263.583 230.947 264.557 230.196 264.96 229.841C265.259 230.089 266.242 230.84 267.434 230.66C268.216 230.542 268.715 230.083 269.497 229.339C270.295 228.58 270.974 227.706 271.512 226.747" stroke="white" stroke-miterlimit="10" stroke-linecap="round"/>
<path d="M273.345 214.4C272.833 214.384 272.601 214.38 272.282 214.445C271.825 214.54 271.391 214.726 271.008 214.992C270.618 215.285 270.317 215.679 270.137 216.13C269.912 216.678 270.681 222.242 272.197 229.911C272.341 230.64 272.531 231.036 273.54 231.105C274.648 231.179 275.293 225.283 276.416 217.151C276.41 216.687 276.535 215.466 275.797 215.011C275.613 214.902 274.717 214.449 273.345 214.4Z" stroke="white" stroke-miterlimit="10" stroke-linecap="round"/>
<path d="M268.969 210.258C268.991 210.349 271.397 212.285 271.993 214.312" stroke="white" stroke-miterlimit="10" stroke-linecap="round"/>
<path d="M272.246 208.368C272.429 208.459 273.262 211.749 273.217 214.351" stroke="white" stroke-miterlimit="10" stroke-linecap="round"/>
<path d="M276.141 210.76C275.187 211.803 274.584 213.117 274.417 214.518" stroke="white" stroke-miterlimit="10" stroke-linecap="round"/>
<path d="M265.188 219.866C265.188 219.866 264.011 216.647 266.96 216.252" stroke="white" stroke-miterlimit="10" stroke-linecap="round"/>
<path d="M262.164 214.232C262.164 214.232 265.341 214.294 265.28 216.541V217.193C263.336 217.792 261.953 217.394 262.164 214.232Z" stroke="white" stroke-miterlimit="10" stroke-linecap="round"/>
<circle cx="36" cy="216" r="16" fill="#ABABAB"/>
<path d="M26.2773 214.039C25.9951 214.558 25.2911 215.904 25.6216 217.597C25.983 219.453 27.3347 220.481 27.6921 220.744C29.9883 222.437 32.8541 221.693 33.3499 221.566C34.6639 221.225 36.1002 219.967 38.9742 217.46C42.5562 214.332 42.7591 213.501 44.2867 212.945C44.5554 212.845 45.3025 212.599 45.7015 211.918C45.8908 211.582 45.9872 211.203 45.9811 210.819C45.975 210.434 45.8665 210.059 45.6666 209.729C45.3388 209.219 44.8242 208.978 44.2867 208.806C42.6946 208.294 41.226 208.493 39.56 208.771C37.558 209.106 36.0183 209.437 34.3509 209.797C31.051 210.524 30.6802 210.663 30.3201 210.824C29.127 211.342 27.3145 212.135 26.2773 214.039Z" stroke="white" stroke-miterlimit="10"/>
<path d="M23.4825 215.989C23.3844 216.581 23.0794 218.555 24.1731 220.505C26.1321 224.013 30.7379 224.127 31.0724 224.131C34.3871 224.162 36.8499 222.163 38.0416 221.189C39.6539 219.875 39.6015 219.282 41.7687 217.632C43.1123 216.607 44.9933 215.414 45.4945 215.101C47.5542 213.796 48.402 213.402 48.8064 212.363C49.2888 211.124 48.8064 209.933 48.7379 209.764C47.8498 207.632 45.0525 207.1 43.9762 206.89C42.2296 206.555 41.0445 206.784 37.4907 207.438C36.2117 207.672 33.7986 208.115 30.5216 208.703C30.1534 208.831 24.3196 210.96 23.4825 215.989Z" stroke="white" stroke-miterlimit="10"/>
<path d="M29.1406 216.297C29.1406 217.119 30.1376 217.221 31.367 217.221C32.5963 217.221 33.6296 215.985 33.5919 215.163C33.5328 213.871 32.0052 213.628 30.5218 214.381C29.4255 214.933 29.1406 215.475 29.1406 216.297Z" stroke="white" stroke-miterlimit="10"/>
<path d="M48.9104 210.413C48.9104 210.413 49.2875 210.956 49.3238 211.132C49.4259 211.61 49.6489 212.665 49.2203 213.766C49.0158 214.284 48.6978 214.752 48.2892 215.134C48.2892 215.134 46.3047 215.631 44.9598 216.707C43.6149 217.784 42.2162 219.735 41.1306 221.171C40.045 222.607 35.7562 224.917 35.7562 224.917C30.9059 226.358 25.9762 228.115 23.6787 219.364" stroke="white" stroke-miterlimit="10"/>
<path d="M127 598L127 563.5L127 529" stroke="#CBCBCB" stroke-width="2" stroke-linecap="round"/>
<path d="M183 598L183 563.5L183 529" stroke="#CBCBCB" stroke-width="2" stroke-linecap="round"/>
<circle cx="181" cy="398" r="16" fill="#ABABAB"/>
<path d="M176.84 393.916C176.568 395.114 176.318 396.498 176.144 397.875C175.712 401.292 175.712 404.75 176.144 408.167H180.328" stroke="white" stroke-miterlimit="10"/>
<path d="M179.454 393.916C179.569 394.642 179.867 395.753 180.662 396.268C181.133 396.576 181.537 396.556 181.923 396.65C183.488 397.038 184.263 399.2 184.678 400.362C184.965 401.171 185.151 402.012 185.231 402.866" stroke="white" stroke-miterlimit="10"/>
<path d="M180.046 391.964H176.411V393.915H180.046V391.964Z" stroke="white" stroke-miterlimit="10"/>
<path d="M179.13 390.108H177.465V391.964H179.13V390.108Z" stroke="white" stroke-miterlimit="10"/>
<path d="M182.705 387.392H175.397V390.108H182.705V387.392Z" stroke="white" stroke-miterlimit="10" stroke-linejoin="round"/>
<path d="M182.705 387.87H183.92C184.146 387.87 184.363 387.96 184.523 388.12C184.683 388.28 184.773 388.497 184.773 388.723C184.773 388.949 184.683 389.166 184.523 389.326C184.363 389.486 184.146 389.576 183.92 389.576H182.705" stroke="white" stroke-miterlimit="10"/>
<path d="M181.192 390.108C181.378 391.867 182.92 393.088 184.371 392.92" stroke="white" stroke-miterlimit="10" stroke-linecap="round"/>
<path d="M190.089 404.382V404.418C190.089 404.915 189.821 405.404 189.429 405.79C189.093 406.124 188.674 406.364 188.216 406.485C187.087 406.756 186.627 405.863 185.037 406.005C184.076 406.091 184.098 406.429 183.074 406.485C182.577 406.512 181.337 406.578 180.596 405.845C180.524 405.775 180.457 405.699 180.398 405.617C180.174 405.278 180.052 404.882 180.046 404.476C180.045 404.353 180.058 404.23 180.085 404.11C180.337 402.928 181.79 402.209 182.917 402.259C183.867 402.302 183.984 402.864 184.996 402.877C186.024 402.888 186.226 402.31 187.142 402.259C188.403 402.191 190.055 403.171 190.089 404.382Z" stroke="white" stroke-miterlimit="10"/>
<path d="M180.6 405.844C181.341 406.577 182.586 406.511 183.077 406.484C184.101 406.428 184.079 406.087 185.041 406.004C186.63 405.862 187.088 406.755 188.219 406.484C188.678 406.363 189.096 406.123 189.432 405.789" stroke="white" stroke-miterlimit="10"/>
<path d="M190.089 407.058C190.114 407.994 189.166 408.93 188.216 409.16C187.088 409.431 186.627 408.538 185.037 408.68C184.076 408.766 184.098 409.104 183.074 409.16C182.532 409.189 181.097 409.266 180.401 408.292C180.175 407.953 180.051 407.557 180.043 407.149" stroke="white" stroke-miterlimit="10"/>
<path d="M190.089 407.054V404.418" stroke="white" stroke-miterlimit="10"/>
<path d="M180.046 407.226V404.425" stroke="white" stroke-miterlimit="10"/>
<path d="M82.18 656.896C82.18 657.536 82.068 658.114 81.844 658.63C81.616 659.142 81.292 659.564 80.872 659.896C80.448 660.224 79.944 660.432 79.36 660.52L79.108 658.816C79.604 658.696 79.986 658.448 80.254 658.072C80.522 657.696 80.656 657.268 80.656 656.788C80.656 656.52 80.614 656.26 80.53 656.008C80.446 655.756 80.322 655.55 80.158 655.39C79.994 655.226 79.792 655.144 79.552 655.144C79.464 655.144 79.38 655.158 79.3 655.186C79.216 655.21 79.138 655.252 79.066 655.312C78.994 655.372 78.926 655.458 78.862 655.57C78.798 655.678 78.74 655.816 78.688 655.984L78.028 658.228C77.98 658.396 77.912 658.592 77.824 658.816C77.736 659.036 77.61 659.25 77.446 659.458C77.282 659.666 77.066 659.84 76.798 659.98C76.526 660.116 76.184 660.184 75.772 660.184C75.192 660.184 74.71 660.038 74.326 659.746C73.942 659.454 73.656 659.064 73.468 658.576C73.28 658.088 73.188 657.548 73.192 656.956C73.2 656.36 73.302 655.828 73.498 655.36C73.694 654.892 73.98 654.5 74.356 654.184C74.728 653.868 75.184 653.64 75.724 653.5L76.024 655.264C75.744 655.328 75.508 655.446 75.316 655.618C75.124 655.79 74.978 655.996 74.878 656.236C74.778 656.472 74.724 656.72 74.716 656.98C74.708 657.236 74.744 657.478 74.824 657.706C74.9 657.93 75.012 658.114 75.16 658.258C75.308 658.398 75.484 658.468 75.688 658.468C75.876 658.468 76.03 658.41 76.15 658.294C76.266 658.178 76.36 658.032 76.432 657.856C76.504 657.68 76.564 657.5 76.612 657.316L77.02 655.816C77.08 655.592 77.16 655.344 77.26 655.072C77.356 654.8 77.492 654.54 77.668 654.292C77.84 654.04 78.068 653.834 78.352 653.674C78.636 653.51 78.996 653.428 79.432 653.428C79.896 653.428 80.302 653.526 80.65 653.722C80.994 653.914 81.28 654.174 81.508 654.502C81.732 654.83 81.9 655.202 82.012 655.618C82.124 656.03 82.18 656.456 82.18 656.896ZM82 646.709L73.36 644.069L73.36 641.633L82 638.993L82 640.673L74.38 643.025L74.38 642.713L82 645.029L82 646.709ZM80.2 645.125L78.676 645.125L78.676 640.565L80.2 640.565L80.2 645.125ZM72.46 630.352L72.46 631.564L70.12 630.568L70.12 629.356L72.46 630.352ZM82 631.798L73.36 631.798L73.36 630.166L82 630.166L82 631.798ZM82 622.367L73.36 622.367L73.36 619.571C73.36 619.503 73.362 619.363 73.366 619.151C73.37 618.939 73.384 618.735 73.408 618.539C73.492 617.843 73.734 617.253 74.134 616.769C74.534 616.285 75.042 615.917 75.658 615.665C76.274 615.413 76.948 615.287 77.68 615.287C78.412 615.287 79.086 615.413 79.702 615.665C80.318 615.917 80.826 616.285 81.226 616.769C81.626 617.253 81.868 617.843 81.952 618.539C81.976 618.735 81.99 618.939 81.994 619.151C81.998 619.363 82 619.503 82 619.571L82 622.367ZM80.464 620.711L80.464 619.571C80.464 619.463 80.462 619.317 80.458 619.133C80.45 618.949 80.432 618.783 80.404 618.635C80.328 618.259 80.152 617.953 79.876 617.717C79.6 617.477 79.268 617.301 78.88 617.189C78.492 617.073 78.092 617.015 77.68 617.015C77.248 617.015 76.838 617.075 76.45 617.195C76.062 617.311 75.734 617.489 75.466 617.729C75.198 617.969 75.028 618.271 74.956 618.635C74.924 618.783 74.906 618.949 74.902 619.133C74.898 619.317 74.896 619.463 74.896 619.571L74.896 620.711L80.464 620.711ZM82 608.682L73.36 606.042L73.36 603.606L82 600.966L82 602.646L74.38 604.998L74.38 604.686L82 607.002L82 608.682ZM80.2 607.098L78.676 607.098L78.676 602.538L80.2 602.538L80.2 607.098Z" fill="#CBCBCB"/>
<path d="M120.548 518.18C119.684 518.18 118.938 517.992 118.31 517.616C117.686 517.24 117.204 516.714 116.864 516.038C116.528 515.362 116.36 514.576 116.36 513.68C116.36 512.784 116.528 511.998 116.864 511.322C117.204 510.646 117.686 510.12 118.31 509.744C118.938 509.368 119.684 509.18 120.548 509.18C121.54 509.18 122.372 509.426 123.044 509.918C123.72 510.41 124.196 511.076 124.472 511.916L122.828 512.372C122.668 511.848 122.398 511.442 122.018 511.154C121.638 510.862 121.148 510.716 120.548 510.716C120 510.716 119.542 510.838 119.174 511.082C118.81 511.326 118.536 511.67 118.352 512.114C118.168 512.558 118.076 513.08 118.076 513.68C118.076 514.28 118.168 514.802 118.352 515.246C118.536 515.69 118.81 516.034 119.174 516.278C119.542 516.522 120 516.644 120.548 516.644C121.148 516.644 121.638 516.498 122.018 516.206C122.398 515.914 122.668 515.508 122.828 514.988L124.472 515.444C124.196 516.284 123.72 516.95 123.044 517.442C122.372 517.934 121.54 518.18 120.548 518.18ZM130.959 518L133.599 509.36H136.035L138.675 518H136.995L134.643 510.38H134.955L132.639 518H130.959ZM132.543 516.2V514.676H137.103V516.2H132.543ZM145.87 518V509.36H147.502V518H145.87ZM154.581 518L157.485 513.632L154.665 509.36H156.669L158.505 512.24L160.317 509.36H162.333L159.513 513.632L162.405 518H160.401L158.505 515.024L156.597 518H154.581ZM168.763 518L171.403 509.36H173.839L176.479 518H174.799L172.447 510.38H172.759L170.443 518H168.763ZM170.347 516.2V514.676H174.907V516.2H170.347ZM186.584 518.18C185.944 518.18 185.366 518.068 184.85 517.844C184.338 517.616 183.916 517.292 183.584 516.872C183.256 516.448 183.048 515.944 182.96 515.36L184.664 515.108C184.784 515.604 185.032 515.986 185.408 516.254C185.784 516.522 186.212 516.656 186.692 516.656C186.96 516.656 187.22 516.614 187.472 516.53C187.724 516.446 187.93 516.322 188.09 516.158C188.254 515.994 188.336 515.792 188.336 515.552C188.336 515.464 188.322 515.38 188.294 515.3C188.27 515.216 188.228 515.138 188.168 515.066C188.108 514.994 188.022 514.926 187.91 514.862C187.802 514.798 187.664 514.74 187.496 514.688L185.252 514.028C185.084 513.98 184.888 513.912 184.664 513.824C184.444 513.736 184.23 513.61 184.022 513.446C183.814 513.282 183.64 513.066 183.5 512.798C183.364 512.526 183.296 512.184 183.296 511.772C183.296 511.192 183.442 510.71 183.734 510.326C184.026 509.942 184.416 509.656 184.904 509.468C185.392 509.28 185.932 509.188 186.524 509.192C187.12 509.2 187.652 509.302 188.12 509.498C188.588 509.694 188.98 509.98 189.296 510.356C189.612 510.728 189.84 511.184 189.98 511.724L188.216 512.024C188.152 511.744 188.034 511.508 187.862 511.316C187.69 511.124 187.484 510.978 187.244 510.878C187.008 510.778 186.76 510.724 186.5 510.716C186.244 510.708 186.002 510.744 185.774 510.824C185.55 510.9 185.366 511.012 185.222 511.16C185.082 511.308 185.012 511.484 185.012 511.688C185.012 511.876 185.07 512.03 185.186 512.15C185.302 512.266 185.448 512.36 185.624 512.432C185.8 512.504 185.98 512.564 186.164 512.612L187.664 513.02C187.888 513.08 188.136 513.16 188.408 513.26C188.68 513.356 188.94 513.492 189.188 513.668C189.44 513.84 189.646 514.068 189.806 514.352C189.97 514.636 190.052 514.996 190.052 515.432C190.052 515.896 189.954 516.302 189.758 516.65C189.566 516.994 189.306 517.28 188.978 517.508C188.65 517.732 188.278 517.9 187.862 518.012C187.45 518.124 187.024 518.18 186.584 518.18Z" fill="#CBCBCB"/>
<rect width="360" height="60" fill="#56BA50"/>
<ellipse cx="323.957" cy="355.83" rx="5.23405" ry="5.23405" transform="rotate(180 323.957 355.83)" fill="white"/>
<rect x="209" y="375" width="22" height="50" rx="4" fill="#FFE8A2" stroke="#F2B600" stroke-width="2"/>
<path d="M198 382.643C198 375.092 204.012 369 211.393 369C218.774 369 224.787 375.092 224.787 382.643C224.787 384.468 224.141 386.856 223.052 389.477C221.971 392.076 220.492 394.817 218.91 397.32C217.327 399.824 215.659 402.062 214.212 403.66C213.486 404.462 212.837 405.08 212.299 405.489C212.03 405.693 211.808 405.83 211.636 405.913C211.48 405.987 211.404 405.998 211.394 406C211.394 406 211.394 406 211.393 406C211.393 406 211.393 406 211.393 406C211.383 405.998 211.307 405.987 211.151 405.913C210.979 405.83 210.757 405.693 210.488 405.489C209.95 405.08 209.301 404.462 208.575 403.66C207.128 402.062 205.46 399.824 203.877 397.32C202.295 394.817 200.816 392.076 199.735 389.477C198.646 386.856 198 384.468 198 382.643Z" fill="#125C40" stroke="white" stroke-width="2"/>
<ellipse cx="210.957" cy="382.83" rx="5.23405" ry="5.23405" transform="rotate(180 210.957 382.83)" fill="white"/>
<defs>
<filter id="filter0_i_287_3641" x="-22" y="22" width="401.5" height="132" filterUnits="userSpaceOnUse" color-interpolation-filters="sRGB">
<feFlood flood-opacity="0" result="BackgroundImageFix"/>
<feBlend mode="normal" in="SourceGraphic" in2="BackgroundImageFix" result="shape"/>
<feColorMatrix in="SourceAlpha" type="matrix" values="0 0 0 0 0 0 0 0 0 0 0 0 0 0 0 0 0 0 127 0" result="hardAlpha"/>
<feOffset dx="6" dy="6"/>
<feGaussianBlur stdDeviation="7.5"/>
<feComposite in2="hardAlpha" operator="arithmetic" k2="-1" k3="1"/>
<feColorMatrix type="matrix" values="0 0 0 0 0 0 0 0 0 0 0 0 0 0 0 0 0 0 0.1 0"/>
<feBlend mode="normal" in2="shape" result="effect1_innerShadow_287_3641"/>
</filter>
<filter id="filter1_i_287_3641" x="241.5" y="588" width="139" height="133" filterUnits="userSpaceOnUse" color-interpolation-filters="sRGB">
<feFlood flood-opacity="0" result="BackgroundImageFix"/>
<feBlend mode="normal" in="SourceGraphic" in2="BackgroundImageFix" result="shape"/>
<feColorMatrix in="SourceAlpha" type="matrix" values="0 0 0 0 0 0 0 0 0 0 0 0 0 0 0 0 0 0 127 0" result="hardAlpha"/>
<feOffset dx="6" dy="6"/>
<feGaussianBlur stdDeviation="7.5"/>
<feComposite in2="hardAlpha" operator="arithmetic" k2="-1" k3="1"/>
<feColorMatrix type="matrix" values="0 0 0 0 0 0 0 0 0 0 0 0 0 0 0 0 0 0 0.1 0"/>
<feBlend mode="normal" in2="shape" result="effect1_innerShadow_287_3641"/>
</filter>
<filter id="filter2_i_287_3641" x="-40" y="623" width="102" height="104" filterUnits="userSpaceOnUse" color-interpolation-filters="sRGB">
<feFlood flood-opacity="0" result="BackgroundImageFix"/>
<feBlend mode="normal" in="SourceGraphic" in2="BackgroundImageFix" result="shape"/>
<feColorMatrix in="SourceAlpha" type="matrix" values="0 0 0 0 0 0 0 0 0 0 0 0 0 0 0 0 0 0 127 0" result="hardAlpha"/>
<feOffset dx="6" dy="6"/>
<feGaussianBlur stdDeviation="7.5"/>
<feComposite in2="hardAlpha" operator="arithmetic" k2="-1" k3="1"/>
<feColorMatrix type="matrix" values="0 0 0 0 0 0 0 0 0 0 0 0 0 0 0 0 0 0 0.1 0"/>
<feBlend mode="normal" in2="shape" result="effect1_innerShadow_287_3641"/>
</filter>
<filter id="filter3_d_287_3641" x="280" y="288" width="88" height="228" filterUnits="userSpaceOnUse" color-interpolation-filters="sRGB">
<feFlood flood-opacity="0" result="BackgroundImageFix"/>
<feColorMatrix in="SourceAlpha" type="matrix" values="0 0 0 0 0 0 0 0 0 0 0 0 0 0 0 0 0 0 127 0" result="hardAlpha"/>
<feOffset dy="8"/>
<feGaussianBlur stdDeviation="12"/>
<feComposite in2="hardAlpha" operator="out"/>
<feColorMatrix type="matrix" values="0 0 0 0 0.439216 0 0 0 0 0.564706 0 0 0 0 0.690196 0 0 0 0.2 0"/>
<feBlend mode="normal" in2="BackgroundImageFix" result="effect1_dropShadow_287_3641"/>
<feBlend mode="normal" in="SourceGraphic" in2="effect1_dropShadow_287_3641" result="shape"/>
</filter>
<filter id="filter4_d_287_3641" x="280" y="192" width="88" height="136" filterUnits="userSpaceOnUse" color-interpolation-filters="sRGB">
<feFlood flood-opacity="0" result="BackgroundImageFix"/>
<feColorMatrix in="SourceAlpha" type="matrix" values="0 0 0 0 0 0 0 0 0 0 0 0 0 0 0 0 0 0 127 0" result="hardAlpha"/>
<feOffset dy="8"/>
<feGaussianBlur stdDeviation="12"/>
<feComposite in2="hardAlpha" operator="out"/>
<feColorMatrix type="matrix" values="0 0 0 0 0.439216 0 0 0 0 0.564706 0 0 0 0 0.690196 0 0 0 0.2 0"/>
<feBlend mode="normal" in2="BackgroundImageFix" result="effect1_dropShadow_287_3641"/>
<feBlend mode="normal" in="SourceGraphic" in2="effect1_dropShadow_287_3641" result="shape"/>
</filter>
<filter id="filter5_d_287_3641" x="204" y="208" width="88" height="104" filterUnits="userSpaceOnUse" color-interpolation-filters="sRGB">
<feFlood flood-opacity="0" result="BackgroundImageFix"/>
<feColorMatrix in="SourceAlpha" type="matrix" values="0 0 0 0 0 0 0 0 0 0 0 0 0 0 0 0 0 0 127 0" result="hardAlpha"/>
<feOffset dy="8"/>
<feGaussianBlur stdDeviation="12"/>
<feComposite in2="hardAlpha" operator="out"/>
<feColorMatrix type="matrix" values="0 0 0 0 0.439216 0 0 0 0 0.564706 0 0 0 0 0.690196 0 0 0 0.2 0"/>
<feBlend mode="normal" in2="BackgroundImageFix" result="effect1_dropShadow_287_3641"/>
<feBlend mode="normal" in="SourceGraphic" in2="effect1_dropShadow_287_3641" result="shape"/>
</filter>
<filter id="filter6_d_287_3641" x="162" y="181" width="74" height="128" filterUnits="userSpaceOnUse" color-interpolation-filters="sRGB">
<feFlood flood-opacity="0" result="BackgroundImageFix"/>
<feColorMatrix in="SourceAlpha" type="matrix" values="0 0 0 0 0 0 0 0 0 0 0 0 0 0 0 0 0 0 127 0" result="hardAlpha"/>
<feOffset dy="8"/>
<feGaussianBlur stdDeviation="12"/>
<feComposite in2="hardAlpha" operator="out"/>
<feColorMatrix type="matrix" values="0 0 0 0 0.439216 0 0 0 0 0.564706 0 0 0 0 0.690196 0 0 0 0.2 0"/>
<feBlend mode="normal" in2="BackgroundImageFix" result="effect1_dropShadow_287_3641"/>
<feBlend mode="normal" in="SourceGraphic" in2="effect1_dropShadow_287_3641" result="shape"/>
</filter>
<filter id="filter7_d_287_3641" x="69" y="176" width="88" height="128" filterUnits="userSpaceOnUse" color-interpolation-filters="sRGB">
<feFlood flood-opacity="0" result="BackgroundImageFix"/>
<feColorMatrix in="SourceAlpha" type="matrix" values="0 0 0 0 0 0 0 0 0 0 0 0 0 0 0 0 0 0 127 0" result="hardAlpha"/>
<feOffset dy="8"/>
<feGaussianBlur stdDeviation="12"/>
<feComposite in2="hardAlpha" operator="out"/>
<feColorMatrix type="matrix" values="0 0 0 0 0.439216 0 0 0 0 0.564706 0 0 0 0 0.690196 0 0 0 0.2 0"/>
<feBlend mode="normal" in2="BackgroundImageFix" result="effect1_dropShadow_287_3641"/>
<feBlend mode="normal" in="SourceGraphic" in2="effect1_dropShadow_287_3641" result="shape"/>
</filter>
<filter id="filter8_d_287_3641" x="133" y="173" width="74" height="105" filterUnits="userSpaceOnUse" color-interpolation-filters="sRGB">
<feFlood flood-opacity="0" result="BackgroundImageFix"/>
<feColorMatrix in="SourceAlpha" type="matrix" values="0 0 0 0 0 0 0 0 0 0 0 0 0 0 0 0 0 0 127 0" result="hardAlpha"/>
<feOffset dy="8"/>
<feGaussianBlur stdDeviation="12"/>
<feComposite in2="hardAlpha" operator="out"/>
<feColorMatrix type="matrix" values="0 0 0 0 0.439216 0 0 0 0 0.564706 0 0 0 0 0.690196 0 0 0 0.2 0"/>
<feBlend mode="normal" in2="BackgroundImageFix" result="effect1_dropShadow_287_3641"/>
<feBlend mode="normal" in="SourceGraphic" in2="effect1_dropShadow_287_3641" result="shape"/>
</filter>
<filter id="filter9_d_287_3641" x="134" y="234" width="73" height="80" filterUnits="userSpaceOnUse" color-interpolation-filters="sRGB">
<feFlood flood-opacity="0" result="BackgroundImageFix"/>
<feColorMatrix in="SourceAlpha" type="matrix" values="0 0 0 0 0 0 0 0 0 0 0 0 0 0 0 0 0 0 127 0" result="hardAlpha"/>
<feOffset dy="8"/>
<feGaussianBlur stdDeviation="12"/>
<feComposite in2="hardAlpha" operator="out"/>
<feColorMatrix type="matrix" values="0 0 0 0 0.439216 0 0 0 0 0.564706 0 0 0 0 0.690196 0 0 0 0.2 0"/>
<feBlend mode="normal" in2="BackgroundImageFix" result="effect1_dropShadow_287_3641"/>
<feBlend mode="normal" in="SourceGraphic" in2="effect1_dropShadow_287_3641" result="shape"/>
</filter>
<filter id="filter10_d_287_3641" x="258.071" y="131.071" width="107.187" height="107.187" filterUnits="userSpaceOnUse" color-interpolation-filters="sRGB">
<feFlood flood-opacity="0" result="BackgroundImageFix"/>
<feColorMatrix in="SourceAlpha" type="matrix" values="0 0 0 0 0 0 0 0 0 0 0 0 0 0 0 0 0 0 127 0" result="hardAlpha"/>
<feOffset dy="8"/>
<feGaussianBlur stdDeviation="12"/>
<feComposite in2="hardAlpha" operator="out"/>
<feColorMatrix type="matrix" values="0 0 0 0 0.439216 0 0 0 0 0.564706 0 0 0 0 0.690196 0 0 0 0.2 0"/>
<feBlend mode="normal" in2="BackgroundImageFix" result="effect1_dropShadow_287_3641"/>
<feBlend mode="normal" in="SourceGraphic" in2="effect1_dropShadow_287_3641" result="shape"/>
</filter>
<filter id="filter11_d_287_3641" x="170" y="132" width="136" height="88" filterUnits="userSpaceOnUse" color-interpolation-filters="sRGB">
<feFlood flood-opacity="0" result="BackgroundImageFix"/>
<feColorMatrix in="SourceAlpha" type="matrix" values="0 0 0 0 0 0 0 0 0 0 0 0 0 0 0 0 0 0 127 0" result="hardAlpha"/>
<feOffset dy="8"/>
<feGaussianBlur stdDeviation="12"/>
<feComposite in2="hardAlpha" operator="out"/>
<feColorMatrix type="matrix" values="0 0 0 0 0.439216 0 0 0 0 0.564706 0 0 0 0 0.690196 0 0 0 0.2 0"/>
<feBlend mode="normal" in2="BackgroundImageFix" result="effect1_dropShadow_287_3641"/>
<feBlend mode="normal" in="SourceGraphic" in2="effect1_dropShadow_287_3641" result="shape"/>
</filter>
<filter id="filter12_d_287_3641" x="34" y="103" width="152" height="88" filterUnits="userSpaceOnUse" color-interpolation-filters="sRGB">
<feFlood flood-opacity="0" result="BackgroundImageFix"/>
<feColorMatrix in="SourceAlpha" type="matrix" values="0 0 0 0 0 0 0 0 0 0 0 0 0 0 0 0 0 0 127 0" result="hardAlpha"/>
<feOffset dy="8"/>
<feGaussianBlur stdDeviation="12"/>
<feComposite in2="hardAlpha" operator="out"/>
<feColorMatrix type="matrix" values="0 0 0 0 0.439216 0 0 0 0 0.564706 0 0 0 0 0.690196 0 0 0 0.2 0"/>
<feBlend mode="normal" in2="BackgroundImageFix" result="effect1_dropShadow_287_3641"/>
<feBlend mode="normal" in="SourceGraphic" in2="effect1_dropShadow_287_3641" result="shape"/>
</filter>
<filter id="filter13_d_287_3641" x="184" y="304" width="88" height="208" filterUnits="userSpaceOnUse" color-interpolation-filters="sRGB">
<feFlood flood-opacity="0" result="BackgroundImageFix"/>
<feColorMatrix in="SourceAlpha" type="matrix" values="0 0 0 0 0 0 0 0 0 0 0 0 0 0 0 0 0 0 127 0" result="hardAlpha"/>
<feOffset dy="8"/>
<feGaussianBlur stdDeviation="12"/>
<feComposite in2="hardAlpha" operator="out"/>
<feColorMatrix type="matrix" values="0 0 0 0 0.439216 0 0 0 0 0.564706 0 0 0 0 0.690196 0 0 0 0.2 0"/>
<feBlend mode="normal" in2="BackgroundImageFix" result="effect1_dropShadow_287_3641"/>
<feBlend mode="normal" in="SourceGraphic" in2="effect1_dropShadow_287_3641" result="shape"/>
</filter>
<filter id="filter14_d_287_3641" x="88" y="304" width="88" height="208" filterUnits="userSpaceOnUse" color-interpolation-filters="sRGB">
<feFlood flood-opacity="0" result="BackgroundImageFix"/>
<feColorMatrix in="SourceAlpha" type="matrix" values="0 0 0 0 0 0 0 0 0 0 0 0 0 0 0 0 0 0 127 0" result="hardAlpha"/>
<feOffset dy="8"/>
<feGaussianBlur stdDeviation="12"/>
<feComposite in2="hardAlpha" operator="out"/>
<feColorMatrix type="matrix" values="0 0 0 0 0.439216 0 0 0 0 0.564706 0 0 0 0 0.690196 0 0 0 0.2 0"/>
<feBlend mode="normal" in2="BackgroundImageFix" result="effect1_dropShadow_287_3641"/>
<feBlend mode="normal" in="SourceGraphic" in2="effect1_dropShadow_287_3641" result="shape"/>
</filter>
<filter id="filter15_d_287_3641" x="-8" y="376" width="88" height="136" filterUnits="userSpaceOnUse" color-interpolation-filters="sRGB">
<feFlood flood-opacity="0" result="BackgroundImageFix"/>
<feColorMatrix in="SourceAlpha" type="matrix" values="0 0 0 0 0 0 0 0 0 0 0 0 0 0 0 0 0 0 127 0" result="hardAlpha"/>
<feOffset dy="8"/>
<feGaussianBlur stdDeviation="12"/>
<feComposite in2="hardAlpha" operator="out"/>
<feColorMatrix type="matrix" values="0 0 0 0 0.439216 0 0 0 0 0.564706 0 0 0 0 0.690196 0 0 0 0.2 0"/>
<feBlend mode="normal" in2="BackgroundImageFix" result="effect1_dropShadow_287_3641"/>
<feBlend mode="normal" in="SourceGraphic" in2="effect1_dropShadow_287_3641" result="shape"/>
</filter>
<filter id="filter16_d_287_3641" x="-8" y="477" width="88" height="100" filterUnits="userSpaceOnUse" color-interpolation-filters="sRGB">
<feFlood flood-opacity="0" result="BackgroundImageFix"/>
<feColorMatrix in="SourceAlpha" type="matrix" values="0 0 0 0 0 0 0 0 0 0 0 0 0 0 0 0 0 0 127 0" result="hardAlpha"/>
<feOffset dy="8"/>
<feGaussianBlur stdDeviation="12"/>
<feComposite in2="hardAlpha" operator="out"/>
<feColorMatrix type="matrix" values="0 0 0 0 0.439216 0 0 0 0 0.564706 0 0 0 0 0.690196 0 0 0 0.2 0"/>
<feBlend mode="normal" in2="BackgroundImageFix" result="effect1_dropShadow_287_3641"/>
<feBlend mode="normal" in="SourceGraphic" in2="effect1_dropShadow_287_3641" result="shape"/>
</filter>
<filter id="filter17_d_287_3641" x="-8" y="537" width="88" height="100" filterUnits="userSpaceOnUse" color-interpolation-filters="sRGB">
<feFlood flood-opacity="0" result="BackgroundImageFix"/>
<feColorMatrix in="SourceAlpha" type="matrix" values="0 0 0 0 0 0 0 0 0 0 0 0 0 0 0 0 0 0 127 0" result="hardAlpha"/>
<feOffset dy="8"/>
<feGaussianBlur stdDeviation="12"/>
<feComposite in2="hardAlpha" operator="out"/>
<feColorMatrix type="matrix" values="0 0 0 0 0.439216 0 0 0 0 0.564706 0 0 0 0 0.690196 0 0 0 0.2 0"/>
<feBlend mode="normal" in2="BackgroundImageFix" result="effect1_dropShadow_287_3641"/>
<feBlend mode="normal" in="SourceGraphic" in2="effect1_dropShadow_287_3641" result="shape"/>
</filter>
<filter id="filter18_d_287_3641" x="119" y="512" width="72" height="128" filterUnits="userSpaceOnUse" color-interpolation-filters="sRGB">
<feFlood flood-opacity="0" result="BackgroundImageFix"/>
<feColorMatrix in="SourceAlpha" type="matrix" values="0 0 0 0 0 0 0 0 0 0 0 0 0 0 0 0 0 0 127 0" result="hardAlpha"/>
<feOffset dy="8"/>
<feGaussianBlur stdDeviation="12"/>
<feComposite in2="hardAlpha" operator="out"/>
<feColorMatrix type="matrix" values="0 0 0 0 0.439216 0 0 0 0 0.564706 0 0 0 0 0.690196 0 0 0 0.2 0"/>
<feBlend mode="normal" in2="BackgroundImageFix" result="effect1_dropShadow_287_3641"/>
<feBlend mode="normal" in="SourceGraphic" in2="effect1_dropShadow_287_3641" result="shape"/>
</filter>
<filter id="filter19_d_287_3641" x="71" y="513" width="64" height="125" filterUnits="userSpaceOnUse" color-interpolation-filters="sRGB">
<feFlood flood-opacity="0" result="BackgroundImageFix"/>
<feColorMatrix in="SourceAlpha" type="matrix" values="0 0 0 0 0 0 0 0 0 0 0 0 0 0 0 0 0 0 127 0" result="hardAlpha"/>
<feOffset dy="8"/>
<feGaussianBlur stdDeviation="12"/>
<feComposite in2="hardAlpha" operator="out"/>
<feColorMatrix type="matrix" values="0 0 0 0 0.439216 0 0 0 0 0.564706 0 0 0 0 0.690196 0 0 0 0.2 0"/>
<feBlend mode="normal" in2="BackgroundImageFix" result="effect1_dropShadow_287_3641"/>
<feBlend mode="normal" in="SourceGraphic" in2="effect1_dropShadow_287_3641" result="shape"/>
</filter>
<filter id="filter20_d_287_3641" x="175" y="512" width="72" height="128" filterUnits="userSpaceOnUse" color-interpolation-filters="sRGB">
<feFlood flood-opacity="0" result="BackgroundImageFix"/>
<feColorMatrix in="SourceAlpha" type="matrix" values="0 0 0 0 0 0 0 0 0 0 0 0 0 0 0 0 0 0 127 0" result="hardAlpha"/>
<feOffset dy="8"/>
<feGaussianBlur stdDeviation="12"/>
<feComposite in2="hardAlpha" operator="out"/>
<feColorMatrix type="matrix" values="0 0 0 0 0.439216 0 0 0 0 0.564706 0 0 0 0 0.690196 0 0 0 0.2 0"/>
<feBlend mode="normal" in2="BackgroundImageFix" result="effect1_dropShadow_287_3641"/>
<feBlend mode="normal" in="SourceGraphic" in2="effect1_dropShadow_287_3641" result="shape"/>
</filter>
<filter id="filter21_d_287_3641" x="-8" y="280" width="88" height="136" filterUnits="userSpaceOnUse" color-interpolation-filters="sRGB">
<feFlood flood-opacity="0" result="BackgroundImageFix"/>
<feColorMatrix in="SourceAlpha" type="matrix" values="0 0 0 0 0 0 0 0 0 0 0 0 0 0 0 0 0 0 127 0" result="hardAlpha"/>
<feOffset dy="8"/>
<feGaussianBlur stdDeviation="12"/>
<feComposite in2="hardAlpha" operator="out"/>
<feColorMatrix type="matrix" values="0 0 0 0 0.439216 0 0 0 0 0.564706 0 0 0 0 0.690196 0 0 0 0.2 0"/>
<feBlend mode="normal" in2="BackgroundImageFix" result="effect1_dropShadow_287_3641"/>
<feBlend mode="normal" in="SourceGraphic" in2="effect1_dropShadow_287_3641" result="shape"/>
</filter>
<filter id="filter22_d_287_3641" x="-8" y="208" width="88" height="104" filterUnits="userSpaceOnUse" color-interpolation-filters="sRGB">
<feFlood flood-opacity="0" result="BackgroundImageFix"/>
<feColorMatrix in="SourceAlpha" type="matrix" values="0 0 0 0 0 0 0 0 0 0 0 0 0 0 0 0 0 0 127 0" result="hardAlpha"/>
<feOffset dy="8"/>
<feGaussianBlur stdDeviation="12"/>
<feComposite in2="hardAlpha" operator="out"/>
<feColorMatrix type="matrix" values="0 0 0 0 0.439216 0 0 0 0 0.564706 0 0 0 0 0.690196 0 0 0 0.2 0"/>
<feBlend mode="normal" in2="BackgroundImageFix" result="effect1_dropShadow_287_3641"/>
<feBlend mode="normal" in="SourceGraphic" in2="effect1_dropShadow_287_3641" result="shape"/>
</filter>
<filter id="filter23_d_287_3641" x="-8" y="142" width="88" height="104" filterUnits="userSpaceOnUse" color-interpolation-filters="sRGB">
<feFlood flood-opacity="0" result="BackgroundImageFix"/>
<feColorMatrix in="SourceAlpha" type="matrix" values="0 0 0 0 0 0 0 0 0 0 0 0 0 0 0 0 0 0 127 0" result="hardAlpha"/>
<feOffset dy="8"/>
<feGaussianBlur stdDeviation="12"/>
<feComposite in2="hardAlpha" operator="out"/>
<feColorMatrix type="matrix" values="0 0 0 0 0.439216 0 0 0 0 0.564706 0 0 0 0 0.690196 0 0 0 0.2 0"/>
<feBlend mode="normal" in2="BackgroundImageFix" result="effect1_dropShadow_287_3641"/>
<feBlend mode="normal" in="SourceGraphic" in2="effect1_dropShadow_287_3641" result="shape"/>
</filter>
<filter id="filter24_d_287_3641" x="246" y="509" width="122" height="91" filterUnits="userSpaceOnUse" color-interpolation-filters="sRGB">
<feFlood flood-opacity="0" result="BackgroundImageFix"/>
<feColorMatrix in="SourceAlpha" type="matrix" values="0 0 0 0 0 0 0 0 0 0 0 0 0 0 0 0 0 0 127 0" result="hardAlpha"/>
<feOffset dy="8"/>
<feGaussianBlur stdDeviation="12"/>
<feComposite in2="hardAlpha" operator="out"/>
<feColorMatrix type="matrix" values="0 0 0 0 0.439216 0 0 0 0 0.564706 0 0 0 0 0.690196 0 0 0 0.2 0"/>
<feBlend mode="normal" in2="BackgroundImageFix" result="effect1_dropShadow_287_3641"/>
<feBlend mode="normal" in="SourceGraphic" in2="effect1_dropShadow_287_3641" result="shape"/>
</filter>
<filter id="filter25_d_287_3641" x="208" y="509" width="77" height="91" filterUnits="userSpaceOnUse" color-interpolation-filters="sRGB">
<feFlood flood-opacity="0" result="BackgroundImageFix"/>
<feColorMatrix in="SourceAlpha" type="matrix" values="0 0 0 0 0 0 0 0 0 0 0 0 0 0 0 0 0 0 127 0" result="hardAlpha"/>
<feOffset dy="8"/>
<feGaussianBlur stdDeviation="12"/>
<feComposite in2="hardAlpha" operator="out"/>
<feColorMatrix type="matrix" values="0 0 0 0 0.439216 0 0 0 0 0.564706 0 0 0 0 0.690196 0 0 0 0.2 0"/>
<feBlend mode="normal" in2="BackgroundImageFix" result="effect1_dropShadow_287_3641"/>
<feBlend mode="normal" in="SourceGraphic" in2="effect1_dropShadow_287_3641" result="shape"/>
</filter>
</defs>
</svg>
