<svg width="116" height="163" viewBox="0 0 116 163" fill="none" xmlns="http://www.w3.org/2000/svg">
<g filter="url(#filter0_d_0_1)">
<rect x="16" y="16" width="76" height="115" rx="8" fill="white"/>
</g>
<path d="M32.0205 118V109.36H32.9025V117.154H37.0065V118H32.0205ZM38.1495 110.29V109.3H39.0315V110.29H38.1495ZM38.1495 118V111.52H39.0315V118H38.1495ZM48.5582 118L48.5642 113.746C48.5642 113.246 48.4242 112.854 48.1442 112.57C47.8682 112.282 47.5162 112.138 47.0882 112.138C46.8442 112.138 46.6062 112.194 46.3742 112.306C46.1422 112.418 45.9502 112.598 45.7982 112.846C45.6502 113.094 45.5762 113.418 45.5762 113.818L45.0542 113.668C45.0422 113.204 45.1322 112.798 45.3242 112.45C45.5202 112.102 45.7882 111.832 46.1282 111.64C46.4722 111.444 46.8602 111.346 47.2922 111.346C47.9442 111.346 48.4662 111.548 48.8582 111.952C49.2502 112.352 49.4462 112.894 49.4462 113.578L49.4402 118H48.5582ZM40.8242 118V111.52H41.6162V113.116H41.7122V118H40.8242ZM44.7002 118L44.7062 113.806C44.7062 113.29 44.5682 112.884 44.2922 112.588C44.0202 112.288 43.6602 112.138 43.2122 112.138C42.7642 112.138 42.4022 112.292 42.1262 112.6C41.8502 112.904 41.7122 113.31 41.7122 113.818L41.1842 113.53C41.1842 113.114 41.2822 112.742 41.4782 112.414C41.6742 112.082 41.9422 111.822 42.2822 111.634C42.6222 111.442 43.0082 111.346 43.4402 111.346C43.8522 111.346 44.2182 111.434 44.5382 111.61C44.8622 111.786 45.1162 112.042 45.3002 112.378C45.4842 112.714 45.5762 113.122 45.5762 113.602L45.5702 118H44.7002ZM53.9121 118.18C53.3161 118.18 52.8121 118.03 52.4001 117.73C51.9881 117.426 51.6761 117.016 51.4641 116.5C51.2521 115.98 51.1461 115.398 51.1461 114.754C51.1461 114.098 51.2521 113.514 51.4641 113.002C51.6801 112.486 51.9961 112.08 52.4121 111.784C52.8281 111.488 53.3401 111.34 53.9481 111.34C54.5401 111.34 55.0481 111.49 55.4721 111.79C55.8961 112.09 56.2201 112.498 56.4441 113.014C56.6721 113.53 56.7861 114.11 56.7861 114.754C56.7861 115.402 56.6721 115.984 56.4441 116.5C56.2161 117.016 55.8881 117.426 55.4601 117.73C55.0321 118.03 54.5161 118.18 53.9121 118.18ZM50.9961 120.88V111.52H51.7881V116.398H51.8841V120.88H50.9961ZM53.8221 117.358C54.2741 117.358 54.6501 117.244 54.9501 117.016C55.2501 116.788 55.4741 116.478 55.6221 116.086C55.7741 115.69 55.8501 115.246 55.8501 114.754C55.8501 114.266 55.7761 113.826 55.6281 113.434C55.4801 113.042 55.2541 112.732 54.9501 112.504C54.6501 112.276 54.2681 112.162 53.8041 112.162C53.3521 112.162 52.9761 112.272 52.6761 112.492C52.3801 112.712 52.1581 113.018 52.0101 113.41C51.8621 113.798 51.7881 114.246 51.7881 114.754C51.7881 115.254 51.8621 115.702 52.0101 116.098C52.1581 116.49 52.3821 116.798 52.6821 117.022C52.9821 117.246 53.3621 117.358 53.8221 117.358ZM60.8457 118.18C60.2137 118.18 59.6657 118.04 59.2017 117.76C58.7417 117.48 58.3837 117.086 58.1277 116.578C57.8717 116.07 57.7437 115.474 57.7437 114.79C57.7437 114.082 57.8697 113.47 58.1217 112.954C58.3737 112.438 58.7277 112.04 59.1837 111.76C59.6437 111.48 60.1857 111.34 60.8097 111.34C61.4497 111.34 61.9957 111.488 62.4477 111.784C62.8997 112.076 63.2417 112.496 63.4737 113.044C63.7057 113.592 63.8117 114.246 63.7917 115.006H62.8917V114.694C62.8757 113.854 62.6937 113.22 62.3457 112.792C62.0017 112.364 61.4977 112.15 60.8337 112.15C60.1377 112.15 59.6037 112.376 59.2317 112.828C58.8637 113.28 58.6797 113.924 58.6797 114.76C58.6797 115.576 58.8637 116.21 59.2317 116.662C59.6037 117.11 60.1297 117.334 60.8097 117.334C61.2737 117.334 61.6777 117.228 62.0217 117.016C62.3697 116.8 62.6437 116.49 62.8437 116.086L63.6657 116.404C63.4097 116.968 63.0317 117.406 62.5317 117.718C62.0357 118.026 61.4737 118.18 60.8457 118.18ZM58.3677 115.006V114.268H63.3177V115.006H58.3677ZM64.5232 118V117.814L68.7052 112.342H64.8352V111.52H70.1572V111.724L65.9812 117.178H69.9292V118H64.5232ZM72.9655 118.18C72.4775 118.18 72.0675 118.092 71.7355 117.916C71.4075 117.74 71.1615 117.506 70.9975 117.214C70.8335 116.922 70.7515 116.604 70.7515 116.26C70.7515 115.908 70.8215 115.608 70.9615 115.36C71.1055 115.108 71.2995 114.902 71.5435 114.742C71.7915 114.582 72.0775 114.46 72.4015 114.376C72.7295 114.296 73.0915 114.226 73.4875 114.166C73.8875 114.102 74.2775 114.048 74.6575 114.004C75.0415 113.956 75.3775 113.91 75.6655 113.866L75.3535 114.058C75.3655 113.418 75.2415 112.944 74.9815 112.636C74.7215 112.328 74.2695 112.174 73.6255 112.174C73.1815 112.174 72.8055 112.274 72.4975 112.474C72.1935 112.674 71.9795 112.99 71.8555 113.422L70.9975 113.17C71.1455 112.59 71.4435 112.14 71.8915 111.82C72.3395 111.5 72.9215 111.34 73.6375 111.34C74.2295 111.34 74.7315 111.452 75.1435 111.676C75.5595 111.896 75.8535 112.216 76.0255 112.636C76.1055 112.824 76.1575 113.034 76.1815 113.266C76.2055 113.498 76.2175 113.734 76.2175 113.974V118H75.4315V116.374L75.6595 116.47C75.4395 117.026 75.0975 117.45 74.6335 117.742C74.1695 118.034 73.6135 118.18 72.9655 118.18ZM73.0675 117.418C73.4795 117.418 73.8395 117.344 74.1475 117.196C74.4555 117.048 74.7035 116.846 74.8915 116.59C75.0795 116.33 75.2015 116.038 75.2575 115.714C75.3055 115.506 75.3315 115.278 75.3355 115.03C75.3395 114.778 75.3415 114.59 75.3415 114.466L75.6775 114.64C75.3775 114.68 75.0515 114.72 74.6995 114.76C74.3515 114.8 74.0075 114.846 73.6675 114.898C73.3315 114.95 73.0275 115.012 72.7555 115.084C72.5715 115.136 72.3935 115.21 72.2215 115.306C72.0495 115.398 71.9075 115.522 71.7955 115.678C71.6875 115.834 71.6335 116.028 71.6335 116.26C71.6335 116.448 71.6795 116.63 71.7715 116.806C71.8675 116.982 72.0195 117.128 72.2275 117.244C72.4395 117.36 72.7195 117.418 73.0675 117.418Z" fill="#125C40"/>
<path d="M38.8513 46.8745C38.1336 50.0336 37.4761 53.6851 37.0177 57.3157C35.8782 66.3266 35.8782 75.4451 37.0177 84.456H48.0509" stroke="#125C40" stroke-width="2" stroke-miterlimit="10"/>
<path d="M45.7456 46.8745C46.0495 48.7893 46.8353 51.7205 48.9309 53.0774C50.1725 53.8894 51.2386 53.8371 52.2576 54.0859C56.3833 55.1075 58.4264 60.8101 59.5214 63.8748C60.2793 66.0072 60.7694 68.2254 60.9804 70.4785" stroke="#125C40" stroke-width="2" stroke-miterlimit="10"/>
<path d="M47.3069 41.7275H37.7223V46.8722H47.3069V41.7275Z" stroke="#125C40" stroke-width="2" stroke-miterlimit="10"/>
<path d="M44.8891 36.834H40.4989V41.7271H44.8891V36.834Z" stroke="#125C40" stroke-width="2" stroke-miterlimit="10"/>
<path d="M54.3193 29.6699H35.0479V36.8342H54.3193V29.6699Z" stroke="#125C40" stroke-width="2" stroke-miterlimit="10" stroke-linejoin="round"/>
<path d="M54.3192 30.9326H57.5228C58.1192 30.9326 58.6912 31.1695 59.113 31.5913C59.5347 32.013 59.7716 32.585 59.7716 33.1814C59.7716 33.7779 59.5347 34.3498 59.113 34.7716C58.6912 35.1933 58.1192 35.4302 57.5228 35.4302H54.3192" stroke="#125C40" stroke-width="2" stroke-miterlimit="10"/>
<path d="M50.3298 36.834C50.8197 41.4731 54.8851 44.6924 58.7121 44.2497" stroke="#125C40" stroke-width="2" stroke-miterlimit="10" stroke-linecap="round"/>
<path d="M73.7923 74.4759V74.5702C73.7923 75.8799 73.0851 77.1713 72.0504 78.1877C71.1644 79.0699 70.061 79.7024 68.852 80.0213C65.8763 80.7364 64.6609 78.3815 60.4697 78.7561C57.9341 78.9814 57.9917 79.8746 55.291 80.0213C53.9813 80.092 50.7122 80.2675 48.7581 78.3343C48.5665 78.1489 48.3912 77.9473 48.2342 77.7319C47.6452 76.8372 47.3235 75.7931 47.3069 74.7221C47.3058 74.398 47.34 74.0748 47.4091 73.7581C48.0744 70.641 51.9067 68.7445 54.8772 68.8781C57.384 68.9907 57.6931 70.4733 60.3597 70.5074C63.0709 70.5362 63.6052 69.0117 66.0204 68.8781C69.3445 68.6973 73.7033 71.2827 73.7923 74.4759Z" stroke="#125C40" stroke-width="2" stroke-miterlimit="10"/>
<path d="M48.7659 78.3317C50.72 80.2649 54.0048 80.0894 55.2988 80.0187C57.9995 79.872 57.9419 78.9709 60.4775 78.7535C64.6687 78.3789 65.8762 80.7338 68.8598 80.0187C70.0688 79.6998 71.1721 79.0673 72.0582 78.1851" stroke="#125C40" stroke-width="2" stroke-miterlimit="10"/>
<path d="M73.7924 81.5327C73.8578 84.0003 71.3563 86.4704 68.852 87.0755C65.8763 87.7906 64.6609 85.4357 60.4698 85.8103C57.9341 86.0356 57.9917 86.9288 55.2911 87.0755C53.8635 87.1515 50.0783 87.3558 48.2421 84.7861C47.647 83.8924 47.3198 82.8472 47.2991 81.7737" stroke="#125C40" stroke-width="2" stroke-miterlimit="10"/>
<path d="M73.7922 81.5224V74.5703" stroke="#125C40" stroke-width="2" stroke-miterlimit="10"/>
<path d="M47.3069 81.9753V74.5884" stroke="#125C40" stroke-width="2" stroke-miterlimit="10"/>
<defs>
<filter id="filter0_d_0_1" x="-8" y="0" width="124" height="163" filterUnits="userSpaceOnUse" color-interpolation-filters="sRGB">
<feFlood flood-opacity="0" result="BackgroundImageFix"/>
<feColorMatrix in="SourceAlpha" type="matrix" values="0 0 0 0 0 0 0 0 0 0 0 0 0 0 0 0 0 0 127 0" result="hardAlpha"/>
<feOffset dy="8"/>
<feGaussianBlur stdDeviation="12"/>
<feComposite in2="hardAlpha" operator="out"/>
<feColorMatrix type="matrix" values="0 0 0 0 0.439216 0 0 0 0 0.564706 0 0 0 0 0.690196 0 0 0 0.2 0"/>
<feBlend mode="normal" in2="BackgroundImageFix" result="effect1_dropShadow_0_1"/>
<feBlend mode="normal" in="SourceGraphic" in2="effect1_dropShadow_0_1" result="shape"/>
</filter>
</defs>
</svg>
