<svg width="204" height="146" viewBox="0 0 204 146" fill="none" xmlns="http://www.w3.org/2000/svg">
<g filter="url(#filter0_dd_1746_406)">
<rect x="24" y="16" width="156" height="98" rx="8" fill="white"/>
<rect x="25" y="17" width="154" height="96" rx="7" stroke="#8D3E3E" stroke-width="2"/>
<path d="M74.95 58.3C76.523 59.8735 77.5941 61.8781 78.0279 64.0603C78.4617 66.2425 78.2387 68.5043 77.3871 70.5597C76.5355 72.6152 75.0935 74.372 73.2436 75.608C71.3936 76.844 69.2187 77.5037 66.9938 77.5037C64.7689 77.5037 62.594 76.844 60.744 75.608C58.894 74.372 57.4521 72.6152 56.6005 70.5597C55.7489 68.5043 55.5259 66.2425 55.9597 64.0603C56.3935 61.8781 57.4646 59.8735 59.0375 58.3" stroke="#8D3E3E" stroke-width="2" stroke-linecap="round" stroke-linejoin="round"/>
<path d="M67 52.5V65" stroke="#8D3E3E" stroke-width="2" stroke-linecap="round" stroke-linejoin="round"/>
<path d="M102.764 76.98C101.111 76.98 99.6172 76.6973 98.2839 76.132C96.9612 75.556 95.8679 74.74 95.0039 73.684C94.1505 72.6173 93.5959 71.3533 93.3399 69.892L96.8279 69.364C97.1799 70.772 97.9159 71.8707 99.0359 72.66C100.156 73.4387 101.463 73.828 102.956 73.828C103.884 73.828 104.737 73.684 105.516 73.396C106.295 73.0973 106.919 72.676 107.388 72.132C107.868 71.5773 108.108 70.916 108.108 70.148C108.108 69.732 108.033 69.364 107.884 69.044C107.745 68.724 107.548 68.4467 107.292 68.212C107.047 67.9667 106.743 67.7587 106.38 67.588C106.028 67.4067 105.639 67.252 105.212 67.124L99.3079 65.38C98.7319 65.2093 98.1452 64.9907 97.5479 64.724C96.9505 64.4467 96.4012 64.0893 95.8999 63.652C95.4092 63.204 95.0092 62.6547 94.6999 62.004C94.3905 61.3427 94.2359 60.5427 94.2359 59.604C94.2359 58.1853 94.5985 56.9853 95.3239 56.004C96.0599 55.012 97.0519 54.2653 98.2999 53.764C99.5479 53.252 100.945 52.996 102.492 52.996C104.049 53.0173 105.441 53.2947 106.668 53.828C107.905 54.3613 108.929 55.1293 109.74 56.132C110.561 57.124 111.127 58.3293 111.436 59.748L107.852 60.356C107.692 59.492 107.351 58.7507 106.828 58.132C106.305 57.5027 105.665 57.0227 104.908 56.692C104.151 56.3507 103.329 56.1747 102.444 56.164C101.591 56.1427 100.807 56.2707 100.092 56.548C99.3879 56.8253 98.8225 57.2147 98.3959 57.716C97.9799 58.2173 97.7719 58.7933 97.7719 59.444C97.7719 60.084 97.9585 60.6013 98.3319 60.996C98.7052 61.3907 99.1639 61.7053 99.7079 61.94C100.263 62.164 100.812 62.3507 101.356 62.5L105.612 63.7C106.145 63.8493 106.748 64.052 107.42 64.308C108.103 64.5533 108.759 64.9 109.388 65.348C110.028 65.796 110.556 66.3933 110.972 67.14C111.388 67.876 111.596 68.804 111.596 69.924C111.596 71.0867 111.361 72.1107 110.892 72.996C110.423 73.8707 109.777 74.6067 108.956 75.204C108.145 75.7907 107.207 76.2333 106.14 76.532C105.073 76.8307 103.948 76.98 102.764 76.98ZM119.886 76.98C118.606 76.98 117.534 76.7453 116.67 76.276C115.806 75.796 115.15 75.1667 114.702 74.388C114.264 73.5987 114.046 72.7347 114.046 71.796C114.046 70.9213 114.2 70.1533 114.51 69.492C114.819 68.8307 115.278 68.2707 115.886 67.812C116.494 67.3427 117.24 66.964 118.126 66.676C118.894 66.452 119.763 66.2547 120.734 66.084C121.704 65.9133 122.723 65.7533 123.79 65.604C124.867 65.4547 125.934 65.3053 126.99 65.156L125.774 65.828C125.795 64.4733 125.507 63.4707 124.91 62.82C124.323 62.1587 123.31 61.828 121.87 61.828C120.963 61.828 120.131 62.0413 119.374 62.468C118.616 62.884 118.088 63.5773 117.79 64.548L114.67 63.588C115.096 62.1053 115.907 60.9267 117.102 60.052C118.307 59.1773 119.907 58.74 121.902 58.74C123.448 58.74 124.792 59.0067 125.934 59.54C127.086 60.0627 127.928 60.8947 128.462 62.036C128.739 62.6013 128.91 63.1987 128.974 63.828C129.038 64.4573 129.07 65.1347 129.07 65.86V76.5H126.11V72.548L126.686 73.06C125.971 74.3827 125.059 75.3693 123.95 76.02C122.851 76.66 121.496 76.98 119.886 76.98ZM120.478 74.244C121.427 74.244 122.243 74.0787 122.926 73.748C123.608 73.4067 124.158 72.9747 124.574 72.452C124.99 71.9293 125.262 71.3853 125.39 70.82C125.571 70.308 125.672 69.732 125.694 69.092C125.726 68.452 125.742 67.94 125.742 67.556L126.83 67.956C125.774 68.116 124.814 68.26 123.95 68.388C123.086 68.516 122.302 68.644 121.598 68.772C120.904 68.8893 120.286 69.0333 119.742 69.204C119.283 69.364 118.872 69.556 118.51 69.78C118.158 70.004 117.875 70.276 117.662 70.596C117.459 70.916 117.358 71.3053 117.358 71.764C117.358 72.212 117.47 72.628 117.694 73.012C117.918 73.3853 118.259 73.684 118.718 73.908C119.176 74.132 119.763 74.244 120.478 74.244ZM133.544 56.388V53.14H136.888V56.388H133.544ZM133.544 76.5V59.22H136.888V76.5H133.544ZM141.693 76.5V59.22H144.669V63.412L144.253 62.868C144.466 62.3133 144.744 61.8067 145.085 61.348C145.426 60.8787 145.821 60.4947 146.269 60.196C146.706 59.876 147.192 59.6307 147.725 59.46C148.269 59.2787 148.824 59.172 149.389 59.14C149.954 59.0973 150.498 59.124 151.021 59.22V62.356C150.456 62.2067 149.826 62.164 149.133 62.228C148.45 62.292 147.821 62.5107 147.245 62.884C146.701 63.236 146.269 63.6627 145.949 64.164C145.64 64.6653 145.416 65.2253 145.277 65.844C145.138 66.452 145.069 67.0973 145.069 67.78V76.5H141.693Z" fill="#8D3E3E"/>
</g>
<defs>
<filter id="filter0_dd_1746_406" x="0" y="0" width="204" height="146" filterUnits="userSpaceOnUse" color-interpolation-filters="sRGB">
<feFlood flood-opacity="0" result="BackgroundImageFix"/>
<feColorMatrix in="SourceAlpha" type="matrix" values="0 0 0 0 0 0 0 0 0 0 0 0 0 0 0 0 0 0 127 0" result="hardAlpha"/>
<feOffset dy="8"/>
<feGaussianBlur stdDeviation="12"/>
<feComposite in2="hardAlpha" operator="out"/>
<feColorMatrix type="matrix" values="0 0 0 0 0.439216 0 0 0 0 0.564706 0 0 0 0 0.690196 0 0 0 0.2 0"/>
<feBlend mode="normal" in2="BackgroundImageFix" result="effect1_dropShadow_1746_406"/>
<feColorMatrix in="SourceAlpha" type="matrix" values="0 0 0 0 0 0 0 0 0 0 0 0 0 0 0 0 0 0 127 0" result="hardAlpha"/>
<feOffset dy="4"/>
<feGaussianBlur stdDeviation="2"/>
<feComposite in2="hardAlpha" operator="out"/>
<feColorMatrix type="matrix" values="0 0 0 0 0 0 0 0 0 0 0 0 0 0 0 0 0 0 0.05 0"/>
<feBlend mode="normal" in2="effect1_dropShadow_1746_406" result="effect2_dropShadow_1746_406"/>
<feBlend mode="normal" in="SourceGraphic" in2="effect2_dropShadow_1746_406" result="shape"/>
</filter>
</defs>
</svg>
