<svg width="98" height="56" viewBox="0 0 98 56" fill="none" xmlns="http://www.w3.org/2000/svg">
<path d="M21.1255 47V36.92H24.3385C24.4225 36.92 24.5882 36.9223 24.8355 36.927C25.0875 36.9317 25.3302 36.948 25.5635 36.976C26.3615 37.0787 27.0358 37.3633 27.5865 37.83C28.1418 38.292 28.5618 38.8823 28.8465 39.601C29.1312 40.3197 29.2735 41.106 29.2735 41.96C29.2735 42.814 29.1312 43.6003 28.8465 44.319C28.5618 45.0377 28.1418 45.6303 27.5865 46.097C27.0358 46.559 26.3615 46.8413 25.5635 46.944C25.3348 46.972 25.0945 46.9883 24.8425 46.993C24.5905 46.9977 24.4225 47 24.3385 47H21.1255ZM22.8405 45.411H24.3385C24.4785 45.411 24.6558 45.4063 24.8705 45.397C25.0898 45.3877 25.2835 45.3667 25.4515 45.334C25.9275 45.2453 26.3148 45.033 26.6135 44.697C26.9122 44.361 27.1315 43.9527 27.2715 43.472C27.4162 42.9913 27.4885 42.4873 27.4885 41.96C27.4885 41.414 27.4162 40.9007 27.2715 40.42C27.1268 39.9393 26.9028 39.5357 26.5995 39.209C26.3008 38.8823 25.9182 38.6747 25.4515 38.586C25.2835 38.5487 25.0898 38.5277 24.8705 38.523C24.6558 38.5137 24.4785 38.509 24.3385 38.509H22.8405V45.411ZM31.0682 38.292V36.745H32.7552V38.292H31.0682ZM31.0682 47V39.44H32.7552V47H31.0682ZM40.0811 47V43.36C40.0811 43.122 40.0647 42.8583 40.0321 42.569C39.9994 42.2797 39.9224 42.002 39.8011 41.736C39.6844 41.4653 39.5071 41.2437 39.2691 41.071C39.0357 40.8983 38.7184 40.812 38.3171 40.812C38.1024 40.812 37.8901 40.847 37.6801 40.917C37.4701 40.987 37.2787 41.1083 37.1061 41.281C36.9381 41.449 36.8027 41.6823 36.7001 41.981C36.5974 42.275 36.5461 42.653 36.5461 43.115L35.5451 42.688C35.5451 42.044 35.6687 41.4607 35.9161 40.938C36.1681 40.4153 36.5367 40 37.0221 39.692C37.5074 39.3793 38.1047 39.223 38.8141 39.223C39.3741 39.223 39.8361 39.3163 40.2001 39.503C40.5641 39.6897 40.8534 39.9277 41.0681 40.217C41.2827 40.5063 41.4414 40.8143 41.5441 41.141C41.6467 41.4677 41.7121 41.778 41.7401 42.072C41.7727 42.3613 41.7891 42.597 41.7891 42.779V47H40.0811ZM34.8381 47V39.44H36.3431V41.785H36.5461V47H34.8381ZM48.8447 47V43.36C48.8447 43.122 48.8284 42.8583 48.7957 42.569C48.7631 42.2797 48.6861 42.002 48.5647 41.736C48.4481 41.4653 48.2707 41.2437 48.0327 41.071C47.7994 40.8983 47.4821 40.812 47.0807 40.812C46.8661 40.812 46.6537 40.847 46.4437 40.917C46.2337 40.987 46.0424 41.1083 45.8697 41.281C45.7017 41.449 45.5664 41.6823 45.4637 41.981C45.3611 42.275 45.3097 42.653 45.3097 43.115L44.3087 42.688C44.3087 42.044 44.4324 41.4607 44.6797 40.938C44.9317 40.4153 45.3004 40 45.7857 39.692C46.2711 39.3793 46.8684 39.223 47.5777 39.223C48.1377 39.223 48.5997 39.3163 48.9637 39.503C49.3277 39.6897 49.6171 39.9277 49.8317 40.217C50.0464 40.5063 50.2051 40.8143 50.3077 41.141C50.4104 41.4677 50.4757 41.778 50.5037 42.072C50.5364 42.3613 50.5527 42.597 50.5527 42.779V47H48.8447ZM43.6017 47V36.92H45.1067V42.226H45.3097V47H43.6017ZM55.8164 47.21C55.0511 47.21 54.3791 47.0443 53.8004 46.713C53.2217 46.3817 52.7691 45.922 52.4424 45.334C52.1204 44.746 51.9594 44.0693 51.9594 43.304C51.9594 42.478 52.1181 41.7617 52.4354 41.155C52.7527 40.5437 53.1937 40.07 53.7584 39.734C54.3231 39.398 54.9764 39.23 55.7184 39.23C56.5024 39.23 57.1674 39.4143 57.7134 39.783C58.2641 40.147 58.6724 40.6627 58.9384 41.33C59.2044 41.9973 59.3047 42.7837 59.2394 43.689H57.5664V43.073C57.5617 42.2517 57.4171 41.652 57.1324 41.274C56.8477 40.896 56.3997 40.707 55.7884 40.707C55.0977 40.707 54.5844 40.9217 54.2484 41.351C53.9124 41.7757 53.7444 42.3987 53.7444 43.22C53.7444 43.9853 53.9124 44.578 54.2484 44.998C54.5844 45.418 55.0744 45.628 55.7184 45.628C56.1337 45.628 56.4907 45.537 56.7894 45.355C57.0927 45.1683 57.3261 44.9 57.4894 44.55L59.1554 45.054C58.8661 45.7353 58.4181 46.265 57.8114 46.643C57.2094 47.021 56.5444 47.21 55.8164 47.21ZM53.2124 43.689V42.415H58.4134V43.689H53.2124ZM60.9413 38.292V36.745H62.6283V38.292H60.9413ZM60.9413 47V39.44H62.6283V47H60.9413ZM64.7251 47V39.44H66.2161V41.281L66.0341 41.043C66.1275 40.791 66.2511 40.5623 66.4051 40.357C66.5638 40.147 66.7528 39.9743 66.9721 39.839C67.1588 39.713 67.3641 39.615 67.5881 39.545C67.8168 39.4703 68.0501 39.426 68.2881 39.412C68.5261 39.3933 68.7571 39.4027 68.9811 39.44V41.015C68.7571 40.9497 68.4981 40.9287 68.2041 40.952C67.9148 40.9753 67.6535 41.057 67.4201 41.197C67.1868 41.323 66.9955 41.484 66.8461 41.68C66.7015 41.876 66.5941 42.1 66.5241 42.352C66.4541 42.5993 66.4191 42.8677 66.4191 43.157V47H64.7251ZM73.5192 47.21C72.7632 47.21 72.1029 47.0397 71.5382 46.699C70.9735 46.3583 70.5349 45.8893 70.2222 45.292C69.9142 44.69 69.7602 43.9993 69.7602 43.22C69.7602 42.4267 69.9189 41.7313 70.2362 41.134C70.5535 40.5367 70.9945 40.07 71.5592 39.734C72.1239 39.398 72.7772 39.23 73.5192 39.23C74.2799 39.23 74.9425 39.4003 75.5072 39.741C76.0719 40.0817 76.5105 40.553 76.8232 41.155C77.1359 41.7523 77.2922 42.4407 77.2922 43.22C77.2922 44.004 77.1335 44.697 76.8162 45.299C76.5035 45.8963 76.0649 46.3653 75.5002 46.706C74.9355 47.042 74.2752 47.21 73.5192 47.21ZM73.5192 45.628C74.1912 45.628 74.6905 45.404 75.0172 44.956C75.3439 44.508 75.5072 43.9293 75.5072 43.22C75.5072 42.4873 75.3415 41.904 75.0102 41.47C74.6789 41.0313 74.1819 40.812 73.5192 40.812C73.0665 40.812 72.6932 40.9147 72.3992 41.12C72.1099 41.3207 71.8952 41.603 71.7552 41.967C71.6152 42.3263 71.5452 42.744 71.5452 43.22C71.5452 43.9527 71.7109 44.5383 72.0422 44.977C72.3782 45.411 72.8705 45.628 73.5192 45.628Z" fill="#56BA50"/>
<rect x="1" y="1" width="96" height="54" rx="7" stroke="#56BA50" stroke-width="2"/>
<rect x="32" y="12" width="33.2381" height="18" rx="4" stroke="#56BA50" stroke-width="2"/>
<path d="M63.381 18.7619C60.7511 18.7619 58.6191 16.6299 58.6191 14" stroke="#56BA50" stroke-width="2"/>
<path d="M33.8572 18.7619C36.4872 18.7619 38.6191 16.6299 38.6191 14" stroke="#56BA50" stroke-width="2"/>
<path d="M58.619 28.1429C58.619 25.5129 60.7509 23.381 63.3809 23.381" stroke="#56BA50" stroke-width="2"/>
<path d="M38.6193 28.1429C38.6193 25.5129 36.4873 23.381 33.8574 23.381" stroke="#56BA50" stroke-width="2"/>
<circle cx="48.6192" cy="21" r="3.38095" stroke="#56BA50" stroke-width="2"/>
</svg>
