<svg width="124" height="163" viewBox="0 0 124 163" fill="none" xmlns="http://www.w3.org/2000/svg">
<g filter="url(#filter0_d_0_1)">
<rect x="24" y="16" width="76" height="115" rx="8" fill="white"/>
</g>
<path d="M35.0809 119V107.48H39.6329C39.7449 107.48 39.8783 107.485 40.0329 107.496C40.1876 107.501 40.3369 107.517 40.4809 107.544C41.1049 107.64 41.6276 107.853 42.0489 108.184C42.4756 108.515 42.7956 108.933 43.0089 109.44C43.2223 109.941 43.3289 110.499 43.3289 111.112C43.3289 111.72 43.2196 112.277 43.0009 112.784C42.7876 113.285 42.4676 113.704 42.0409 114.04C41.6196 114.371 41.0996 114.584 40.4809 114.68C40.3369 114.701 40.1876 114.717 40.0329 114.728C39.8783 114.739 39.7449 114.744 39.6329 114.744H36.5049V119H35.0809ZM36.5049 113.392H39.5849C39.6863 113.392 39.8009 113.387 39.9289 113.376C40.0623 113.365 40.1876 113.347 40.3049 113.32C40.6729 113.235 40.9716 113.08 41.2009 112.856C41.4356 112.627 41.6063 112.36 41.7129 112.056C41.8196 111.747 41.8729 111.432 41.8729 111.112C41.8729 110.792 41.8196 110.48 41.7129 110.176C41.6063 109.867 41.4356 109.597 41.2009 109.368C40.9716 109.139 40.6729 108.984 40.3049 108.904C40.1876 108.872 40.0623 108.853 39.9289 108.848C39.8009 108.837 39.6863 108.832 39.5849 108.832H36.5049V113.392ZM47.0526 119.24C46.4072 119.24 45.8659 119.123 45.4286 118.888C44.9966 118.648 44.6686 118.333 44.4446 117.944C44.2259 117.555 44.1166 117.128 44.1166 116.664C44.1166 116.211 44.2019 115.819 44.3726 115.488C44.5486 115.152 44.7939 114.875 45.1086 114.656C45.4232 114.432 45.7992 114.256 46.2366 114.128C46.6472 114.016 47.1059 113.92 47.6126 113.84C48.1246 113.755 48.6419 113.677 49.1646 113.608C49.6872 113.539 50.1752 113.472 50.6286 113.408L50.1166 113.704C50.1326 112.936 49.9779 112.368 49.6526 112C49.3326 111.632 48.7779 111.448 47.9886 111.448C47.4659 111.448 47.0072 111.568 46.6126 111.808C46.2232 112.043 45.9486 112.427 45.7886 112.96L44.4366 112.552C44.6446 111.795 45.0472 111.2 45.6446 110.768C46.2419 110.336 47.0286 110.12 48.0046 110.12C48.7886 110.12 49.4606 110.261 50.0206 110.544C50.5859 110.821 50.9912 111.243 51.2366 111.808C51.3592 112.075 51.4366 112.365 51.4686 112.68C51.5006 112.989 51.5166 113.315 51.5166 113.656V119H50.2526V116.928L50.5486 117.12C50.2232 117.819 49.7672 118.347 49.1806 118.704C48.5992 119.061 47.8899 119.24 47.0526 119.24ZM47.2686 118.048C47.7806 118.048 48.2232 117.957 48.5966 117.776C48.9752 117.589 49.2792 117.347 49.5086 117.048C49.7379 116.744 49.8872 116.413 49.9566 116.056C50.0366 115.789 50.0792 115.493 50.0846 115.168C50.0952 114.837 50.1006 114.584 50.1006 114.408L50.5966 114.624C50.1326 114.688 49.6766 114.749 49.2286 114.808C48.7806 114.867 48.3566 114.931 47.9566 115C47.5566 115.064 47.1966 115.141 46.8766 115.232C46.6419 115.307 46.4206 115.403 46.2126 115.52C46.0099 115.637 45.8446 115.789 45.7166 115.976C45.5939 116.157 45.5326 116.384 45.5326 116.656C45.5326 116.891 45.5912 117.115 45.7086 117.328C45.8312 117.541 46.0179 117.715 46.2686 117.848C46.5246 117.981 46.8579 118.048 47.2686 118.048ZM56.9886 119.24C56.1832 119.24 55.4926 119.04 54.9166 118.64C54.3406 118.235 53.8952 117.688 53.5806 117C53.2712 116.312 53.1166 115.536 53.1166 114.672C53.1166 113.808 53.2712 113.032 53.5806 112.344C53.8952 111.656 54.3406 111.115 54.9166 110.72C55.4926 110.32 56.1806 110.12 56.9806 110.12C57.7966 110.12 58.4819 110.317 59.0366 110.712C59.5912 111.107 60.0099 111.648 60.2926 112.336C60.5806 113.024 60.7246 113.803 60.7246 114.672C60.7246 115.531 60.5806 116.307 60.2926 117C60.0099 117.688 59.5912 118.235 59.0366 118.64C58.4819 119.04 57.7992 119.24 56.9886 119.24ZM57.1646 117.936C57.7459 117.936 58.2232 117.797 58.5966 117.52C58.9699 117.237 59.2446 116.851 59.4206 116.36C59.6019 115.864 59.6926 115.301 59.6926 114.672C59.6926 114.032 59.6019 113.469 59.4206 112.984C59.2446 112.493 58.9726 112.112 58.6046 111.84C58.2366 111.563 57.7699 111.424 57.2046 111.424C56.6179 111.424 56.1326 111.568 55.7486 111.856C55.3699 112.144 55.0872 112.533 54.9006 113.024C54.7192 113.515 54.6286 114.064 54.6286 114.672C54.6286 115.285 54.7219 115.84 54.9086 116.336C55.0952 116.827 55.3752 117.216 55.7486 117.504C56.1272 117.792 56.5992 117.936 57.1646 117.936ZM59.6926 119V112.64H59.5326V107.48H60.9646V119H59.6926ZM65.6619 119.24C65.0166 119.24 64.4753 119.123 64.0379 118.888C63.6059 118.648 63.2779 118.333 63.0539 117.944C62.8353 117.555 62.7259 117.128 62.7259 116.664C62.7259 116.211 62.8113 115.819 62.9819 115.488C63.1579 115.152 63.4033 114.875 63.7179 114.656C64.0326 114.432 64.4086 114.256 64.8459 114.128C65.2566 114.016 65.7153 113.92 66.2219 113.84C66.7339 113.755 67.2513 113.677 67.7739 113.608C68.2966 113.539 68.7846 113.472 69.2379 113.408L68.7259 113.704C68.7419 112.936 68.5873 112.368 68.2619 112C67.9419 111.632 67.3873 111.448 66.5979 111.448C66.0753 111.448 65.6166 111.568 65.2219 111.808C64.8326 112.043 64.5579 112.427 64.3979 112.96L63.0459 112.552C63.2539 111.795 63.6566 111.2 64.2539 110.768C64.8513 110.336 65.6379 110.12 66.6139 110.12C67.3979 110.12 68.0699 110.261 68.6299 110.544C69.1953 110.821 69.6006 111.243 69.8459 111.808C69.9686 112.075 70.0459 112.365 70.0779 112.68C70.1099 112.989 70.1259 113.315 70.1259 113.656V119H68.8619V116.928L69.1579 117.12C68.8326 117.819 68.3766 118.347 67.7899 118.704C67.2086 119.061 66.4993 119.24 65.6619 119.24ZM65.8779 118.048C66.3899 118.048 66.8326 117.957 67.2059 117.776C67.5846 117.589 67.8886 117.347 68.1179 117.048C68.3473 116.744 68.4966 116.413 68.5659 116.056C68.6459 115.789 68.6886 115.493 68.6939 115.168C68.7046 114.837 68.7099 114.584 68.7099 114.408L69.2059 114.624C68.7419 114.688 68.2859 114.749 67.8379 114.808C67.3899 114.867 66.9659 114.931 66.5659 115C66.1659 115.064 65.8059 115.141 65.4859 115.232C65.2513 115.307 65.0299 115.403 64.8219 115.52C64.6193 115.637 64.4539 115.789 64.3259 115.976C64.2033 116.157 64.1419 116.384 64.1419 116.656C64.1419 116.891 64.2006 117.115 64.3179 117.328C64.4406 117.541 64.6273 117.715 64.8779 117.848C65.1339 117.981 65.4673 118.048 65.8779 118.048ZM72.2059 119V110.36H73.4779V112.448L73.2699 112.176C73.3713 111.909 73.5019 111.664 73.6619 111.44C73.8273 111.216 74.0113 111.032 74.2139 110.888C74.4379 110.707 74.6913 110.568 74.9739 110.472C75.2566 110.376 75.5446 110.32 75.8379 110.304C76.1313 110.283 76.4059 110.301 76.6619 110.36V111.696C76.3633 111.616 76.0353 111.595 75.6779 111.632C75.3206 111.669 74.9899 111.8 74.6859 112.024C74.4086 112.221 74.1926 112.461 74.0379 112.744C73.8886 113.027 73.7846 113.333 73.7259 113.664C73.6673 113.989 73.6379 114.323 73.6379 114.664V119H72.2059ZM78.3347 108.832V107.36H79.7587V108.832H78.3347ZM78.3347 119V110.36H79.7587V119H78.3347ZM84.6151 119.24C83.9697 119.24 83.4284 119.123 82.9911 118.888C82.5591 118.648 82.2311 118.333 82.0071 117.944C81.7884 117.555 81.6791 117.128 81.6791 116.664C81.6791 116.211 81.7644 115.819 81.9351 115.488C82.1111 115.152 82.3564 114.875 82.6711 114.656C82.9857 114.432 83.3617 114.256 83.7991 114.128C84.2097 114.016 84.6684 113.92 85.1751 113.84C85.6871 113.755 86.2044 113.677 86.7271 113.608C87.2497 113.539 87.7377 113.472 88.1911 113.408L87.6791 113.704C87.6951 112.936 87.5404 112.368 87.2151 112C86.8951 111.632 86.3404 111.448 85.5511 111.448C85.0284 111.448 84.5697 111.568 84.1751 111.808C83.7857 112.043 83.5111 112.427 83.3511 112.96L81.9991 112.552C82.2071 111.795 82.6097 111.2 83.2071 110.768C83.8044 110.336 84.5911 110.12 85.5671 110.12C86.3511 110.12 87.0231 110.261 87.5831 110.544C88.1484 110.821 88.5537 111.243 88.7991 111.808C88.9217 112.075 88.9991 112.365 89.0311 112.68C89.0631 112.989 89.0791 113.315 89.0791 113.656V119H87.8151V116.928L88.1111 117.12C87.7857 117.819 87.3297 118.347 86.7431 118.704C86.1617 119.061 85.4524 119.24 84.6151 119.24ZM84.8311 118.048C85.3431 118.048 85.7857 117.957 86.1591 117.776C86.5377 117.589 86.8417 117.347 87.0711 117.048C87.3004 116.744 87.4497 116.413 87.5191 116.056C87.5991 115.789 87.6417 115.493 87.6471 115.168C87.6577 114.837 87.6631 114.584 87.6631 114.408L88.1591 114.624C87.6951 114.688 87.2391 114.749 86.7911 114.808C86.3431 114.867 85.9191 114.931 85.5191 115C85.1191 115.064 84.7591 115.141 84.4391 115.232C84.2044 115.307 83.9831 115.403 83.7751 115.52C83.5724 115.637 83.4071 115.789 83.2791 115.976C83.1564 116.157 83.0951 116.384 83.0951 116.656C83.0951 116.891 83.1537 117.115 83.2711 117.328C83.3937 117.541 83.5804 117.715 83.8311 117.848C84.0871 117.981 84.4204 118.048 84.8311 118.048Z" fill="#F2B600"/>
<path d="M32.4123 62.0604C32.5442 62.6842 32.6085 63.3205 32.6041 63.9582L32.4619 66.8917L32.665 75.3246C32.8907 76.2272 33.3939 77.5022 34.5628 78.1927C35.133 78.5182 35.7749 78.6973 36.4313 78.714C38.487 78.7974 44.9815 78.7726 53.7709 78.5831C54.2741 78.5447 55.0706 78.398 55.6393 77.8C56.2554 77.1569 56.3163 76.2994 56.3366 75.8887C56.4201 74.3272 56.3366 69.7485 56.2486 64.0823C56.2283 62.6922 57.0858 60.4401 57.088 60.4311C57.9162 58.7973 58.8143 57.0462 58.9723 56.2023C59.5161 53.2913 56.5329 49.5408 54.1635 48.32C48.3393 45.3255 40.6939 45.3571 36.0251 47.6837C34.6869 48.3606 30 51.2085 30 55.5637C30 58.2016 32.1189 60.2416 32.4123 62.0604Z" stroke="#F2B600" stroke-width="2" stroke-miterlimit="10" stroke-linejoin="round"/>
<path d="M44.2099 46.0024H69.0194C72.2937 46.0634 75.7305 46.7968 78.6889 48.32C81.0583 49.5408 84.0438 53.2912 83.4999 56.2022C83.3397 57.0462 82.4438 58.795 81.6157 60.431C81.2857 61.3147 81.0327 62.2252 80.8597 63.1525L81.9431 69.2398V75.4999" stroke="#F2B600" stroke-width="2" stroke-miterlimit="10" stroke-linecap="round" stroke-linejoin="round"/>
<path d="M52.7573 78.6034C53.9059 78.6034 52.8498 78.5853 56 78.6034L52.7573 78.6034Z" fill="#D9D9D9"/>
<path d="M55.9943 79.6033C56.5465 79.6065 56.9968 79.1614 57 78.6091C57.0031 78.0568 56.558 77.6065 56.0057 77.6034L55.9943 79.6033ZM52.7573 79.6034C53.9476 79.6034 52.8321 79.5852 55.9943 79.6033L56.0057 77.6034C52.8675 77.5854 53.8643 77.6034 52.7573 77.6034V79.6034Z" fill="#F2B600"/>
<path d="M74.7177 78.2069C76.7325 75.5287 78.2442 73.1321 78.9248 72.056C79.3462 71.4245 79.5989 70.6978 79.6592 69.9438C79.6852 69.2627 79.5681 68.5836 79.3154 67.9494C79.0626 67.3151 78.6796 66.7394 78.1904 66.2586C75.7076 64.1039 68.372 67.417 63.5784 71.514C57.1467 77.0112 55.6618 83.6057 56.0599 86.369C56.13 87.1329 56.4512 87.8533 56.9745 88.4201C58.1393 89.5812 60.0411 89.4191 60.7755 89.3527C62.8575 89.172 65.0122 88.0242 67.0808 86.4035" stroke="#F2B600" stroke-width="2" stroke-miterlimit="10"/>
<path d="M80.5009 77.5452C73.1303 77.4071 68.3072 80.8026 66.9407 82.8113C66.5368 83.3466 66.3222 83.9982 66.33 84.6658C66.3973 86.0793 67.7181 87.057 68.2292 87.4423C73.5392 91.3878 87.0456 87.5459 90.0692 86.6877C90.7115 86.5157 91.2991 86.1857 91.7773 85.7286C92.1936 85.3046 92.5165 84.8 92.7258 84.2468C92.935 83.6935 93.0261 83.1034 92.9932 82.5137C92.6596 79.7133 85.9912 77.6515 80.5009 77.5452Z" stroke="#F2B600" stroke-width="2" stroke-miterlimit="10"/>
<path d="M57.9 78.5921C60.1039 79.5141 62.1601 80.7484 64.0036 82.256C65.3862 83.3613 63.2208 76.8598 58.8469 76.9422" stroke="#F2B600" stroke-width="2" stroke-miterlimit="10"/>
<path d="M60.5684 74.5695C62.9309 75.4928 65.1384 76.7639 67.1158 78.3397C68.4985 79.445 66.3303 72.9434 61.9591 73.0258" stroke="#F2B600" stroke-width="2" stroke-miterlimit="10"/>
<path d="M69.432 80.9674C71.6103 82.2549 73.5792 83.8601 75.2719 85.7286C76.4528 87.0438 75.3849 80.2792 71.0567 79.6495" stroke="#F2B600" stroke-width="2" stroke-miterlimit="10"/>
<path d="M73.9565 78.6399C76.0416 80.3223 77.9939 82.1591 79.7965 84.1344C80.98 85.447 80.4555 78.5257 76.1273 77.8933" stroke="#F2B600" stroke-width="2" stroke-miterlimit="10"/>
<path d="M79.6674 77.7313C81.6167 79.4547 83.4676 81.2838 85.2115 83.2099C86.3924 84.5251 86.1664 78.3637 81.8409 77.7313" stroke="#F2B600" stroke-width="2" stroke-miterlimit="10"/>
<path d="M64.2697 71.2935C66.7001 72.1782 68.9707 73.4431 70.9947 75.0397C72.3746 76.145 70.2092 69.6435 65.8353 69.7259" stroke="#F2B600" stroke-width="2" stroke-miterlimit="10"/>
<defs>
<filter id="filter0_d_0_1" x="0" y="0" width="124" height="163" filterUnits="userSpaceOnUse" color-interpolation-filters="sRGB">
<feFlood flood-opacity="0" result="BackgroundImageFix"/>
<feColorMatrix in="SourceAlpha" type="matrix" values="0 0 0 0 0 0 0 0 0 0 0 0 0 0 0 0 0 0 127 0" result="hardAlpha"/>
<feOffset dy="8"/>
<feGaussianBlur stdDeviation="12"/>
<feComposite in2="hardAlpha" operator="out"/>
<feColorMatrix type="matrix" values="0 0 0 0 0.439216 0 0 0 0 0.564706 0 0 0 0 0.690196 0 0 0 0.2 0"/>
<feBlend mode="normal" in2="BackgroundImageFix" result="effect1_dropShadow_0_1"/>
<feBlend mode="normal" in="SourceGraphic" in2="effect1_dropShadow_0_1" result="shape"/>
</filter>
</defs>
</svg>
