<svg width="144" height="144" viewBox="0 0 144 144" fill="none" xmlns="http://www.w3.org/2000/svg">
<rect x="1" y="1" width="142" height="142" rx="7" fill="white" stroke="#56BA50" stroke-width="2"/>
<path d="M26.065 124V113.92H30.23C30.328 113.92 30.454 113.925 30.608 113.934C30.762 113.939 30.9043 113.953 31.035 113.976C31.6183 114.065 32.099 114.258 32.477 114.557C32.8596 114.856 33.142 115.234 33.324 115.691C33.5106 116.144 33.604 116.648 33.604 117.203C33.604 118.024 33.3963 118.731 32.981 119.324C32.5656 119.912 31.9286 120.276 31.07 120.416L30.349 120.479H27.752V124H26.065ZM31.854 124L29.866 119.898L31.581 119.52L33.765 124H31.854ZM27.752 118.904H30.16C30.2533 118.904 30.3583 118.899 30.475 118.89C30.5916 118.881 30.699 118.862 30.797 118.834C31.077 118.764 31.2963 118.64 31.455 118.463C31.6183 118.286 31.7326 118.085 31.798 117.861C31.868 117.637 31.903 117.418 31.903 117.203C31.903 116.988 31.868 116.769 31.798 116.545C31.7326 116.316 31.6183 116.113 31.455 115.936C31.2963 115.759 31.077 115.635 30.797 115.565C30.699 115.537 30.5916 115.521 30.475 115.516C30.3583 115.507 30.2533 115.502 30.16 115.502H27.752V118.904ZM38.7441 124.21C37.9788 124.21 37.3068 124.044 36.7281 123.713C36.1495 123.382 35.6968 122.922 35.3701 122.334C35.0481 121.746 34.8871 121.069 34.8871 120.304C34.8871 119.478 35.0458 118.762 35.3631 118.155C35.6805 117.544 36.1215 117.07 36.6861 116.734C37.2508 116.398 37.9041 116.23 38.6461 116.23C39.4301 116.23 40.0951 116.414 40.6411 116.783C41.1918 117.147 41.6001 117.663 41.8661 118.33C42.1321 118.997 42.2325 119.784 42.1671 120.689H40.4941V120.073C40.4895 119.252 40.3448 118.652 40.0601 118.274C39.7755 117.896 39.3275 117.707 38.7161 117.707C38.0255 117.707 37.5121 117.922 37.1761 118.351C36.8401 118.776 36.6721 119.399 36.6721 120.22C36.6721 120.985 36.8401 121.578 37.1761 121.998C37.5121 122.418 38.0021 122.628 38.6461 122.628C39.0615 122.628 39.4185 122.537 39.7171 122.355C40.0205 122.168 40.2538 121.9 40.4171 121.55L42.0831 122.054C41.7938 122.735 41.3458 123.265 40.7391 123.643C40.1371 124.021 39.4721 124.21 38.7441 124.21ZM36.1401 120.689V119.415H41.3411V120.689H36.1401ZM48.16 124C47.6607 124.093 47.1707 124.133 46.69 124.119C46.214 124.11 45.787 124.023 45.409 123.86C45.031 123.692 44.744 123.428 44.548 123.069C44.3754 122.742 44.2844 122.409 44.275 122.068C44.2657 121.727 44.261 121.342 44.261 120.913V114.34H45.941V120.815C45.941 121.118 45.9434 121.384 45.948 121.613C45.9574 121.842 46.0064 122.028 46.095 122.173C46.263 122.453 46.5314 122.609 46.9 122.642C47.2687 122.675 47.6887 122.656 48.16 122.586V124ZM42.889 117.763V116.44H48.16V117.763H42.889ZM49.9257 115.292V113.745H51.6127V115.292H49.9257ZM49.9257 124V116.44H51.6127V124H49.9257ZM53.7095 124V116.44H55.2005V118.281L55.0185 118.043C55.1118 117.791 55.2355 117.562 55.3895 117.357C55.5482 117.147 55.7372 116.974 55.9565 116.839C56.1432 116.713 56.3485 116.615 56.5725 116.545C56.8012 116.47 57.0345 116.426 57.2725 116.412C57.5105 116.393 57.7415 116.403 57.9655 116.44V118.015C57.7415 117.95 57.4825 117.929 57.1885 117.952C56.8992 117.975 56.6378 118.057 56.4045 118.197C56.1712 118.323 55.9798 118.484 55.8305 118.68C55.6858 118.876 55.5785 119.1 55.5085 119.352C55.4385 119.599 55.4035 119.868 55.4035 120.157V124H53.7095ZM61.2376 124.21C60.6916 124.21 60.2296 124.107 59.8516 123.902C59.4736 123.692 59.1866 123.414 58.9906 123.069C58.7992 122.724 58.7036 122.343 58.7036 121.928C58.7036 121.564 58.7642 121.237 58.8856 120.948C59.0069 120.654 59.1936 120.402 59.4456 120.192C59.6976 119.977 60.0242 119.802 60.4256 119.667C60.7289 119.569 61.0836 119.48 61.4896 119.401C61.9002 119.322 62.3436 119.249 62.8196 119.184C63.3002 119.114 63.8019 119.039 64.3246 118.96L63.7226 119.303C63.7272 118.78 63.6106 118.395 63.3726 118.148C63.1346 117.901 62.7332 117.777 62.1686 117.777C61.8279 117.777 61.4989 117.856 61.1816 118.015C60.8642 118.174 60.6426 118.447 60.5166 118.834L58.9766 118.351C59.1632 117.712 59.5179 117.198 60.0406 116.811C60.5679 116.424 61.2772 116.23 62.1686 116.23C62.8406 116.23 63.4309 116.34 63.9396 116.559C64.4529 116.778 64.8332 117.138 65.0806 117.637C65.2159 117.903 65.2976 118.176 65.3256 118.456C65.3536 118.731 65.3676 119.032 65.3676 119.359V124H63.8906V122.362L64.1356 122.628C63.7949 123.174 63.3959 123.575 62.9386 123.832C62.4859 124.084 61.9189 124.21 61.2376 124.21ZM61.5736 122.866C61.9562 122.866 62.2829 122.798 62.5536 122.663C62.8242 122.528 63.0389 122.362 63.1976 122.166C63.3609 121.97 63.4706 121.786 63.5266 121.613C63.6152 121.398 63.6642 121.153 63.6736 120.878C63.6876 120.598 63.6946 120.372 63.6946 120.199L64.2126 120.353C63.7039 120.432 63.2676 120.502 62.9036 120.563C62.5396 120.624 62.2269 120.682 61.9656 120.738C61.7042 120.789 61.4732 120.848 61.2726 120.913C61.0766 120.983 60.9109 121.065 60.7756 121.158C60.6402 121.251 60.5352 121.359 60.4606 121.48C60.3906 121.601 60.3556 121.744 60.3556 121.907C60.3556 122.094 60.4022 122.259 60.4956 122.404C60.5889 122.544 60.7242 122.656 60.9016 122.74C61.0836 122.824 61.3076 122.866 61.5736 122.866ZM67.19 124V116.44H68.681V118.281L68.499 118.043C68.5923 117.791 68.716 117.562 68.87 117.357C69.0286 117.147 69.2176 116.974 69.437 116.839C69.6236 116.713 69.829 116.615 70.053 116.545C70.2816 116.47 70.515 116.426 70.753 116.412C70.991 116.393 71.222 116.403 71.446 116.44V118.015C71.222 117.95 70.963 117.929 70.669 117.952C70.3796 117.975 70.1183 118.057 69.885 118.197C69.6516 118.323 69.4603 118.484 69.311 118.68C69.1663 118.876 69.059 119.1 68.989 119.352C68.919 119.599 68.884 119.868 68.884 120.157V124H67.19ZM80.8135 124V120.36C80.8135 120.122 80.7972 119.858 80.7645 119.569C80.7318 119.28 80.6548 119.002 80.5335 118.736C80.4168 118.465 80.2395 118.244 80.0015 118.071C79.7682 117.898 79.4508 117.812 79.0495 117.812C78.8348 117.812 78.6225 117.847 78.4125 117.917C78.2025 117.987 78.0112 118.108 77.8385 118.281C77.6705 118.449 77.5352 118.682 77.4325 118.981C77.3298 119.275 77.2785 119.653 77.2785 120.115L76.2775 119.688C76.2775 119.044 76.4012 118.461 76.6485 117.938C76.9005 117.415 77.2692 117 77.7545 116.692C78.2398 116.379 78.8372 116.223 79.5465 116.223C80.1065 116.223 80.5685 116.316 80.9325 116.503C81.2965 116.69 81.5858 116.928 81.8005 117.217C82.0152 117.506 82.1738 117.814 82.2765 118.141C82.3792 118.468 82.4445 118.778 82.4725 119.072C82.5052 119.361 82.5215 119.597 82.5215 119.779V124H80.8135ZM75.5705 124V116.44H77.0755V118.785H77.2785V124H75.5705ZM86.4622 124.21C85.9162 124.21 85.4542 124.107 85.0762 123.902C84.6982 123.692 84.4112 123.414 84.2152 123.069C84.0238 122.724 83.9282 122.343 83.9282 121.928C83.9282 121.564 83.9888 121.237 84.1102 120.948C84.2315 120.654 84.4182 120.402 84.6702 120.192C84.9222 119.977 85.2488 119.802 85.6502 119.667C85.9535 119.569 86.3082 119.48 86.7142 119.401C87.1248 119.322 87.5682 119.249 88.0442 119.184C88.5248 119.114 89.0265 119.039 89.5492 118.96L88.9472 119.303C88.9518 118.78 88.8352 118.395 88.5972 118.148C88.3592 117.901 87.9578 117.777 87.3932 117.777C87.0525 117.777 86.7235 117.856 86.4062 118.015C86.0888 118.174 85.8672 118.447 85.7412 118.834L84.2012 118.351C84.3878 117.712 84.7425 117.198 85.2652 116.811C85.7925 116.424 86.5018 116.23 87.3932 116.23C88.0652 116.23 88.6555 116.34 89.1642 116.559C89.6775 116.778 90.0578 117.138 90.3052 117.637C90.4405 117.903 90.5222 118.176 90.5502 118.456C90.5782 118.731 90.5922 119.032 90.5922 119.359V124H89.1152V122.362L89.3602 122.628C89.0195 123.174 88.6205 123.575 88.1632 123.832C87.7105 124.084 87.1435 124.21 86.4622 124.21ZM86.7982 122.866C87.1808 122.866 87.5075 122.798 87.7782 122.663C88.0488 122.528 88.2635 122.362 88.4222 122.166C88.5855 121.97 88.6952 121.786 88.7512 121.613C88.8398 121.398 88.8888 121.153 88.8982 120.878C88.9122 120.598 88.9192 120.372 88.9192 120.199L89.4372 120.353C88.9285 120.432 88.4922 120.502 88.1282 120.563C87.7642 120.624 87.4515 120.682 87.1902 120.738C86.9288 120.789 86.6978 120.848 86.4972 120.913C86.3012 120.983 86.1355 121.065 86.0002 121.158C85.8648 121.251 85.7598 121.359 85.6852 121.48C85.6152 121.601 85.5802 121.744 85.5802 121.907C85.5802 122.094 85.6268 122.259 85.7202 122.404C85.8135 122.544 85.9488 122.656 86.1262 122.74C86.3082 122.824 86.5322 122.866 86.7982 122.866ZM95.3573 124V113.71H97.0443V124H95.3573ZM102.48 124.21C101.724 124.21 101.064 124.04 100.499 123.699C99.9345 123.358 99.4958 122.889 99.1831 122.292C98.8751 121.69 98.7211 120.999 98.7211 120.22C98.7211 119.427 98.8798 118.731 99.1971 118.134C99.5145 117.537 99.9555 117.07 100.52 116.734C101.085 116.398 101.738 116.23 102.48 116.23C103.241 116.23 103.903 116.4 104.468 116.741C105.033 117.082 105.471 117.553 105.784 118.155C106.097 118.752 106.253 119.441 106.253 120.22C106.253 121.004 106.094 121.697 105.777 122.299C105.464 122.896 105.026 123.365 104.461 123.706C103.896 124.042 103.236 124.21 102.48 124.21ZM102.48 122.628C103.152 122.628 103.651 122.404 103.978 121.956C104.305 121.508 104.468 120.929 104.468 120.22C104.468 119.487 104.302 118.904 103.971 118.47C103.64 118.031 103.143 117.812 102.48 117.812C102.027 117.812 101.654 117.915 101.36 118.12C101.071 118.321 100.856 118.603 100.716 118.967C100.576 119.326 100.506 119.744 100.506 120.22C100.506 120.953 100.672 121.538 101.003 121.977C101.339 122.411 101.831 122.628 102.48 122.628ZM106.675 127.36V125.778H107.032C107.443 125.778 107.735 125.682 107.907 125.491C108.08 125.3 108.166 125.017 108.166 124.644V116.44H109.846V125.4C109.846 126.011 109.667 126.49 109.307 126.835C108.953 127.185 108.458 127.36 107.823 127.36H106.675ZM108.166 115.292V113.745H109.846V115.292H108.166ZM113.943 124.21C113.397 124.21 112.935 124.107 112.557 123.902C112.179 123.692 111.892 123.414 111.696 123.069C111.504 122.724 111.409 122.343 111.409 121.928C111.409 121.564 111.469 121.237 111.591 120.948C111.712 120.654 111.899 120.402 112.151 120.192C112.403 119.977 112.729 119.802 113.131 119.667C113.434 119.569 113.789 119.48 114.195 119.401C114.605 119.322 115.049 119.249 115.525 119.184C116.005 119.114 116.507 119.039 117.03 118.96L116.428 119.303C116.432 118.78 116.316 118.395 116.078 118.148C115.84 117.901 115.438 117.777 114.874 117.777C114.533 117.777 114.204 117.856 113.887 118.015C113.569 118.174 113.348 118.447 113.222 118.834L111.682 118.351C111.868 117.712 112.223 117.198 112.746 116.811C113.273 116.424 113.982 116.23 114.874 116.23C115.546 116.23 116.136 116.34 116.645 116.559C117.158 116.778 117.538 117.138 117.786 117.637C117.921 117.903 118.003 118.176 118.031 118.456C118.059 118.731 118.073 119.032 118.073 119.359V124H116.596V122.362L116.841 122.628C116.5 123.174 116.101 123.575 115.644 123.832C115.191 124.084 114.624 124.21 113.943 124.21ZM114.279 122.866C114.661 122.866 114.988 122.798 115.259 122.663C115.529 122.528 115.744 122.362 115.903 122.166C116.066 121.97 116.176 121.786 116.232 121.613C116.32 121.398 116.369 121.153 116.379 120.878C116.393 120.598 116.4 120.372 116.4 120.199L116.918 120.353C116.409 120.432 115.973 120.502 115.609 120.563C115.245 120.624 114.932 120.682 114.671 120.738C114.409 120.789 114.178 120.848 113.978 120.913C113.782 120.983 113.616 121.065 113.481 121.158C113.345 121.251 113.24 121.359 113.166 121.48C113.096 121.601 113.061 121.744 113.061 121.907C113.061 122.094 113.107 122.259 113.201 122.404C113.294 122.544 113.429 122.656 113.607 122.74C113.789 122.824 114.013 122.866 114.279 122.866Z" fill="#56BA50"/>
<path d="M22.7666 83.6013C23.6196 81.4838 27.0506 77.0778 32.9606 78.1134C38.8707 79.149 42.9753 80.5185 44.0387 81.4768C43.9332 82.3583 43.383 84.2133 42.0261 84.5811M42.0261 84.5811C40.3301 85.0408 36.4669 84.1505 34.6847 83.7478M42.0261 84.5811C46.3382 83.1827 55.2842 80.7021 56.5719 81.967C58.1814 83.5483 48.2057 91.2222 44.2099 91.9116C40.2142 92.601 36.4949 90.2446 33.879 90.2155C30.9725 90.1832 25.8396 91.1152 23.2716 91.5653" stroke="#56BA50" stroke-width="2" stroke-linecap="round"/>
<path d="M31.2615 77.7171L34.3312 58.4216H51.7764L53.8229 77.7171H31.2615Z" stroke="#56BA50" stroke-width="2"/>
<path d="M49.2549 58.1315C49.2549 54.6032 46.5535 51.7429 43.2212 51.7429C39.8889 51.7429 37.1875 54.6032 37.1875 58.1315" stroke="#56BA50" stroke-width="2"/>
<path d="M90 62H112V71H90V62Z" stroke="#56BA50" stroke-width="2" stroke-miterlimit="1.30541" stroke-linecap="round" stroke-linejoin="round"/>
<path d="M59.9641 55.8066V78.5603L70.0003 78.5603V64.7162L81.0003 64.7162V78.5603L119.922 78.5603V55.8066M76.9969 52.5855C76.9969 54.3645 75.5517 55.8066 73.7689 55.8066C71.9861 55.8066 70.5409 54.3645 70.5409 52.5855M76.9969 52.5855C76.9969 54.3645 78.4421 55.8066 80.2249 55.8066C82.0076 55.8066 83.4529 54.3645 83.4529 52.5855M76.9969 52.5855V45.6634M76.9969 52.5855V52.654M70.5409 52.5855C70.5409 54.3645 69.0957 55.8066 67.3129 55.8066C65.5301 55.8066 64.0849 54.3645 64.0849 52.5855M70.5409 52.5855V52.654M70.5409 52.5855V45.6634M89.9089 52.5855C89.9089 54.3645 88.4636 55.8066 86.6809 55.8066C84.8981 55.8066 83.4529 54.3645 83.4529 52.5855M89.9089 52.5855V45.6634M89.9089 52.5855V52.654M83.4529 52.5855V52.654M83.4529 52.5855V45.6634M64.0849 52.5855C64.0849 54.3645 62.6397 55.8066 60.8569 55.8066C59.0741 55.8066 57.6289 54.3645 57.6289 52.5855M64.0849 52.5855V45.6634M57.6289 52.5855V52.654M57.6289 52.5855V45.6634L61.8184 36H118.068L122.257 45.6634V52.5855M102.89 52.5855C102.89 54.3645 104.335 55.8066 106.118 55.8066C107.9 55.8066 109.346 54.3645 109.346 52.5855M102.89 52.5855C102.89 54.3645 101.444 55.8066 99.6615 55.8066C97.8788 55.8066 96.4335 54.3645 96.4335 52.5855M102.89 52.5855V45.6634M102.89 52.5855V52.654M109.346 52.5855C109.346 54.3645 110.791 55.8066 112.574 55.8066C114.356 55.8066 115.801 54.3645 115.801 52.5855M109.346 52.5855V52.654M109.346 52.5855V45.6634M89.9775 52.5855C89.9775 54.3645 91.4228 55.8066 93.2055 55.8066C94.9883 55.8066 96.4335 54.3645 96.4335 52.5855M89.9775 52.5855V45.6634M89.9775 52.5855V52.654M96.4335 52.5855V52.654M96.4335 52.5855V45.6634M115.801 52.5855C115.801 54.3645 117.247 55.8066 119.029 55.8066C120.812 55.8066 122.257 54.3645 122.257 52.5855M115.801 52.5855V45.6634M122.257 52.5855V52.654" stroke="#56BA50" stroke-width="2" stroke-miterlimit="1.30541" stroke-linecap="round" stroke-linejoin="round"/>
</svg>
