<svg width="576" height="586" viewBox="0 0 576 586" fill="none" xmlns="http://www.w3.org/2000/svg">
<rect x="1" y="1" width="574" height="584" rx="16" fill="#ffffff"/>
<rect x="1" y="1" width="574" height="584" rx="16" stroke="#56BA50" stroke-width="2"/>
<path d="M226 424C235.941 424 244 415.717 244 405.5C244 395.283 235.941 387 226 387C216.059 387 208 395.283 208 405.5C208 415.717 216.059 424 226 424Z" stroke="#56BA50" stroke-width="12" stroke-linecap="round" stroke-linejoin="round"/>
<path d="M361.5 424C371.717 424 380 415.717 380 405.5C380 395.283 371.717 387 361.5 387C351.283 387 343 395.283 343 405.5C343 415.717 351.283 424 361.5 424Z" stroke="#56BA50" stroke-width="12" stroke-linecap="round" stroke-linejoin="round"/>
<path d="M103 127H159.333L197.077 316.134C198.365 322.637 201.892 328.478 207.041 332.636C212.191 336.793 218.634 339.002 225.243 338.875H362.133C368.743 339.002 375.186 336.793 380.335 332.636C385.485 328.478 389.012 322.637 390.3 316.134L412.833 197.625H173.417" stroke="#56BA50" stroke-width="12" stroke-linecap="round" stroke-linejoin="round"/>
<path d="M196.462 520V485.44H211.054C211.39 485.44 211.838 485.456 212.398 485.488C212.974 485.504 213.486 485.552 213.934 485.632C215.998 485.952 217.686 486.632 218.998 487.672C220.326 488.712 221.302 490.024 221.926 491.608C222.55 493.176 222.862 494.928 222.862 496.864C222.862 498.8 222.542 500.56 221.902 502.144C221.278 503.712 220.302 505.016 218.974 506.056C217.662 507.096 215.982 507.776 213.934 508.096C213.486 508.16 212.974 508.208 212.398 508.24C211.822 508.272 211.374 508.288 211.054 508.288H202.99V520H196.462ZM202.99 502.192H210.766C211.102 502.192 211.47 502.176 211.87 502.144C212.27 502.112 212.638 502.048 212.974 501.952C213.854 501.712 214.534 501.312 215.014 500.752C215.494 500.176 215.822 499.544 215.998 498.856C216.19 498.152 216.286 497.488 216.286 496.864C216.286 496.24 216.19 495.584 215.998 494.896C215.822 494.192 215.494 493.56 215.014 493C214.534 492.424 213.854 492.016 212.974 491.776C212.638 491.68 212.27 491.616 211.87 491.584C211.47 491.552 211.102 491.536 210.766 491.536H202.99V502.192ZM239.26 520.72C236.604 520.72 234.26 520.152 232.228 519.016C230.212 517.864 228.628 516.288 227.476 514.288C226.34 512.272 225.772 509.968 225.772 507.376C225.772 504.544 226.332 502.08 227.452 499.984C228.572 497.888 230.116 496.264 232.084 495.112C234.052 493.944 236.316 493.36 238.876 493.36C241.596 493.36 243.908 494 245.812 495.28C247.716 496.56 249.124 498.36 250.036 500.68C250.948 503 251.268 505.728 250.996 508.864H244.54V506.464C244.54 503.824 244.116 501.928 243.268 500.776C242.436 499.608 241.068 499.024 239.164 499.024C236.94 499.024 235.3 499.704 234.244 501.064C233.204 502.408 232.684 504.4 232.684 507.04C232.684 509.456 233.204 511.328 234.244 512.656C235.3 513.968 236.844 514.624 238.876 514.624C240.156 514.624 241.252 514.344 242.164 513.784C243.076 513.224 243.772 512.416 244.252 511.36L250.78 513.232C249.804 515.6 248.26 517.44 246.148 518.752C244.052 520.064 241.756 520.72 239.26 520.72ZM230.668 508.864V504.016H247.852V508.864H230.668ZM266.927 520.72C264.543 520.72 262.455 520.12 260.663 518.92C258.871 517.72 257.471 516.088 256.463 514.024C255.471 511.96 254.975 509.632 254.975 507.04C254.975 504.4 255.479 502.056 256.487 500.008C257.511 497.944 258.943 496.32 260.783 495.136C262.623 493.952 264.783 493.36 267.263 493.36C269.727 493.36 271.799 493.96 273.479 495.16C275.159 496.36 276.431 497.992 277.295 500.056C278.159 502.12 278.591 504.448 278.591 507.04C278.591 509.632 278.151 511.96 277.271 514.024C276.407 516.088 275.111 517.72 273.383 518.92C271.655 520.12 269.503 520.72 266.927 520.72ZM267.983 514.912C269.439 514.912 270.599 514.584 271.463 513.928C272.343 513.272 272.975 512.352 273.359 511.168C273.743 509.984 273.935 508.608 273.935 507.04C273.935 505.472 273.743 504.096 273.359 502.912C272.975 501.728 272.359 500.808 271.511 500.152C270.679 499.496 269.583 499.168 268.223 499.168C266.767 499.168 265.567 499.528 264.623 500.248C263.695 500.952 263.007 501.904 262.559 503.104C262.111 504.288 261.887 505.6 261.887 507.04C261.887 508.496 262.103 509.824 262.535 511.024C262.967 512.208 263.631 513.152 264.527 513.856C265.423 514.56 266.575 514.912 267.983 514.912ZM273.935 520V502.24H273.119V485.44H279.695V520H273.935ZM286.895 490.48V484.72H293.423V490.48H286.895ZM286.895 520V494.08H293.423V520H286.895ZM311.13 520.72C308.746 520.72 306.658 520.12 304.866 518.92C303.074 517.72 301.674 516.088 300.666 514.024C299.674 511.96 299.178 509.632 299.178 507.04C299.178 504.4 299.682 502.056 300.69 500.008C301.714 497.944 303.146 496.32 304.986 495.136C306.826 493.952 308.986 493.36 311.466 493.36C313.93 493.36 316.002 493.96 317.682 495.16C319.362 496.36 320.634 497.992 321.498 500.056C322.362 502.12 322.794 504.448 322.794 507.04C322.794 509.632 322.354 511.96 321.474 514.024C320.61 516.088 319.314 517.72 317.586 518.92C315.858 520.12 313.706 520.72 311.13 520.72ZM312.186 514.912C313.642 514.912 314.802 514.584 315.666 513.928C316.546 513.272 317.178 512.352 317.562 511.168C317.946 509.984 318.138 508.608 318.138 507.04C318.138 505.472 317.946 504.096 317.562 502.912C317.178 501.728 316.562 500.808 315.714 500.152C314.882 499.496 313.786 499.168 312.426 499.168C310.97 499.168 309.77 499.528 308.826 500.248C307.898 500.952 307.21 501.904 306.762 503.104C306.314 504.288 306.09 505.6 306.09 507.04C306.09 508.496 306.306 509.824 306.738 511.024C307.17 512.208 307.834 513.152 308.73 513.856C309.626 514.56 310.778 514.912 312.186 514.912ZM318.138 520V502.24H317.322V485.44H323.898V520H318.138ZM342.282 520.72C339.674 520.72 337.386 520.136 335.418 518.968C333.45 517.8 331.914 516.192 330.81 514.144C329.722 512.08 329.178 509.712 329.178 507.04C329.178 504.336 329.738 501.96 330.858 499.912C331.978 497.848 333.522 496.24 335.49 495.088C337.458 493.936 339.722 493.36 342.282 493.36C344.89 493.36 347.178 493.944 349.146 495.112C351.13 496.28 352.674 497.896 353.778 499.96C354.882 502.008 355.434 504.368 355.434 507.04C355.434 509.728 354.874 512.104 353.754 514.168C352.65 516.216 351.106 517.824 349.122 518.992C347.154 520.144 344.874 520.72 342.282 520.72ZM342.282 514.624C344.378 514.624 345.938 513.92 346.962 512.512C348.002 511.088 348.522 509.264 348.522 507.04C348.522 504.736 347.994 502.896 346.938 501.52C345.898 500.144 344.346 499.456 342.282 499.456C340.858 499.456 339.69 499.776 338.778 500.416C337.866 501.056 337.186 501.944 336.738 503.08C336.306 504.216 336.09 505.536 336.09 507.04C336.09 509.36 336.61 511.208 337.65 512.584C338.706 513.944 340.25 514.624 342.282 514.624ZM370.136 520.72C366.872 520.72 364.232 519.984 362.216 518.512C360.216 517.024 359 514.928 358.568 512.224L365.24 511.216C365.512 512.432 366.112 513.384 367.04 514.072C367.984 514.76 369.176 515.104 370.616 515.104C371.8 515.104 372.712 514.88 373.352 514.432C373.992 513.968 374.312 513.328 374.312 512.512C374.312 512 374.184 511.592 373.928 511.288C373.672 510.968 373.096 510.656 372.2 510.352C371.32 510.048 369.944 509.648 368.072 509.152C365.96 508.608 364.272 508 363.008 507.328C361.744 506.656 360.832 505.856 360.272 504.928C359.712 503.984 359.432 502.848 359.432 501.52C359.432 499.856 359.856 498.416 360.704 497.2C361.552 495.968 362.744 495.024 364.28 494.368C365.832 493.696 367.656 493.36 369.752 493.36C371.784 493.36 373.584 493.672 375.152 494.296C376.72 494.92 377.984 495.808 378.944 496.96C379.92 498.112 380.52 499.472 380.744 501.04L374.072 502.24C373.96 501.28 373.544 500.52 372.824 499.96C372.104 499.4 371.128 499.072 369.896 498.976C368.696 498.896 367.728 499.056 366.992 499.456C366.272 499.856 365.912 500.432 365.912 501.184C365.912 501.632 366.064 502.008 366.368 502.312C366.688 502.616 367.336 502.928 368.312 503.248C369.304 503.568 370.808 503.984 372.824 504.496C374.792 505.008 376.368 505.608 377.552 506.296C378.752 506.968 379.624 507.784 380.168 508.744C380.712 509.688 380.984 510.832 380.984 512.176C380.984 514.832 380.024 516.92 378.104 518.44C376.184 519.96 373.528 520.72 370.136 520.72Z" fill="#56BA50"/>
</svg>
